<svg width="105" height="53" viewBox="0 0 105 53" fill="none" xmlns="http://www.w3.org/2000/svg">
<path d="M34.8237 40.0679C32.6439 43.1983 31.3392 46.8537 31.0443 50.6569C31.0132 51.1145 30.8101 51.5435 30.4757 51.8575C30.1413 52.1715 29.7005 52.3473 29.2417 52.3495H1.81636C1.57268 52.3488 1.33162 52.2992 1.10746 52.2036C0.883289 52.1081 0.680572 51.9685 0.511299 51.7932C0.342027 51.6179 0.209639 51.4104 0.121974 51.1831C0.0343095 50.9557 -0.00684983 50.7131 0.000928451 50.4695C0.387813 39.1731 4.42492 28.3062 11.5073 19.4972C11.662 19.304 11.8545 19.1444 12.073 19.0281C12.2915 18.9117 12.5314 18.8411 12.778 18.8206C13.0247 18.8 13.273 18.8299 13.5077 18.9085C13.7424 18.9871 13.9587 19.1127 14.1432 19.2776L34.5653 37.6775C34.8925 37.9758 35.0994 38.3835 35.1469 38.8238C35.1945 39.264 35.0796 39.7065 34.8237 40.0679Z" fill="#E2DEFF"/>
<path d="M50.2388 1.79517V29.3756C50.2372 29.8033 50.0847 30.2167 49.8081 30.5429C49.5315 30.8691 49.1486 31.0872 48.727 31.1587C45.6451 31.7036 42.7206 32.9188 40.1602 34.7185C39.8256 34.9585 39.4191 35.0771 39.008 35.0548C38.5969 35.0324 38.2056 34.8705 37.899 34.5958L17.3154 16.0602C17.127 15.89 16.9764 15.6822 16.8734 15.4502C16.7703 15.2182 16.7171 14.9671 16.7171 14.7132C16.7171 14.4593 16.7703 14.2083 16.8734 13.9762C16.9764 13.7442 17.127 13.5364 17.3154 13.3662C25.8801 5.61751 36.7677 0.91993 48.2812 0.00558173C48.5291 -0.0139039 48.7784 0.0177531 49.0136 0.0985933C49.2488 0.179433 49.4648 0.307732 49.6484 0.475529C49.8319 0.643326 49.979 0.847046 50.0806 1.07405C50.1822 1.30106 50.236 1.5465 50.2388 1.79517Z" fill="#E2DEFF"/>
<path d="M70.1763 40.0679C72.3561 43.1983 73.6608 46.8537 73.9558 50.6569C73.9868 51.1145 74.1899 51.5435 74.5243 51.8575C74.8587 52.1715 75.2996 52.3473 75.7583 52.3495H103.184C103.427 52.3488 103.668 52.2992 103.893 52.2036C104.117 52.1081 104.319 51.9685 104.489 51.7932C104.658 51.6179 104.79 51.4104 104.878 51.1831C104.966 50.9557 105.007 50.7131 104.999 50.4695C104.612 39.1731 100.575 28.3062 93.4927 19.4972C93.338 19.304 93.1455 19.1444 92.927 19.0281C92.7085 18.9117 92.4686 18.8411 92.222 18.8206C91.9753 18.8 91.727 18.8299 91.4923 18.9085C91.2576 18.9871 91.0413 19.1127 90.8568 19.2776L70.4347 37.6775C70.1075 37.9758 69.9007 38.3835 69.8531 38.8238C69.8055 39.264 69.9204 39.7065 70.1763 40.0679Z" fill="#E2DEFF"/>
<path d="M54.8387 1.61423V29.4789C54.837 29.8496 54.9653 30.2091 55.2015 30.4948C55.4376 30.7805 55.7665 30.9743 56.1309 31.0424C59.322 31.5801 62.3488 32.8373 64.9819 34.7185C65.2748 34.9277 65.6303 35.0308 65.9897 35.0109C66.3491 34.9909 66.691 34.849 66.9589 34.6087L87.7492 15.8728C87.9132 15.7233 88.0441 15.5412 88.1337 15.3382C88.2234 15.1352 88.2696 14.9157 88.2696 14.6938C88.2696 14.4719 88.2234 14.2524 88.1337 14.0494C88.0441 13.8463 87.9132 13.6642 87.7492 13.5147C79.1413 5.65274 68.1439 0.907087 56.5185 0.0378307C56.3036 0.0264922 56.0886 0.0587357 55.8865 0.132622C55.6844 0.206508 55.4993 0.320512 55.3424 0.467774C55.1855 0.615035 55.06 0.79251 54.9734 0.98953C54.8869 1.18655 54.8411 1.39904 54.8387 1.61423Z" fill="#907CFF"/>
<path d="M65.4794 29.2335C63.5412 33.9562 57.9011 47.7045 55.7368 50.6893C55.114 51.5825 54.1658 52.196 53.0959 52.398C52.0259 52.6001 50.9193 52.3746 50.0137 51.77C49.108 51.1654 48.4755 50.2299 48.2519 49.1642C48.0282 48.0985 48.2313 46.9876 48.8174 46.0699L49.0113 45.7986C51.2143 42.8396 61.3769 32.4445 64.9109 28.8588C64.9679 28.8037 65.042 28.7697 65.121 28.7624C65.1999 28.7551 65.279 28.7748 65.3452 28.8185C65.4114 28.8621 65.4608 28.927 65.4852 29.0024C65.5096 29.0779 65.5075 29.1594 65.4794 29.2335Z" fill="#2C2261"/>
</svg>
