<svg width="69" height="75" viewBox="0 0 69 75" fill="none" xmlns="http://www.w3.org/2000/svg">
<path d="M29.6464 72.8991C3.72733 59.4347 0.153735 32.0459 0.00042967 19.0362C-0.0186033 16.9867 0.595105 14.9813 1.75783 13.2935C2.92055 11.6057 4.57567 10.3177 6.49739 9.60527L30.8412 0.618422C33.0686 -0.206141 35.5177 -0.206141 37.7452 0.618422L62.0889 9.60527C64.0115 10.3164 65.6675 11.6041 66.8304 13.2922C67.9934 14.9803 68.6065 16.9864 68.5859 19.0362C68.4379 32.0301 64.8854 59.4188 38.9399 72.8832C37.5066 73.6342 35.9132 74.0279 34.2951 74.0306C32.677 74.0334 31.0822 73.6452 29.6464 72.8991Z" fill="#E2DEFF"/>
<path d="M38.1628 33.1562H30.4605C30.037 33.1562 29.6302 32.9902 29.3278 32.6936C29.0253 32.3971 28.8512 31.9937 28.8429 31.5702V20.4741C28.8429 19.0244 29.4188 17.6341 30.4439 16.609C31.469 15.5839 32.8593 15.008 34.309 15.008C35.7587 15.008 37.1491 15.5839 38.1742 16.609C39.1992 17.6341 39.7751 19.0244 39.7751 20.4741V31.5438C39.7737 31.971 39.6034 32.3803 39.3014 32.6824C38.9993 32.9844 38.59 33.1548 38.1628 33.1562ZM30.8623 31.1368H37.7346V20.4741C37.6667 19.6094 37.2752 18.802 36.6383 18.2131C36.0014 17.6243 35.1659 17.2972 34.2985 17.2972C33.431 17.2972 32.5955 17.6243 31.9586 18.2131C31.3217 18.802 30.9302 19.6094 30.8623 20.4741V31.1368Z" fill="#2C2261"/>
<path d="M34.2931 53.4822C41.922 53.4822 48.1064 47.2978 48.1064 39.6689C48.1064 32.04 41.922 25.8556 34.2931 25.8556C26.6643 25.8556 20.4798 32.04 20.4798 39.6689C20.4798 47.2978 26.6643 53.4822 34.2931 53.4822Z" fill="#907CFF"/>
<path d="M34.2932 40.9958C36.007 40.9958 37.3963 39.6065 37.3963 37.8927C37.3963 36.1789 36.007 34.7896 34.2932 34.7896C32.5794 34.7896 31.19 36.1789 31.19 37.8927C31.19 39.6065 32.5794 40.9958 34.2932 40.9958Z" fill="#2C2261"/>
<path d="M34.605 37.6971H33.9813C33.3477 37.6971 32.8341 38.2106 32.8341 38.8442V44.0513C32.8341 44.6848 33.3477 45.1984 33.9813 45.1984H34.605C35.2386 45.1984 35.7522 44.6848 35.7522 44.0513V38.8442C35.7522 38.2106 35.2386 37.6971 34.605 37.6971Z" fill="#2C2261"/>
</svg>
