<svg width="60" height="91" viewBox="0 0 60 91" fill="none" xmlns="http://www.w3.org/2000/svg">
<path d="M49.8992 29.041C49.866 29.2208 49.8496 29.4033 49.8501 29.5861C49.8501 29.8913 49.8501 30.3328 49.8992 30.8888V40.8416C49.786 42.1948 49.4528 43.5203 48.9126 44.7661C46.9613 48.7832 43.402 54.5446 43.5165 58.6107C43.631 62.6769 43.8926 67.5716 46.4271 72.1719L46.2418 72.2755C44.996 72.9596 43.5969 73.3159 42.1756 73.3111H15.6637C11.3959 73.3111 7.94016 70.2151 7.94016 66.3942V6.92231C7.94016 3.10686 11.3959 0 15.6637 0H42.1756C46.4435 0 49.8992 3.09596 49.8992 6.92231V29.041Z" fill="#907CFF"/>
<path d="M49.8992 23.9119V25.9396C49.8719 25.3236 49.8501 24.8494 49.8501 24.4897C49.8511 24.2961 49.8675 24.1029 49.8992 23.9119Z" fill="#907CFF"/>
<path d="M48.9126 41.4303C49.4531 40.0329 49.7855 38.5637 49.8992 37.0698V65.5821C49.9011 66.8606 49.5848 68.1195 48.9786 69.2452C48.3725 70.3709 47.4956 71.328 46.4271 72.0302C43.8926 66.8957 43.631 61.4069 43.5165 56.8992C43.402 52.3915 46.9613 45.9107 48.9126 41.4303Z" fill="#907CFF"/>
<path d="M7.94017 14.1935C7.94017 14.1935 14.5354 22.0206 15.2386 24.8004C15.9417 27.5802 16.0344 29.875 13.6034 30.6217C11.1724 31.3684 4.20648 31.0359 1.25223 23.2088C-1.70202 15.3817 6.35403 13.3105 7.94017 14.1935Z" fill="#E2DEFF"/>
<path d="M14.2248 30.3764C15.9074 31.689 17.2869 33.3493 18.2691 35.2438C19.6263 38.04 18.8142 40.3184 17.9366 41.1523C16.4868 42.4932 12.4151 41.9972 10.224 41.4085C8.03282 40.8198 3.84128 37.9092 1.66103 34.7424C-0.519231 31.5755 0.260212 29.1664 0.887036 27.9345C1.107 27.5541 1.40137 27.222 1.75255 26.9579C2.10373 26.6938 2.50454 26.5032 2.93103 26.3974" fill="#E2DEFF"/>
<path d="M2.44591 35.7726C2.44591 35.7726 0.810723 36.9608 0.385573 38.1109C-0.0395772 39.261 -0.393869 40.4219 0.930637 42.8202C2.25514 45.2185 6.02153 48.1891 8.14183 49.2411C10.2621 50.2931 14.9769 52.5115 17.7513 50.7019C20.5257 48.8922 18.2964 43.1963 16.792 41.7465" fill="#E2DEFF"/>
<path d="M3.69956 46.0416C3.69956 46.0416 2.77295 49.5245 4.40815 52.5278C6.04334 55.5311 9.5808 59.581 15.582 59.3793C21.5831 59.1776 20.1387 53.6507 17.5224 50.8381" fill="#E2DEFF"/>
<path d="M56.38 84.2124C56.38 84.2124 51.3436 87.8208 39.8482 89.7939C28.3528 91.767 25.7964 88.3985 25.7964 88.3985C24.8153 81.1546 20.5311 73.2839 20.5311 73.2839H42.1756C43.6122 73.2852 45.0206 72.885 46.2418 72.1284H46.4816C46.4816 72.0902 46.4435 72.0575 46.4271 72.0193C43.8926 66.8848 43.6309 61.396 43.5165 56.8884C43.402 52.3807 46.9613 45.9217 48.9126 41.4412C49.4531 40.0438 49.7855 38.5747 49.8992 37.0807C50.308 33.1999 50.0245 28.545 49.8992 25.9723C49.8719 25.3564 49.8501 24.8822 49.8501 24.5225C49.8511 24.3289 49.8675 24.1357 49.8992 23.9447C50.2862 21.5737 52.9134 18.3578 56.0911 22.9145C59.5359 27.8528 59.9393 37.0426 59.9992 45.4856C60.0592 53.9287 56.6089 65.7566 55.5188 71.556C54.4287 77.3555 56.38 84.2124 56.38 84.2124Z" fill="#E2DEFF"/>
<path d="M28.9197 36.7046C33.0438 36.7046 36.3871 33.3614 36.3871 29.2372C36.3871 25.1131 33.0438 21.7699 28.9197 21.7699C24.7956 21.7699 21.4523 25.1131 21.4523 29.2372C21.4523 33.3614 24.7956 36.7046 28.9197 36.7046Z" fill="#E2DEFF"/>
<path d="M27.8241 33.0581L24.5537 29.815C24.4019 29.661 24.3168 29.4534 24.3168 29.2372C24.3168 29.021 24.4019 28.8134 24.5537 28.6594C24.6293 28.583 24.7192 28.5223 24.8184 28.4808C24.9176 28.4394 25.024 28.418 25.1315 28.418C25.239 28.418 25.3454 28.4394 25.4446 28.4808C25.5437 28.5223 25.6337 28.583 25.7093 28.6594L27.8241 30.7416L32.1846 26.3811C32.2601 26.3046 32.3501 26.2439 32.4493 26.2025C32.5485 26.161 32.6549 26.1397 32.7624 26.1397C32.8699 26.1397 32.9763 26.161 33.0755 26.2025C33.1746 26.2439 33.2646 26.3046 33.3401 26.3811C33.4919 26.5351 33.577 26.7426 33.577 26.9588C33.577 27.1751 33.4919 27.3826 33.3401 27.5366L27.8241 33.0581Z" fill="#2C2261"/>
<path d="M11.3141 32.2133C9.06751 32.2459 6.8566 31.6493 4.93141 30.4909C3.66542 29.7388 2.56867 28.7329 1.71008 27.5366C1.59302 27.3535 1.55311 27.1316 1.59906 26.9192C1.64501 26.7068 1.77309 26.5212 1.95536 26.4029C2.04538 26.3443 2.14611 26.3042 2.25173 26.2849C2.35735 26.2655 2.46576 26.2673 2.57069 26.2901C2.67561 26.3129 2.77498 26.3563 2.86302 26.4177C2.95107 26.4792 3.02606 26.5575 3.08365 26.6482C3.23081 26.8716 6.71377 32.0279 14.4537 30.2129C14.6647 30.163 14.887 30.199 15.0715 30.313C15.256 30.427 15.3876 30.6096 15.4375 30.8206C15.4874 31.0317 15.4514 31.2539 15.3374 31.4384C15.2234 31.6229 15.0408 31.7546 14.8298 31.8045C13.6775 32.0755 12.4978 32.2126 11.3141 32.2133Z" fill="#2C2261"/>
<path d="M49.6267 78.5709C49.5075 78.571 49.3897 78.5453 49.2815 78.4954C49.1733 78.4455 49.0772 78.3727 48.9999 78.2821C43.7987 71.4896 41.3292 62.9959 42.0775 54.4737C42.0978 54.2568 42.2033 54.0569 42.371 53.9179C42.5386 53.7789 42.7546 53.7121 42.9714 53.7324C43.1883 53.7526 43.3882 53.8582 43.5272 54.0258C43.6662 54.1934 43.733 54.4094 43.7127 54.6263C42.47 67.8604 50.1499 77.1538 50.2535 77.2464C50.3235 77.3283 50.3767 77.4231 50.41 77.5256C50.4433 77.6281 50.456 77.7361 50.4474 77.8435C50.4388 77.9508 50.409 78.0555 50.3598 78.1513C50.3107 78.2472 50.243 78.3323 50.1608 78.402C50.007 78.517 49.8187 78.5766 49.6267 78.5709Z" fill="#2C2261"/>
<path d="M14.7971 43.4689C6.34312 43.4689 1.1214 36.7264 0.881575 36.3831C0.750748 36.2074 0.695053 35.987 0.726741 35.7703C0.758429 35.5536 0.874903 35.3583 1.05054 35.2275C1.22618 35.0967 1.4466 35.041 1.66331 35.0727C1.88001 35.1044 2.07525 35.2209 2.20608 35.3965C2.26604 35.4783 8.28355 43.2073 17.4188 41.5775C17.5262 41.5589 17.6362 41.5616 17.7425 41.5855C17.8488 41.6094 17.9494 41.654 18.0385 41.7168C18.1275 41.7795 18.2034 41.8592 18.2617 41.9513C18.3199 42.0434 18.3595 42.146 18.3781 42.2534C18.3967 42.3608 18.394 42.4707 18.3701 42.5771C18.3462 42.6834 18.3016 42.784 18.2389 42.873C18.1761 42.9621 18.0964 43.038 18.0043 43.0962C17.9123 43.1545 17.8096 43.1941 17.7023 43.2127C16.7435 43.385 15.7712 43.4708 14.7971 43.4689Z" fill="#2C2261"/>
<path d="M14.0939 53.002C7.46051 53.002 2.96373 47.7476 2.90923 47.6822C2.76973 47.5159 2.70198 47.3011 2.72089 47.0849C2.7398 46.8687 2.84382 46.6688 3.01006 46.5293C3.17631 46.3898 3.39116 46.3221 3.60735 46.341C3.82355 46.3599 4.02337 46.4639 4.16287 46.6302C4.4027 46.9191 10.1259 53.5634 18.0838 50.6364C18.1872 50.5865 18.2999 50.559 18.4146 50.5555C18.5294 50.5521 18.6435 50.5729 18.7497 50.6165C18.8559 50.6601 18.9517 50.7255 19.0309 50.8086C19.1101 50.8917 19.1709 50.9905 19.2094 51.0986C19.2479 51.2068 19.2631 51.3218 19.2542 51.4362C19.2453 51.5507 19.2124 51.6619 19.1577 51.7628C19.1029 51.8637 19.0275 51.9519 18.9364 52.0217C18.8453 52.0915 18.7405 52.1414 18.6289 52.168C17.1782 52.7112 15.6429 52.9936 14.0939 53.002Z" fill="#2C2261"/>
<path d="M38.878 66.7431H19.0159V68.3783H38.878V66.7431Z" fill="#E2DEFF"/>
</svg>
