<svg id="Layer_1" data-name="Layer 1" xmlns="http://www.w3.org/2000/svg" xmlns:xlink="http://www.w3.org/1999/xlink" viewBox="0 0 1351.52 942.88"><defs><style>.cls-1,.cls-18,.cls-30,.cls-4{fill:none;}.cls-2{fill:#d8d1ff;}.cls-3{fill:#fff;opacity:0.37;}.cls-4{stroke:#59403d;stroke-width:30px;}.cls-18,.cls-30,.cls-4{stroke-miterlimit:10;}.cls-5{fill:#fff1c0;}.cls-6{fill:#937965;}.cls-7{fill:#c7bea0;}.cls-8{fill:#45b279;}.cls-9{fill:#63b287;}.cls-10{fill:#315943;}.cls-11{fill:#b0a4ff;}.cls-12{fill:#4e4680;}.cls-13{clip-path:url(#clip-path);}.cls-14{fill:#59403d;}.cls-15{fill:#facf54;}.cls-16{fill:#f7f7f7;}.cls-17{fill:#ef5e95;}.cls-18{stroke:#000;stroke-width:9px;}.cls-18,.cls-30{stroke-linecap:round;}.cls-19{fill:#e9aa57;}.cls-20{fill:#f0eff0;}.cls-21{fill:#b27f7a;}.cls-22{fill:#4a3d33;}.cls-23{fill:#907cff;}.cls-24{fill:#d1b2af;}.cls-25{fill:#ffeeaf;}.cls-26{fill:#6ac294;}.cls-27{fill:#9087c2;}.cls-28{fill:#6c5dbf;}.cls-29{fill:#483e80;}.cls-30{stroke:#b27f7a;stroke-width:10px;}.cls-31{fill:#e8e8e8;}.cls-32{fill:#855f5c;}</style><clipPath id="clip-path"><path class="cls-1" d="M75.12,386.85S-133,649.74,164.29,835.22s980.93,72.63,980.93,72.63,315.09-89.56,166.46-414.12S723.12,25.2,723.12,25.2,381.29-118.34,75.12,386.85Z"/></clipPath></defs><title>art</title><path class="cls-2" d="M73.82,386.85S-134.25,649.74,163,835.22C414.09,991.9,940.91,935.7,1098.48,914.47c57.14-7.7,111.49-30.15,156.4-66.32,73.11-58.87,141-167.8,55.51-354.42C1161.76,169.16,721.83,25.2,721.83,25.2S380-118.34,73.82,386.85Z"/><path class="cls-3" d="M3,595.7s128.81-136.18,257-9.09S553.61,308.8,553.61,308.8s119.28-159.73,356,147.94c0,0,151.84,108.35,200.61,67.72s131-74.13,212.25-2c0,0,130.18,279.26-177.28,385.42,0,0-498.56,79.14-784.24,0C361,907.85,25.32,860.71,3,595.7Z"/><line class="cls-4" x1="597.79" y1="642.68" x2="1184.9" y2="642.68"/><rect class="cls-5" x="611.76" y="254.11" width="547.26" height="371.55" rx="18.1"/><path class="cls-6" d="M652.26,415.46a11.47,11.47,0,0,0-2.47,6.33C648,443,638.32,566.11,653.34,566.11s11.58-123.92,10.9-144.52a11.3,11.3,0,0,0-2.63-7.07C659.54,412.14,656.3,410.53,652.26,415.46Z"/><path class="cls-7" d="M657.67,381.66a1.07,1.07,0,0,0-1.74.58,16.55,16.55,0,0,1-4.33,8.4c-7.19,6.87-6.23,24.1,7.85,25.45,9.86,1,11.39-10.84,11.42-18a28,28,0,0,0-1.3-8.32,51.22,51.22,0,0,1-2.21-18.52.49.49,0,0,0-.9-.33c-1.88,3.06-5.45,10-5.09,18.38A11.54,11.54,0,0,0,657.67,381.66Z"/><path class="cls-8" d="M657.67,381.66a1.07,1.07,0,0,0-1.74.58,16.55,16.55,0,0,1-4.33,8.4c-7.19,6.87,19.24,14.61,19.27,7.46a28,28,0,0,0-1.3-8.32,51.22,51.22,0,0,1-2.21-18.52.49.49,0,0,0-.9-.33c-1.88,3.06-5.45,10-5.09,18.38A11.54,11.54,0,0,0,657.67,381.66Z"/><line class="cls-4" x1="885.39" y1="133.07" x2="885.39" y2="254.11"/><rect class="cls-9" x="703.58" y="334.53" width="230.47" height="142.94" rx="7.38" transform="translate(-43.3 102.58) rotate(-6.98)"/><rect class="cls-10" x="700.04" y="360.99" width="230.47" height="32.23" transform="translate(-39.81 101.94) rotate(-6.98)"/><rect class="cls-11" x="861.7" y="445.34" width="192.41" height="119.34" rx="7.38" transform="translate(118.92 -179.62) rotate(11.42)"/><rect class="cls-12" x="866.51" y="467.73" width="192.41" height="26.9" transform="translate(114.3 -181.05) rotate(11.42)"/><g class="cls-13"><polygon class="cls-14" points="979.77 632.84 1102.89 949.02 1029.28 949.02 904.66 631.79 979.77 632.84"/><polygon class="cls-14" points="793.99 626.7 670.87 942.88 744.49 942.88 869.11 625.66 793.99 626.7"/><rect class="cls-15" x="423.2" y="841.8" width="27.1" height="79.26"/><path class="cls-15" d="M514.76,928.65c0,7.86-3.78,14.23-8.42,14.23H398.93c-4.65,0-8.42-6.37-8.42-14.23h0c0-7.86,3.77-14.23,8.42-14.23H506.34c4.64,0,8.42,6.37,8.42,14.23Z"/><rect class="cls-15" x="280.26" y="846.71" width="27.1" height="74.35"/><path class="cls-15" d="M215.8,928.65c0,7.86,3.77,14.23,8.42,14.23H331.63c4.64,0,8.42-6.37,8.42-14.23h0c0-7.86-3.78-14.23-8.42-14.23H224.22c-4.65,0-8.42,6.37-8.42,14.23Z"/><path class="cls-16" d="M542,768.86c-25.21,54.86-76.56,94.79-173,94.79-93.9,0-145.7-38.93-172.82-92.23C154.72,690,170.82,575,182.13,513.89c3.53-19.19,6.59-33.09,7.27-38.92,20.46-180.85,109.48-220.13,164-220.84C467.66,252.66,510.21,338.28,531,457.3c1,5.8,6.59,24.38,12.83,50.62C559.47,573.73,579.38,687.68,542,768.86Z"/><path class="cls-15" d="M383.14,410.18s-12.6,25.16-22.05,27.48c-9.94-2.32-22-27.48-22-27.48s13-9.81,21.8-9.81S383.14,410.18,383.14,410.18Z"/><path class="cls-17" d="M375.07,503.94c-4.16,1.57-9.7-4.83-14-15.23-4.26,10.4-9.83,16.8-14,15.23-5.5-2.05-6.53-17-2.37-33.52,3.74-14.83,10.44-25.71,15.77-26.31a2,2,0,0,1,.67-.08c5.4,0,12.4,11.11,16.27,26.39C381.64,486.9,380.57,501.89,375.07,503.94Z"/><path class="cls-18" d="M408.71,390.58s16.19-14.72,31.65.73"/><path class="cls-18" d="M277.68,390.58s16.19-14.72,31.65.73"/><path class="cls-15" d="M382.87,409.62s-12.6,25.15-22.05,27.48c-9.93-2.33-22-27.48-22-27.48s13-9.82,21.79-9.82S382.87,409.62,382.87,409.62Z"/><polygon class="cls-19" points="382.87 409.62 360.13 405.55 338.79 409.62 360.62 428.61 382.87 409.62"/><path class="cls-20" d="M556.15,650.61S792,335.47,539.41,507.92"/><path class="cls-21" d="M224.63,553.47s-3.55-19.94,18.32-20.41,253.1,0,253.1,0,15.56-3,20.6,29S527.49,639.84,563,671c0,0-4.15,50.06,2,97.91a46.82,46.82,0,0,1-39.75,52.42c-66.92,9.65-195.43,19.69-344.62-11.83a27.94,27.94,0,0,1-22.11-29.67l10.68-125.95S248.59,673.86,224.63,553.47Z"/><path class="cls-22" d="M318.77,631.49s4.29,40.61,94.37,39.45c51.23-.66,66.39-19.51,69.93-35.64,3.13-14.29-4.66-28.53-18.39-35.17-11.56-5.6-29.18-10.11-53.38-5.76C362.89,603.07,314.48,606.55,318.77,631.49Z"/><path class="cls-23" d="M369.45,625.24c-7-4.33-3.66-14.48,4.84-14.34h.31c10.5.34,12.5-2.15,12.5-2.15s8.49-7,12.87,0c3.11,5-.74,10.48-3.22,13.22a11,11,0,0,1-4,2.75C388.1,626.56,377.2,630,369.45,625.24Z"/><path class="cls-24" d="M409.74,608a4.3,4.3,0,0,1,1.07-2.93c1.82-2.25,6.48-6.22,15.69-4.38S435,608.05,434,611a5.66,5.66,0,0,1-2.76,3c-2.92,1.58-8.73,3.93-14.62,1.76S409.82,610,409.74,608Z"/><path class="cls-25" d="M446.84,612.16a9.24,9.24,0,0,1,5.41-5.64c3.75-1.48,9.22-1.83,14.43,4.53,9.16,11.18,8.75,22,8.75,22s-2.69,19.54-22.9,10.11-10.78-22-10.78-22A28.37,28.37,0,0,0,446.84,612.16Z"/><path class="cls-26" d="M418.34,658.06a13.6,13.6,0,0,1-5.43-.07c-4.15-1-10.6-3.78-11.66-11.37-1.59-11.34-4.12-26.09,9.67-17.19,10.46,6.76,18.76,11.38,22.16,13.21a14.9,14.9,0,0,0,3.1,1.25c3.32,1,10.91,3.93,7.57,10.51C439.87,662,425.83,656.87,418.34,658.06Z"/><path class="cls-27" d="M366.35,638.25s-1-5.79,13.73-6.45,12.46,20.05,12.46,20.05-10.36,12.94-19.9,2.1S369.94,644.4,366.35,638.25Z"/><path class="cls-17" d="M361.5,271.22s-86.89,15.26-46.57,28.45c0,0,15.37,3.3,46.57-12.29,0,0,15.87,19.47,34.77,12.58S402,277.24,361.5,271.22Z"/><path class="cls-28" d="M263.18,301.29s-32.94-.56-27.09-37.43S287.81,232,287.81,232s69.81,7.81,119.49-28.09S483.06,234,483.06,234s21.61,65-39.21,61.64-66.73-30.17-134-7.7C309.89,287.89,272.72,303.09,263.18,301.29Z"/><path class="cls-29" d="M338.79,188.39c0,8.89.9,39.22,10.4,51.62a3.88,3.88,0,0,0,3.08,1.54h1.67a3.83,3.83,0,0,0,3.79-4.43c-1.54-9.86-4.46-34.28.51-53.13a3.82,3.82,0,0,0-5.27-4.45l-11.92,5.35A3.81,3.81,0,0,0,338.79,188.39Z"/><path class="cls-30" d="M191.27,489.18s41.92,11.45,71.39,53.66"/><path class="cls-30" d="M473.07,550.06s18.18-37.44,64.48-60.39"/><path class="cls-31" d="M181.49,517.08s400.72,169.53-12.13,120.45C169.36,637.53,167.37,570.49,181.49,517.08Z"/><circle class="cls-32" cx="262.66" cy="546.05" r="6.82"/><circle class="cls-32" cx="479.89" cy="546.05" r="6.82"/></g></svg>