<svg id="Layer_1" data-name="Layer 1" xmlns="http://www.w3.org/2000/svg" xmlns:xlink="http://www.w3.org/1999/xlink" viewBox="0 0 4091.69 2478.83"><defs><style>.cls-1,.cls-11,.cls-13,.cls-18,.cls-5,.cls-7,.cls-9{fill:none;}.cls-2{fill:#826ffe;}.cls-2,.cls-22,.cls-23{isolation:isolate;}.cls-15,.cls-3{fill:#fff;}.cls-3{opacity:0.23;}.cls-4{clip-path:url(#clip-path);}.cls-5{stroke:#fff;stroke-width:300px;}.cls-11,.cls-13,.cls-18,.cls-5,.cls-7,.cls-9{stroke-miterlimit:10;}.cls-6{clip-path:url(#clip-path-2);}.cls-7{stroke:#70b170;}.cls-11,.cls-13,.cls-7,.cls-9{stroke-width:187px;}.cls-8{clip-path:url(#clip-path-3);}.cls-9{stroke:#a9d0a9;}.cls-10{clip-path:url(#clip-path-4);}.cls-11{stroke:#ffebab;}.cls-12{clip-path:url(#clip-path-5);}.cls-13{stroke:#ef5e95;}.cls-14{clip-path:url(#clip-path-6);}.cls-16{fill:#facf54;}.cls-17{fill:#ef5e95;}.cls-18{stroke:#000;stroke-linecap:round;stroke-width:20px;}.cls-19{fill:#e9aa57;}.cls-20{clip-path:url(#clip-path-7);}.cls-21{fill:#ffe9aa;}.cls-22{fill:#d0cefe;}.cls-23{fill:#8471fe;}</style><clipPath id="clip-path"><path class="cls-1" d="M25.09,813.69A364,364,0,0,1,82.38,674.34C177,535.92,438.29,236.76,997.43,97.31c539.71-134.61,1051.65-60,1289.92-9.61a1675.25,1675.25,0,0,1,194.89,53.75c141.52,48.37,522.37,168.63,758.16,148.87,294-24.64,422.82,45.17,422.82,45.17s469.12,240.93,391.34,822.33-192.48,1002.58-1789,1244.8c-401.69,61-727.08,70.66-983.55,55.87C472.92,2411.82-117.39,1657.77,19.87,843.27Q22.36,828.56,25.09,813.69Z"/></clipPath><clipPath id="clip-path-2"><path class="cls-1" d="M3422.07,2108.7s240.73-109.28,318.55-196.85c0,0,70.82-660.51-318.55-1005.18L3080.3,1212.76Z"/></clipPath><clipPath id="clip-path-3"><path class="cls-1" d="M2097.19,699.7s2.32-369,10.65-516.55c0,0,949.83,177.32,1290.6,649.82l-356,340.6Z"/></clipPath><clipPath id="clip-path-4"><path class="cls-1" d="M2036.36,697.18s-4.73-314.76,0-479.7c0,0-1039.17,131.39-1405.54,658.3l418.32,336Z"/></clipPath><clipPath id="clip-path-5"><path class="cls-1" d="M709.06,2283.57s-227.24-113.75-431.39-390.88c0,0,70.73-486.94,311.24-975.89l396.88,314.58Z"/></clipPath><clipPath id="clip-path-6"><path class="cls-1" d="M621,2229.25s466.71,480.43,2034.51,108.16l-68.67-1210.93L1604,401,668,1414.49Z"/></clipPath><clipPath id="clip-path-7"><path class="cls-1" d="M4070.71,1161c-77.79,581.39-192.48,1002.58-1789,1244.81-401.69,60.94-727.08,70.65-983.56,55.86C489.07,2415,4148.49,579.59,4070.71,1161Z"/></clipPath></defs><title>howlanding</title><path class="cls-2" d="M41.24,813.69A364,364,0,0,1,98.53,674.34c94.58-138.42,355.9-437.58,915-577,539.72-134.61,1051.66-60,1289.92-9.61a1674.16,1674.16,0,0,1,194.89,53.75c141.53,48.37,522.38,168.63,758.17,148.87,294-24.64,422.82,45.17,422.82,45.17s469.12,240.93,391.34,822.33-192.48,1002.58-1789,1244.8c-401.69,61-727.08,70.66-983.56,55.87C489.07,2411.82-101.25,1657.77,36,843.27Q38.5,828.56,41.24,813.69Z"/><path class="cls-3" d="M1001.15,552.87c678.23,55.63,1364.11,435.37,1428,457.2,141.52,48.38,486.21,168.92,850-62.9,297.25-189.43,817-230.67,791.62,207.21-30.6,527.15-200.93,1023.2-1789,1244.81-402.39,56.15-727.08,70.65-983.56,55.86C489.07,2408.38-101.25,1654.33,36,839.83,37.67,830,426.81,505.76,1001.15,552.87Z"/><g class="cls-4"><circle class="cls-5" cx="2031.63" cy="2028.99" r="1549.81"/><g class="cls-6"><circle class="cls-7" cx="2031.48" cy="2028.99" r="1549.81"/></g><g class="cls-8"><circle class="cls-9" cx="2030.48" cy="2029.46" r="1549.81"/></g><g class="cls-10"><circle class="cls-11" cx="2035.78" cy="2028.15" r="1549.81"/></g><g class="cls-12"><circle class="cls-13" cx="2035.78" cy="2028.15" r="1549.81"/></g></g><g class="cls-14"><path class="cls-15" d="M2168,2335.14c-69.95,152.23-212.45,263-480.15,263-260.58,0-404.31-108-479.57-255.93-115.13-225.93-70.44-545.11-39.06-714.66,9.81-53.28,18.31-91.85,20.18-108,56.79-501.88,303.81-610.89,455.06-612.85,317.13-4.09,435.2,233.53,492.81,563.82,2.79,16.09,18.31,67.66,35.63,140.46C2216.41,1793.63,2271.65,2109.86,2168,2335.14Z"/><path class="cls-16" d="M1727.07,1339.78s-35,69.8-61.17,76.26c-27.58-6.46-61.16-76.26-61.16-76.26s36-27.24,60.48-27.24S1727.07,1339.78,1727.07,1339.78Z"/><path class="cls-17" d="M1704.7,1600c-11.57,4.37-26.93-13.41-38.77-42.26-11.84,28.85-27.29,46.63-38.85,42.26-15.27-5.7-18.14-47.29-6.58-93,10.37-41.15,29-71.34,43.76-73a5.42,5.42,0,0,1,1.85-.23c15,0,34.43,30.86,45.15,73.24C1722.92,1552.67,1720,1594.26,1704.7,1600Z"/><path class="cls-18" d="M1798,1285.38s44.94-40.86,87.84,2"/><path class="cls-18" d="M1434.42,1285.38s44.94-40.86,87.84,2"/><path class="cls-16" d="M1726.33,1338.22s-35,69.8-61.17,76.27c-27.58-6.47-61.16-76.27-61.16-76.27s36-27.25,60.48-27.25S1726.33,1338.22,1726.33,1338.22Z"/><polygon class="cls-19" points="1726.33 1338.22 1663.22 1326.91 1604 1338.22 1664.58 1390.92 1726.33 1338.22"/><path class="cls-15" d="M1136.42,1963s-663.87-887.13,47.12-401.69"/><path class="cls-15" d="M2210.68,1963s663.87-887.13-47.11-401.69"/><path class="cls-17" d="M1769,836c-.24.24-.4.48-.65.73s-.41.41-.58.66c-21.32,23.78-44.28,41.75-63.56,50.9-98.63,55.57-112.6-71.74-114.07-88.33.08-.08,0-.17,0-.25a521.34,521.34,0,0,1-6.46-83.67c0-97.07,23.94-175.68,53.44-175.68s53.44,78.61,53.44,175.68c0,39.31-3.92,75.75-10.63,105a277,277,0,0,1,28-37.17c39.63-44.37,85.14-68.32,101.65-53.53C1826,744.91,1807.82,792.06,1769,836Z"/></g><g class="cls-20"><path class="cls-21" d="M3000.91,2110.72c0,257.57-160.75,461.77-393,461.77s-396-204.2-396-461.77,168.39-467.91,400.63-467.91S3000.91,1853.15,3000.91,2110.72Z"/><path class="cls-15" d="M3000.91,2110.72c0,257.57-160.75,461.77-393,461.77s-396-204.2-396-461.77l64.22,73,100.92-73.4,121.56,164,149.09-162.85,74.55,102.06,84.86-150.23,120.42,118.12Z"/><path class="cls-16" d="M2655.5,1896.1s-38,10.88-67.45,18.13c-31-7.25-69.9-18.13-69.9-18.13s40.08-43.8,67.6-43.8S2655.5,1896.1,2655.5,1896.1Z"/><path d="M2449.46,1850.46c0,20.55-11.67,37.22-26.07,37.22s-26.07-16.67-26.07-37.22,11.67-37.22,26.07-37.22S2449.46,1829.9,2449.46,1850.46Z"/><path d="M2783.65,1851.5c0,20.57-11.66,37.21-26.07,37.21s-26.07-16.64-26.07-37.21,11.67-37.22,26.07-37.22S2783.65,1830.94,2783.65,1851.5Z"/><path class="cls-21" d="M2245.83,1923.14S1957.36,2202,2222,2091.63"/><path class="cls-21" d="M2967.22,1927s298.38,268.19,29.89,167.52"/><path class="cls-21" d="M2608.77,1570.09c3.11-44.85,21-80.17,39.94-78.84s45.69,42,28.71,83.59c-15.4,37.78-33.75,80.21-39.94,78.86C2618.9,1649.69,2605.67,1615,2608.77,1570.09Z"/></g><rect class="cls-22" x="2393.97" y="1178.99" width="428.69" height="279.82" rx="35.33"/><rect class="cls-23" x="2393.97" y="1246.02" width="428.69" height="55.4"/></svg>