<svg id="Layer_1" data-name="Layer 1" xmlns="http://www.w3.org/2000/svg" viewBox="0 0 1227.16 852.8"><defs><style>.cls-1{fill:#d8d1ff;}.cls-2{fill:#e4e1ff;}.cls-3{fill:#f0eff0;}.cls-4{fill:#ef5e95;}.cls-5{fill:#facf54;}.cls-6{fill:#bfb8ff;}.cls-10,.cls-11,.cls-15,.cls-17,.cls-18,.cls-7,.cls-8{fill:none;stroke-linecap:round;}.cls-7,.cls-8{stroke:#8578ff;}.cls-11,.cls-15,.cls-17,.cls-18,.cls-7,.cls-8{stroke-miterlimit:10;}.cls-7{stroke-width:31px;}.cls-8{stroke-width:15px;}.cls-9{fill:#8578ff;}.cls-10{stroke:#4f4c4d;stroke-linejoin:round;stroke-width:5px;}.cls-11,.cls-18{stroke:#d8d1ff;}.cls-11{stroke-width:23px;}.cls-12{fill:#6f7385;}.cls-13{fill:#f3f4f6;}.cls-14{fill:#c3c7d3;}.cls-15{stroke:#535664;stroke-width:9px;}.cls-16{fill:#7b7979;}.cls-17{stroke:#e5e4e4;}.cls-18{stroke-width:28px;}</style></defs><title>sport</title><path class="cls-1" d="M101,689S361.65,915.48,755.5,787s447.09-272.72,447.09-272.72,115.51-273.7-343.84-440.2S1.23,205.17,10.64,410.46,101,689,101,689Z"/><circle class="cls-2" cx="939.27" cy="502.54" r="145.52"/><path class="cls-1" d="M939.43,649.7h0a150.26,150.26,0,0,1-35.51-4.29,149.38,149.38,0,1,1,70.78-290.25c80,19.51,129.23,100.5,109.74,180.51A149,149,0,0,1,939.43,649.7Zm-.26-284.86a135.45,135.45,0,1,0,131.69,167.53c17.66-72.53-27-145.95-99.48-163.64A136.2,136.2,0,0,0,939.17,364.84Z"/><path class="cls-1" d="M1011.18,630.18c-.21,0-.41,0-.62,0a7,7,0,0,1-6.35-7.56c14.4-168.11-139.09-237.51-140.65-238.19a7,7,0,1,1,5.62-12.79c1.64.72,164.21,74.21,148.94,252.18A7,7,0,0,1,1011.18,630.18Z"/><path class="cls-1" d="M798.29,487.57a6.92,6.92,0,0,1-3.11-.73,7,7,0,0,1-3.14-9.36C808.22,444.94,842.77,447,876.19,449c26,1.55,52.95,3.14,72.35-10.76,41.31-29.59,14-72,12.8-73.82a7,7,0,0,1,11.65-7.7c12.59,19.06,25.38,63-16.32,92.87-23.43,16.78-54.16,15-81.3,13.36-31.55-1.86-58.74-3.47-70.83,20.8A7,7,0,0,1,798.29,487.57Z"/><path class="cls-1" d="M883.77,638.37a7,7,0,0,1-1.06-13.88c28.3-4.38,43.94-30.89,60.5-59,13.6-23.07,27.68-46.93,49.85-57.68,40.3-19.55,75.88,8.85,89.07,26.59a7,7,0,0,1-11.2,8.34c-1.29-1.72-31.94-41.75-71.77-22.35-18.37,8.91-30.8,29.93-43.92,52.2-17.49,29.63-35.55,60.27-70.39,65.66A7.94,7.94,0,0,1,883.77,638.37Z"/><path class="cls-1" d="M819,583.32a7,7,0,0,1-3.71-12.9l241.36-151a7,7,0,0,1,7.42,11.84l-241.36,151A7,7,0,0,1,819,583.32Z"/><circle class="cls-2" cx="250.03" cy="332.1" r="143.64"/><path class="cls-1" d="M250,483.37c-83.41,0-151.26-67.86-151.26-151.27S166.61,180.84,250,180.84,401.3,248.69,401.3,332.1,333.43,483.37,250,483.37Zm0-283.54c-72.94,0-132.28,59.33-132.28,132.27S177.09,464.38,250,464.38,382.29,405,382.29,332.1,323,199.83,250,199.83Z"/><path class="cls-1" d="M236.83,344.29c-93.43,0-121.44-79.38-121.78-80.22l18-6.09-9,3,9-3.06c1.07,3,26.06,72.21,112.74,67.11,8.67-20.1,42.46-81.16,132.48-74.07l-1.53,18.94C285,262.67,261.84,336.06,261.62,336.8l-1.87,6.12-6.34.59C247.66,344.06,242.15,344.29,236.83,344.29Z"/><path class="cls-1" d="M260.29,479.32l-15.55-10.91c52.57-74.89,3.22-125.5,1.09-127.64l13.38-13.46C259.86,328,321.93,391.52,260.29,479.32Z"/><path class="cls-1" d="M171.81,315.92l-11.94-4.24c.41-1.06,38.91-105.57,160.81-108.69l.3,12.63C208,218.53,173.24,312,171.81,315.92Z"/><path class="cls-1" d="M326.66,457.47,315,452.36C361.57,347,296.57,281.25,295.89,280.61l8.91-9C305.52,272.3,376.61,344.19,326.66,457.47Z"/><path class="cls-1" d="M254.53,415.12c-35.87,0-103.25-9-151.23-69.62l9.9-7.84c63.24,79.8,162.88,63.54,163.92,63.37l2.17,12.48A170.09,170.09,0,0,1,254.53,415.12Z"/><path class="cls-3" d="M569.06,72.06c-63.34.82-166.75,46.45-190.55,256.6C373.7,371.13,259,780.28,587.21,780.28c344,0,194.31-437,188.18-472.15C751.29,169.83,701.83,70.35,569.06,72.06Z"/><path class="cls-4" d="M619.31,130.24c0-.07-.11-.12-.16-.19s-.09-.12-.15-.17c-5.24-6.28-9-12.76-10.57-18C598,84.87,630.74,86,635,86.22c0,0,0,0,.06,0a134.38,134.38,0,0,1,21.44,1.43c24.61,3.55,43.66,12.5,42.58,20s-21.89,10.67-46.49,7.11a123.77,123.77,0,0,1-26.23-6.54,70.9,70.9,0,0,1,8.4,8.47c9.8,11.67,14.2,24.08,9.85,27.73S629,141.69,619.31,130.24Z"/><path d="M504.29,249.4c0,9.91-5.64,18-12.59,18s-12.58-8.05-12.58-18,5.63-18,12.58-18S504.29,239.47,504.29,249.4Z"/><path class="cls-5" d="M603.63,253.39S589,282.61,578,285.32c-11.55-2.71-25.61-31.93-25.61-31.93S567.47,242,577.73,242,603.63,253.39,603.63,253.39Z"/><path class="cls-4" d="M594.26,362.33c-4.84,1.83-11.27-5.62-16.23-17.7-5,12.08-11.43,19.53-16.27,17.7-6.39-2.39-7.59-19.81-2.75-38.95,4.34-17.23,12.13-29.87,18.32-30.58a2.43,2.43,0,0,1,.78-.09c6.27,0,14.41,12.92,18.9,30.67C601.89,342.52,600.65,359.94,594.26,362.33Z"/><path class="cls-3" d="M482.36,242.54a4.63,4.63,0,1,1,4.63,4.63A4.63,4.63,0,0,1,482.36,242.54Z"/><path d="M673.2,249.4c0,9.91-5.63,18-12.58,18S648,259.31,648,249.4s5.63-18,12.58-18S673.2,239.47,673.2,249.4Z"/><path class="cls-3" d="M651.27,242.54a4.64,4.64,0,1,1,4.64,4.63A4.64,4.64,0,0,1,651.27,242.54Z"/><path class="cls-3" d="M357.68,499.3S88.87,140.1,376.76,336.66"/><path class="cls-3" d="M798.28,499.3s268.81-359.2-19.08-162.64"/><path class="cls-6" d="M542.92,7.19s-76.17,12.4-73.33,101.3l85.27-16.94,86.63-7.38C619.55-2,542.92,7.19,542.92,7.19Z"/><path class="cls-7" d="M478.91,114.63S550.2,87,632.4,92.92"/><path class="cls-8" d="M532.21,9.11a16.82,16.82,0,0,1,6-1"/><path class="cls-9" d="M533.54,28.1l18.15-2.57c8.8-1.25,15.71,3.95,16.84,11.93s-4.07,14.88-12.87,16.13l-5.78.81,1.48,10.46L539,66.61Zm19.27,15.23a3.62,3.62,0,1,0-1-7.15l-4.4.62,1,7.15Z"/><path class="cls-9" d="M382.56,314.28s194.21,160,395.08-6.15c0,0,80.12,164.38,12.4,363.07,0,0-217.17,35.79-405.9-2.44C384.14,668.76,299.44,507.65,382.56,314.28Z"/><path class="cls-1" d="M526.67,459.8l71.39-.68c34.62-.33,58.64,23.25,58.94,54.61s-23.27,55.4-57.89,55.73l-22.71.22.39,41.1-48.68.47Zm66.64,68.6c8.66-.08,15.08-6.62,15-14.2s-6.62-14-15.27-13.92l-17.31.17.27,28.11Z"/><path class="cls-10" d="M780.3,327.66S727.05,667,243.67,277.85c0,0,27.14-13.05,138.26,54.28"/><path class="cls-11" d="M384.14,668.76S579.81,714.5,790.83,662"/><rect class="cls-12" x="892.21" y="132.36" width="204.94" height="290.99" rx="8.48" transform="translate(25.57 -79.09) rotate(4.61)"/><rect class="cls-13" x="912.02" y="157.08" width="165.28" height="242" rx="5.74" transform="translate(25.58 -79.09) rotate(4.61)"/><path class="cls-14" d="M1068.62,161l-5.09-8.26a8.66,8.66,0,0,0-6.59-4.29l-22.29-1.79c-3.24-.27-5.87-3.08-6.44-6.87l-.47-3.15c-.56-3.78-3.18-6.58-6.41-6.84l-9.85-.79-9.52-.77-9.86-.8c-3.23-.26-6.26,2.08-7.42,5.73l-1,3c-1.17,3.65-4.22,6-7.46,5.74L954,140.17a8.61,8.61,0,0,0-7.19,3.17l-6.35,7.34c-2.29,2.64-1,7.17,2.16,7.42l56.6,4.57,9.52.77,56.61,4.56C1068.43,168.25,1070.46,164,1068.62,161Z"/><line class="cls-15" x1="941.43" y1="181.89" x2="1062.63" y2="191.67"/><line class="cls-15" x1="939.14" y1="210.22" x2="1060.34" y2="220"/><line class="cls-15" x1="936.85" y1="238.56" x2="1058.05" y2="248.33"/><line class="cls-15" x1="934.57" y1="266.89" x2="1014.96" y2="273.37"/><path class="cls-16" d="M171.59,247.69h72.59a3.24,3.24,0,0,1,2.29.95c24.71,24.74-.67,56.73-24.55,40.57a4.51,4.51,0,0,1-.89-.8c-6.11-7.26-7.75-14.28-7-20.52a3,3,0,0,0-2.86-3.41H171.59a3,3,0,0,1-2.89-3.1V250.79A3,3,0,0,1,171.59,247.69Z"/><path class="cls-17" d="M248.37,264.76s7.28,13.64-8.64,21.83"/><line class="cls-17" x1="243.67" y1="254.96" x2="246" y2="259.69"/><path class="cls-5" d="M493.91,766.34v59.78s16,.74,33.8.22V775.13S505.89,769.67,493.91,766.34Z"/><path class="cls-5" d="M657,773.15v39.47s19.33-3.77,32.2-6.94V763.49S680.51,766.22,657,773.15Z"/><path class="cls-18" d="M775.05,321.22S590.8,459.67,386.8,319.86"/></svg>