<svg width="44" height="60" viewBox="0 0 44 60" fill="none" xmlns="http://www.w3.org/2000/svg">
<g clip-path="url(#clip0)">
<path d="M16.7672 57.9418L19.9374 37.6588C19.9701 37.4435 19.9556 37.2236 19.8948 37.0144C19.8341 36.8053 19.7286 36.6118 19.5857 36.4475C19.4428 36.2831 19.2659 36.1518 19.0672 36.0626C18.8685 35.9734 18.6527 35.9285 18.435 35.931H8.9245C8.41504 35.9314 7.91599 35.7867 7.48578 35.5138C7.05557 35.2409 6.71199 34.8511 6.49525 34.3901C6.27851 33.929 6.19758 33.4157 6.26194 32.9104C6.32629 32.405 6.53327 31.9284 6.85864 31.5364L30.0488 3.6285C30.2964 3.32916 30.6355 3.11943 31.0139 3.03155C31.3923 2.94368 31.7891 2.98252 32.1433 3.14211C32.4975 3.30171 32.7894 3.57322 32.9743 3.91489C33.1591 4.25657 33.2266 4.64951 33.1664 5.03329L30.0038 25.3613C29.9723 25.5761 29.9877 25.7951 30.049 26.0034C30.1102 26.2116 30.2159 26.4041 30.3587 26.5676C30.5015 26.7311 30.678 26.8617 30.8761 26.9504C31.0742 27.0391 31.2891 27.0839 31.5062 27.0816H41.0091C41.518 27.0826 42.016 27.2284 42.4451 27.5018C42.8742 27.7753 43.2167 28.1652 43.4325 28.6259C43.6483 29.0867 43.7286 29.5994 43.664 30.1041C43.5993 30.6088 43.3925 31.0847 43.0675 31.4763L19.8923 59.3465C19.6431 59.6435 19.3038 59.851 18.9259 59.9376C18.548 60.0241 18.1521 59.9849 17.7985 59.8259C17.4449 59.667 17.1529 59.397 16.9667 59.0569C16.7806 58.7168 16.7106 58.3253 16.7672 57.9418Z" fill="#ADABFF"/>
<path fill-rule="evenodd" clip-rule="evenodd" d="M0 17.5035C0 16.4663 0.840832 15.6255 1.87805 15.6255H6.67835C7.71557 15.6255 8.55641 16.4663 8.55641 17.5035C8.55641 18.5408 7.71557 19.3816 6.67835 19.3816H1.87805C0.840832 19.3816 0 18.5408 0 17.5035Z" fill="#7360E6"/>
<path fill-rule="evenodd" clip-rule="evenodd" d="M5.34286 5.03493C6.07628 4.30151 7.2654 4.30151 7.99882 5.03493L11.3943 8.43045C12.1278 9.16387 12.1278 10.353 11.3943 11.0864C10.6609 11.8198 9.4718 11.8198 8.73837 11.0864L5.34286 7.6909C4.60943 6.95747 4.60943 5.76836 5.34286 5.03493Z" fill="#7360E6"/>
<path fill-rule="evenodd" clip-rule="evenodd" d="M17.9316 0C18.9689 0 19.8097 0.840832 19.8097 1.87805V6.67835C19.8097 7.71557 18.9689 8.5564 17.9316 8.5564C16.8944 8.5564 16.0536 7.71557 16.0536 6.67835V1.87805C16.0536 0.840832 16.8944 0 17.9316 0Z" fill="#7360E6"/>
</g>
<defs>
<clipPath id="clip0">
<rect width="43.691" height="60" fill="white"/>
</clipPath>
</defs>
</svg>
