<svg width="61" height="60" viewBox="0 0 61 60" fill="none" xmlns="http://www.w3.org/2000/svg">
<g clip-path="url(#clip0)">
<path d="M46.9253 15.8046L46.7313 25.4526L46.6451 29.806L46.5302 35.431C46.5069 36.6354 46.0176 37.7839 45.1652 38.635L25.2658 58.5345C24.3239 59.4689 23.0509 59.9932 21.7241 59.9932C20.3974 59.9932 19.1244 59.4689 18.1825 58.5345L1.43679 41.8175C0.504548 40.8759 -0.0184021 39.6045 -0.0184021 38.2794C-0.0184021 36.9544 0.504548 35.683 1.43679 34.7414L21.3721 14.8348C22.2233 13.9824 23.3718 13.4931 24.5762 13.4698L30.2083 13.3549L34.5546 13.2687L44.1882 13.0747C44.5489 13.0679 44.9073 13.1338 45.242 13.2685C45.5767 13.4032 45.8808 13.6039 46.1362 13.8587C46.3917 14.1134 46.5932 14.417 46.7287 14.7513C46.8643 15.0857 46.9312 15.4439 46.9253 15.8046Z" fill="#ADABFF"/>
<path d="M33.9799 31.049C36.7532 31.049 39.0015 28.8007 39.0015 26.0274C39.0015 23.2541 36.7532 21.0059 33.9799 21.0059C31.2066 21.0059 28.9583 23.2541 28.9583 26.0274C28.9583 28.8007 31.2066 31.049 33.9799 31.049Z" fill="#7360E6"/>
<path d="M55.6322 25.5101C53.225 27.9428 50.0491 29.466 46.6451 29.8204L46.7313 25.467C49.1369 25.0891 51.339 23.8942 52.967 22.0834C54.0731 20.8539 54.8774 19.3835 55.3159 17.7889C55.7545 16.1943 55.8153 14.5194 55.4935 12.8972C55.1717 11.275 54.4761 9.75011 53.462 8.44367C52.448 7.13724 51.1433 6.0852 49.6516 5.37108C48.1599 4.65695 46.5223 4.3004 44.8687 4.32974C43.2152 4.35909 41.5912 4.7735 40.1258 5.5401C38.6604 6.3067 37.3939 7.40436 36.4268 8.74595C35.4597 10.0875 34.8187 11.6361 34.5546 13.2687L30.2083 13.3549C30.4625 10.9785 31.2831 8.69771 32.6011 6.704C33.919 4.71028 35.696 3.06179 37.7829 1.89687C39.8697 0.731961 42.2056 0.0846127 44.5944 0.00915867C46.9831 -0.0662954 49.3552 0.432346 51.5114 1.46323C53.6676 2.49412 55.5451 4.02718 56.9863 5.93375C58.4275 7.84031 59.3903 10.0648 59.794 12.4204C60.1976 14.776 60.0304 17.1941 59.3062 19.4718C58.5821 21.7494 57.3222 23.8201 55.6322 25.5101Z" fill="#7360E6"/>
<path d="M34.4828 14.066L30.1724 13.7211C30.1797 13.5983 30.1941 13.476 30.2155 13.3548L34.5618 13.2686C34.4828 13.5344 34.4828 13.8002 34.4828 14.066Z" fill="#ADABFF"/>
<path d="M46.7313 25.4526L46.6451 29.806C46.1203 29.8636 45.5927 29.8924 45.0647 29.8922C42.507 29.8881 39.9931 29.2282 37.7631 27.9755C35.5332 26.7229 33.6617 24.9192 32.3276 22.7371L33.6494 21.9325C34.2617 21.5669 34.9795 21.419 35.6864 21.5129C36.3932 21.6068 37.0476 21.9369 37.5431 22.4497C38.5277 23.4419 39.6996 24.2285 40.9909 24.7638C42.2821 25.299 43.6669 25.5722 45.0647 25.5675C45.6224 25.5726 46.1796 25.5342 46.7313 25.4526Z" fill="#7360E6"/>
</g>
<defs>
<clipPath id="clip0">
<rect width="60.0072" height="60" fill="white"/>
</clipPath>
</defs>
</svg>
