<svg width="46" height="60" viewBox="0 0 46 60" fill="none" xmlns="http://www.w3.org/2000/svg">
<g clip-path="url(#clip0)">
<path fill-rule="evenodd" clip-rule="evenodd" d="M25.8588 5.90192C24.8322 5.47626 23.732 5.25754 22.6211 5.25824L22.6195 2.62912V5.25824C20.3768 5.25824 18.2259 6.15127 16.6401 7.74088C15.0543 9.3305 14.1634 11.4865 14.1634 13.7345V19.2241H31.0825V13.7345C31.0825 12.6209 30.8636 11.5183 30.4383 10.4895C30.013 9.46081 29.3897 8.52616 28.6039 7.73899C27.8181 6.95183 26.8853 6.32758 25.8588 5.90192ZM22.6178 2.29071e-06C18.9845 0.000441741 15.5 1.44742 12.9308 4.02275C10.3613 6.59847 8.91769 10.0919 8.91769 13.7345V24.4824H36.3282V13.7345C36.3282 11.9301 35.9735 10.1435 35.2844 8.47654C34.5953 6.80963 33.5852 5.29516 32.312 4.01968C31.0388 2.7442 29.5273 1.73271 27.8639 1.04299C26.201 0.353488 24.419 -0.0009189 22.6195 1.78924e-06C22.6189 1.78924e-06 22.6184 2.29071e-06 22.6178 2.29071e-06Z" fill="#7360E6"/>
<path d="M22.6195 60.0001C35.1118 60.0001 45.2389 49.8488 45.2389 37.3266C45.2389 24.8044 35.1118 14.6531 22.6195 14.6531C10.1271 14.6531 0 24.8044 0 37.3266C0 49.8488 10.1271 60.0001 22.6195 60.0001Z" fill="#ADABFF"/>
<path d="M22.6194 41.4068C25.5784 41.4068 27.9771 39.0024 27.9771 36.0364C27.9771 33.0704 25.5784 30.666 22.6194 30.666C19.6605 30.666 17.2618 33.0704 17.2618 36.0364C17.2618 39.0024 19.6605 41.4068 22.6194 41.4068Z" fill="#7360E6"/>
<path fill-rule="evenodd" clip-rule="evenodd" d="M22.6195 33.4075C24.068 33.4075 25.2423 34.5846 25.2423 36.0366V43.987C25.2423 45.4391 24.068 46.6162 22.6195 46.6162C21.1709 46.6162 19.9966 45.4391 19.9966 43.987V36.0366C19.9966 34.5846 21.1709 33.4075 22.6195 33.4075Z" fill="#7360E6"/>
</g>
<defs>
<clipPath id="clip0">
<rect width="45.2459" height="60" fill="white"/>
</clipPath>
</defs>
</svg>
