<svg id="Layer_1" data-name="Layer 1" xmlns="http://www.w3.org/2000/svg" viewBox="0 0 2588.01 2550.28"><defs><style>.cls-1,.cls-11,.cls-12,.cls-8{fill:none;}.cls-2{fill:#8471fe;}.cls-3{fill:#ffe9aa;}.cls-4{fill:#facf54;}.cls-5{fill:#d4d2d7;}.cls-6{fill:#f0eff0;}.cls-7{fill:#ef5e95;}.cls-8{stroke:#000;stroke-width:15px;}.cls-11,.cls-12,.cls-8{stroke-linecap:round;}.cls-11,.cls-8{stroke-miterlimit:10;}.cls-9{fill:#e9aa57;}.cls-10{fill:#fff;}.cls-11,.cls-12{stroke:#fff;}.cls-11{stroke-width:21px;}.cls-12{stroke-linejoin:round;stroke-width:27px;}</style></defs><title>aboutlanding</title><rect class="cls-1" x="-318.51" y="895.88" width="1040.43" height="1832.76"/><circle class="cls-2" cx="1282.73" cy="1280.89" r="1244.3"/><path class="cls-3" d="M446.75,1656.75c0-173.47,93.21-254.83,266.68-254.83s223.23,99.14,223.23,272.61S879,1920.46,705.53,1920.46,446.75,1830.21,446.75,1656.75Z"/><path class="cls-4" d="M760,1636.64s-24.56,7-43.57,11.71c-20-4.69-45.15-11.71-45.15-11.71s25.89-28.29,43.67-28.29S760,1636.64,760,1636.64Z"/><path d="M609.1,1601.23c0,13.28-7.54,24-16.84,24s-16.84-10.76-16.84-24,7.54-24,16.84-24S609.1,1588,609.1,1601.23Z"/><path d="M830.9,1596c0,13.27-7.54,24-16.84,24s-16.84-10.77-16.84-24,7.54-24,16.84-24S830.9,1582.71,830.9,1596Z"/><path class="cls-3" d="M465.52,1678.47s-144.21,215.32,7.9,109.64"/><path class="cls-3" d="M935.12,1653.77s144.13,215.38-8,109.63"/><path class="cls-3" d="M667.56,1360.88c2-29,13.56-51.79,25.8-50.94s29.51,27.11,18.54,54c-9.94,24.38-21.8,51.79-25.8,50.93C674.11,1412.28,665.56,1389.85,667.56,1360.88Z"/><rect class="cls-4" x="1391.39" y="1240.69" width="39.37" height="115.12"/><path class="cls-4" d="M1524.38,1366.84c0,11.42-5.48,20.67-12.23,20.67h-156c-6.76,0-12.23-9.25-12.23-20.67h0c0-11.42,5.47-20.67,12.23-20.67h156c6.75,0,12.23,9.25,12.23,20.67Z"/><rect class="cls-4" x="1183.77" y="1247.82" width="39.37" height="107.99"/><path class="cls-4" d="M1090.14,1366.84c0,11.42,5.48,20.67,12.23,20.67h156c6.75,0,12.23-9.25,12.23-20.67h0c0-11.42-5.48-20.67-12.23-20.67h-156c-6.75,0-12.23,9.25-12.23,20.67Z"/><path class="cls-5" d="M1044.46,744.36s-114.92,159-111.35,211.41c4,59.17,107.56,133.29,107.56,133.29"/><path class="cls-5" d="M1568.77,746.58s117.55,157.11,114.84,209.53c-3.06,59.22-105.34,135.06-105.34,135.06"/><path class="cls-6" d="M1564,1134.75c-36.61,79.67-111.2,137.67-251.32,137.67-136.39,0-211.62-56.54-251-134-60.26-118.26-36.87-285.32-20.45-374.07,5.14-27.88,9.59-48.07,10.57-56.54,29.72-262.69,159-319.74,238.19-320.77,166-2.14,227.79,122.24,257.93,295.11,1.47,8.43,9.59,35.42,18.66,73.52C1589.33,851.31,1618.24,1016.83,1564,1134.75Z"/><path class="cls-7" d="M1355.15,350.09l-.34.38c-.08.13-.22.21-.3.34-11.16,12.45-23.18,21.86-33.27,26.65-51.63,29.08-58.94-37.55-59.71-46.24,0,0,0-.08,0-.13a272.86,272.86,0,0,1-3.38-43.79c0-50.81,12.53-92,28-92s28,41.15,28,92c0,20.57-2,39.65-5.56,55a145.72,145.72,0,0,1,14.67-19.46c20.75-23.22,44.57-35.76,53.21-28S1375.47,327.08,1355.15,350.09Z"/><path class="cls-7" d="M1321.49,749.94c-6,2.29-14.09-7-20.29-22.12-6.2,15.1-14.29,24.41-20.33,22.12-8-3-9.5-24.75-3.45-48.69,5.42-21.54,15.16-37.34,22.91-38.21a2.83,2.83,0,0,1,1-.12c7.84,0,18,16.15,23.63,38.33C1331,725.19,1329.48,747,1321.49,749.94Z"/><path class="cls-8" d="M1226,577.16s-23.52,21.39-46-1.07"/><path class="cls-8" d="M1416.32,577.16s-23.52,21.39-46-1.07"/><path class="cls-4" d="M1268.63,624.16s18.3-36.53,32-39.92c14.43,3.39,32,39.92,32,39.92s-18.82,14.26-31.65,14.26S1268.63,624.16,1268.63,624.16Z"/><polygon class="cls-9" points="1332.82 624.35 1299.78 618.43 1268.79 624.35 1298.01 624.14 1332.82 624.35"/><path class="cls-10" d="M2032.64,1456.37s-97.72-137.43-255.76,20.09-111.51,440.26,104.39,458S2177.13,1647,2032.64,1456.37Z"/><path class="cls-11" d="M2134,1757.68s9.15,99.8-80,158.08"/><path class="cls-11" d="M1705.28,1465.67s34.8-49.27,88.45-61.36"/><path class="cls-12" d="M1843.3,641.55s137.22,106.25,212.41,276.22c65.83,148.82,72.37,266.73,71.19,318.94"/><polygon class="cls-10" points="2013.3 1148.42 2032.87 1129.78 2124.57 1226.29 2214.13 1127.78 2234.11 1145.97 2125.01 1265.93 2013.3 1148.42"/><path class="cls-12" d="M1626.84,2054s-153.25,81.47-339.11,80.19c-162.71-1.11-272.91-43.58-320-66.1"/><polygon class="cls-10" points="1094.87 2000.79 1103.82 2026.29 978.16 2070.25 1031.19 2192.38 1006.39 2203.12 941.84 2054.37 1094.87 2000.79"/><path class="cls-12" d="M461,1260.79s-5-173.48,78.55-339.49C612.71,776,699.65,696,740.74,663.8"/><polygon class="cls-10" points="744.65 807.63 717.83 804.34 734.17 672.22 601.19 665.58 602.57 638.59 764.52 646.71 744.65 807.63"/></svg>