<?xml version="1.0" encoding="utf-8"?>
<!-- Generator: Adobe Illustrator 16.0.0, SVG Export Plug-In . SVG Version: 6.00 Build 0)  -->
<!DOCTYPE svg PUBLIC "-//W3C//DTD SVG 1.1//EN" "http://www.w3.org/Graphics/SVG/1.1/DTD/svg11.dtd">
<svg version="1.1" xmlns="http://www.w3.org/2000/svg" xmlns:xlink="http://www.w3.org/1999/xlink" x="0px" y="0px" width="1140px"
	 height="1120px" viewBox="0 0 1140 1120" enable-background="new 0 0 1140 1120" xml:space="preserve">
<g id="Layer_1">
	
		<image overflow="visible" width="976" height="1130" xlink:href="../Desktop/Screen Shot 2020-06-11 at 4.19.29 PM.png"  transform="matrix(0.5 0 0 0.5 2168 -272)">
	</image>
	
		<image overflow="visible" width="994" height="1108" xlink:href="../Desktop/Screen Shot 2020-06-11 at 4.19.10 PM.png"  transform="matrix(0.5 0 0 0.5 2096 424)">
	</image>
	
		<image overflow="visible" width="1504" height="1344" xlink:href="../Desktop/Screen Shot 2020-06-11 at 4.18.52 PM.png"  transform="matrix(0.5 0 0 0.5 1384 -180)">
	</image>
</g>
<g id="Layer_3">
</g>
<g id="Layer_2">
	<g>
		<path fill="#ACCBF9" d="M-3706.115,572.021c0,106.44-32.59,205.27-88.35,287.04c-2.53,3.73-5.12,7.421-7.76,11.08
			c-5.85,8.11-11.93,16.051-18.24,23.79c-87.1,107.03-216.76,178.061-363.18,187.34c-2.489,0.16-4.989,0.301-7.489,0.421h-0.04
			c-5.7,0.27-11.4,0.46-17.11,0.55c-2.021,0.029-4.04,0.05-6.061,0.06c-2.029,0-4.06,0-6.09-0.01c-3.52-0.03-7.04-0.09-10.55-0.2
			c-2.83-0.07-5.66-0.18-8.49-0.3c-2.51-0.11-5.02-0.24-7.529-0.39h-0.061c-147.28-8.74-277.74-79.931-365.27-187.471
			c-6.141-7.55-12.08-15.279-17.79-23.18c-2.76-3.81-5.47-7.67-8.12-11.56c-55.81-81.8-88.43-180.681-88.43-287.17
			c0-281.82,228.46-510.27,510.28-510.27C-3934.574,61.751-3706.115,290.201-3706.115,572.021z"/>
		<g>
			<path fill="#303030" d="M-3820.464,893.931c-87.1,107.03-216.76,178.061-363.18,187.34c-2.489,0.16-4.989,0.301-7.489,0.421
				h-0.04c-5.7,0.27-11.4,0.46-17.11,0.55c-2.021,0.029-4.04,0.05-6.061,0.06c-2.029,0-4.06,0-6.09-0.01
				c-3.52-0.03-7.04-0.09-10.55-0.2c-2.83-0.07-5.66-0.18-8.49-0.3c-2.51-0.11-5.02-0.24-7.529-0.39h-0.061
				c-147.28-8.74-277.74-79.931-365.27-187.471c14.79-17.109,37.55-37.979,70.76-65.319c13.71-11.29,44.01-23.261,77.7-34.12
				c53.83-17.34,116.31-31.88,133.54-36.37h228.88c16.899,4.57,81.07,19.54,135.439,37.3c32.48,10.61,61.471,22.22,74.79,33.19
				C-3858.014,855.951-3835.254,876.821-3820.464,893.931z"/>
			<path fill="#F7D1C1" d="M-4099.661,630.729c0,0-0.09,7.93-0.271,20.46c-0.13,9.149-0.3,20.74-0.51,33.49
				c-0.79,46.96-2.14,109.51-3.87,122.59c-2.58,7.67-6.45,14.43-11.34,20.35c-21.521,26.1-62.771,35.98-99.93,35.76
				c-40.28-0.229-86.631-23.049-104.32-49.43c-2.01-2.99-3.65-6.029-4.87-9.09c-2.39-13.811-2.29-69.32-1.74-115.36
				c0.12-10.189,0.261-19.92,0.41-28.63c0.351-22.02,0.72-37.52,0.72-37.52c1.271,1.3,2.561,2.59,3.891,3.84
				c8.1,7.68,17.37,14.46,27.77,22.17c13.58,10.04,44.45,30.149,73.65,30.189c0,0,26.47,3.91,57.71-9.63
				c16.729-7.26,34.59-16.47,50.67-30.05C-4108.302,637.029-4102.861,633.999-4099.661,630.729z"/>
			<path fill="#E5BFB2" d="M-4372.341,480.947c0,0-8.997-17.837-20.236-12.63c-11.239,5.208-3.734,35.803,0.021,46.508
				c3.615,10.305,8.191,19.353,11.583,40.627c3.393,21.274,6.816,26.212,27.597,32.165
				C-4332.596,593.569-4372.341,480.947-4372.341,480.947z"/>
			<path fill="#D6B4AA" d="M-4369.26,503.479c0,0-13.186,3.633-9.021,26.162c0,0-0.006,13.281,13.111,19.539
				C-4352.051,555.438-4369.26,503.479-4369.26,503.479z"/>
			
				<ellipse transform="matrix(-0.9726 -0.2325 0.2325 -0.9726 -8748.1328 102.9824)" fill="#191211" cx="-4367.998" cy="566.97" rx="4.64" ry="5.368"/>
			<path fill="#E5BFB2" d="M-4061.505,480.968c0,0,8.667-18,20-13s4.393,35.728,0.835,46.5c-3.426,10.369-7.835,19.5-10.835,40.833
				s-6.333,26.333-27,32.667C-4099.172,594.301-4061.505,480.968-4061.505,480.968z"/>
			<path fill="#D6B4AA" d="M-4064.171,503.551c0,0,13.25,3.391,9.5,25.992c0,0,0.25,13.279-12.75,19.777
				S-4064.171,503.551-4064.171,503.551z"/>
			
				<ellipse transform="matrix(0.9682 -0.2503 0.2503 0.9682 -271.2312 -999.0532)" fill="#191211" cx="-4064.265" cy="567.056" rx="4.64" ry="5.368"/>
			<path fill="#E5BFB2" d="M-4099.972,651.249c-10.569,16.23-20.2,25.05-20.2,25.05c-49,56-93,47.5-93,47.5c-31,1-61-18.5-98.5-48
				c-5.159-4.06-9.819-8.949-14.01-14.369c-0.14-0.19-0.29-0.37-0.42-0.561c-0.149,8.71-0.29,18.44-0.41,28.63
				c0.82,0.69,1.641,1.37,2.471,2.021c42.13,33.14,73.399,52.319,108.59,52.319c0.37,0,0.739,0,1.109-0.01
				c1.83,0.22,4.49,0.43,7.841,0.43c19.85,0,59.27-7.05,100.75-54.069c1.069-1.03,2.92-2.87,5.31-5.51
				c0.21-12.75,0.38-24.341,0.51-33.49C-4099.941,651.209-4099.962,651.229-4099.972,651.249z"/>
			<path fill="#F7D1C1" d="M-4060.842,453.299c-2.159,86-12.33,127.5-12.33,127.5c-2.609,33.36-15.26,52.79-26.8,70.45
				c-10.569,16.23-20.2,25.05-20.2,25.05c-49,56-93,47.5-93,47.5c-31,1-61-18.5-98.5-48c-5.159-4.06-9.819-8.949-14.01-14.369
				c-26.31-33.96-34.49-81.631-34.49-81.631c-6.5-32.5-8.5-130-8.5-130l5.171-58.17l87.329-58l162.671,12l47.329,16
				L-4060.842,453.299z"/>
			<path fill="none" stroke="#E8BCB5" stroke-width="20" stroke-linecap="round" stroke-miterlimit="10" d="M-4174.505,631.302
				c-43.75,29.5-80.166,1.999-80.166,1.999"/>
			<path fill="#E8BCB5" d="M-4286.984,618.28c0,0,4.2-15.255,59.138-18.156c3.108-0.164,8.698,1.33,12.125,1.25
				c3.294,0.124,8.142-1.349,11.375-1c8.435,0.912,16.176,3.052,35.176,8.261c9.638,2.642,16,4.833,29.375,8.791L-4286.984,618.28z"
				/>
			<g>
				<circle fill="#140D0C" cx="-4140.825" cy="487.153" r="13.351"/>
			</g>
			<path fill="none" stroke="#E1BCB0" stroke-width="12" stroke-linecap="round" stroke-miterlimit="10" d="M-4159.615,496.551
				c0,0,19.777,4.75,42.25,1.5"/>
			<path fill="#634E4B" d="M-4176.365,459.384c-0.75-4.083-1.354-14.638,1.667-17.999c17.333-2.084,50.933-8.239,64-7.333
				c18,1.249,29.083,22.999,29.083,22.999s-32.417-6.083-65-1.5C-4155.099,456.744-4162.865,457.801-4176.365,459.384z"/>
			<path fill="none" stroke="#E5BFB2" stroke-width="12" stroke-linecap="round" stroke-miterlimit="10" d="M-4202.671,570.801
				c0,0,12-7.5,18-3.5"/>
			<path fill="none" stroke="#E5BFB2" stroke-width="12" stroke-linecap="round" stroke-miterlimit="10" d="M-4229.171,570.801
				c0,0-12-7.5-18-3.5"/>
			<path fill="none" stroke="#E5BFB2" stroke-width="12" stroke-linecap="round" stroke-miterlimit="10" d="M-4202.671,474.801
				c0,0,0,38,1.5,42.5s3.5,16.5,14,21.5"/>
			<path fill="#F7E1BC" d="M-4064.171,515.968c0,0,25.083-104.5,25.75-145.167l7.25,3c0,0-8.5-45.25-33-65.75l9.332-0.417
				c0,0-12.832-35.833-71.332-48.833c0,0-29.5-5.5-61-26s-101.835-12.208-123.335,20.167c0,0,5.667,0.667,11.335,2.333
				c-22.75,9.5-20.538,8.439-45,21.5c-20.5,13.625-41.5,24.5-57,67.5c0,0,5.332-1,11-1.5c-12.25,11.25-20,48.001-20,51.501
				c0,1.018,6-1.333,12-3c5.896,22.813,11.093,84.982,32.366,128.947c0,0-3.366-60.948,0.134-87.448l5-11c0,0,32-19.333,54-44.833
				c0,0-1.5,12.833-6.25,25.083c20.5-2,25.25-3,64-30.25c0,0,1.75,25,13.25,45c0,0,18.167-47.5,75.5-68.5
				c0,0-6.333,12.667-11,21.334c0,0,52-6.334,70-16.334c0,0-2.5,15,0,22.5c0,0,13.333-8.833,21.5-15
				C-4079.671,360.801-4060.17,428.634-4064.171,515.968z"/>
			<path fill="none" stroke="#E5BFB2" stroke-width="6" stroke-linecap="round" stroke-miterlimit="10" d="M-4143.377,609.382
				c0,0,6.884,3.955,5.939,11.556"/>
			<path fill="#FFFFFF" d="M-4160.191,617.001l-3.479,8.13c-8.5,0.16-43.17,3.34-43.17,3.34c-9.83,1.33-19.83-0.17-19.83-0.17
				l-40.83-3.33l-4.65-9.96c0.5-0.08,0.99-0.149,1.48-0.21c14.17-1.83,33.529-3.51,53.67-3.17c9.1,0.15,12.45,0.42,36.21,3.67
				C-4177.121,615.801-4169.531,616.441-4160.191,617.001z"/>
			<g>
				<circle fill="#140D0C" cx="-4293.766" cy="487.153" r="13.351"/>
			</g>
			<path fill="none" stroke="#E1BCB0" stroke-width="12" stroke-linecap="round" stroke-miterlimit="10" d="M-4274.975,496.551
				c0,0-19.778,4.75-42.25,1.5"/>
			<path fill="#634E4B" d="M-4258.226,459.384c0.751-4.083,1.354-14.638-1.666-17.999c-17.333-2.084-50.934-8.239-64-7.333
				c-18,1.249-29.083,22.999-29.083,22.999s32.416-6.083,65-1.5C-4279.492,456.744-4271.725,457.801-4258.226,459.384z"/>
			<path fill="#F7D1C1" d="M-4271.839,623.301L-4271.839,623.301z"/>
			<path fill="#AA8B7E" d="M-4140.001,617.301c0,0-5.24,3.21-15.351,7.84c0,0.011,0,0.011,0,0.021c-0.27,0.11-2.989,1.46-6.52,3.06
				l-1.8-3.09l3.479-8.13c2.011,0.12,4.09,0.24,6.24,0.35C-4150.151,617.641-4145.642,616.921-4140.001,617.301z"/>
			<path fill="#AA8B7E" d="M-4267.501,624.971l-2.57,2.86c-0.78-0.33-1.54-0.66-2.27-1.01c0,0,0-0.011,0-0.021
				c-5.721-2.64-11.391-4.88-14.66-8.5c0,0,7.79-2.22,14.85-3.29L-4267.501,624.971z"/>
			<path fill="#EDE7E6" d="M-4161.871,628.221c-3.9,1.78-8.8,3.9-12.49,5.101c-10.24,3.34-24.24,3.83-41.979,4.31
				c0,0-34.471-1.76-53.73-9.8l2.57-2.86l40.83,3.33c0,0,10,1.5,19.83,0.17c0,0,34.67-3.18,43.17-3.34L-4161.871,628.221z"/>
			<path fill="#444444" d="M-3965.432,793.299c-13.609,58.961-216.59,88.07-247.41,92.17c-0.76,0.102-1.42,0.182-1.96,0.262
				c-0.54-0.08-1.199-0.16-1.96-0.262c-30.819-4.1-233.8-33.209-247.41-92.17c-9-39,21.551-56.229,55-70
				c34-14,69.575-25.68,82.575-27.8l-0.075,63.3c0,0-1.59,19.7,11.57,41.15c17.15,17.24,37.08,32.391,58.75,42.82
				c12.97,6.25,27.48,10.811,41.55,13.109c14.07-2.299,28.58-6.859,41.551-13.109c21.67-10.43,41.6-25.58,58.75-42.82
				c13.159-21.45,11.569-41.15,11.569-41.15l2.335-63.8c13,2.12,46.165,14.3,80.165,28.3
				C-3986.981,737.069-3956.432,754.299-3965.432,793.299z"/>
			
				<line fill="none" stroke="#161616" stroke-width="12" stroke-linecap="round" stroke-miterlimit="10" x1="-4290.17" y1="867.969" x2="-4290.17" y2="1019.969"/>
			
				<line fill="none" stroke="#161616" stroke-width="12" stroke-linecap="round" stroke-miterlimit="10" x1="-4138.169" y1="867.969" x2="-4138.169" y2="986.967"/>
			
				<line fill="none" stroke="#161616" stroke-width="12" stroke-linecap="round" stroke-miterlimit="10" x1="-4290.17" y1="1036.051" x2="-4290.17" y2="1045.301"/>
			
				<line fill="none" stroke="#161616" stroke-width="12" stroke-linecap="round" stroke-miterlimit="10" x1="-4138.169" y1="1002.719" x2="-4138.169" y2="1011.969"/>
			<ellipse fill="#FFFFFF" cx="-4287.972" cy="483.608" rx="2.625" ry="4.875"/>
			<ellipse fill="#FFFFFF" cx="-4134.305" cy="483.608" rx="2.625" ry="4.875"/>
			<path fill="none" stroke="#634E4B" stroke-width="7" stroke-linecap="round" stroke-miterlimit="10" d="M-4166.89,485.182
				c0,0,14.431-11.826,32.691-6.881c8.583,1.75,15.833,9.25,32.583,12"/>
			<path fill="none" stroke="#634E4B" stroke-width="7" stroke-linecap="round" stroke-miterlimit="10" d="M-4267.701,485.182
				c0,0-14.431-11.826-32.69-6.881c-8.583,1.75-15.833,9.25-32.583,12"/>
			<path fill="none" stroke="#E5BFB2" stroke-width="12" stroke-linecap="round" stroke-miterlimit="10" d="M-4229.472,664.749
				c0,0,18-2,31.5,0.5"/>
		</g>
	</g>
	<g>
		<path fill="#ACCBF9" d="M-2558.066,572.021c0,106.44-32.59,205.27-88.35,287.04c-2.53,3.73-5.12,7.421-7.76,11.08
			c-5.85,8.11-11.93,16.051-18.24,23.79c-2,2.46-4.03,4.9-6.08,7.32c-58.32,69.02-134.67,122.34-221.76,152.72
			c-21.71,7.57-44.09,13.71-67.02,18.32c-1.56,0.32-3.12,0.62-4.69,0.92c-6.56,1.26-13.16,2.38-19.8,3.39
			c-14.42,2.17-29.04,3.73-43.83,4.67c-2.49,0.16-4.99,0.301-7.49,0.421h-0.04c-5.7,0.27-11.4,0.46-17.11,0.55
			c-1.8,0.029-3.59,0.05-5.39,0.05c-0.01,0.01-0.02,0.01-0.03,0c-0.05,0.01-0.09,0.01-0.14,0h-0.16c-0.12,0.01-0.229,0.01-0.34,0.01
			c-2.03,0-4.06,0-6.09-0.01c-1.72-0.021-3.44-0.04-5.16-0.08c-0.49,0-0.97-0.01-1.46-0.02c-1.31-0.021-2.62-0.051-3.93-0.101
			c-2.83-0.07-5.66-0.18-8.49-0.3c-2.51-0.11-5.02-0.24-7.53-0.39h-0.06c-15.5-0.92-30.82-2.53-45.92-4.811
			c-6.83-1.02-13.61-2.189-20.35-3.479c-1.38-0.271-2.76-0.54-4.14-0.82c-22.93-4.6-45.31-10.75-67.02-18.32
			c-87.09-30.38-163.43-83.7-221.75-152.72c-2.06-2.42-4.09-4.86-6.09-7.32c-6.14-7.55-12.08-15.279-17.79-23.18
			c-2.76-3.81-5.47-7.67-8.12-11.56c-55.81-81.8-88.43-180.681-88.43-287.17c0-281.82,228.46-510.27,510.28-510.27
			S-2558.066,290.201-2558.066,572.021z"/>
		<g>
			<path fill="#303030" d="M-2678.496,901.251c-58.32,69.02-134.67,122.34-221.76,152.72c-21.71,7.57-44.09,13.71-67.02,18.32
				l0.73-15.68l1.74-37.41l0.76-16.41l11.43-246.69c15.61,4.07,61.51,16.38,105.271,31.549c34.77,12.07,68.2,25.95,83.97,38.931
				C-2723.876,859.111-2696.266,882.481-2678.496,901.251z"/>
			<path fill="#161616" d="M-2858.276,886.001l-41.98,167.97c-21.71,7.57-44.09,13.71-67.02,18.32c-1.56,0.32-3.12,0.62-4.69,0.92
				c-6.56,1.26-13.16,2.38-19.8,3.39l21.03-53.09c0.01-0.01,0-0.01,0-0.01l1.1-2.76l0.61-1.54l4.98-16.41l41.11-135.46l47.189,13.62
				L-2858.276,886.001z"/>
			<path fill="#1E1E1E" d="M-2970.751,1068.996c3.33-19.33,72.332-152.246,114.332-220.746
				c54.854-89.462-77.232-117.833-101.562-128.442l-0.039,7.89c0,0-2.95,47.597-7.28,72.928c-1.21,3.141,2.81,6.97,0.819,10.04
				C-2967.992,918.877-2972.992,1081.996-2970.751,1068.996z"/>
			<path fill="#303030" d="M-3169.426,1072.291c-22.93-4.6-45.31-10.75-67.02-18.32c-87.09-30.38-163.43-83.7-221.75-152.72
				c17.76-18.77,45.37-42.14,84.87-74.67c15.93-13.11,49.85-27.13,84.98-39.28c43.46-15.01,88.77-27.16,104.26-31.2l11.44,246.72
				l0.76,16.38l1.63,35.109c0,0.011,0,0.011,0,0.011L-3169.426,1072.291z"/>
			<path fill="#161616" d="M-3144.936,1076.591c-6.83-1.02-13.61-2.189-20.35-3.479c-1.38-0.271-2.76-0.54-4.14-0.82
				c-22.93-4.6-45.31-10.75-67.02-18.32l-41.98-167.97l18.21-5.26l46.46-13.41l41.11,135.49l4.97,16.38l2.6,6.569
				L-3144.936,1076.591z"/>
			<path fill="#1E1E1E" d="M-3165.094,1068.996c-3.33-19.33-72.332-152.246-114.332-220.746
				c-54.853-89.462,77.233-117.833,101.563-128.442l0.039,7.89c0,0,0.735,45.222,5.065,70.553c1.21,3.141-0.594,9.345,1.396,12.415
				C-3167.854,918.877-3162.854,1081.996-3165.094,1068.996z"/>
			<path fill="#848484" d="M-2957.936,756.691l-0.08,1.84l-0.01,0.11l-1.46,32.96v0.039l-1.63,36.75c0,0.011,0,0.021,0,0.021
				l-6.189,139.71v0.01l-2.33,52.61l-0.43,9.67v0.01l-1.24,27.97v0.051l-0.66,14.77c-6.56,1.26-13.16,2.38-19.8,3.39
				c-14.42,2.17-29.04,3.73-43.83,4.67c-2.49,0.16-4.99,0.301-7.49,0.421h-0.04c-5.7,0.27-11.4,0.46-17.11,0.55
				c-1.8,0.029-3.59,0.05-5.39,0.05c-0.01,0.01-0.02,0.01-0.03,0c-0.05,0.01-0.09,0.01-0.14,0h-0.16
				c-3.86-0.01-7.729-0.03-11.59-0.08c-0.49,0-0.97-0.01-1.46-0.02c-1.31-0.021-2.62-0.051-3.93-0.101
				c-2.83-0.07-5.66-0.18-8.49-0.3c-2.51-0.11-5.02-0.24-7.53-0.39h-0.06c-15.5-0.92-30.82-2.53-45.92-4.811
				c-6.83-1.02-13.61-2.189-20.35-3.479l-0.27-6.101l-2.12-47.81l-7.17-192.271c0,0,0.01,0,0-0.01l-2.64-70.67
				c0.25-0.07,0.48-0.14,0.7-0.2c2.73-0.82,2.77-1.38,2.77-1.38l67.11,0.42l80.27,0.5c0,0,0.01,0,0.02,0l66.46,0.41h0.31
				c0,0,0.64,0.23,1.85,0.67C-2957.976,756.671-2957.956,756.681-2957.936,756.691z"/>
			<path fill="#EFC3AC" d="M-2955.636,655.71c0,0-0.11,9.86-0.33,24.9c-0.13,8.71-0.29,19.17-0.48,30.45
				c-0.78,45.69-3.07,105.235-4.73,117.815c-2.53,7.51-5.33,13.875-10.12,19.664c-21.07,25.57-61.47,27.24-97.87,27.031
				c-39.44-0.23-84.84-14.57-102.17-40.41c-1.97-2.93-2.57-5.91-3.76-8.9c-2.38-13.711-3.24-69.39-2.69-114.82
				c0.12-9.47,0.25-18.48,0.39-26.58c0.35-21.37,0.7-36.38,0.7-36.38c1.24,1.28,2.51,2.54,3.81,3.77
				c7.93,7.52,17.01,14.16,27.2,21.7c13.3,9.84,43.53,29.54,72.12,29.57c0,0,25.93,3.84,56.53-9.43
				c16.39-7.11,33.87-16.13,49.63-29.43C-2964.086,661.88-2958.756,658.91-2955.636,655.71z"/>
			<g>
				<path fill="#E0B19D" d="M-3207.661,515.473c0,0-14.439-35.17-28.726-31.81c-13.681,3.219-24,38.668-5.232,74.987
					c0,0,5.992,9.621,8.772,22.779c2.777,13.158,13.395,21.382,30.096,20.751C-3186.049,601.551-3207.661,515.473-3207.661,515.473z
					"/>
				<path fill="#C49180" d="M-3223.719,509.498c0,0-12,15-3.5,41.5s15.391,24.039,15.5,21
					C-3210.219,529.998-3223.719,509.498-3223.719,509.498z"/>
			</g>
			<g>
				<path fill="#E0B19D" d="M-2932.254,515.473c0,0,14.439-35.17,28.726-31.81c13.681,3.219,24,38.668,5.231,74.987
					c0,0-5.992,9.621-8.771,22.779c-2.777,13.158-13.395,21.382-30.096,20.751C-2953.866,601.551-2932.254,515.473-2932.254,515.473
					z"/>
				<path fill="#C49180" d="M-2916.196,509.498c0,0,12,15,3.5,41.5s-15.391,24.039-15.5,21
					C-2929.696,529.998-2916.196,509.498-2916.196,509.498z"/>
			</g>
			<path fill="#E0B19D" d="M-2958.056,683.09c-18,21.83-39.53,38.43-59.42,47.64c-30.6,14.14-56.62,10.26-56.62,10.26
				c-28.67,0.15-59.1-20.41-72.49-30.68c-11.76-9.02-22.02-16.39-30.81-25.45c-0.14,8.1-0.27,17.11-0.39,26.58
				c4.44,3.65,9.05,7.14,13.77,10.74c1.72,1.3,3.47,2.63,5.26,4c16.79,12.89,49.84,34.42,83.43,34.81
				c1.97,0.21,5.44,0.49,10.08,0.49c13.19,0,33.64-2.19,56.17-12.6c18.25-8.45,36.46-21.59,52.63-37.82
				c0.19-11.28,0.35-21.74,0.48-30.45C-2956.676,681.43-2957.376,682.26-2958.056,683.09z"/>
			<g>
				<path fill="#EFC3AC" d="M-2917.086,449.31c0,0-4.45,64.75-5.18,74.12v0.01c-0.55,6.89-1.05,13.45-1.52,19.7
					c0,0.01,0,0.01,0,0.01c-7.6,48.54-5.6,84.54-17.07,115.51c-3.52,9.5-10.97,16.89-17.2,24.43c-18,21.83-39.53,38.43-59.42,47.64
					c-30.6,14.14-56.62,10.26-56.62,10.26c-28.67,0.15-59.1-20.41-72.49-30.68c-12.02-9.22-22.48-16.72-31.4-26.06
					c-4.78-5.01-9.1-10.54-12.99-17.15c-9.4-15.96-13.49-28.12-15.06-38.18c-0.78-4.97-8.23-75.98-9.18-85.8
					c-0.58-5.98-1.13-11.77-1.65-17.18c-1.41-14.8-2.53-26.81-3.04-32.27v-0.01c-0.19-2.04-0.29-3.17-0.29-3.17l-0.74-114.21
					l54.17-67.78l107.97-7.52l110.1,31.01L-2917.086,449.31z"/>
			</g>
			<path fill="none" stroke="#DDAB9E" stroke-width="20" stroke-linecap="round" stroke-miterlimit="10" d="M-3101.663,661.591
				c0,0,26.473,23.688,65.753,0.6"/>
			<path fill="#FFFFFF" d="M-3004.268,641.443l-0.38,0.38c-1.54,1.51-3.62,3.46-6.23,5.64c-0.22,0.181-0.44,0.37-0.66,0.551
				c-0.08,0.06-0.16,0.13-0.23,0.189c-0.35,0.28-0.69,0.57-1.06,0.87c-0.32,0.26-0.64,0.521-0.98,0.78
				c-1.38,1.08-2.87,2.17-4.45,3.27c-11.93,8.24-29.583,11.904-50.963,11.904c-21.77,0-40.157-5.124-52.387-14.354l-1.13-10.32
				l-0.1-0.95l-0.46-4.16c11.46,0.74,28.98,3.3,48.28,3.61c3.02,0.05,9.26,0.18,9.26,0.18c4.96,0.12,9.97-0.05,15.01-0.32
				c11.24-0.59,22.67-1.68,34.22-1.199c1.63,0.06,3.26,0.149,4.9,0.3c0.36,0.02,0.73,0.05,1.09,0.09c-0.12,0.99-0.28,2.01-0.45,3.05
				c2.3-0.069,4.26-0.12,5.79-0.149c0.16,0.12,0.32,0.22,0.45,0.31C-3004.558,641.233-3004.397,641.353-3004.268,641.443z"/>
			<path fill="none" stroke="#E0B19D" stroke-width="12" stroke-linecap="round" stroke-miterlimit="10" d="M-3055.696,507.998
				c0,0-1.833,40.666,3.5,55.256c0,0,5.334,3.942,12.334,6.078"/>
			<path fill="#191211" d="M-3257.362,370.498l6.667,4.668c0,0,0.557,23.155,9.333,83.332c4.667,32,26.102,84.086,26.102,84.086
				s1.833-62.086-2.769-87.419c0,0,1.103-10.415,15.103-30.415c0,0,4.666-31.833,4-48.5c0,0,21.564-68.418,100.231-58.418
				c0,0,23.333,5,47.333,0c9.664-2.014,63,7,98,62c4.244,8.184,28.333,48.166,28.333,48.166s-3.23,88.418,1.436,113.752
				c0,0,10.578-39.504,19.064-61.252c8-20.5,12.501-78.666,12.501-78.666l8,2.666c0,0,3.333-41.333-7.333-56l15.333-2.666
				c0,0-35.599-40.544-78.001-78c-42.89-37.889-180.396-68.081-230.23,2.919c0,0-7.417-4.083-12.334-6.667
				c0,0-10.333,15.999-7.333,28.333l-13-14.417c0,0-10.75,15.5-9.667,39.083c0,0-5.833,0.167-21.436-6.253
				c0,0-0.332,25.668,7.75,35.918C-3240.279,346.748-3253.695,356.166-3257.362,370.498z"/>
			<path fill="#281D1B" d="M-3035.696,446.748c0,0,47.5-15.5,65-12s27.5,18,27.5,18s-50-1.834-93.5,8.5
				C-3040.231,462.087-3038.196,453.248-3035.696,446.748z"/>
			<path fill="#281D1B" d="M-3104.592,446.748c0,0-47.5-15.5-65-12s-27.5,18-27.5,18s50-1.834,93.5,8.5
				C-3100.057,462.087-3102.092,453.248-3104.592,446.748z"/>
			<path fill="none" stroke="#E0B19D" stroke-width="12" stroke-linecap="round" stroke-miterlimit="10" d="M-3101.032,593.748
				c0,0,9.34,0.795,14.506,5.166"/>
			<path fill="none" stroke="#E0B19D" stroke-width="12" stroke-linecap="round" stroke-miterlimit="10" d="M-3039.775,593.748
				c0,0-9.34,0.795-14.507,5.166"/>
			<circle fill="#140D0C" cx="-3138.845" cy="493.619" r="13.351"/>
			
				<line fill="none" stroke="#E0B19D" stroke-width="12" stroke-linecap="round" stroke-miterlimit="10" x1="-3118.496" y1="507.144" x2="-3158.321" y2="507.144"/>
			<ellipse fill="#FFFFFF" cx="-3132.471" cy="490.894" rx="2.625" ry="4.875"/>
			<path fill="none" stroke="#281D1B" stroke-width="7" stroke-linecap="round" stroke-miterlimit="10" d="M-3109.79,494.134
				c0,0-20.984-23.008-60.289-2.404"/>
			<circle fill="#140D0C" cx="-3003.22" cy="493.568" r="13.351"/>
			
				<line fill="none" stroke="#E0B19D" stroke-width="12" stroke-linecap="round" stroke-miterlimit="10" x1="-3021.145" y1="506.193" x2="-2981.321" y2="506.193"/>
			<ellipse fill="#FFFFFF" cx="-2997.67" cy="489.843" rx="2.625" ry="4.875"/>
			<path fill="none" stroke="#281D1B" stroke-width="7" stroke-linecap="round" stroke-miterlimit="10" d="M-3030.852,493.184
				c0,0,20.985-23.009,60.289-2.405"/>
			<path fill="#AA8B7E" d="M-3004.078,641.573c-0.09,0.08-0.18,0.17-0.28,0.26c-1.55,1.49-3.73,3.33-6.52,5.63
				c-0.22,0.181-0.44,0.37-0.66,0.551c-0.08,0.06-0.16,0.13-0.23,0.189c-0.35,0.28-0.69,0.57-1.06,0.87
				c-0.32,0.26-0.64,0.521-0.98,0.78c-1.38,1.08-2.87,2.17-4.45,3.27l0.47-4.21l0.8-7.21l0.46-4.189c1.63,0.06,3.26,0.149,4.9,0.3
				c0.36,0.02,0.73,0.05,1.09,0.09c-0.12,0.99-0.28,2.01-0.45,3.05c2.54-0.069,4.65,0.09,6.24,0.16c0.19,0.12,0.35,0.24,0.48,0.33
				C-3004.198,641.493-3004.128,641.542-3004.078,641.573z"/>
			<path fill="#AA8B7E" d="M-3121.608,650.673c-1.02-0.771-7.4-5.671-7.4-5.671s-4.15-3.189-5.39-5.399h-0.01
				c-0.1-0.18-0.18-0.34-0.23-0.5c0.13-0.141,0.29-0.3,0.46-0.48c0.36,0.021,0.75,0.051,1.16,0.07c0.2,0.03,0.39,0.04,0.6,0.04
				c0.43,0.04,0.88,0.08,1.35,0.1c0.01,0,0.01,0,0.02,0c0.19,0.011,0.38,0.03,0.58,0.04c0.18,0.03,0.36,0.03,0.54,0.04
				c0.24,0.021,0.49,0.03,0.74,0.061c0.43,0.02,0.89,0.06,1.36,0.1c0.22,0,0.46,0.021,0.7,0.04c0.47,0.04,0.97,0.061,1.46,0.11
				c0.91,0.05,1.85,0.12,2.83,0.18l0.1,0.95L-3121.608,650.673z"/>
			<path fill="#DDAB9E" d="M-3003.718,641.863c-0.04-0.01-0.27-0.01-0.64-0.03c-0.09,0-0.18,0-0.29-0.01
				c-2.48-0.06-9.3-0.2-11.91-0.13c-0.14,0-0.28,0.01-0.43,0.01c-6.59,0.2-14.65,0.561-22.69,0.86h-0.01
				c-9.55,0.36-19.07,0.64-26.07,0.47c0,0-6.24-0.13-9.26-0.18c-14.27-0.21-31.28-1.49-44.87-2.33c-0.24-0.021-1.34-0.08-2.85-0.17
				c-3.64-0.23-9.65-0.62-11.66-0.75h-0.01c-0.1-0.18-0.18-0.34-0.23-0.5c0.13-0.141,0.29-0.3,0.46-0.48
				c1.44-1.479,4.37-4.26,7.82-5.46c10.42-3.66,28.28-7.81,43.35-7.68h0.01c3.85,0.04,7.52,0.35,10.83,1.03
				c0.92,0.189,1.76,0.55,2.5,1.02c15.22-4.01,31.21-0.3,47.51,4.79c6.6,2.07,13.9,6.46,16.96,8.48c0.16,0.12,0.32,0.22,0.45,0.31
				c0.19,0.12,0.35,0.24,0.48,0.33c0.07,0.05,0.14,0.1,0.19,0.13C-3003.868,641.733-3003.748,641.833-3003.718,641.863z"/>
			<path fill="none" d="M-3134.762,638.578c0.05,0.01,0.09,0.01,0.139,0.01"/>
			<path fill="#AA8B7E" d="M-3129.013,645.005L-3129.013,645.005z"/>
			
				<line fill="none" stroke="#E0B19D" stroke-width="12" stroke-linecap="round" stroke-miterlimit="10" x1="-3078.926" y1="689.75" x2="-3061.426" y2="689.75"/>
		</g>
	</g>
	<g>
		<path fill="#ACCBF9" d="M1074.669,572.021c0,106.44-32.59,205.27-88.351,287.04c-2.529,3.73-5.119,7.421-7.76,11.08
			c-5.85,8.11-11.93,16.051-18.24,23.79c-87.1,107.03-216.76,178.061-363.18,187.34c-2.49,0.16-4.99,0.301-7.49,0.421h-0.04
			c-5.7,0.27-11.4,0.46-17.11,0.55c-2.02,0.029-4.04,0.05-6.06,0.06c-2.03,0-4.07,0-6.09-0.01c-3.52-0.03-7.04-0.09-10.55-0.2
			c-2.83-0.07-5.66-0.18-8.49-0.3c-2.51-0.11-5.02-0.24-7.53-0.39h-0.06c-147.28-8.74-277.74-79.931-365.27-187.471
			c-6.14-7.55-12.08-15.279-17.79-23.18c-2.76-3.81-5.47-7.67-8.12-11.56c-55.81-81.8-88.43-180.681-88.43-287.17
			c0-281.82,228.46-510.27,510.28-510.27C846.209,61.751,1074.669,290.201,1074.669,572.021z"/>
		<g>
			<path fill="#6D727F" d="M960.319,893.931c-87.1,107.03-216.76,178.061-363.18,187.34c-2.49,0.16-4.99,0.301-7.49,0.421h-0.04
				v0.46c-2.74,0.029-5.49,0.06-8.24,0.09c-2.94,0.02-5.88,0.04-8.84,0.05c-2.02,0.01-4.05,0.01-6.09,0.01c-2.03,0-4.07,0-6.09-0.01
				c-3.55-0.01-7.09-0.04-10.62-0.07c-0.76-0.01-1.52-0.01-2.27-0.029c-4.58-0.04-9.14-0.11-13.68-0.2v-0.59h-0.06
				c-147.28-8.74-277.74-79.931-365.27-187.471c14.79-17.109,37.55-37.979,70.76-65.319c18.56-15.29,70.57-33.811,120.08-49.07
				c10.68-3.29,21.24-6.43,31.32-9.35c0.82-0.24,1.65-0.47,2.46-0.71c25.26-7.29,47.29-13.16,60.31-16.58
				c-2.82,1.85-31.16,21.07-27.27,43.35c6.2,35.57,30.3,63.93,84.83,113.17c-0.44-0.16-0.87-0.31-1.3-0.46
				c0.45,0.19,0.9,0.39,1.36,0.59c0.24,0.101,0.48,0.21,0.72,0.32c0.42,0.18,0.85,0.37,1.28,0.57c0.47,0.21,0.94,0.42,1.41,0.63
				c0.92,0.41,1.84,0.84,2.78,1.279c1.84,0.881,3.72,1.79,5.62,2.761c0.96,0.479,1.92,0.979,2.89,1.489c0.95,0.49,1.9,1,2.85,1.521
				c0.66,0.36,1.32,0.729,1.98,1.1c0.55,0.311,1.09,0.62,1.64,0.931c0.61,0.35,1.21,0.699,1.82,1.06c0.61,0.35,1.22,0.72,1.82,1.08
				c2.54,1.54,5.08,3.16,7.61,4.86c0.98,0.659,1.97,1.34,2.94,2.029c3.73,2.641,7.41,5.471,10.96,8.511
				c0.03,0.029,0.06,0.05,0.09,0.09c0.08,0.06,0.16,0.12,0.23,0.18c0.06,0.06,0.13,0.11,0.19,0.17c0.04,0.03,0.07,0.061,0.11,0.09
				c0.12,0.101,0.23,0.2,0.34,0.311c0.6,0.51,1.19,1.029,1.78,1.569c0.44,0.391,0.88,0.79,1.31,1.2c1.44,1.33,2.86,2.71,4.24,4.12
				l-0.14,1.11c0.32-0.271,0.6-0.511,0.84-0.71c0.57-0.48,0.88-0.74,0.88-0.74c11.96-12.2,20.39-18.34,34.04-27.33
				c22.92-15.06,53.38-33,53.38-33c42.5-35,42.81-64.94,40.5-90.5c-0.1-1.13-0.25-2.24-0.44-3.34c-0.05-0.341-0.11-0.681-0.18-1.011
				c-0.14-0.729-0.29-1.439-0.47-2.149c-0.08-0.351-0.17-0.71-0.27-1.06c-0.07-0.28-0.15-0.561-0.24-0.84
				c-0.91-3.23-2.15-6.31-3.58-9.2c-0.27-0.56-0.55-1.11-0.84-1.65c0-0.01-0.01-0.02-0.01-0.02c-0.27-0.5-0.54-1-0.81-1.48
				c-0.05-0.1-0.11-0.2-0.17-0.3c-0.17-0.29-0.33-0.58-0.5-0.86c-0.25-0.43-0.51-0.86-0.77-1.27c-0.15-0.25-0.31-0.5-0.47-0.75
				c-0.16-0.26-0.32-0.51-0.48-0.76c-0.32-0.48-0.63-0.95-0.95-1.42c-0.33-0.49-0.67-0.97-1.01-1.44c-0.31-0.43-0.62-0.86-0.93-1.27
				c-0.65-0.87-1.3-1.7-1.94-2.49c-0.16-0.2-0.32-0.4-0.48-0.59c-1.43-1.74-2.81-3.28-4.05-4.59c-0.24-0.26-0.48-0.51-0.72-0.75
				c-1.47-1.52-2.71-2.67-3.54-3.43c-0.15-0.14-0.29-0.26-0.41-0.37c-0.06-0.05-0.12-0.1-0.17-0.15c-0.37-0.31-0.57-0.48-0.57-0.48
				l-5.51-1.17l2.34,0.01c1.06,0.28,2.32,0.62,3.76,1.01c9.55,2.54,27.24,7.19,48.69,13.17c2.06,0.58,4.17,1.17,6.3,1.77
				c12.17,3.43,25.34,7.24,38.78,11.3c50.6,15.32,105.02,34.23,124.09,49.94C922.769,855.951,945.529,876.821,960.319,893.931z"/>
			<path fill="#303649" d="M589.609,953.751v128.4c-2.74,0.029-5.49,0.06-8.24,0.09c-2.94,0.02-5.88,0.04-8.84,0.05
				c-2.02,0.01-4.05,0.01-6.09,0.01c-2.03,0-4.07,0-6.09-0.01c-3.55-0.01-7.09-0.04-10.62-0.07c-0.76-0.01-1.52-0.01-2.27-0.029
				c-4.58-0.04-9.14-0.11-13.68-0.2v-0.59l0.16-94.16v-0.49l0.02-0.03l6.9-8.33l11.5-13.89l11.84-3.42L589.609,953.751z"/>
			<ellipse fill="#3D465E" cx="561.114" cy="977.584" rx="13.083" ry="14.271"/>
			<path fill="#3D465E" d="M572.534,1082.291c-2.02,0.01-4.05,0.01-6.09,0.01c-5.6,0-11.17-0.029-16.71-0.08
				c2.24-4.318,6.5-7.238,11.38-7.238C566.024,1074.982,570.294,1077.932,572.534,1082.291z"/>
			<path fill="#562930" d="M654.614,884.752c0,0-30.46,17.939-53.38,33c-13.65,8.99-22.08,15.129-34.04,27.33
				c0,0-0.63,0.52-1.72,1.449l0.14-1.109c-17-17.361-38.93-29.17-55.97-36.461c0.43,0.15,0.86,0.301,1.3,0.461
				c-54.53-49.24-78.63-77.6-84.83-113.171c-3.89-22.28,24.45-41.5,27.27-43.35c0.56-0.15,1.11-0.29,1.64-0.42l8.8-1.72l201.78,0.65
				l5.51,1.17c0,0,21.86,17.97,24,41.67C697.424,819.811,697.114,849.752,654.614,884.752z"/>
			<path fill="#6D727F" d="M463.824,753.761l-8.8,1.72c2.65-0.7,4.87-1.28,6.59-1.73L463.824,753.761z"/>
			<path fill="#373E55" d="M784.944,925.422c0,0-55.33,22-140.66,26.66c-39.07,2.129-65.56,9.719-82.8,17.32
				c-20.42,9-27.558,17.85-27.558,17.85c0.1-2.189,0.538-4.461,1.768-7.02c6.15-12.852,24.13-28.861,29.78-33.701
				c1.09-0.93,1.72-1.449,1.72-1.449c11.96-12.201,20.39-18.34,34.04-27.33c63.71-26.1,136.38-43.5,136.38-43.5
				s-7-67.5-16.5-106.001c-0.22-0.89-0.46-1.78-0.72-2.65c-10.66-36.9-49.78-58.85-49.78-58.85l-39,0.5l-62.5-13l-1-26.5
				c86.17,1.51,143.5,35,143.5,35c25.81,19.51,42.77,46.95,53.86,75.92C791.894,847.691,784.944,925.422,784.944,925.422z"/>
			<path fill="#373E55" d="M567.614,947.127l-4.66,19.055l-2.527,0.883c-15.26,6.719-19.735,12.158-22.625,13.25
				c-0.98,0.369-2.938,2.75-2.938,2.75s-29.75-45.312-67.75-48.812c-35.28-3.25-57.5,14.5-107.5,12.5c0,0-29.3-90.471-0.32-167.211
				c8.62-22.84,22.4-44.46,43.65-62.12c28.99-19.03,59.03-33.37,132.06-42.44l15.61,28.77l-94.5,7c0,0-41.38,30.07-63.04,58.73
				c-6.41,8.49-11.09,16.85-12.46,24.27c0,0-0.94,80.251,10.82,111.171c0.38,0.99,0.77,1.939,1.18,2.83c0,0,0.01,0,0.02-0.01
				c0.02-0.01,0.05-0.021,0.1-0.041c0.07-0.029,0.16-0.07,0.27-0.119c4.48-1.971,47.32-19.91,91.94-7.5
				c4.08,1.129,13.29,3.99,24.7,8.879C526.684,916.252,550.614,929.766,567.614,947.127z"/>
			<path fill="#555960" d="M695.114,794.251c-2.14-23.7-24-41.67-24-41.67l-5.51-1.17l-99.07-20.99v-58c0.3,0,0.6,0.01,0.9,0.02
				l1.68,21.81l62.5,13l39-2.25c0,0,41.75,27.36,56.08,62.37c1.59,3.87,2.85,7.84,3.67,11.88
				c7.92,38.86,19.92,109.831,19.92,109.831s-82.57,9.189-149.05,28.67c22.92-15.061,53.38-33,53.38-33
				C697.114,849.752,697.424,819.811,695.114,794.251z"/>
			<path fill="#555960" d="M426.114,796.251c6.2,35.571,30.3,63.931,84.83,113.171c-0.44-0.16-0.87-0.311-1.3-0.461
				c-62.81-22.219-111.79-3.359-116.64-1.379c-0.11,0.049-0.2,0.09-0.27,0.119c-0.05,0.02-0.09,0.041-0.1,0.041
				c-0.01,0.01-0.02,0.01-0.02,0.01c-0.41-0.891-0.8-1.84-1.18-2.83c-11.9-30.91-13.15-110.841-13.15-110.841
				c1.35-7.3,5.97-15.52,12.33-23.89c21.91-28.88,64.5-59.44,64.5-59.44l95.5-7l-15.61-28.77c10.19-1.28,20.66-2.07,31.28-2.23v58
				l-102.46,20.01l-8.8,1.72l-1.41,0.27c0,0-0.08,0.05-0.23,0.15C450.564,754.751,422.224,773.971,426.114,796.251z"/>
			<path fill="#BC886D" d="M674.404,616.547c0,0-0.12,10.11-0.35,25.417c-0.14,9.846-0.33,21.846-0.56,34.696
				c-0.45,25.281-1.06,53.85-1.79,75.734c-0.54,15.983-1.15,28.403-1.81,33.375c-2.5,7.361-6.24,13.839-10.98,19.505
				c-20.84,25.027-60.78,34.492-96.78,34.297c-39-0.227-83.88-22.09-101.01-47.381c-1.95-2.869-3.54-5.785-4.71-8.712
				c-0.99-5.657-1.54-18.625-1.81-35.067c-0.34-21.64-0.19-49.289,0.11-74.217c0.14-11.255,0.3-21.953,0.46-31.29
				c0.33-19.751,0.66-33.424,0.66-33.424c1.22,1.252,2.48,2.486,3.76,3.69c7.85,7.36,16.82,13.859,26.9,21.239
				c13.14,9.63,43.04,28.912,71.31,28.941c0,0,25.64,3.749,55.89-9.239c16.2-6.958,33.49-15.787,49.07-28.804
				C666.044,622.586,671.314,619.679,674.404,616.547z"/>
			<g>
				<path fill="#A57763" d="M427.103,512.823c-2.375-5.72-8.594-14.473-19.763-14.739c-2.813-0.067-6.297,1.072-9.111,3.551
					c-4.07,3.586-22.259,29.678,7.434,82.291c0,0-0.357,21.438,15.364,23.224c15.721,1.786,21.438-5.716,21.438-17.865
					S434.671,531.052,427.103,512.823z"/>
				<path fill="#966757" d="M428.923,523.167c0,0-4.25,10.288-8.999,14.189c-4.75,3.901-13.957,11.711-8.349,19.894
					c5.607,8.184,8.552,18.175,22.103,11.011S432.321,526.738,428.923,523.167z"/>
			</g>
			<g>
				<path fill="#A57763" d="M700.851,512.823c2.375-5.72,8.594-14.473,19.763-14.739c2.813-0.067,6.297,1.072,9.111,3.551
					c4.07,3.586,22.259,29.678-7.434,82.291c0,0,0.357,21.438-15.364,23.224c-15.721,1.786-21.438-5.716-21.438-17.865
					S693.283,531.052,700.851,512.823z"/>
				<path fill="#966757" d="M699.031,523.167c0,0,4.25,10.288,8.999,14.189c4.75,3.901,13.957,11.711,8.349,19.894
					c-5.607,8.184-8.552,18.175-22.103,11.011S695.633,526.738,699.031,523.167z"/>
			</g>
			<path fill="#A57763" d="M666.614,654.751c-3.07,4.6-22.11,26.4-26,31.5c-8.95,11.74-19.5,25.5-30,33.5c-27.37,20.85-65,16.5-93-6
				c-12.13-9.75-32.06-36.09-44-47.5c-7.88-7.54-13.87-15.17-18.44-22.62c-0.16,9.54-0.32,20.47-0.46,31.97
				c1.61,1.71,3.3,3.41,5.08,5.11c4.42,4.22,10.91,11.75,17.19,19.02c9.71,11.26,19.75,22.9,28.1,29.61
				c19.18,15.41,42.28,23.9,65.05,23.9h0.01c19.31,0,37.5-6.08,52.59-17.58c12.78-9.74,24.43-25.01,33.78-37.28
				c1.32-1.73,5.89-7.13,9.92-11.89c2.72-3.21,5.06-5.98,7.06-8.37c0.23-13.13,0.42-25.39,0.56-35.45
				C671.934,646.481,669.484,650.451,666.614,654.751z"/>
			<path fill="#BC886D" d="M702.614,405.749l-4.33,103c-12.66,97.67-7.67,110-31.67,146c-3.07,4.6-22.11,26.4-26,31.5
				c-8.95,11.74-19.5,25.5-30,33.5c-1,0.76-2.01,1.49-3.04,2.18c-23.45,15.88-53.54,14.38-78.7-0.41
				c-3.88-2.27-7.65-4.87-11.26-7.77c-12.13-9.75-32.06-36.09-44-47.5c-34-32.5-32.67-66.83-35-80.5c-4.59-26.86-7-98.33-7-98.33
				l-2.67-70l27.34-94.34l110.66-20.66l100,35.66L702.614,405.749z"/>
			<g>
				<circle fill="#140D0C" cx="631.321" cy="482.484" r="13.351"/>
			</g>
			
				<line fill="none" stroke="#A57763" stroke-width="11" stroke-linecap="round" stroke-miterlimit="10" x1="613.542" y1="495.533" x2="653.354" y2="496.515"/>
			<path fill="#281D1B" d="M595.615,450.751c0,0-0.058-3.741,1.333-10c0.667-3,3-5.5,15.667-9.333c10.763-3.257,33.833-6.5,40.5-5.5
				s28.833,15.5,26.833,32.834c0,0-6.458-4.75-14-9c-12.894-7.267-22.675-6.22-38.667-2.833
				C613.114,449.918,594.448,458.751,595.615,450.751z"/>
			<path fill="none" stroke="#A57763" stroke-width="11" stroke-linecap="round" stroke-miterlimit="10" d="M586.614,476.251
				c0,0-4.5,5-4,20.5s8.5,40,8.5,40"/>
			<path fill="none" stroke="#A57763" stroke-width="11" stroke-linecap="round" stroke-miterlimit="10" d="M578.343,562.417
				c0,0,4.785-2.333,10.938-1.333"/>
			<path fill="none" stroke="#A57763" stroke-width="11" stroke-linecap="round" stroke-miterlimit="10" d="M549.801,562.417
				c0,0-4.785-2.333-10.938-1.333"/>
			<g>
				<circle fill="#140D0C" cx="499.816" cy="482.484" r="13.351"/>
			</g>
			
				<line fill="none" stroke="#A57763" stroke-width="11" stroke-linecap="round" stroke-miterlimit="10" x1="517.594" y1="495.533" x2="477.782" y2="496.515"/>
			<path fill="#281D1B" d="M535.522,450.751c0,0,0.058-3.741-1.333-10c-0.667-3-3-5.5-15.667-9.333
				c-10.763-3.257-33.833-6.5-40.5-5.5s-28.833,15.5-26.833,32.834c0,0,6.458-4.75,14-9c12.894-7.267,22.675-6.22,38.667-2.833
				C518.023,449.918,536.689,458.751,535.522,450.751z"/>
			<path fill="#281D1B" d="M406.614,377.084c-6,29-2.416,92.667,2.75,121.417c2.863,3.862,12.417,9.251,13.417,12.251
				c6.333,19,11.5,29.166,11.5,29.166l2-104.835c7-14,10-28,10-28c2.5-14,2.333-27.332,2.333-27.332
				c12.5-73.5,116.334-66,116.334-66c100.666,4.833,101.333,41.667,113.333,86.667c5.333,21,12.667,21.674,16,29.333
				c1.667,21-0.333,29,0.333,49.333s-0.167,60.875-0.167,60.875c0,0,4.917-16.583,13.167-33.708c2.146-4.453,8.334-4.5,12.25-7.875
				c0,0,12.25-73.125,2.25-156.792c0,0,2.5-12.167,1.167-27.833l-21,1c0,0,5.333-15.667-1.333-37.333l-15.833,5.333
				c0,0-31.75-82-190.5-59l4,7.5c0,0-28,0.5-61,29.5l26.5,4.5c0,0-40.25,4.25-59,43.25l14-1.25c0,0-19.833,32.833-23.5,63.833
				L406.614,377.084z"/>
			<path fill="#7F6157" d="M511.614,610.75L511.614,610.75z"/>
			<path fill="none" stroke="#A57763" stroke-width="6" stroke-linecap="round" stroke-miterlimit="10" d="M501.364,593.251
				c0,0-12,10-8.75,28.5"/>
			<path fill="none" stroke="#A37162" stroke-width="20" stroke-linecap="round" stroke-miterlimit="10" d="M531.947,632.25
				c0,0,34,19,69.333,0"/>
			<path fill="#A37162" d="M506.614,618c0,0,12.209-9.219,28.235-15.656c0,0,14.603-5.506,21.844-2.573
				c7.046,2.854,14.834-0.287,14.834-0.287s7.961-4.234,20.825,2.252c13.254,6.684,22.554,12.722,28.887,15.638L506.614,618z"/>
			<path fill="#6B534E" d="M623.613,617.251c0,0-8.375,18.5-58.125,19.25c-45.25,0.625-60.75-19-60.75-19s5.735,0.73,11.105-0.9
				l6.52,7.648c0,0,45.92,10.258,89.75-0.082l1.781-8.354C616.895,616.501,620.113,617.084,623.613,617.251z"/>
			<path fill="#FFFFFF" d="M615.77,616.251c0,0-2.501,7.574-4.406,9.248c-29.955,8.045-68.83,4.92-90.625,0.125
				c-2.017-1.723-4.895-9.023-4.895-9.023c12.395-2.102,35.145-10.975,94.854-1.434C610.697,615.167,613.114,615.626,615.77,616.251
				z"/>
			<path fill="none" stroke="#A37561" stroke-width="6" stroke-linecap="round" stroke-miterlimit="10" d="M623.569,614.08
				c0,0,4.17,1.921,5.249,6.168"/>
			
				<ellipse transform="matrix(0.8672 -0.4979 0.4979 0.8672 -374.6403 448.449)" fill="#3D465E" cx="653.614" cy="926.752" rx="11" ry="9.251"/>
			<ellipse fill="#3D465E" cx="760.114" cy="909.502" rx="9.5" ry="10.75"/>
			
				<ellipse transform="matrix(0.9816 0.1912 -0.1912 0.9816 184.0102 -56.8444)" fill="#3D465E" cx="386.614" cy="925.252" rx="12.25" ry="9.75"/>
			
				<ellipse transform="matrix(0.9436 0.331 -0.331 0.9436 334.1884 -117.0745)" fill="#3D465E" cx="510.864" cy="922.751" rx="12.75" ry="5"/>
			
				<line fill="none" stroke="#A57763" stroke-width="11" stroke-linecap="round" stroke-miterlimit="10" x1="547.947" y1="662.749" x2="583.947" y2="662.749"/>
			<ellipse fill="#FFFFFF" cx="504.819" cy="478.393" rx="2.625" ry="4.875"/>
			<ellipse fill="#FFFFFF" cx="635.62" cy="477.342" rx="2.625" ry="4.875"/>
			<path fill="none" stroke="#281D1B" stroke-width="7" stroke-linecap="round" stroke-miterlimit="10" d="M604.373,482.86
				c0,0,6.067-10.223,25.038-11.386c25.211-1.546,33.669,13.834,33.669,13.834"/>
			<path fill="none" stroke="#281D1B" stroke-width="7" stroke-linecap="round" stroke-miterlimit="10" d="M526.764,482.86
				c0,0-6.067-10.223-25.038-11.386c-25.211-1.546-33.669,13.834-33.669,13.834"/>
		</g>
	</g>
	<g>
		<path fill="#ACCBF9" d="M-158.116,572.021c0,106.44-32.59,205.27-88.35,287.04c-2.529,3.73-5.119,7.421-7.76,11.08
			c-86.66,120.221-224.4,201.181-381.419,211.13c-2.49,0.16-4.99,0.301-7.49,0.421c-7.94,0.38-15.9,0.59-23.87,0.609
			c-1.57,0-3.13,0-4.689-0.01c-6.601-0.04-13.19-0.21-19.78-0.5c-2.53-0.11-5.061-0.24-7.59-0.39
			c-157.62-9.351-295.98-90.23-383.061-210.65c-2.76-3.81-5.47-7.67-8.12-11.56c-55.81-81.8-88.43-180.681-88.43-287.17
			c0-281.82,228.46-510.27,510.28-510.27C-386.576,61.751-158.116,290.201-158.116,572.021z"/>
		<g>
			<path fill="#303030" d="M-246.505,859.061c-2.531,3.73-5.121,7.421-7.76,11.08c-86.661,120.221-224.401,201.181-381.42,211.13
				c-2.49,0.16-4.99,0.301-7.49,0.421c-7.94,0.38-15.9,0.59-23.87,0.609c-1.57,0-3.13,0-4.689-0.01
				c-6.601-0.04-13.19-0.21-19.78-0.5c-2.53-0.11-5.061-0.24-7.59-0.39c-157.62-9.351-295.98-90.23-383.061-210.65
				c-2.76-3.81-5.47-7.67-8.12-11.56c15.28-17.641,39.301-37.181,66.011-59.181c30.84-25.41,170.649-63.19,223.09-77.6
				c1.24-0.35,2.439-0.67,3.59-0.98c6.39-1.75,11.38-3.08,14.56-3.91h228.88c2.73,0.74,6.94,1.87,12.33,3.35
				c1.301,0.35,2.67,0.73,4.11,1.13c51.33,14.09,195.65,52.36,226.79,78.01C-284.416,821.841-261.255,841.371-246.505,859.061z"/>
			<path fill="#87644C" d="M-555.2,615.347c-6.239,8.64-10.93,17.77-15.069,25.82c-2.98,5.8-5.801,11.28-8.49,15.09
				c-10.72,15.17-30.86,26.46-46.14,31.97l-0.551,0.2l-0.52,0.26c-0.04,0.02-4.82,2.22-10.45,2.22c-3.6,0-6.66-0.86-9.31-2.6
				c-0.92-0.61-9.32-5.95-23.15-6.01h-0.61c-13.779,0.06-22.189,5.4-23.06,5.98c-2.7,1.77-5.76,2.63-9.36,2.63
				c-5.7,0-10.45-2.23-10.45-2.23l-0.52-0.25l-0.55-0.2c-15.28-5.51-35.42-16.8-46.141-31.97c-2.689-3.82-5.51-9.31-8.479-15.12
				c-6.59-12.86-14.58-28.45-28.061-40.42c0.03-1,0.051-1.53,0.051-1.53c1.439,1.16,2.92,2.29,4.42,3.4
				c9.229,6.78,19.779,12.77,31.63,19.57c15.45,8.87,50.61,26.64,83.85,26.66c0,0,30.15,3.46,65.721-8.51
				C-592.24,634.187-572.87,626.487-555.2,615.347z"/>
			<path fill="#87644C" d="M-539.139,611.667c-0.07,4.09-0.181,10.09-0.32,17.36v0.09c-0.13,6.96-0.29,15.08-0.479,23.83
				c-0.061,2.66-0.12,5.38-0.181,8.14c-0.34,14.92-0.76,31.08-1.24,46.07c-0.159,4.99-0.329,9.86-0.5,14.5
				c-0.119,3.18-0.239,6.26-0.369,9.21c-0.631,14.72-1.351,26.17-2.131,30.75c-2.939,6.78-7.329,12.75-12.909,17.97
				c-24.5,23.06-71.46,31.78-113.79,31.6c-45.86-0.21-98.641-20.36-118.78-43.66c-2.29-2.64-4.16-5.33-5.54-8.02
				c-1.16-5.22-1.81-17.16-2.12-32.31c-0.02-0.79-0.03-1.59-0.05-2.4c-0.08-5.15-0.14-10.63-0.17-16.31
				c-0.061-15.92,0.1-33.42,0.35-49.67c0.021-1.33,0.04-2.66,0.061-3.97c0.13-7.66,0.27-14.97,0.41-21.63
				c0.02-1.09,0.05-2.17,0.069-3.23c0.12-5.8,0.24-11.03,0.36-15.46c13.82,15.74,20.64,36.03,28.729,47.5
				c0.7,0.99,1.44,1.97,2.2,2.93c0.84,1.05,1.71,2.08,2.61,3.09c12.91,14.45,32.16,24.56,46.109,29.59c0,0,16.07,8,29.771-1.01
				c0,0,6.42-4.28,17.6-4.33h0.57c11.18,0.05,17.6,4.33,17.6,4.33c13.7,9.01,29.771,1.01,29.771,1.01
				c14.1-5.08,33.62-15.37,46.54-30.08c0.89-1.01,1.75-2.04,2.56-3.1c0.641-0.8,1.24-1.61,1.82-2.43
				C-562.009,649.867-554.759,627.717-539.139,611.667z"/>
			<g>
				<path fill="#77553E" d="M-524.701,493.157c0,0,8.726-22.584,26.177-17.451s15.397,45.167,7.186,59.539
					c-8.212,14.371-11.292,24.124-11.805,34.902c-0.514,10.779-15.398,21.557-28.23,9.752
					C-544.205,568.094-524.701,493.157-524.701,493.157z"/>
				<g>
					<path fill="#684832" d="M-519.398,501.454c0,0,19.504-0.171,17.109,23.097c-2.396,23.269-27.374,17.964-27.374,17.964
						L-519.398,501.454z"/>
				</g>
			</g>
			<g>
				<path fill="#77553E" d="M-812.083,493.157c0,0-8.726-22.584-26.177-17.451s-15.397,45.167-7.186,59.539
					c8.212,14.371,11.292,24.124,11.805,34.902c0.514,10.779,15.398,21.557,28.23,9.752
					C-792.58,568.094-812.083,493.157-812.083,493.157z"/>
				<path fill="#684832" d="M-817.044,501.454c0,0-19.504-0.171-17.108,23.097c2.395,23.269,27.374,17.964,27.374,17.964
					L-817.044,501.454z"/>
			</g>
			<path fill="#87644C" d="M-514.734,453.274c-0.061,20.261-7.61,80.688-7.61,80.688c0.21,17.193-1.758,51.005-6.612,66.981
				c-12.897,42.52-37.063,76.089-37.063,76.089c-1.798,2.658-3.648,5.184-5.562,7.586c-0.05,0.072-0.11,0.155-0.172,0.228
				c-2.217,2.807-4.508,5.45-6.852,7.929c-0.031,0.031-0.062,0.062-0.092,0.093c-0.619,0.674-1.259,1.328-1.898,1.971
				c-7.452,7.556-15.342,13.536-23.205,18.262c-0.041,0.021-0.071,0.042-0.102,0.063c-32.125,19.316-63.853,17.879-64.418,17.844
				c-38.609-2.705-70.673-23.562-83.603-33.203c-0.01,0-0.01,0-0.021-0.01c-3.953-2.955-6.109-4.85-6.109-4.85
				c-6.239-7.118-14.395-19.624-21.218-31.427c-4.165-7.191-7.824-14.111-10.265-19.412c-0.052-0.103-18.734-38.181-18.763-38.277
				c-3.764-12.832-5.068-66.532-5.068-66.532s-6-54.147-5.792-72.691c0.246-21.857,8.485-87.025,8.485-87.025l36.207-60.681
				l27.118-20.872l43.033-6.696l70.479-1.567l47.411,15.154l31.767,23.56l33.532,54.327
				C-521.126,380.806-514.678,435.087-514.734,453.274z"/>
			
				<ellipse transform="matrix(0.9998 -0.0204 0.0204 0.9998 -12.817 -13.527)" fill="#754F3E" cx="-667.892" cy="619.998" rx="21.301" ry="6.587"/>
			<path fill="none" stroke="#754F3E" stroke-width="23" stroke-linecap="round" stroke-miterlimit="10" d="M-626.794,611.208
				c0,0-16.082,22.926-42.43,22.926c-26.349,0-41.403-23.953-41.403-23.953"/>
			<path fill="#514035" d="M-625.962,608.837c-1.058,0.719-2.187,1.427-3.398,2.136c-28.969,9.033-64.846,4.229-75.347,2.504
				c-1.283-0.616-2.505-1.252-3.655-1.889c9.958,2.331,22.676,3.726,36.524,3.726C-653.156,615.314-636.546,612.769-625.962,608.837
				z"/>
			<path fill="#FFFFFF" d="M-623.817,592.741l-0.698,15.081c-0.462,0.338-0.944,0.677-1.447,1.016
				c-10.584,3.932-27.193,6.478-45.876,6.478c-13.849,0-26.566-1.396-36.524-3.726c-3.151-1.776-5.789-3.613-7.945-5.338
				l-1.334-11.569l9.002-5.153l40.199,4.722l29.636-4.691L-623.817,592.741z"/>
			<path fill="#FFFFFF" d="M-613.326,596.96c0,0-0.011,0.021-0.031,0.051l0.021-0.051H-613.326z"/>
			<path fill="none" stroke="#77553E" stroke-width="11" stroke-linecap="round" stroke-miterlimit="10" d="M-645.015,466.724
				c0,0-13.602,15.398-4.362,29c9.238,13.602,14.884,26.433,14.884,26.433"/>
			<path fill="none" stroke="#77553E" stroke-width="8" stroke-linecap="round" stroke-miterlimit="10" d="M-650.917,554.877
				c0,0,10.693-4.833,14.543-5.603"/>
			<path fill="none" stroke="#77553E" stroke-width="8" stroke-linecap="round" stroke-miterlimit="10" d="M-687.36,554.877
				c0,0-9.495-4.32-13.345-5.089"/>
			<path fill="#754F3E" d="M-604.827,596.108c-0.112,0.062-0.226,0.133-0.349,0.185c-4.373,2.423-9.824,3.09-9.824,3.09
				c-0.093-0.041-0.185-0.072-0.267-0.113c-3.151-1.232-5.902-2.556-8.675-3.706c-4.66-1.95-9.341-2.412-16.023-2.207
				c-10.779,0.339-15.203,6.642-27.788,6.519c-12-0.113-20.88-4.876-31.926-5.882c-0.544-0.062-1.088-0.092-1.643-0.124
				c-7.35-0.41-12.246-0.051-16.157,2.238c-0.637,0.369-1.263,0.739-1.858,1.088c-1.427,0.842-2.761,1.591-4.096,2.074
				c-0.185,0.072-0.38,0.144-0.564,0.195c-3.069,0.216-7.761-1.807-9.239-2.648v-0.01c0.052-0.226,0.124-0.462,0.226-0.729
				c0.719-1.868,2.772-4.517,6.857-8.232c15.224-13.828,39.512-8.941,48.822-6.919c2.936,0.637,5.554,1.006,7.997,1.119
				c5.307,0.298,9.772-0.523,14.823-2.094c7.37-2.278,16.127-1.529,16.127-1.529C-617.298,579.561-604.827,596.108-604.827,596.108z
				"/>
			<path fill="#514035" d="M-716.306,606.25c-3.781-3.004-6.104-5.663-7.131-6.976c1.899-0.686,3.792-1.916,5.961-3.165
				L-716.306,606.25z"/>
			<path fill="#514035" d="M-615.269,599.273c-1.919,2.331-4.924,5.434-9.242,8.547l0.57-12.26
				C-621.172,596.716-618.419,598.037-615.269,599.273z"/>
			<path fill="#514035" d="M-629.363,610.972c-8.483,4.928-20.611,9.232-37.397,9.758c-16.487,0.517-28.931-2.924-37.95-7.253
				C-694.211,615.201-658.33,620.003-629.363,610.972z"/>
			<path fill="none" stroke="#77553E" stroke-width="6" stroke-linecap="round" stroke-miterlimit="10" d="M-747.325,579.886
				c0,0-6.62,7.94-2.417,18.753"/>
			<g>
				<circle fill="#140D0C" cx="-740.102" cy="480.635" r="13.705"/>
			</g>
			<path fill="none" stroke="#77553E" stroke-width="11" stroke-linecap="round" stroke-miterlimit="10" d="M-720.825,491.377
				c-21.968,6.57-40.868,1.008-40.868,1.008"/>
			<path fill="#281D1B" d="M-712.96,438.751c0,0-11.446,1.349-26.861,4.962c-10.95,2.566-22.381,7.643-38.153,13.174
				c-6.587,2.31-9.883-0.271,0.343-14.286c9.923-13.602,29.085-15.74,41.917-15.74c0,0,26.86,0.085,27.631,5.988
				C-707.482,437.473-712.96,438.751-712.96,438.751z"/>
			<g>
				<circle fill="#140D0C" cx="-599.482" cy="480.635" r="13.705"/>
			</g>
			<path fill="none" stroke="#77553E" stroke-width="11" stroke-linecap="round" stroke-miterlimit="10" d="M-618.76,491.377
				c21.969,6.57,40.869,1.008,40.869,1.008"/>
			<path fill="#281D1B" d="M-626.624,438.751c0,0,11.446,1.349,26.861,4.962c10.95,2.566,22.381,7.643,38.153,13.174
				c6.587,2.31,9.883-0.271-0.343-14.286c-9.923-13.602-29.085-15.74-41.917-15.74c0,0-26.86,0.085-27.631,5.988
				C-632.102,437.473-626.624,438.751-626.624,438.751z"/>
			<path fill="#4C3A2D" d="M-694.493,646.862c0,0,25.24,8.501,48.971,0.615c0,0,9.174-2.323,2.938,6.761
				c-6.238,9.083-18.798,12.623-25.995,12.402c-6.425-0.197-21.235-0.75-28.166-14.918
				C-699.615,645.856-694.493,646.862-694.493,646.862z"/>
			<path fill="#77553E" d="M-567.87,679.407c-1.83,2.64-3.71,5.15-5.649,7.53c-0.051,0.07-0.11,0.15-0.17,0.23
				c-1.311,1.71-2.57,3.27-3.761,4.62c0,0-1.1,1.22-3.18,3.23c-0.03,0.03-0.06,0.06-0.09,0.09c-0.55,0.53-1.16,1.12-1.84,1.76
				c-4.851,4.51-12.95,11.45-23.49,18.2c-0.04,0.02-0.07,0.04-0.1,0.06c-15.681,10.01-36.721,19.56-60.471,20.18
				c-0.75,0.02-1.51,0.03-2.26,0.03h-0.57c-0.75,0-1.51-0.01-2.26-0.03c-23.75-0.62-44.79-10.17-60.47-20.18
				c-0.03-0.02-0.061-0.04-0.101-0.06c-10.54-6.75-18.64-13.69-23.489-18.2c-0.681-0.64-1.29-1.23-1.841-1.76l-0.09-0.09
				c-2.08-2.01-3.18-3.23-3.18-3.23c-1.19-1.35-2.45-2.91-3.76-4.62c-0.061-0.08-0.12-0.16-0.17-0.23
				c-1.94-2.38-3.82-4.89-5.65-7.53c0,0-13.87-18.83-26.439-46.19c-0.141,6.66-0.28,13.97-0.41,21.63
				c9.37,17.43,17.609,28.86,18.71,30.37c1.91,2.75,3.89,5.39,5.899,7.87c0.061,0.08,0.13,0.17,0.2,0.25
				c1.43,1.89,2.82,3.59,4.11,5.06l0.1,0.11c0.141,0.15,1.36,1.49,3.57,3.63l0.109,0.11c0.591,0.58,1.261,1.21,2.021,1.93
				c5.26,4.9,13.85,12.23,24.92,19.31l0.43,0.27l0.03,0.02c21.61,13.72,43.55,20.96,65.23,21.53c0.84,0.02,1.689,0.03,2.529,0.03
				h0.57c0.84,0,1.69-0.01,2.52-0.03c21.681-0.57,43.62-7.8,65.221-21.52l0.029-0.01l0.45-0.29c11.07-7.08,19.66-14.41,24.95-19.34
				c0.73-0.69,1.4-1.32,2-1.91l0.07-0.07c2.229-2.16,3.46-3.51,3.6-3.66l0.101-0.11c1.29-1.47,2.67-3.17,4.109-5.05
				c0.07-0.09,0.141-0.18,0.21-0.27c2-2.47,3.98-5.11,5.891-7.85c1.17-1.6,9.989-13.81,19.79-32.28
				c0.189-8.75,0.35-16.87,0.479-23.83v-0.09C-552.5,658.626-567.87,679.407-567.87,679.407z"/>
			<path fill="#281D1B" d="M-529.839,603.677c-13.36,42.37-38.03,75.73-38.03,75.73c-1.83,2.64-3.71,5.15-5.649,7.53
				c-0.051,0.07-0.11,0.15-0.17,0.23c-1.311,1.71-2.57,3.27-3.761,4.62c0,0-1.1,1.22-3.18,3.23c-0.03,0.03-0.06,0.06-0.09,0.09
				c-0.55,0.53-1.16,1.12-1.84,1.76c-4.851,4.51-12.95,11.45-23.49,18.2c-0.04,0.02-0.07,0.04-0.1,0.06
				c-15.681,10.01-36.721,19.56-60.471,20.18c-0.75,0.02-1.51,0.03-2.26,0.03h-0.57c-0.75,0-1.51-0.01-2.26-0.03
				c-23.75-0.62-44.79-10.17-60.47-20.18c-0.03-0.02-0.061-0.04-0.101-0.06c-10.54-6.75-18.64-13.69-23.489-18.2
				c-0.681-0.64-1.29-1.23-1.841-1.76l-0.09-0.09c-2.08-2.01-3.18-3.23-3.18-3.23c-1.19-1.35-2.45-2.91-3.76-4.62
				c-0.061-0.08-0.12-0.16-0.17-0.23c-1.94-2.38-3.82-4.89-5.65-7.53c0,0-24.53-33.3-37.9-75.67
				c22.36,15.76,30.49,43.94,40.62,58.29c12.48,17.67,35.11,29.91,50.92,35.61c0,0,16.07,8,29.771-1.01c0,0,6.42-4.28,17.6-4.33
				h0.57c11.18,0.05,17.6,4.33,17.6,4.33c13.7,9.01,29.771,1.01,29.771,1.01c15.81-5.7,38.43-17.94,50.92-35.61
				C-560.459,647.677-552.2,619.427-529.839,603.677z"/>
			<path fill="#281D1B" d="M-580.723,693.824c-0.626,0.667-1.273,1.314-1.92,1.951l0.082-0.195
				C-581.883,694.943-581.267,694.358-580.723,693.824z"/>
			<path fill="none" d="M-666.144,318.304c0,0-35.587-1.369-70.831-8.212"/>
			<path fill="#281D1B" d="M-521.502,527.207c0,0,5.563-45.342-5.984-77.164c-12.318-23.949-14.331-34.708-13.602-46.893
				c2.997-49.94-42.776-95.622-85.891-87.933c-13.909,2.484-28.837,3.367-40.662,3.429c-0.247,0-1.764,0.01-2.246,0
				c-12.011-0.021-24.905-0.894-39.112-3.429c-43.114-7.689-88.887,37.992-85.89,87.933c0.729,12.185-1.283,22.943-13.602,46.893
				c-11.549,31.822-5.984,77.164-5.984,77.164s-38.495-132.248,21.044-197.957c38.577-42.57,82.804-54.317,124.581-54.317
				c43.082,0,87.727,11.747,126.304,54.317C-483.008,394.959-521.502,527.207-521.502,527.207z"/>
			<path fill="#4C3A2D" d="M-597.292,587.598c-1.222,3.141-4.291,7.433-7.884,8.695c0.123-0.051,0.236-0.123,0.349-0.185
				c0,0-12.472-16.548-33.557-17.688c0,0-8.757-0.749-16.127,1.529c-5.051,1.571-9.517,2.392-14.823,2.094
				c-2.443-0.113-5.062-0.482-7.997-1.119c-9.311-2.022-33.599-6.909-48.822,6.919c-4.085,3.716-6.139,6.364-6.857,8.232
				c-0.102,0.267-0.174,0.503-0.226,0.729c-3.243-1.735-6.128-6.324-7.247-9.208c0,0,10.778-27.459,71.591-27.459h0.01
				C-608.07,560.139-597.292,587.598-597.292,587.598z"/>
			<path fill="none" stroke="#77553E" stroke-width="6" stroke-linecap="round" stroke-miterlimit="10" d="M-591,579.886
				c0,0,6.62,7.94,2.417,18.753"/>
			<ellipse fill="#FFFFFF" cx="-734.376" cy="476.785" rx="2.695" ry="5.004"/>
			<ellipse fill="#FFFFFF" cx="-593.261" cy="475.706" rx="2.695" ry="5.004"/>
			<path fill="none" stroke="#281D1B" stroke-width="7" stroke-linecap="round" stroke-miterlimit="10" d="M-712.427,479.248
				c0,0-8.281-9.866-29.497-9.715c-11.399,0.081-19.214,4.09-24.005,7.78c-4.125,3.177-9.429,6.315-9.429,6.315"/>
			<path fill="none" stroke="#281D1B" stroke-width="7" stroke-linecap="round" stroke-miterlimit="10" d="M-627.157,479.248
				c0,0,8.281-9.866,29.496-9.715c11.4,0.081,19.215,4.09,24.006,7.78c4.124,3.177,9.429,6.315,9.429,6.315"/>
			<path fill="#EDB65F" d="M-535.37,750.787c0,89.55-60.16,162.4-134.12,162.4c-73.949,0-134.109-72.85-134.109-162.4
				c0-16,1.939-30.07,5.88-42.3c0.03,5.68,0.09,11.16,0.17,16.31c-1.37,7.99-2.05,16.64-2.05,25.99
				c0,87.34,58.37,158.4,130.109,158.4c71.75,0,130.12-71.06,130.12-158.4c0-10.59-0.819-20.29-2.49-29.13
				c0.171-4.64,0.341-9.51,0.5-14.5C-537.349,719.677-535.37,734.187-535.37,750.787z"/>
			<path fill="#FFFFFF" d="M-566.75,873.875c0,0-1.962-12.149-3.661-15.625c-1.192-2.446-8.618-6.115-8.618-6.115
				s7.351-3.999,8.582-6.479c1.694-3.412,3.697-15.258,3.697-15.258s1.85,11.884,3.546,15.293c1.231,2.482,8.733,6.444,8.733,6.444
				s-7.502,3.634-8.696,6.082C-564.864,861.688-566.75,873.875-566.75,873.875z"/>
			<path fill="#FFFFFF" d="M-546.872,884.353c0,0-1.396-8.646-2.605-11.12c-0.85-1.741-6.134-4.353-6.134-4.353
				s5.231-2.848,6.107-4.612c1.206-2.428,2.632-10.859,2.632-10.859s1.316,8.459,2.522,10.885c0.878,1.767,6.217,4.587,6.217,4.587
				s-5.339,2.586-6.189,4.328C-545.53,875.679-546.872,884.353-546.872,884.353z"/>
		</g>
	</g>
</g>
</svg>
