<?xml version="1.0" encoding="utf-8"?>
<!-- Generator: Adobe Illustrator 16.0.0, SVG Export Plug-In . SVG Version: 6.00 Build 0)  -->
<!DOCTYPE svg PUBLIC "-//W3C//DTD SVG 1.1//EN" "http://www.w3.org/Graphics/SVG/1.1/DTD/svg11.dtd">
<svg version="1.1" id="Layer_1" xmlns="http://www.w3.org/2000/svg" xmlns:xlink="http://www.w3.org/1999/xlink" x="0px" y="0px"
	 width="1133.673px" height="1134.694px" viewBox="0 0 1133.673 1134.694" enable-background="new 0 0 1133.673 1134.694"
	 xml:space="preserve">
<path fill="#F4F0EF" d="M576.561,1070.349c0,1.57-0.38,3.03-1.05,4.29c-3.37,0.08-6.75,0.12-10.12,0.13c-0.91,0-1.82,0-2.721-0.01
	c-0.709-1.28-1.109-2.79-1.109-4.41c0-4.68,3.35-8.46,7.5-8.46C573.202,1061.889,576.561,1065.669,576.561,1070.349z"/>
<g>
	<path fill="#BAD3EE" d="M1075.088,563.02c0,106.439-32.59,205.27-88.34,287.039c-2.541,3.73-5.131,7.422-7.76,11.08
		c-12.281,17.021-25.58,33.262-39.811,48.611c-0.641,0.689-1.279,1.379-1.93,2.07c-1.59,1.719-3.211,3.42-4.84,5.109
		c-49.57,51.49-109.871,92.59-177.311,119.709c-25.74,10.352-52.52,18.67-80.141,24.74c-6.859,1.51-13.77,2.881-20.729,4.111
		c-18.561,3.289-37.471,5.559-56.67,6.779c-2.48,0.16-4.98,0.301-7.48,0.42c-2.041,0.1-4.08,0.18-6.131,0.26
		c-1.26,0.051-2.539,0.09-3.82,0.131c-1.26,0.029-2.529,0.059-3.799,0.09c-3.381,0.08-6.75,0.119-10.121,0.129
		c-0.919,0-1.83,0-2.729-0.01c-0.65,0.01-1.301,0-1.96,0c-1.86-0.01-3.721-0.029-5.57-0.059c-4.74-0.08-9.48-0.23-14.22-0.441
		c-2.521-0.109-5.051-0.24-7.591-0.389c-15.13-0.9-30.09-2.461-44.84-4.66c-0.17-0.021-0.35-0.041-0.52-0.07
		c-0.431-0.061-0.86-0.131-1.29-0.201c-1.101-0.16-2.19-0.318-3.28-0.5c-1.63-0.26-3.26-0.52-4.89-0.799
		c-0.641-0.111-1.28-0.211-1.931-0.33c-2.92-0.5-5.819-1.031-8.72-1.59c-0.29-0.051-0.57-0.1-0.859-0.16
		c-8.45-1.621-16.83-3.451-25.12-5.49c-1.13-0.279-2.25-0.561-3.38-0.85c-0.12-0.02-0.24-0.051-0.36-0.09
		c-0.68-0.17-1.37-0.352-2.05-0.531c-0.101-0.02-0.21-0.049-0.311-0.08c-0.77-0.189-1.54-0.389-2.31-0.6
		c-2.01-0.52-4.01-1.061-6.01-1.619c-0.62-0.17-1.24-0.34-1.851-0.521c-3.149-0.879-6.29-1.789-9.42-2.738
		c-0.689-0.211-1.37-0.42-2.05-0.631c-2.061-0.619-4.12-1.27-6.17-1.939c-1.73-0.551-3.46-1.111-5.181-1.68
		c-1.729-0.58-3.46-1.17-5.18-1.762c-2.02-0.689-4.04-1.398-6.05-2.129c-0.92-0.33-1.83-0.66-2.74-1
		c-71.88-26.27-136.189-68.24-188.78-121.779c-1.119-1.131-2.22-2.262-3.319-3.4c-1.73-1.791-3.431-3.59-5.12-5.4
		c-14.8-15.791-28.62-32.529-41.33-50.1c-2.75-3.811-5.46-7.67-8.12-11.561c-55.8-81.8-88.42-180.68-88.42-287.17
		c0-281.82,228.46-510.27,510.271-510.27C846.627,52.75,1075.088,281.2,1075.088,563.02z"/>
	<rect x="370.328" y="494" fill="#1B1616" width="419" height="347"/>
	<path fill="#97785F" d="M748.713,823.54c0,52.77-78.154,150.793-174.051,150.793h-5.502c-95.896,0-173.217-98.023-173.217-150.793
		c0-16.148,5.937-28.779,19.452-35.609c2.726-1.391,5.756-2.54,9.106-3.43c11.27-3,20.955-7.664,29.784-12.834
		c6.765-3.959,12.508-13.752,13.738-18.291C474.799,728.525,529.961,728,569.577,728h5.502c39.617,0,95.143,0.524,101.918,25.375
		c1.23,4.539,7.637,15.332,14.4,19.291c8.83,5.17,17.488,8.834,28.758,11.834C740.147,789.82,748.713,804.141,748.713,823.54z"/>
	<path fill="#97785F" d="M677.608,779.86c-4.07,11.73-12.83,29.9-30.141,52.199c-0.729,0.941-1.559,1.98-2.459,3.102
		c-21.051,11.809-48.391,16.58-73.74,16.439c-26.87-0.16-56.56-10.83-77.8-25.85c-15.72-21.51-23.27-38.66-26.46-49.131
		c0.11-3.75,0.23-7.949,0.37-12.5c0.07-2.369,0.15-4.84,0.23-7.39c0.029-0.76,0.06-1.521,0.09-2.3c0.02-0.62,0.04-1.24,0.07-1.86
		c0.01-0.19,0.01-0.38,0.02-0.579c0.07-2.061,0.14-4.171,0.21-6.32c0.521-15.271,1.17-32.43,1.79-48.98
		c0.01-0.33,0.021-0.65,0.03-0.97c0.06-1.74,0.13-3.479,0.2-5.2c0.04-1.05,0.079-2.1,0.13-3.141c0.06-1.699,0.12-3.389,0.18-5.06
		c0.04-0.92,0.08-1.829,0.11-2.729c0.05-1.24,0.1-2.461,0.149-3.67c0.08-1.98,0.15-3.93,0.221-5.851
		c0.02-0.29,0.029-0.579,0.05-0.87c0.06-1.539,0.12-3.05,0.17-4.539c0.96-24.711,1.72-42.99,1.72-42.99
		c1.12,1.16,171.43,8.64,197.6,7.149c1.961-0.11,3.109-0.271,3.34-0.489c0,0,0.371,13.209,0.9,32.26
		c0.029,1.02,0.049,2.07,0.08,3.13v0.05c0.1,3.33,0.199,6.82,0.311,10.439c0.029,1.181,0.059,2.381,0.1,3.59
		c0.02,0.691,0.039,1.381,0.059,2.08c0.012,0.721,0.031,1.44,0.051,2.17c0.041,1.941,0.09,3.891,0.16,5.881
		c0,0.279,0.01,0.561,0.02,0.84c0.041,1.529,0.09,3.08,0.131,4.63c0.459,17.69,0.949,36.601,1.369,53.41
		c0.031,1.3,0.061,2.58,0.09,3.851c0.01,0.68,0.021,1.35,0.051,2.02c0,0.27,0.01,0.529,0.02,0.8c0.01,0.31,0.02,0.62,0.031,0.931
		c0.068,3.359,0.139,6.609,0.209,9.709C677.409,769.94,677.518,775.26,677.608,779.86z"/>
	<path fill="#8B6950" d="M439.815,499.729c0,0-16.08-33.106-31.215-18.918s-2.365,51.552-0.473,56.281
		c1.642,4.107,8.035,20.803,5.991,29.48c-2.896,12.297,10.404,37.521,38.309,17.5C479.188,564.874,439.815,499.729,439.815,499.729z
		"/>
	<path fill="#8B6950" d="M713.329,495c0,0,17-35,33-20s2.5,54.5,0.5,59.5c-1.736,4.341-8.496,21.992-6.334,31.167
		c3.062,13-11,39.666-40.5,18.5C671.706,563.869,713.329,495,713.329,495z"/>
	<path fill="#8B6950" d="M674.979,674.209c-0.111-3.619-0.211-7.109-0.311-10.439v-0.05c-4.23,4.64-8.98,9.45-14.33,14.47
		c-14.32,13.439-36.18,41.46-62.189,45.48c-23.711,3.66-69.351,7.55-95.541-23.17c-8.37-9.83-20.04-21.41-31.58-35.84
		c-0.05,1.489-0.11,3-0.17,4.539c-0.021,0.291-0.03,0.58-0.05,0.87c-0.07,1.921-0.141,3.87-0.221,5.851
		c-0.05,1.209-0.1,2.43-0.149,3.67c4.88,5.689,9.64,10.869,14.01,15.63c3.85,4.2,7.479,8.159,10.55,11.76
		c16.48,19.34,41.35,29.14,73.92,29.14c9.52,0,19.58-0.84,30.76-2.57c24.279-3.75,44.16-24.239,58.68-39.209
		c3.201-3.301,6.221-6.41,8.83-8.86c2.779-2.61,5.4-5.17,7.891-7.681C675.038,676.59,675.008,675.39,674.979,674.209z"/>
	<path fill="#97785F" d="M719.938,466.94c0,0-3.1,87.3-7.57,116.03c-4.27,27.38-8.869,54.71-52.029,95.22
		c-14.32,13.439-36.18,41.46-62.189,45.48c-23.711,3.66-69.351,7.55-95.541-23.17c-23.17-27.201-71.49-67.711-72.75-145.271
		l-3.15-137.48l30.9-80.08l63.05-49.82l76.309-9.46l77.561,37.2l45.09,69.37L719.938,466.94z"/>
	<g>
		<g>
			<g>
				<circle fill="#1D1312" cx="500.883" cy="477.696" r="13.465"/>
			</g>
			<path fill="none" stroke="#8B6950" stroke-width="11" stroke-linecap="round" stroke-miterlimit="10" d="M519.733,488.731
				c0,0-6.872-0.388-13.249,0.812c-8.221,1.549-20.191,0.349-27.972-2.909"/>
			
				<ellipse transform="matrix(0.9998 0.0221 -0.0221 0.9998 10.5836 -11.0988)" fill="#FFFFFF" cx="506.96" cy="472.831" rx="2.549" ry="4.734"/>
			<g>
				<path fill="none" stroke="#362724" stroke-width="7" stroke-linecap="round" stroke-miterlimit="10" d="M529.692,480.989
					c0,0-10.936-12.834-23.313-15.341c-12.244-2.479-29.693,2.181-37.784,11.463"/>
				<g>
					<path fill="#362724" d="M467.191,475.129c0,0-7.229-0.962-10.115-11.503c0,0,4.839,6.304,14.989,6.503"/>
					<path fill="#362724" d="M472.212,470.937c0,0-5.951-2.081-6.674-8.942c0,0,5.849,5.988,14.565,5.815"/>
					<g>
						<path fill="#362724" d="M475.879,468.143c0,0-4.464-3.58-5.073-8.287c0,0,3.753,5.537,10.49,6.007"/>
						<path fill="#362724" d="M473.785,462.905c0,0,2.307,2.107,11.443,1.24c9.136-0.866-4.465,3.192-4.465,3.192l-5.533-1.528
							L473.785,462.905z"/>
					</g>
				</g>
			</g>
		</g>
		<path fill="#362724" d="M540.802,442.502c-0.473-6.029-3.075-8.867-15.489-11.351c-13.577-2.715-66.45-14.188-78.273,15.607
			c0,0,14.268-8.355,39.177-7.252c16.597,0.735,44.771,9.971,50.802,9.026C541.597,447.814,540.959,444.507,540.802,442.502z"/>
	</g>
	<path fill="#655246" d="M652.954,612.625c-4.213,4.248-10.857,8.807-16.336,12.518l3.246-13.507L652.954,612.625z"/>
	<path fill="#655246" d="M512.713,622.774c-8.821-7.16-14.3-13.159-14.3-13.159l13.024-3.197L512.713,622.774z"/>
	<path fill="#FFFFFF" d="M937.239,911.821c-1.602,1.719-3.211,3.42-4.84,5.109c-11.42,11.869-23.42,23.18-35.941,33.91
		c-0.969,0.82-1.939,1.641-2.91,2.459c-2.91,2.451-5.84,4.871-8.799,7.271c0-0.012-0.01,0-0.01,0
		c-6.92,5.568-13.98,10.959-21.18,16.18h-0.012c-32.949,23.83-68.85,43.82-107.059,59.32c-1.201,0.479-2.391,0.959-3.59,1.439
		c-2.4,0.949-4.801,1.879-7.221,2.799c-6.029,2.291-12.131,4.471-18.27,6.531c-14.98,5.039-30.271,9.391-45.83,13.039
		c-0.67,0.16-1.34,0.311-2.01,0.461c-0.66,0.16-1.33,0.299-2,0.449c-0.301,0.07-0.611,0.15-0.91,0.211
		c-0.301,0.07-0.611,0.139-0.91,0.209c-25.41,5.631-51.52,9.371-78.201,11.061c-2.488,0.16-4.988,0.301-7.488,0.42
		c-2.041,0.1-4.08,0.18-6.121,0.26c-1.27,0.051-2.539,0.09-3.82,0.131c-1.27,0.029-2.539,0.059-3.809,0.09
		c-3.371,0.08-6.75,0.119-10.121,0.129c-0.91,0-1.82,0-2.72-0.01c-0.659,0.01-1.31,0-1.97,0c-1.85-0.01-3.71-0.029-5.56-0.059
		c-4.74-0.08-9.48-0.23-14.221-0.441c-2.529-0.109-5.06-0.24-7.59-0.389c-21.77-1.291-43.17-3.951-64.12-7.891
		c-0.729-0.141-1.47-0.279-2.199-0.42c-21.94-4.211-43.37-9.84-64.211-16.77c-10.229-3.4-20.319-7.121-30.25-11.15
		c-2.06-0.83-4.109-1.68-6.159-2.541c-2.38-1-4.75-2.02-7.12-3.059c-2.36-1.041-4.71-2.09-7.061-3.16
		c-1.18-0.531-2.35-1.07-3.51-1.621c-2.33-1.09-4.66-2.199-6.979-3.32c-3.471-1.68-6.921-3.398-10.351-5.16c0,0,0,0-0.01,0
		c-2.28-1.18-4.561-2.369-6.82-3.568c-15.87-8.441-31.24-17.711-46.05-27.73c-2.11-1.439-4.21-2.881-6.3-4.34c-0.01,0-0.01,0-0.01,0
		c-8.37-5.85-16.561-11.939-24.551-18.27h-0.01c-1.99-1.592-3.97-3.182-5.95-4.791c-0.01,0.01-0.01,0.01-0.01,0
		c-15.8-12.891-15.689-81.6,8.24-102.959c13.189-11.771,42.35-24.262,74.77-35.592c6.57-2.299,15.91-5.898,26.57-10.039
		c26.86-10.42,62.1-24.17,82.54-28.641c-0.7,9.021,1.71,23.791,6.73,40.311c1.34,4.4,2.859,8.92,4.55,13.5
		c6.26,16.891,14.92,34.439,25.47,48.811c19.33,26.33,69.67,79.67,104,79.67c30.949,0,71.84-34.92,100.5-77.67
		c14.969-22.33,22.469-41.201,27.209-58.16l0.01-0.02c4.59-16.461,6.59-31.131,10.281-45.49c10.17,2.5,24.84,7.85,32.83,10.34
		c0.6,0.189,31.02,10.26,31.9,10.55c1.408,0.46,3.148,1.05,5.17,1.739c6.408,2.211,15.6,5.48,25.779,9.26
		c2,0.75,4.039,1.521,6.109,2.301c25.18,9.539,53.961,21.439,61.451,28.131C901.588,866.981,922.508,893.01,937.239,911.821z"/>
	<path fill="none" stroke="#8B6950" stroke-width="11" stroke-linecap="round" stroke-miterlimit="10" d="M535.482,560.268
		c0,0,18.918,2.838,21.756,6.149"/>
	<path fill="none" stroke="#8B6950" stroke-width="11" stroke-linecap="round" stroke-miterlimit="10" d="M613.993,560.268
		c0,0-18.918,2.838-21.756,6.149"/>
	<path fill="none" stroke="#8B6950" stroke-width="11" stroke-linecap="round" stroke-miterlimit="10" d="M594.444,479.55
		c0,0-5.045,9.144-5.045,17.972s4.414,27.432,10.719,35.314"/>
	<g>
		<g>
			<g>
				<path fill="#1D1312" d="M662.292,477.729c0.018-7.436-5.994-13.479-13.434-13.496c-7.434-0.02-13.477,5.994-13.496,13.43
					c-0.02,7.437,5.996,13.479,13.43,13.499C656.229,491.18,662.272,485.167,662.292,477.729z"/>
			</g>
			<path fill="none" stroke="#8B6950" stroke-width="11" stroke-linecap="round" stroke-miterlimit="10" d="M629.977,488.731
				c0,0,6.871-0.388,13.25,0.812c8.219,1.549,20.189,0.349,27.971-2.909"/>
			
				<ellipse transform="matrix(-0.9998 0.0221 -0.0221 -0.9998 1319.443 931.0726)" fill="#FFFFFF" cx="654.574" cy="472.831" rx="2.55" ry="4.734"/>
			<g>
				<path fill="none" stroke="#362724" stroke-width="7" stroke-linecap="round" stroke-miterlimit="10" d="M620.018,480.989
					c0,0,10.936-12.834,23.312-15.341c12.246-2.479,29.695,2.181,37.785,11.463"/>
				<g>
					<path fill="#362724" d="M682.518,475.129c0,0,7.229-0.962,10.115-11.503c0,0-4.84,6.304-14.988,6.503"/>
					<path fill="#362724" d="M677.499,470.937c0,0,5.951-2.081,6.674-8.942c0,0-5.85,5.988-14.566,5.815"/>
					<g>
						<path fill="#362724" d="M673.833,468.143c0,0,4.463-3.58,5.072-8.287c0,0-3.754,5.537-10.492,6.007"/>
						<path fill="#362724" d="M675.924,462.905c0,0-2.307,2.107-11.443,1.24c-9.137-0.866,4.465,3.192,4.465,3.192l5.535-1.528
							L675.924,462.905z"/>
					</g>
				</g>
			</g>
		</g>
		<path fill="#362724" d="M608.909,442.502c0.473-6.029,3.074-8.867,15.488-11.351c13.578-2.715,66.451-14.188,78.273,15.607
			c0,0-14.268-8.355-39.176-7.252c-16.598,0.735-44.771,9.971-50.803,9.026C608.114,447.814,608.75,444.507,608.909,442.502z"/>
	</g>
	<g>
		
			<ellipse transform="matrix(0.9999 -0.0113 0.0113 0.9999 -7.1882 6.5062)" fill="#9A665A" cx="572.938" cy="640.23" rx="32.279" ry="8.75"/>
		<path fill="none" stroke="#9A665A" stroke-width="23" stroke-linecap="round" stroke-miterlimit="10" d="M521.164,631.356
			c0,0,17.566,24.48,48.772,25.699c32.887,1.283,52.949-23.064,52.949-23.064"/>
		<path fill="#FFFFFF" d="M637.202,610.057l-3.072,12.775c-17.318,11.738-40.705,19.947-66.01,20.053
			c-19.609,0.08-38.856-12.303-51.191-22.293l-1.206-15.473l27.063-6.645l30.568,5.331l16.791,0.047L637.202,610.057z"/>
		<path fill="#9A665A" d="M500.484,607.09c3.915,2.393,12.172,3.709,18.144,2.064c6.348-1.748,17.28-5.556,34.381,0.873
			c17.099,6.428,33.437,1.198,33.437,1.198s5.436-2.718,14.496-0.794c8.98,1.906,32.01,2.521,48.699,0.441
			c0,0-12.568-10.518-36.289-16.349c-19.01-4.673-23.973-5.495-29.982-4.106c-6.02,1.391-16.875,1.446-24.95-1.537
			C547.639,584.897,486.006,598.241,500.484,607.09z"/>
		<path fill="none" stroke="#8B6950" stroke-width="6" stroke-linecap="round" stroke-miterlimit="10" d="M652.301,609.139
			c0,0,1.105,6.938,0.633,7.727"/>
		
			<line fill="none" stroke="#8B6950" stroke-width="6" stroke-linecap="round" stroke-miterlimit="10" x1="497.019" y1="600.911" x2="494.018" y2="607.515"/>
	</g>
	<path fill="none" stroke="#927057" stroke-width="6" stroke-linecap="round" stroke-miterlimit="10" d="M688.956,586.752
		c0,0-1.891,26.959-5.912,35.472c-3.594,7.614-7.094,12.297-7.094,12.297"/>
	<path fill="none" stroke="#927057" stroke-width="6" stroke-linecap="round" stroke-miterlimit="10" d="M455.081,584.387
		c0,0,1.892,12.771,1.419,16.555c-0.473,3.783,0.473,25.539,7.094,32.633"/>
	
		<line fill="none" stroke="#8B6950" stroke-width="11" stroke-linecap="round" stroke-miterlimit="10" x1="561.021" y1="674.249" x2="587.506" y2="674.249"/>
	<g>
		<path fill="#282828" d="M468.668,1064.25c-0.29-0.051-0.57-0.1-0.859-0.16c-8.45-1.621-16.83-3.451-25.12-5.49
			c-1.13-0.279-2.25-0.561-3.38-0.85c-0.12-0.02-0.24-0.051-0.36-0.09c-0.68-0.17-1.37-0.352-2.05-0.531
			c-0.101-0.02-0.21-0.049-0.311-0.08c-0.77-0.189-1.54-0.389-2.31-0.6c-2.01-0.52-4.01-1.061-6.01-1.619
			c-0.62-0.17-1.24-0.34-1.851-0.521c-3.149-0.879-6.29-1.789-9.42-2.738c-0.689-0.211-1.37-0.42-2.05-0.631
			c-2.061-0.619-4.12-1.27-6.17-1.939c-1.73-0.551-3.46-1.111-5.181-1.68c-1.729-0.58-3.46-1.17-5.18-1.762
			c-2.02-0.689-4.04-1.398-6.05-2.129c-0.92-0.32-1.83-0.66-2.74-0.99v-0.01c-71.88-26.27-136.189-68.24-188.78-121.779
			c6.12-21.25,14.961-48.941,36.48-67.65c28.85-17.441,86.69-42.51,146.26-60.121c17.79-5.26,35.74-9.859,53.11-13.379l4.61,42.189
			L468.668,1064.25z"/>
		<path fill="#0F0F0F" d="M489.298,1067.741v0.01c-0.17-0.031-0.35-0.051-0.52-0.08c-0.431-0.061-0.86-0.131-1.29-0.201
			c-1.101-0.16-2.19-0.318-3.28-0.5c-1.63-0.26-3.26-0.52-4.89-0.799c-0.641-0.111-1.28-0.211-1.931-0.33
			c-2.92-0.5-5.819-1.031-8.72-1.59c-0.29-0.051-0.57-0.1-0.859-0.16c-8.45-1.621-16.83-3.451-25.12-5.49
			c-1.13-0.279-2.25-0.561-3.38-0.85c-0.12-0.02-0.24-0.051-0.36-0.09c-0.68-0.17-1.37-0.352-2.05-0.531
			c-0.101-0.02-0.21-0.049-0.311-0.08c-0.77-0.189-1.54-0.389-2.31-0.6c-2.01-0.52-4.01-1.061-6.01-1.619
			c-0.62-0.17-1.24-0.34-1.851-0.521c-3.149-0.879-6.29-1.789-9.42-2.738c-0.689-0.211-1.37-0.42-2.05-0.631
			c-2.061-0.619-4.12-1.27-6.17-1.939c-1.73-0.551-3.46-1.111-5.181-1.68c-1.729-0.58-3.46-1.17-5.18-1.762
			c-2.02-0.689-4.04-1.398-6.05-2.129c-0.92-0.32-1.83-0.66-2.74-0.99v-0.01c-8.1-32.949-19.3-76.43-19.3-76.43l39.5-39.5
			l-43.5-26.5l17.26-107.121l0.41-2.549c13.16-4.791,72-23.33,72-23.33c3.01,18.22,3.85,40.459,6.53,60.189
			C470.668,886.969,483.488,1008.62,489.298,1067.741z"/>
	</g>
	<g>
		<path fill="#282828" d="M939.178,909.75c-0.641,0.689-1.279,1.379-1.93,2.07c-1.59,1.719-3.211,3.42-4.84,5.109
			c-49.57,51.49-109.871,92.59-177.311,119.709c-25.74,10.352-52.52,18.67-80.141,24.74l27.031-239.689l4.609-42.189
			c17.369,3.52,35.32,8.119,53.109,13.379c59.57,17.611,117.41,42.68,146.26,60.121C923.958,868.639,933.088,890.559,939.178,909.75
			z"/>
		<path fill="#0F0F0F" d="M733.467,926.5l39.5,39.5c0,0-9.949,38.619-17.869,70.639c-25.74,10.352-52.52,18.67-80.141,24.74
			c-6.859,1.51-13.77,2.881-20.729,4.111c5.898-59.91,18.5-179.271,26.539-238.301c2.68-19.73,3.52-41.97,6.529-60.189
			c0,0,58.84,18.539,72,23.33l0.41,2.549L776.967,900L733.467,926.5z"/>
	</g>
	<g>
		<path fill="#EEBF72" d="M751.741,624.629c-1.783,27.582-21.766,48.829-44.533,47.356c-10.836-0.7-20.391-6.429-27.225-15.212
			c0.867-0.967,1.709-1.928,2.529-2.889c6.213,8.279,14.973,13.68,24.939,14.324c20.691,1.339,38.863-18.32,40.514-43.824
			c1.359-21.031-8.938-39.584-24.197-46.174c-1.088-0.479-2.201-0.891-3.344-1.23c-0.008-0.607,0.094-1.291,0.318-1.979
			c0.201-0.623,0.492-1.172,0.824-1.625c1.199,0.362,2.377,0.799,3.52,1.289C741.874,581.838,753.211,601.899,751.741,624.629z"/>
		<path fill="#FFFFFF" d="M732.973,672.354c0,0-1.066-6.605-1.99-8.496c-0.65-1.33-4.688-3.324-4.688-3.324s3.996-2.176,4.666-3.523
			c0.922-1.855,2.012-8.299,2.012-8.299s1.004,6.464,1.926,8.316c0.672,1.351,4.752,3.506,4.752,3.506s-4.08,1.976-4.73,3.307
			C733.997,665.727,732.973,672.354,732.973,672.354z"/>
		<path fill="#FFFFFF" d="M743.426,660.358c0,0-0.65-4.041-1.215-5.197c-0.398-0.814-2.869-2.035-2.869-2.035
			s2.445-1.332,2.855-2.156c0.562-1.136,1.229-5.077,1.229-5.077s0.617,3.954,1.18,5.089c0.412,0.826,2.908,2.145,2.908,2.145
			s-2.496,1.209-2.895,2.023C744.055,656.303,743.426,660.358,743.426,660.358z"/>
	</g>
	<path fill="#291F1D" d="M573.905,213.121c63.377,0,109.1,34.071,135.623,59.592c83.6,80.401,81.348,134.318,86.078,190.127
		c0.994,11.728,8.807,58.293,21.756,89.861c15.135,36.89,17.027,84.185,1.891,119.184c-15.133,34.999,3.842,71.974,13.301,99.405
		s19.836,114.861-23.648,168.371c-12.297,15.133-74.727,13.242-99.32,8.512c-24.592-4.729-7.566-28.375,2.838-46.348
		c10.406-17.973,29.844-57.238,13.504-107.604c-13.084-40.328-28.693-80.717-16.398-127.066
		c12.299-46.35,16.082-86.077,6.623-114.454c-9.373-28.12-21.123-147.25-46.35-193.911c-25.217-46.661-93.25-48.398-93.25-48.398
		c-1.119,0.39-2.168-14.946-3.232-14.978c-1.41-0.041-3.627,14.582-3.627,14.583c0,0-71.387-9.062-96.604,37.6
		c-25.229,46.662-37.24,172.312-56.789,196.275c-14.236,17.454-13.625,59.204-1.327,105.553
		c12.296,46.35,18.946,111.054,7.002,151.734c-18.536,63.133,0.564,82.85,10.97,100.822s28.378,41.621,3.784,46.35
		s-87.023,6.621-99.319-8.514c-43.485-53.51-33.107-140.939-23.648-168.371c9.459-27.431,22.137-47.537,11.731-85.373
		c-10.11-36.766-13.457-109.869,1.894-137.157c17.025-30.268,21.798-68.666,22.7-80.402c6.622-86.078,3.425-115.4,87.023-195.801
		c26.524-25.521,71.923-59.435,135.298-59.435L573.905,213.121z"/>
	<g>
		<path fill="#EEBF72" d="M393.82,624.629c1.782,27.582,21.765,48.829,44.533,47.356c10.836-0.7,20.39-6.429,27.224-15.212
			c-0.867-0.967-1.707-1.928-2.527-2.889c-6.215,8.279-14.973,13.68-24.942,14.324c-20.69,1.339-38.863-18.32-40.512-43.824
			c-1.359-21.031,8.937-39.584,24.198-46.174c1.087-0.479,2.198-0.891,3.342-1.23c0.009-0.607-0.094-1.291-0.317-1.979
			c-0.201-0.623-0.492-1.172-0.826-1.625c-1.199,0.362-2.374,0.799-3.519,1.289C403.688,581.838,392.349,601.899,393.82,624.629z"/>
		<path fill="#FFFFFF" d="M412.588,672.354c0,0,1.066-6.605,1.99-8.496c0.65-1.33,4.687-3.324,4.687-3.324s-3.997-2.176-4.667-3.523
			c-0.921-1.855-2.01-8.299-2.01-8.299s-1.005,6.464-1.926,8.316c-0.672,1.351-4.752,3.506-4.752,3.506s4.08,1.976,4.729,3.307
			C411.562,665.727,412.588,672.354,412.588,672.354z"/>
		<path fill="#FFFFFF" d="M402.133,660.358c0,0,0.652-4.041,1.218-5.197c0.397-0.814,2.868-2.035,2.868-2.035
			s-2.447-1.332-2.854-2.156c-0.565-1.136-1.231-5.077-1.231-5.077s-0.614,3.954-1.178,5.089c-0.412,0.826-2.908,2.145-2.908,2.145
			s2.496,1.209,2.895,2.023C401.505,656.303,402.133,660.358,402.133,660.358z"/>
	</g>
	<path fill="#EEBF72" d="M643.637,862.36c-19.869,20.4-45.1,31.641-71.059,31.641c-26.59,0-52.371-11.65-72.6-32.801
		c-24.551-25.67-37.66-62.02-35.98-99.74c0.57-6.16,1.93-11.379,4-15.789c-0.07,2.149-0.14,4.26-0.21,6.32
		c-0.86,2.889-1.47,6.09-1.79,9.6c-1.66,37.13,11.25,72.949,35.42,98.23c19.851,20.75,45.12,32.18,71.161,32.18
		c25.41,0,50.139-11.02,69.629-31.041c24.48-25.139,37.951-61.359,36.951-99.369c-0.531-3.23-1.25-6.2-2.15-8.91
		c-0.029-0.67-0.041-1.34-0.051-2.02c-0.029-1.271-0.059-2.551-0.09-3.851c1.941,4.14,3.371,8.95,4.281,14.53l0.01,0.13
		C682.188,800.049,668.508,836.821,643.637,862.36z"/>
	<path fill="#FFFFFF" d="M641.829,867.239c0,0-0.879-5.443-1.641-7c-0.535-1.096-3.861-2.74-3.861-2.74s3.293-1.791,3.846-2.902
		c0.76-1.529,1.656-6.836,1.656-6.836s0.828,5.324,1.588,6.852c0.551,1.111,3.912,2.887,3.912,2.887s-3.361,1.629-3.895,2.725
		C642.672,861.778,641.829,867.239,641.829,867.239z"/>
	<path fill="#FFFFFF" d="M650.733,871.932c0,0-0.625-3.873-1.166-4.982c-0.381-0.779-2.748-1.949-2.748-1.949
		s2.344-1.275,2.734-2.066c0.541-1.088,1.18-4.865,1.18-4.865s0.59,3.789,1.131,4.877c0.393,0.791,2.785,2.055,2.785,2.055
		s-2.393,1.158-2.773,1.939C651.334,868.045,650.733,871.932,650.733,871.932z"/>
</g>
</svg>
