<?xml version="1.0" encoding="utf-8"?>
<!-- Generator: Adobe Illustrator 16.0.0, SVG Export Plug-In . SVG Version: 6.00 Build 0)  -->
<!DOCTYPE svg PUBLIC "-//W3C//DTD SVG 1.1//EN" "http://www.w3.org/Graphics/SVG/1.1/DTD/svg11.dtd">
<svg version="1.1" id="Layer_1" xmlns="http://www.w3.org/2000/svg" xmlns:xlink="http://www.w3.org/1999/xlink" x="0px" y="0px"
	 width="1133.673px" height="1134.694px" viewBox="0 0 1133.673 1134.694" enable-background="new 0 0 1133.673 1134.694"
	 xml:space="preserve">
<path fill="#F4F0EF" d="M576.561,1070.349c0,1.57-0.38,3.03-1.05,4.29c-3.37,0.08-6.75,0.12-10.12,0.13c-0.91,0-1.82,0-2.721-0.01
	c-0.709-1.28-1.109-2.79-1.109-4.41c0-4.68,3.35-8.46,7.5-8.46C573.202,1061.889,576.561,1065.669,576.561,1070.349z"/>
<g>
	<path fill="#BAD3EE" d="M1075.143,563.02c0,106.439-32.59,205.27-88.35,287.039c-2.531,3.73-5.121,7.422-7.76,11.08
		c-3.102,4.301-6.271,8.551-9.5,12.75c-3.67,4.781-7.432,9.49-11.271,14.131c-0.42,0.52-0.85,1.029-1.279,1.539
		c-0.43,0.521-0.859,1.031-1.291,1.541c-87.02,103.59-214.488,172.07-358.078,181.17c-2.49,0.16-4.99,0.301-7.49,0.42
		c-6.26,0.301-12.531,0.49-18.811,0.57c-1.689,0.02-3.371,0.039-5.061,0.039c-1.57,0-3.129,0-4.69-0.01
		c-1.37-0.01-2.739-0.02-4.109-0.039c-5.23-0.08-10.45-0.23-15.67-0.461c-2.53-0.109-5.061-0.24-7.591-0.389
		c-144.27-8.561-272.409-77.051-359.85-180.932c-0.43-0.51-0.86-1.02-1.29-1.529c-0.42-0.51-0.85-1.02-1.28-1.539
		c-3.84-4.631-7.59-9.33-11.26-14.102c-3.189-4.129-6.32-8.318-9.38-12.549c-2.76-3.811-5.47-7.67-8.12-11.561
		c-55.811-81.8-88.43-180.68-88.43-287.17c0-281.82,228.46-510.27,510.28-510.27C846.682,52.75,1075.143,281.2,1075.143,563.02z"/>
	<path fill="#404040" d="M676.963,770.661c-1.811,7.489-5.5,18.709-12.91,30.789c-12.67,21.551-38.83,59.34-58.75,72.82
		c-11.92,8.061-27.48,18.811-41.55,21.109c-14.07-2.299-29.04-11.709-41.55-21.109c-19.23-14.439-44.15-48.27-58.75-72.82
		c-7.46-12.16-11.301-23.05-13.23-30.199c1.04-0.291,1.93-0.53,2.66-0.73h223.559C676.614,770.57,676.784,770.61,676.963,770.661z"
		/>
	<path fill="#E8E8E8" d="M956.983,889.559c-0.43,0.521-0.859,1.031-1.291,1.541c-87.02,103.59-214.488,172.07-358.078,181.17
		c-2.49,0.16-4.99,0.301-7.49,0.42c-6.26,0.301-12.531,0.49-18.811,0.57c-1.689,0.02-3.371,0.039-5.061,0.039
		c-1.57,0-3.129,0-4.69-0.01c-1.37-0.01-2.739-0.02-4.109-0.039c-5.23-0.08-10.45-0.23-15.67-0.461
		c-2.53-0.109-5.061-0.24-7.591-0.389c-144.27-8.561-272.409-77.051-359.85-180.932c-0.43-0.51-0.86-1.02-1.29-1.529
		c2.15-2.02,4.39-4.07,6.72-6.16c0.78-0.699,1.57-1.4,2.36-2.1c1.44-1.279,2.92-2.57,4.42-3.881c1-0.869,2.021-1.75,3.05-2.619
		c0.511-0.439,1.03-0.891,1.55-1.33c8.311-7.109,17.391-14.58,26.98-22.471l3.56-2.93c0.12-0.1,0.25-0.209,0.41-0.32
		c0.12-0.1,0.261-0.199,0.41-0.309c0.17-0.121,0.36-0.262,0.57-0.4c0.2-0.131,0.42-0.281,0.649-0.43c0.24-0.15,0.5-0.32,0.78-0.49
		s0.58-0.35,0.9-0.541c0.189-0.119,0.39-0.229,0.59-0.35c0.85-0.49,1.82-1.02,2.95-1.609c0.229-0.131,0.47-0.25,0.72-0.381
		c0.25-0.129,0.51-0.26,0.77-0.389c0.521-0.262,1.07-0.541,1.65-0.82c0.29-0.15,0.59-0.291,0.9-0.441
		c0.3-0.148,0.62-0.299,0.939-0.449c0.8-0.381,1.641-0.779,2.54-1.189c0.55-0.25,1.11-0.51,1.7-0.771
		c0.77-0.35,1.58-0.699,2.42-1.068c0.42-0.191,0.85-0.371,1.29-0.561c2.51-1.09,5.31-2.26,8.45-3.529
		c0.42-0.17,0.859-0.342,1.3-0.521c0.71-0.279,1.43-0.57,2.17-0.859c0.37-0.15,0.74-0.289,1.12-0.439
		c0.37-0.15,0.76-0.301,1.14-0.451c0.62-0.24,1.25-0.49,1.88-0.729c0,0,0,0,0.011,0c0.63-0.25,1.279-0.5,1.939-0.75
		c0.061-0.021,0.13-0.051,0.19-0.07c0.6-0.23,1.2-0.461,1.81-0.691c0.391-0.148,0.771-0.289,1.17-0.439
		c1.561-0.6,3.19-1.199,4.87-1.82c1.271-0.459,2.57-0.939,3.9-1.43c0.58-0.219,1.17-0.43,1.77-0.641c2.53-0.92,5.19-1.869,7.98-2.85
		c0.97-0.34,1.95-0.68,2.95-1.029c1.989-0.699,4.05-1.41,6.18-2.141c0.53-0.18,1.06-0.369,1.6-0.549
		c1.08-0.371,2.17-0.74,3.28-1.121c0.71-0.23,1.41-0.469,2.13-0.719c2.11-0.711,4.28-1.432,6.51-2.17
		c1.051-0.352,2.11-0.701,3.181-1.061c1.12-0.361,2.25-0.74,3.399-1.121c0.891-0.289,1.79-0.59,2.7-0.879
		c0.64-0.201,1.28-0.41,1.93-0.631c1.95-0.629,3.94-1.27,5.96-1.92c0.681-0.219,1.36-0.439,2.04-0.66
		c0.69-0.219,1.381-0.439,2.07-0.66c2.09-0.66,4.21-1.329,6.37-2.02c1.38-0.43,2.77-0.869,4.17-1.31c3.03-0.95,6.15-1.921,9.34-2.91
		c8.29-2.569,16.521-5.069,24.521-7.47c1.06-0.32,2.109-0.641,3.16-0.95c0.79-0.24,1.59-0.479,2.38-0.71
		c0.79-0.24,1.59-0.48,2.37-0.71c1.05-0.31,2.079-0.61,3.109-0.921c0.24-0.069,0.48-0.139,0.71-0.209
		c1.181-0.35,2.36-0.7,3.521-1.041c1.399-0.42,2.8-0.819,4.17-1.229c1.25-0.36,2.49-0.729,3.72-1.09c0.67-0.19,1.33-0.38,1.99-0.58
		c0.64-0.18,1.27-0.37,1.899-0.55c1.73-0.51,3.44-1,5.12-1.49c0.771-0.22,1.54-0.449,2.29-0.66c7.33-2.119,14.141-4.07,20.23-5.789
		c0.819-0.23,1.63-0.461,2.43-0.69c0.24-0.07,0.48-0.14,0.72-0.2c0.811-0.23,1.61-0.46,2.391-0.68c0.67-0.19,1.319-0.37,1.97-0.551
		c0.72-0.199,1.42-0.399,2.11-0.59c0.43-0.13,0.859-0.24,1.279-0.359c0.721-0.211,1.42-0.4,2.101-0.59
		c0.26-0.07,0.51-0.141,0.76-0.211c0.26-0.08,0.51-0.14,0.76-0.209c0.391-0.11,0.771-0.221,1.141-0.32
		c0.22-0.061,0.43-0.12,0.64-0.18c0.87-0.24,1.7-0.471,2.5-0.701c0.5-0.129,0.97-0.26,1.43-0.389c0.19-0.051,0.38-0.101,0.561-0.15
		c0.62-0.17,1.21-0.34,1.779-0.49c0.08-0.03,0.16-0.051,0.24-0.07c0.2-0.06,0.4-0.109,0.59-0.16c0.04-0.01,0.07-0.029,0.101-0.029
		c0.03-0.01,0.06-0.021,0.09-0.021c0.74-0.21,1.42-0.399,2.05-0.569c1.93,7.149,5.771,18.039,13.23,30.199
		c14.6,24.551,39.52,58.381,58.75,72.82c12.51,9.4,27.479,18.811,41.55,21.109c14.07-2.299,29.63-13.049,41.55-21.109
		c19.92-13.48,46.08-51.27,58.75-72.82c7.41-12.08,11.1-23.3,12.91-30.789c0.75,0.199,1.59,0.43,2.52,0.68
		c0.17,0.05,0.35,0.1,0.529,0.15c0.631,0.17,1.291,0.359,2,0.549c0.25,0.07,0.5,0.141,0.76,0.201c0.65,0.18,1.342,0.369,2.051,0.559
		c0.02,0.011,0.041,0.021,0.061,0.021c0.84,0.24,1.73,0.479,2.65,0.729s1.879,0.511,2.879,0.791c0.08,0.029,0.17,0.05,0.26,0.07
		c0.84,0.229,1.711,0.469,2.611,0.719c0.439,0.131,0.898,0.25,1.359,0.381c1.129,0.32,2.311,0.64,3.52,0.98
		c0.92,0.26,1.859,0.52,2.83,0.789c0.83,0.23,1.67,0.461,2.529,0.7c0.641,0.181,1.281,0.36,1.941,0.55
		c0.51,0.141,1.029,0.28,1.549,0.43c0.461,0.131,0.92,0.261,1.391,0.391c0.561,0.16,1.119,0.32,1.689,0.47
		c1.85,0.53,3.74,1.06,5.68,1.61c1.041,0.3,2.092,0.59,3.15,0.89c0.621,0.181,1.24,0.36,1.871,0.54
		c1.059,0.301,2.139,0.6,3.219,0.91c0.82,0.24,1.641,0.471,2.471,0.71c0.641,0.181,1.289,0.37,1.939,0.56
		c0.66,0.19,1.311,0.371,1.971,0.561c0.27,0.08,0.539,0.15,0.811,0.23c0.67,0.199,1.35,0.39,2.029,0.59
		c1.359,0.39,2.74,0.789,4.131,1.189c0.959,0.28,1.93,0.561,2.898,0.85c0.371,0.101,0.73,0.211,1.102,0.32
		c1.1,0.311,2.219,0.641,3.34,0.971c0.039,0.01,0.068,0.02,0.109,0.029c1.16,0.33,2.33,0.68,3.52,1.03
		c0.051,0.021,0.109,0.03,0.16,0.05c3,0.881,6.041,1.77,9.121,2.68c1.119,0.33,2.238,0.67,3.369,1
		c5.641,1.681,11.391,3.4,17.199,5.16c1.371,0.42,2.74,0.84,4.121,1.26c0.08,0.021,0.16,0.051,0.24,0.07
		c1.439,0.44,2.879,0.891,4.33,1.33c4.629,1.42,9.1,2.811,13.389,4.16c0.721,0.221,1.43,0.45,2.141,0.67
		c2.82,0.891,5.57,1.76,8.26,2.619c0.67,0.211,1.34,0.432,2,0.641c0.66,0.211,1.311,0.42,1.961,0.631
		c3.459,1.109,6.779,2.189,9.99,3.24c1.639,0.539,3.26,1.068,4.84,1.6c1.67,0.549,3.309,1.1,4.91,1.639
		c0.52,0.172,1.039,0.352,1.549,0.521c1.029,0.34,2.041,0.689,3.041,1.029c0.449,0.15,0.889,0.301,1.33,0.439
		c1.869,0.641,3.68,1.271,5.449,1.881c0.5,0.17,1,0.34,1.5,0.52c0.58,0.201,1.15,0.4,1.709,0.59c0.891,0.311,1.771,0.621,2.641,0.93
		c0.471,0.16,0.939,0.33,1.41,0.49c0.461,0.17,0.92,0.33,1.381,0.49c1.35,0.48,2.66,0.951,3.939,1.41
		c2.721,0.98,5.301,1.92,7.74,2.83c1.02,0.381,2.01,0.75,2.969,1.109c0.771,0.291,1.531,0.58,2.271,0.861
		c0.67,0.26,1.33,0.51,1.979,0.76c0.32,0.119,0.641,0.24,0.961,0.369c0.131,0.051,0.27,0.1,0.4,0.15c0.5,0.189,0.99,0.391,1.48,0.58
		c0.18,0.061,0.35,0.131,0.52,0.199c0.33,0.131,0.65,0.25,0.969,0.381c0.41,0.16,0.801,0.32,1.201,0.48
		c0.549,0.209,1.08,0.42,1.609,0.639c0.311,0.121,0.631,0.25,0.939,0.381c1.102,0.439,2.16,0.869,3.191,1.301
		c0.51,0.209,1.01,0.408,1.5,0.619c3.93,1.641,7.229,3.1,10,4.391c0.699,0.32,1.359,0.629,1.979,0.93
		c0.631,0.299,1.221,0.59,1.791,0.869c0.289,0.141,0.561,0.281,0.83,0.42c0.27,0.131,0.529,0.26,0.789,0.4
		c0.51,0.26,0.99,0.51,1.441,0.75c0.24,0.131,0.479,0.25,0.709,0.381c0.609,0.33,1.17,0.639,1.68,0.93
		c0.41,0.24,0.791,0.459,1.141,0.67c0.26,0.16,0.51,0.32,0.74,0.459c0.141,0.08,0.27,0.17,0.391,0.25
		c0.189,0.121,0.369,0.24,0.529,0.34c0.459,0.311,0.84,0.592,1.141,0.82c0.039,0.031,0.09,0.061,0.129,0.09
		c0.01,0.012,0.01,0.012,0.02,0.021c0.021,0.02,0.031,0.029,0.051,0.039c0.08,0.061,0.15,0.121,0.211,0.17
		c1.26,1.041,2.5,2.061,3.738,3.08c2.471,2.051,4.91,4.07,7.311,6.061c1.201,1,2.391,1.99,3.57,2.98
		c1.18,0.979,2.35,1.969,3.51,2.939c1.16,0.98,2.311,1.949,3.439,2.92c1.141,0.959,2.26,1.92,3.371,2.879
		c1.109,0.961,2.219,1.91,3.299,2.842c1.932,1.68,3.82,3.34,5.66,4.969c0.23,0.211,0.471,0.42,0.701,0.621
		c1.039,0.92,2.059,1.84,3.059,2.74c2.592,2.35,5.07,4.648,7.451,6.908C955.493,888.12,956.243,888.84,956.983,889.559z"/>
	<g>
		<path fill="#97785F" d="M680.633,626.54c0,0-0.131,10.11-0.371,25.42c-0.049,3.271-0.109,6.771-0.16,10.471c0,0,0,0,0,0.01
			c-0.129,7.43-0.27,15.63-0.439,24.21c-0.029,1.8-0.061,3.61-0.08,5.44c-0.16,19.539,0.59,40.56,0.48,58.689
			c-0.029,4.03-0.1,7.92-0.23,11.61c-0.109,3.13-0.23,6.13-0.35,8.96c-0.48,11.609-1.01,20.41-1.57,24.41
			c-2.65,7.359-8.67,13.84-13.689,19.51c-22.07,25.029-64.371,34.49-102.5,34.301c-41.3-0.23-88.83-22.09-106.979-47.381
			c-2.061-2.87-3.74-5.79-4.98-8.72c-0.74-4-1.26-11.681-1.59-21.66c-0.14-4.11-0.25-8.61-0.33-13.399
			c-0.04-2.341-0.07-4.75-0.1-7.221c-0.2-18.51-0.091-40.359,0.14-60.88c0.03-2.06,0.05-4.101,0.08-6.12
			c0.1-8.01,0.21-15.73,0.34-22.88c0.04-2.899,0.09-5.71,0.14-8.41c0.351-19.75,0.7-33.43,0.7-33.43c1.29,1.26,2.63,2.489,3.99,3.69
			c8.31,7.359,17.81,13.859,28.48,21.239c13.92,9.63,45.59,28.91,75.529,28.94c0,0,27.151,3.75,59.19-9.24
			c17.16-6.95,35.471-15.78,51.971-28.801C671.772,632.581,677.352,629.67,680.633,626.54z"/>
		<g>
			<path fill="#8B6950" d="M420.025,495.666c-1.735-5.667-27.189-22.166-34.689,8.834c-8.036,33.218-7.403,58.33,1,76.5
				c4.162,9,14.991,22.166,46.209,17.166S427.703,520.75,420.025,495.666z"/>
			<path fill="#7C5B42" d="M425.81,538.418c0,0-11.16-18.889-20.932-8.659c-14.875,15.574-9.335,35.343,5.861,35.926
				c15.194,0.582,13.998-12.173,13.998-12.173L425.81,538.418z"/>
		</g>
		<g>
			<path fill="#8B6950" d="M709.694,495.666c1.734-5.667,27.189-22.166,34.689,8.834c8.035,33.218,7.402,58.33-1,76.5
				c-4.162,9-14.992,22.166-46.209,17.166C665.956,593.167,702.016,520.75,709.694,495.666z"/>
			<path fill="#7C5B42" d="M703.909,538.418c0,0,11.16-18.889,20.932-8.659c14.875,15.574,9.336,35.343-5.861,35.926
				c-15.193,0.582-13.998-12.173-13.998-12.173L703.909,538.418z"/>
		</g>
		<path fill="#8B6950" d="M678.883,663.67c0,0-24.471,26.149-33,34.5c-12.5,12.22-34.701,31.75-61.67,33
			c-8.08,0.369-23.96,0.39-32.161,0c-17.52-0.84-39.34-8-63.17-30.5c-13.4-12.65-28.32-24.11-40.58-39.36
			c-0.13,7.149-0.24,14.87-0.34,22.88c-0.03,2.02-0.05,4.061-0.08,6.12c5.3,5.17,10.63,9.91,15.7,14.42
			c4.05,3.601,7.88,7,11.569,10.479c23.921,22.58,49.48,34.67,75.95,35.931c5.65,0.271,13.011,0.31,16.89,0.31
			c6.67,0,12.92-0.109,17.15-0.3c15.289-0.71,30.75-5.899,45.949-15.42c12.43-7.78,22.371-17,28.781-23.271
			c4.369-4.279,12.52-12.789,19.709-20.369c0.02-1.83,0.051-3.641,0.08-5.44c0.17-8.58,0.311-16.78,0.439-24.21
			C679.704,662.85,679.293,663.26,678.883,663.67z"/>
		<path fill="#97785F" d="M711.883,435.17c0,0-3.5,114-5,148.5c-0.92,21.17,3.5,48.5-28,80c0,0-24.471,26.149-33,34.5
			c-12.5,12.22-34.701,31.75-61.67,33c-8.08,0.369-23.96,0.39-32.161,0c-17.52-0.84-39.34-8-63.17-30.5
			c-27.51-25.971-61.5-47-65.5-106l-4.96-93.7l-2.04-64.8l5.85-3.93l39.82-26.74l103-12.66l109.331,11.66L711.883,435.17z"/>
		<path fill="#362724" d="M709.383,433c1.359,26.16-0.32,74.105,0,79.625l11.75-72.125L709.383,433z"/>
		<path fill="#362724" d="M419.883,435c-1.359,26.16-0.555,72.605-0.875,78.125l-11.625-74.375L419.883,435z"/>
		<path fill="#332F2D" d="M726.026,429.667c0,0,1.473-88.514-18.604-119.799c-8.408-13.103-22.605-37.234-40.068-49.18
			c-25.973-17.769-40.324-22.031-55.211-26.188c-11.092-3.097-26.355-6.5-47.105-6.5h-0.333c-20.75,0-37.548,4.903-48.639,8
			c-14.889,4.157-27.705,6.919-53.678,24.688c-17.462,11.946-31.661,36.078-40.068,49.18
			c-20.075,31.285-18.603,119.799-18.603,119.799L560.209,390.5L726.026,429.667z"/>
		<path fill="#823937" d="M726.022,429.67l-55.611-15.1c9.068-19.34,5.797-40.77,5.797-63.32c0-44.39-19.518-84.43-50.812-112.73
			c11.041,3.8,23.6,9.61,41.963,22.17c17.459,11.94,31.658,36.08,40.062,49.18C727.497,341.15,726.022,429.67,726.022,429.67z"/>
		<path fill="#823937" d="M450.963,351.25c0,22.46-3.313,43.81,5.682,63.09l-52.931,15.33c0,0-1.465-88.52,18.603-119.8
			c8.413-13.1,22.611-37.24,40.072-49.18c16.016-10.96,27.035-16.21,36.612-19.6C469.336,269.21,450.963,308.19,450.963,351.25z"/>
		<path fill="none" stroke="#8B6950" stroke-width="8" stroke-linecap="round" stroke-miterlimit="10" d="M593.049,474.667
			c0,0-7.666,14-3.332,28.667C594.049,518,602.049,533,604.383,539.667"/>
		<g>
			<path fill="none" stroke="#8B6950" stroke-width="8" stroke-linecap="round" stroke-miterlimit="10" d="M581.465,575.667
				c0,0,9.668-1.333,18,0"/>
			<path fill="none" stroke="#8B6950" stroke-width="8" stroke-linecap="round" stroke-miterlimit="10" d="M528.8,575.667
				c0,0,9.667-1.333,18,0"/>
		</g>
		<path fill="#896350" d="M525.811,619.709l-0.021-0.06c0.286,0.591,1.535,2.931,4.248,5.729c7.309-2.43,20.242-4.049,34.967-4.049
			c14.607,0,27.437,1.59,34.777,3.989c1.451-1.979,2.754-4.239,4.109-6.8c3.008-5.68,8.412-3.609,14.428-0.77
			c6.018,2.84,10.371,5.379,7.363,11.06c-4.844,9.143-15.074,18.726-21.955,23.565c-10.129,7.122-18.662,6.284-38.405,6.785
			c-0.879,0.029-1.747,0.039-2.605,0.039c-16.792,0-26.774-1.355-35.808-6.699c-15.372-9.096-23.344-23.373-23.703-24.211
			c0,0-3.353-4.956-0.351-9.289S525.811,619.709,525.811,619.709z"/>
		<path fill="#825D4D" d="M498.006,620c6.551-5.667,34.326-24.218,50.252-17.334c5.509,2.382,14.162,6.812,26.606,0.459
			c11.508-5.875,42.607,8.625,56.828,19.125c1.553,4.25-2.672,7.75-69.558,6.75C495.248,628,493.017,624.315,498.006,620z"/>
		<path fill="none" stroke="#8B6950" stroke-width="12" stroke-linecap="round" stroke-miterlimit="10" d="M544.716,668.5
			c0,0,19.333-6.666,40.666,0"/>
		<path fill="none" stroke="#262321" stroke-width="30" stroke-linecap="round" stroke-miterlimit="10" d="M392.385,439.6
			c0,0.001,50.815-43.866,171.596-43.866c121.518,0,173.069,43.866,173.069,43.866"/>
		<g>
			<circle fill="#1D1312" cx="481.207" cy="482.968" r="13.705"/>
		</g>
		<path fill="none" stroke="#8B6950" stroke-width="11" stroke-linecap="round" stroke-miterlimit="10" d="M454.05,494.333
			c0,0,24,6,52.667-3"/>
		<path fill="#362724" d="M512.717,440c0,0-39.667-18.25-78.667-2c-4.553,1.897-12.167,17.5-4.167,22c0,0,46.5-9,79.5-4
			S512.717,440,512.717,440z"/>
		<ellipse fill="#FFFFFF" cx="486.633" cy="478.75" rx="2.694" ry="5.004"/>
		<path fill="none" stroke="#362724" stroke-width="7" stroke-linecap="round" stroke-miterlimit="10" d="M446.716,483
			c0,0,11.668-11,33.334-11s31.666,7,31.666,7"/>
		<g>
			<circle fill="#1D1312" cx="643.108" cy="482.968" r="13.705"/>
		</g>
		<path fill="none" stroke="#8B6950" stroke-width="11" stroke-linecap="round" stroke-miterlimit="10" d="M670.266,494.333
			c0,0-24,6-52.668-3"/>
		<ellipse fill="#FFFFFF" cx="648.716" cy="478.75" rx="2.694" ry="5.004"/>
		<path fill="none" stroke="#362724" stroke-width="7" stroke-linecap="round" stroke-miterlimit="10" d="M677.6,483
			c0,0-11.668-11-33.334-11s-31.666,7-31.666,7"/>
		<path fill="#825D4D" d="M564.133,629L564.133,629z"/>
		<path fill="#825D4D" d="M574.049,602.333L574.049,602.333z"/>
		<path fill="#362724" d="M611.284,440.412c0,0,39.668-18.25,78.668-2c4.553,1.897,12.166,17.5,4.166,22c0,0-46.5-9-79.5-4
			S611.284,440.412,611.284,440.412z"/>
	</g>
	<path fill="#C6C5C5" d="M448.173,771.81c-0.03,0.01-0.06,0.021-0.09,0.03c-0.03,0-0.061,0.02-0.101,0.029
		c-0.189,0.051-0.39,0.101-0.59,0.16c-0.08,0.02-0.16,0.04-0.24,0.07c-0.569,0.15-1.159,0.32-1.779,0.49
		c-0.181,0.05-0.37,0.1-0.561,0.15c-0.46,0.129-0.93,0.26-1.43,0.389c-0.8,0.23-1.63,0.461-2.5,0.701
		c-0.21,0.06-0.42,0.119-0.64,0.18c-0.37,0.1-0.75,0.21-1.141,0.32c-0.25,0.069-0.5,0.129-0.76,0.209
		c-0.25,0.07-0.5,0.141-0.76,0.211c-0.681,0.189-1.38,0.379-2.101,0.59c-0.42,0.119-0.85,0.229-1.279,0.359
		c-0.69,0.19-1.391,0.391-2.11,0.59c-0.65,0.181-1.3,0.36-1.97,0.551c-0.78,0.22-1.58,0.449-2.391,0.68
		c-0.239,0.061-0.479,0.13-0.72,0.2c-0.8,0.229-1.61,0.46-2.43,0.69c-6.09,1.719-12.9,3.67-20.23,5.789
		c-0.75,0.211-1.52,0.44-2.29,0.66c-1.68,0.49-3.39,0.98-5.12,1.49c-0.63,0.18-1.26,0.37-1.899,0.55c-0.66,0.2-1.32,0.39-1.99,0.58
		c-1.229,0.36-2.47,0.729-3.72,1.09c-1.37,0.41-2.771,0.81-4.17,1.229c-1.16,0.341-2.34,0.691-3.521,1.041
		c-0.229,0.07-0.47,0.14-0.71,0.209c-1.03,0.311-2.06,0.611-3.109,0.921c-0.78,0.229-1.58,0.47-2.37,0.71
		c-0.79,0.23-1.59,0.47-2.38,0.71c-1.051,0.31-2.101,0.63-3.16,0.95c-8,2.4-16.23,4.9-24.521,7.47c-3.189,0.989-6.31,1.96-9.34,2.91
		c-1.4,0.44-2.79,0.88-4.17,1.31c-2.16,0.69-4.28,1.359-6.37,2.02c-0.689,0.221-1.38,0.441-2.07,0.66
		c-0.68,0.221-1.359,0.441-2.04,0.66c-2.02,0.65-4.01,1.291-5.96,1.92c-0.649,0.221-1.29,0.43-1.93,0.631
		c-0.91,0.289-1.81,0.59-2.7,0.879c-1.149,0.381-2.279,0.76-3.399,1.121c-1.07,0.359-2.13,0.709-3.181,1.061
		c-2.229,0.738-4.399,1.459-6.51,2.17c-0.72,0.25-1.42,0.488-2.13,0.719c-1.11,0.381-2.2,0.75-3.28,1.121
		c-0.54,0.18-1.069,0.369-1.6,0.549c-2.13,0.73-4.19,1.441-6.18,2.141c-1,0.35-1.98,0.689-2.95,1.029
		c-2.79,0.98-5.45,1.93-7.98,2.85c-0.6,0.211-1.189,0.422-1.77,0.641c-1.33,0.49-2.63,0.971-3.9,1.43
		c-1.68,0.631-3.31,1.23-4.87,1.82c-0.399,0.15-0.779,0.291-1.17,0.439c-0.609,0.23-1.21,0.461-1.81,0.691
		c-0.061,0.02-0.13,0.049-0.19,0.07c-0.66,0.25-1.31,0.5-1.939,0.75c-0.011,0-0.011,0-0.011,0c-0.63,0.238-1.26,0.488-1.88,0.729
		c-0.38,0.15-0.77,0.301-1.14,0.451c-0.38,0.15-0.75,0.289-1.12,0.439c-0.74,0.289-1.46,0.58-2.17,0.859
		c-0.44,0.18-0.88,0.352-1.3,0.521c-3.141,1.27-5.94,2.439-8.45,3.529c-0.44,0.189-0.87,0.369-1.29,0.561
		c-0.84,0.369-1.65,0.719-2.42,1.068c-0.59,0.262-1.15,0.521-1.7,0.771c-0.899,0.41-1.74,0.809-2.54,1.189
		c-0.319,0.15-0.64,0.301-0.939,0.449c-0.311,0.15-0.61,0.291-0.9,0.441c-0.58,0.279-1.13,0.549-1.65,0.82
		c-0.27,0.129-0.52,0.26-0.77,0.389c-0.25,0.131-0.49,0.25-0.72,0.381c-1.13,0.59-2.101,1.119-2.95,1.609
		c-0.2,0.121-0.4,0.23-0.59,0.35c-0.32,0.18-0.62,0.361-0.9,0.541c-0.28,0.17-0.54,0.34-0.78,0.49
		c-0.229,0.148-0.449,0.299-0.649,0.43c-0.21,0.139-0.4,0.279-0.57,0.4c-0.149,0.109-0.29,0.209-0.41,0.309
		c-0.16,0.111-0.29,0.221-0.41,0.32l-3.56,2.93c-9.59,7.891-18.67,15.361-26.98,22.471c-0.52,0.43-1.039,0.881-1.55,1.33
		c-1.029,0.869-2.05,1.75-3.05,2.619c-1.51,1.301-2.979,2.59-4.42,3.881c-0.79,0.699-1.58,1.4-2.36,2.1
		c-2.33,2.09-4.569,4.141-6.72,6.16c-0.42-0.51-0.85-1.02-1.28-1.539c-3.84-4.631-7.59-9.33-11.26-14.102
		c13.7-12.76,30.47-26.469,48.47-41.289c29.07-23.961,214.92-75.32,238.761-81.82L448.173,771.81z"/>
	<path fill="#C6C5C5" d="M969.534,873.889c-3.67,4.781-7.432,9.49-11.271,14.131c-0.42,0.52-0.85,1.029-1.279,1.539
		c-0.74-0.719-1.49-1.439-2.26-2.17c-2.381-2.26-4.859-4.559-7.451-6.908c-1-0.9-2.02-1.82-3.059-2.74
		c-0.23-0.201-0.471-0.41-0.701-0.621c-1.84-1.629-3.729-3.289-5.66-4.969c-1.08-0.932-2.189-1.881-3.299-2.842
		c-1.111-0.959-2.23-1.92-3.371-2.879c-1.129-0.971-2.279-1.939-3.439-2.92c-1.16-0.971-2.33-1.961-3.51-2.939
		c-1.18-0.99-2.369-1.98-3.57-2.98c-2.4-1.99-4.84-4.01-7.311-6.061c-1.238-1.02-2.479-2.039-3.738-3.08
		c-0.061-0.049-0.131-0.109-0.211-0.17c-0.02-0.01-0.029-0.02-0.051-0.039c-0.01-0.01-0.01-0.01-0.02-0.021
		c-0.039-0.029-0.09-0.059-0.129-0.09c-0.301-0.229-0.682-0.51-1.141-0.82c-0.16-0.109-0.34-0.219-0.529-0.34
		c-0.121-0.08-0.25-0.17-0.391-0.25c-0.23-0.148-0.48-0.299-0.74-0.459c-0.35-0.211-0.73-0.43-1.141-0.67
		c-0.51-0.291-1.07-0.6-1.68-0.93c-0.23-0.131-0.469-0.25-0.709-0.381c-0.451-0.24-0.932-0.49-1.441-0.75
		c-0.26-0.141-0.52-0.27-0.789-0.4c-0.27-0.139-0.541-0.279-0.83-0.42c-0.57-0.279-1.16-0.57-1.791-0.869
		c-0.619-0.301-1.279-0.609-1.979-0.93c-2.771-1.291-6.07-2.75-10-4.391c-0.49-0.211-0.99-0.41-1.5-0.619
		c-1.031-0.432-2.09-0.861-3.191-1.301c-0.309-0.131-0.629-0.26-0.939-0.381c-0.529-0.219-1.061-0.43-1.609-0.639
		c-0.4-0.16-0.791-0.32-1.201-0.48c-0.318-0.131-0.639-0.25-0.969-0.381c-0.17-0.068-0.34-0.139-0.52-0.199
		c-0.49-0.189-0.98-0.391-1.48-0.58c-0.131-0.051-0.27-0.1-0.4-0.15c-0.32-0.129-0.641-0.25-0.961-0.369
		c-0.648-0.25-1.309-0.5-1.979-0.76c-0.74-0.281-1.5-0.57-2.271-0.861c-0.959-0.359-1.949-0.729-2.969-1.109
		c-2.439-0.91-5.02-1.85-7.74-2.83c-1.279-0.459-2.59-0.93-3.939-1.41c-0.461-0.16-0.92-0.32-1.381-0.49
		c-0.471-0.16-0.939-0.33-1.41-0.49c-0.869-0.309-1.75-0.619-2.641-0.93c-0.559-0.189-1.129-0.389-1.709-0.59
		c-0.5-0.18-1-0.35-1.5-0.52c-1.77-0.609-3.58-1.24-5.449-1.881c-0.441-0.139-0.881-0.289-1.33-0.439
		c-1-0.34-2.012-0.689-3.041-1.029c-0.51-0.17-1.029-0.35-1.549-0.521c-1.602-0.539-3.24-1.09-4.91-1.639
		c-1.58-0.531-3.201-1.061-4.84-1.6c-3.211-1.051-6.531-2.131-9.99-3.24c-0.65-0.211-1.301-0.42-1.961-0.631
		c-0.66-0.209-1.33-0.43-2-0.641c-2.689-0.859-5.439-1.729-8.26-2.619c-0.711-0.22-1.42-0.449-2.141-0.67
		c-4.289-1.35-8.76-2.74-13.389-4.16c-1.451-0.439-2.891-0.89-4.33-1.33c-0.08-0.02-0.16-0.05-0.24-0.07
		c-1.381-0.42-2.75-0.84-4.121-1.26c-5.809-1.76-11.559-3.479-17.199-5.16c-1.131-0.33-2.25-0.67-3.369-1
		c-3.08-0.91-6.121-1.799-9.121-2.68c-0.051-0.02-0.109-0.029-0.16-0.05c-1.189-0.351-2.359-0.7-3.52-1.03
		c-0.041-0.01-0.07-0.02-0.109-0.029c-1.121-0.33-2.24-0.66-3.34-0.971c-0.371-0.109-0.73-0.22-1.102-0.32
		c-0.969-0.289-1.939-0.569-2.898-0.85c-1.391-0.4-2.771-0.8-4.131-1.189c-0.68-0.2-1.359-0.391-2.029-0.59
		c-0.271-0.08-0.541-0.15-0.811-0.23c-0.66-0.189-1.311-0.37-1.971-0.561c-0.65-0.189-1.299-0.379-1.939-0.56
		c-0.83-0.239-1.65-0.47-2.471-0.71c-1.08-0.311-2.16-0.609-3.219-0.91c-0.631-0.18-1.25-0.359-1.871-0.54
		c-1.059-0.3-2.109-0.59-3.15-0.89c-1.939-0.551-3.83-1.08-5.68-1.61c-0.57-0.149-1.129-0.31-1.689-0.47
		c-0.471-0.13-0.93-0.26-1.391-0.391c-0.52-0.149-1.039-0.289-1.549-0.43c-0.66-0.189-1.301-0.369-1.941-0.55
		c-0.859-0.239-1.699-0.47-2.529-0.7c-0.971-0.27-1.91-0.529-2.83-0.789c-1.209-0.341-2.391-0.66-3.52-0.98
		c-0.461-0.131-0.92-0.25-1.359-0.381c-0.9-0.25-1.771-0.489-2.611-0.719c-0.09-0.021-0.18-0.041-0.26-0.07
		c-0.99-0.271-1.949-0.53-2.879-0.791c-0.92-0.25-1.811-0.489-2.65-0.729c-0.02,0-0.041-0.01-0.061-0.021
		c-0.709-0.189-1.4-0.379-2.051-0.559c-0.26-0.061-0.51-0.131-0.76-0.201c-0.709-0.189-1.369-0.379-2-0.549
		c-0.18-0.051-0.359-0.091-0.529-0.141v-0.01c0.119-2.83,0.24-5.82,0.35-8.95c0.131-3.69,0.201-7.58,0.23-11.61
		c15.641,4.221,212.18,57.439,242.27,82.23C940.073,847.62,956.313,861.2,969.534,873.889z"/>
	<path fill="#404040" d="M448.703,773.741c-16.08,4.43-58.28,16.219-102.721,29.979c-99.38,30.771-119.279,43.2-123.02,46.271
		l-3.561,2.93c-16.71,13.76-32.59,26.83-45.06,38.549c-0.43-0.51-0.86-1.02-1.29-1.529c-0.42-0.51-0.85-1.02-1.28-1.539
		c12.551-11.781,28.41-24.83,45.091-38.561l3.56-2.93c3.87-3.201,24.3-16.031,124.38-47.011c44.49-13.78,86.74-25.58,102.84-30.021
		l0.53,1.931v0.01L448.703,773.741z"/>
	<path fill="#404040" d="M958.262,888.02c-0.42,0.52-0.85,1.029-1.279,1.539c-0.43,0.521-0.859,1.031-1.291,1.541
		c-13.1-12.73-29.879-26.721-47.35-41.109c-3.729-3.061-23.539-15.432-122.059-45.721c-46.512-14.29-90.551-26.43-107.32-30.99
		l0.52-1.93v-0.01l0.52-1.92c16.801,4.56,60.891,16.72,107.461,31.029c99.219,30.5,119.549,43.27,123.42,46.461
		C928.323,861.27,945.083,875.241,958.262,888.02z"/>
	<path fill="#F4F4F4" d="M813.124,794.799c-1.07,4.641-3.311,9.211-6.561,13.701c-37.939,52.559-212.461,93.689-240.85,97.469
		c-0.76,0.102-1.42,0.182-1.96,0.262c-0.54-0.08-1.2-0.16-1.96-0.262c-28.25-3.76-201.11-44.479-240.25-96.648
		c-3.57-4.751-6.021-9.601-7.16-14.521c-9-39,21.55-56.229,55-70c34-14,65.5-25.51,78.5-27.629l0.5,65.33c0,0,0.36,3.289,1.84,8.75
		c1.93,7.149,5.771,18.039,13.23,30.199c14.6,24.551,39.52,58.381,58.75,72.82c12.51,9.4,27.479,18.811,41.55,21.109
		c14.07-2.299,29.63-13.049,41.55-21.109c19.92-13.48,46.08-51.27,58.75-72.82c7.41-12.08,11.1-23.3,12.91-30.789
		c1.4-5.83,1.67-9.41,1.67-9.41l0.92-64.25c13,2.119,44.57,13.799,78.57,27.799C791.573,738.57,822.124,755.799,813.124,794.799z"/>
	<path fill="#F4F4F4" d="M571.313,972.331v100.93c-1.689,0.02-3.371,0.039-5.061,0.039c-1.57,0-3.129,0-4.69-0.01
		c-1.37-0.01-2.739-0.02-4.109-0.039v-100.92H571.313z"/>
	<path fill="#F4F4F4" d="M571.952,915.333c0-3.633-2.949-6.582-6.582-6.582h-1.975c-3.633,0-6.582,2.949-6.582,6.582l-3.949,47.719
		c0,3.633,2.949,3.949,6.582,3.949h9.873c3.633,0,6.582-0.316,6.582-3.949L571.952,915.333z M556.984,963.709l0.462-8.729
		l0.196-3.607l13.157,0.117l0.289,3.414l0.693,8.805H556.984z"/>
</g>
</svg>
