<svg width="51" height="15" viewBox="0 0 51 15" fill="none" xmlns="http://www.w3.org/2000/svg">
<path fill-rule="evenodd" clip-rule="evenodd" d="M3.95324 15H5.13961V9H3.95324V15ZM8.30211 14.91H9.36469V11.1244L13.8373 15V9.09H12.7777V12.8109L8.30211 9V14.91ZM16.2631 13.4569C16.8414 13.8834 17.5356 14.13 18.2798 14.13C19.0047 14.13 19.5132 13.8938 19.5132 13.372C19.5132 12.9173 19.1889 12.7392 18.6209 12.54L17.7015 12.2377C16.8538 11.9527 16.2091 11.5364 16.2091 10.5797C16.2091 9.55641 17.185 9 18.3521 9C19.0671 9 19.7187 9.17016 20.2277 9.47156V10.4864C19.6984 10.1161 19.1191 9.86109 18.3749 9.86109C17.7341 9.86109 17.2553 10.0875 17.2553 10.5595C17.2553 10.9861 17.5559 11.1567 18.0852 11.3283L19.1096 11.6686C20.1024 11.9991 20.558 12.5114 20.558 13.3542C20.558 14.4145 19.5726 15 18.2798 15C17.4301 15 16.7077 14.775 16.2631 14.4909V13.4569ZM23.3258 15H24.5117V9H23.3258V15ZM30.0751 14.092C31.412 14.092 32.1265 13.2802 32.1265 11.9986C32.1265 10.7077 31.4115 9.89859 30.0751 9.89859H28.7531V14.092H30.0751ZM27.6737 9H30.1148C31.9938 9 33.2089 10.1719 33.2089 11.9986C33.2089 13.8267 31.9938 15 30.1148 15H27.6737V9ZM39.1398 9V9.89859H36.2694V11.3423H38.8437V12.2306H36.2689V14.092H39.1398V15H35.186V9H39.1398ZM43.3495 11.7169H44.5265C45.2231 11.7169 45.6158 11.355 45.6158 10.7986C45.6158 10.2422 45.2231 9.87984 44.5265 9.87984H43.3495V11.7169ZM43.3495 12.5653V15H42.3023V9H44.5463C45.8257 9 46.6536 9.62391 46.6536 10.7986C46.6536 11.8031 46.1941 12.3802 45.2152 12.5283L47.4419 15H46.2506L44.0947 12.5658H43.35L43.3495 12.5653ZM3.53881 3.08906C4.00276 2.92828 4.36421 2.44594 4.36421 1.78266C4.36421 0.677344 3.53881 0.104531 2.21825 0.104531H0V6.27469H2.42423C3.74479 6.27469 4.57019 5.66156 4.57019 4.50609C4.57019 3.85266 4.13694 3.27984 3.53881 3.08906ZM1.04179 2.69719V1.00922H2.20835C2.94116 1.00922 3.33282 1.26047 3.33282 1.84312C3.33282 2.42578 2.94067 2.69719 2.20835 2.69719H1.04179ZM1.04179 3.56156H2.40344C3.12635 3.56156 3.51801 3.90281 3.51801 4.46578C3.51801 5.01844 3.12585 5.37047 2.40393 5.37047H1.04228V3.56109L1.04179 3.56156ZM9.41024 6.375C10.9269 6.375 11.9484 5.51063 11.9484 3.82266V0.104531H10.8754V3.70172C10.8754 4.88766 10.3594 5.44078 9.41024 5.44078C8.46105 5.44078 7.9456 4.88766 7.9456 3.70172V0.104531H6.87262V3.81234C6.87262 5.51063 7.90401 6.375 9.41024 6.375ZM14.4746 5.83219C14.9182 6.13406 15.6407 6.375 16.4864 6.375C17.7762 6.375 18.7561 5.75156 18.7561 4.62656C18.7561 3.73219 18.3026 3.18937 17.3118 2.83781L16.2908 2.47594C15.7644 2.29547 15.4654 2.11453 15.4654 1.66219C15.4654 1.15969 15.9397 0.91875 16.5795 0.91875C17.3222 0.91875 17.9 1.18969 18.4263 1.58203V0.50625C17.9208 0.185156 17.2707 0.00421875 16.5587 0.00421875C15.3931 0.00421875 14.4231 0.597188 14.4231 1.68234C14.4231 2.69719 15.0628 3.13922 15.9085 3.44063L16.827 3.76219C17.3945 3.97312 17.7143 4.16438 17.7143 4.64672C17.7143 5.19938 17.2088 5.45063 16.4864 5.45063C15.7437 5.45063 15.0524 5.18906 14.4746 4.73719V5.83219ZM22.59 0.104531H21.5175V6.27422H22.59V0.104531ZM25.651 6.26672H26.6849V2.25281L31.0362 6.36234V0.0951563H30.0053V4.04063L25.651 0V6.26672ZM37.741 0.105938V1.02984H34.9553V2.51484H37.4533V3.42844H34.9553V5.34234H37.741V6.27609H33.9036V0.105938H37.741ZM40.239 5.82797C40.6826 6.12984 41.4046 6.37078 42.2508 6.37078C43.5401 6.37078 44.5205 5.74781 44.5205 4.62234C44.5205 3.72797 44.0665 3.18563 43.0762 2.83359L42.0547 2.47219C41.5284 2.29125 41.2293 2.11031 41.2293 1.65797C41.2293 1.15547 41.7036 0.914531 42.3434 0.914531C43.0861 0.914531 43.6639 1.18594 44.1903 1.57781V0.5025C43.6847 0.180938 43.0346 0 42.3226 0C41.157 0 40.187 0.592969 40.187 1.67813C40.187 2.69297 40.8267 3.135 41.6724 3.43641L42.5909 3.75797C43.1584 3.96891 43.4782 4.16016 43.4782 4.6425C43.4782 5.19516 42.9732 5.44641 42.2503 5.44641C41.5076 5.44641 40.8163 5.18531 40.239 4.73297V5.82797ZM46.7185 5.82797C47.1621 6.12984 47.8845 6.37078 48.7302 6.37078C50.0201 6.37078 51 5.74781 51 4.62234C51 3.72797 50.5459 3.18563 49.5557 2.83359L48.5342 2.47219C48.0083 2.29125 47.7088 2.11031 47.7088 1.65797C47.7088 1.15547 48.1836 0.914531 48.8228 0.914531C49.5656 0.914531 50.1439 1.18594 50.6697 1.57781V0.5025C50.1647 0.180938 49.5146 0 48.8025 0C47.6365 0 46.667 0.592969 46.667 1.67813C46.667 2.69297 47.3067 3.135 48.1524 3.43641L49.0709 3.75797C49.6383 3.96891 49.9582 4.16016 49.9582 4.6425C49.9582 5.19516 49.4527 5.44641 48.7302 5.44641C47.9875 5.44641 47.2963 5.18531 46.7185 4.73297V5.82797Z" fill="#7A778D"/>
</svg>
