<?xml version="1.0" encoding="utf-8"?>
<!-- Generator: Adobe Illustrator 16.0.0, SVG Export Plug-In . SVG Version: 6.00 Build 0)  -->
<!DOCTYPE svg PUBLIC "-//W3C//DTD SVG 1.1//EN" "http://www.w3.org/Graphics/SVG/1.1/DTD/svg11.dtd">
<svg version="1.1" id="Layer_1" xmlns="http://www.w3.org/2000/svg" xmlns:xlink="http://www.w3.org/1999/xlink" x="0px" y="0px"
	 width="1196.938px" height="1196.938px" viewBox="0 0 1196.938 1196.938" enable-background="new 0 0 1196.938 1196.938"
	 xml:space="preserve">
<g>
	<path fill="#BAD3EE" d="M1111.088,601.02c0,106.44-32.59,205.27-88.34,287.04c-2.54,3.73-5.13,7.421-7.76,11.08
		c-12.28,17.021-25.58,33.261-39.811,48.61c-0.64,0.69-1.279,1.38-1.93,2.07c-1.59,1.72-3.21,3.42-4.84,5.109
		c-49.57,51.49-109.87,92.59-177.311,119.71c-25.739,10.351-52.52,18.67-80.14,24.74c-6.86,1.51-13.77,2.88-20.729,4.11
		c-18.561,3.29-37.471,5.56-56.67,6.779c-2.48,0.16-4.98,0.301-7.48,0.421c-2.04,0.1-4.08,0.18-6.13,0.26
		c-1.26,0.05-2.54,0.09-3.82,0.13c-1.26,0.03-2.53,0.06-3.8,0.09c-3.38,0.08-6.75,0.12-10.12,0.13c-0.92,0-1.83,0-2.729-0.01
		c-0.65,0.01-1.301,0-1.96,0c-1.86-0.01-3.721-0.03-5.57-0.06c-4.74-0.08-9.48-0.23-14.22-0.44c-2.521-0.11-5.051-0.24-7.591-0.39
		c-15.13-0.9-30.09-2.46-44.84-4.66c-0.17-0.021-0.35-0.04-0.52-0.07c-0.431-0.06-0.86-0.13-1.29-0.2
		c-1.101-0.16-2.19-0.319-3.28-0.5c-1.63-0.26-3.26-0.52-4.89-0.8c-0.641-0.11-1.28-0.21-1.931-0.33c-2.92-0.5-5.819-1.03-8.72-1.59
		c-0.29-0.05-0.57-0.1-0.859-0.16c-8.45-1.62-16.83-3.45-25.12-5.49c-1.13-0.279-2.25-0.56-3.38-0.85
		c-0.12-0.02-0.24-0.05-0.36-0.09c-0.68-0.17-1.37-0.351-2.05-0.53c-0.101-0.02-0.21-0.05-0.311-0.08
		c-0.77-0.189-1.54-0.39-2.31-0.6c-2.01-0.521-4.01-1.061-6.01-1.62c-0.62-0.17-1.24-0.34-1.851-0.521
		c-3.149-0.88-6.29-1.79-9.42-2.739c-0.689-0.21-1.37-0.42-2.05-0.63c-2.061-0.62-4.12-1.271-6.17-1.94
		c-1.73-0.55-3.46-1.11-5.181-1.68c-1.729-0.58-3.46-1.17-5.18-1.761c-2.02-0.689-4.04-1.399-6.05-2.13c-0.92-0.33-1.83-0.66-2.74-1
		c-71.88-26.27-136.189-68.239-188.78-121.779c-1.119-1.131-2.22-2.261-3.319-3.4c-1.73-1.79-3.431-3.59-5.12-5.4
		c-14.8-15.79-28.62-32.529-41.33-50.1c-2.75-3.81-5.46-7.67-8.12-11.56c-55.8-81.8-88.42-180.681-88.42-287.17
		c0-281.82,228.46-510.27,510.271-510.27C882.628,90.75,1111.088,319.2,1111.088,601.02z"/>
	<rect x="406.328" y="532" fill="#1B1616" width="419" height="347"/>
	<path fill="#97785F" d="M784.713,861.54c0,52.77-78.153,150.793-174.051,150.793h-5.502c-95.896,0-173.217-98.023-173.217-150.793
		c0-16.149,5.937-28.78,19.452-35.61c2.726-1.39,5.756-2.539,9.106-3.43c11.27-3,20.955-7.663,29.784-12.833
		c6.765-3.96,12.508-13.752,13.738-18.292C510.799,766.525,565.961,766,605.576,766h5.502c39.617,0,95.144,0.525,101.918,25.375
		c1.23,4.54,7.637,15.332,14.4,19.292c8.831,5.17,17.488,8.833,28.758,11.833C776.147,827.82,784.713,842.141,784.713,861.54z"/>
	<path fill="#97785F" d="M713.608,817.859c-4.07,11.73-12.83,29.9-30.141,52.2c-0.729,0.94-1.56,1.98-2.46,3.101
		c-21.05,11.81-48.39,16.58-73.739,16.439c-26.87-0.159-56.561-10.83-77.801-25.85c-15.72-21.51-23.27-38.66-26.46-49.13
		c0.11-3.75,0.23-7.95,0.37-12.5c0.07-2.37,0.15-4.841,0.23-7.39c0.029-0.76,0.06-1.521,0.09-2.301c0.02-0.619,0.04-1.24,0.07-1.859
		c0.01-0.19,0.01-0.381,0.02-0.58c0.07-2.061,0.14-4.17,0.21-6.32c0.521-15.27,1.17-32.43,1.79-48.98
		c0.01-0.33,0.021-0.649,0.03-0.969c0.06-1.74,0.13-3.48,0.2-5.201c0.04-1.049,0.079-2.1,0.13-3.14c0.06-1.7,0.12-3.39,0.18-5.06
		c0.04-0.92,0.08-1.83,0.11-2.73c0.05-1.24,0.1-2.46,0.149-3.67c0.08-1.98,0.15-3.93,0.221-5.85c0.02-0.291,0.029-0.58,0.05-0.87
		c0.06-1.54,0.12-3.05,0.17-4.54c0.96-24.71,1.72-42.99,1.72-42.99c1.12,1.16,171.43,8.641,197.6,7.15
		c1.961-0.11,3.11-0.271,3.341-0.49c0,0,0.37,13.21,0.899,32.26c0.03,1.02,0.05,2.07,0.08,3.131v0.049
		c0.101,3.33,0.2,6.82,0.311,10.44c0.029,1.181,0.06,2.38,0.1,3.59c0.02,0.69,0.04,1.38,0.06,2.08c0.011,0.72,0.03,1.44,0.051,2.17
		c0.04,1.94,0.09,3.89,0.159,5.88c0,0.28,0.011,0.561,0.021,0.84c0.04,1.53,0.09,3.08,0.13,4.631c0.46,17.689,0.95,36.6,1.37,53.41
		c0.03,1.299,0.06,2.58,0.09,3.85c0.01,0.68,0.021,1.35,0.05,2.02c0,0.271,0.011,0.53,0.021,0.801c0.01,0.31,0.02,0.619,0.03,0.93
		c0.069,3.359,0.14,6.609,0.21,9.71C713.408,807.939,713.519,813.26,713.608,817.859z"/>
	<path fill="#8B6950" d="M475.815,537.729c0,0-16.08-33.106-31.215-18.918s-2.365,51.552-0.473,56.281
		c1.642,4.107,8.035,20.803,5.991,29.481c-2.896,12.296,10.404,37.521,38.309,17.499
		C515.188,602.873,475.815,537.729,475.815,537.729z"/>
	<path fill="#8B6950" d="M749.328,533c0,0,17-35,33-20s2.5,54.5,0.5,59.5c-1.736,4.341-8.495,21.992-6.334,31.166
		c3.062,13-11,39.667-40.5,18.5C707.705,601.869,749.328,533,749.328,533z"/>
	<path fill="#8B6950" d="M710.979,712.21c-0.11-3.62-0.21-7.11-0.311-10.44v-0.049c-4.229,4.639-8.979,9.449-14.33,14.469
		c-14.319,13.44-36.18,41.461-62.189,45.48c-23.71,3.66-69.351,7.551-95.54-23.17c-8.37-9.83-20.04-21.41-31.58-35.84
		c-0.05,1.49-0.11,3-0.17,4.54c-0.021,0.29-0.03,0.579-0.05,0.87c-0.07,1.92-0.141,3.869-0.221,5.85c-0.05,1.21-0.1,2.43-0.149,3.67
		c4.88,5.689,9.64,10.87,14.01,15.631c3.85,4.199,7.479,8.159,10.55,11.76c16.48,19.34,41.35,29.14,73.92,29.14
		c9.521,0,19.58-0.841,30.76-2.57c24.28-3.75,44.16-24.239,58.681-39.21c3.2-3.3,6.22-6.41,8.83-8.859
		c2.779-2.61,5.399-5.17,7.89-7.681C711.038,714.59,711.008,713.391,710.979,712.21z"/>
	<path fill="#97785F" d="M755.938,504.94c0,0-3.101,87.3-7.57,116.031c-4.271,27.379-8.87,54.709-52.03,95.219
		c-14.319,13.44-36.18,41.461-62.189,45.48c-23.71,3.66-69.351,7.551-95.54-23.17c-23.17-27.2-71.49-67.71-72.75-145.27
		l-3.15-137.48l30.9-80.08l63.05-49.82l76.31-9.46l77.561,37.2l45.09,69.37L755.938,504.94z"/>
	<g>
		<g>
			<circle fill="#1D1312" cx="536.883" cy="515.696" r="13.465"/>
		</g>
		<path fill="none" stroke="#8B6950" stroke-width="11" stroke-linecap="round" stroke-miterlimit="10" d="M555.733,526.731
			c0,0-6.872-0.388-13.249,0.812c-8.221,1.549-20.191,0.349-27.972-2.909"/>
		
			<ellipse transform="matrix(0.9998 0.0221 -0.0221 0.9998 11.433 -11.8858)" fill="#FFFFFF" cx="542.96" cy="510.831" rx="2.549" ry="4.734"/>
		<g>
			<path fill="none" stroke="#362724" stroke-width="7" stroke-linecap="round" stroke-miterlimit="10" d="M565.692,518.989
				c0,0-10.936-12.834-23.313-15.341c-12.244-2.479-29.693,2.181-37.784,11.463"/>
			<g>
				<path fill="#362724" d="M503.191,513.129c0,0-7.229-0.962-10.115-11.503c0,0,4.839,6.304,14.989,6.503"/>
				<path fill="#362724" d="M508.212,508.937c0,0-5.951-2.081-6.674-8.942c0,0,5.849,5.988,14.565,5.815"/>
				<g>
					<path fill="#362724" d="M511.879,506.143c0,0-4.464-3.58-5.073-8.287c0,0,3.753,5.537,10.49,6.007"/>
					<path fill="#362724" d="M509.785,500.905c0,0,2.307,2.107,11.443,1.24c9.136-0.866-4.465,3.192-4.465,3.192l-5.533-1.528
						L509.785,500.905z"/>
				</g>
			</g>
		</g>
	</g>
	<path fill="#362724" d="M576.802,480.502c-0.473-6.029-3.075-8.867-15.489-11.351c-13.577-2.715-66.45-14.188-78.273,15.607
		c0,0,14.268-8.355,39.177-7.252c16.597,0.735,44.771,9.971,50.802,9.026C577.597,485.814,576.959,482.507,576.802,480.502z"/>
	<path fill="#655246" d="M686.453,648.458c-4.213,4.248-10.857,8.807-16.336,12.519l3.247-13.508L686.453,648.458z"/>
	<path fill="#655246" d="M553.047,658.773c-8.821-7.16-14.3-13.158-14.3-13.158l13.024-3.197L553.047,658.773z"/>
	<path fill="#FFFFFF" d="M973.238,949.82c-1.601,1.72-3.21,3.42-4.84,5.109c-11.42,11.87-23.42,23.181-35.94,33.91
		c-0.97,0.82-1.939,1.641-2.91,2.46c-2.91,2.45-5.84,4.87-8.8,7.271c0-0.011-0.01,0-0.01,0c-6.92,5.569-13.98,10.96-21.18,16.18
		h-0.011c-32.95,23.83-68.85,43.82-107.06,59.32c-1.2,0.479-2.391,0.96-3.59,1.439c-2.4,0.95-4.801,1.88-7.221,2.8
		c-6.029,2.29-12.13,4.471-18.27,6.53c-14.98,5.04-30.271,9.391-45.83,13.04c-0.67,0.16-1.34,0.311-2.01,0.46
		c-0.66,0.16-1.33,0.3-2,0.45c-0.3,0.07-0.61,0.15-0.91,0.21c-0.3,0.07-0.61,0.14-0.91,0.21c-25.41,5.63-51.52,9.37-78.2,11.06
		c-2.489,0.16-4.989,0.301-7.489,0.421c-2.04,0.1-4.08,0.18-6.12,0.26c-1.271,0.05-2.54,0.09-3.82,0.13
		c-1.271,0.03-2.54,0.06-3.81,0.09c-3.37,0.08-6.75,0.12-10.12,0.13c-0.91,0-1.82,0-2.721-0.01c-0.659,0.01-1.31,0-1.97,0
		c-1.85-0.01-3.71-0.03-5.56-0.06c-4.74-0.08-9.48-0.23-14.221-0.44c-2.529-0.11-5.06-0.24-7.59-0.39
		c-21.77-1.29-43.17-3.95-64.12-7.891c-0.729-0.14-1.47-0.279-2.199-0.42c-21.94-4.21-43.37-9.84-64.211-16.77
		c-10.229-3.4-20.319-7.12-30.25-11.15c-2.06-0.83-4.109-1.68-6.159-2.54c-2.38-1-4.75-2.02-7.12-3.06
		c-2.36-1.04-4.71-2.09-7.061-3.16c-1.18-0.53-2.35-1.07-3.51-1.62c-2.33-1.09-4.66-2.2-6.979-3.32
		c-3.471-1.68-6.921-3.399-10.351-5.16c0,0,0,0-0.01,0c-2.28-1.18-4.561-2.369-6.82-3.569c-15.87-8.44-31.24-17.71-46.05-27.73
		c-2.11-1.439-4.21-2.88-6.3-4.34c-0.01,0-0.01,0-0.01,0c-8.37-5.85-16.561-11.939-24.551-18.27h-0.01
		c-1.99-1.591-3.97-3.181-5.95-4.79c-0.01,0.01-0.01,0.01-0.01,0c-15.8-12.891-15.689-81.601,8.24-102.96
		c13.189-11.771,42.35-24.261,74.77-35.591c6.57-2.3,15.91-5.899,26.57-10.04c26.86-10.42,62.1-24.17,82.54-28.64
		c-0.7,9.021,1.71,23.79,6.73,40.311c1.34,4.399,2.859,8.92,4.55,13.5c6.26,16.89,14.92,34.439,25.47,48.81
		c19.33,26.33,69.67,79.67,104,79.67c30.95,0,71.84-34.92,100.5-77.67c14.97-22.33,22.47-41.2,27.21-58.16l0.01-0.02
		c4.59-16.46,6.59-31.131,10.28-45.49c10.17,2.5,24.84,7.85,32.83,10.34c0.6,0.189,31.02,10.26,31.9,10.551
		c1.409,0.459,3.149,1.049,5.17,1.739c6.409,2.21,15.6,5.48,25.779,9.26c2,0.75,4.04,1.521,6.11,2.3
		c25.18,9.54,53.96,21.44,61.45,28.131C937.588,904.98,958.508,931.01,973.238,949.82z"/>
	<path fill="none" stroke="#8B6950" stroke-width="11" stroke-linecap="round" stroke-miterlimit="10" d="M571.482,598.268
		c0,0,18.918,2.838,21.756,6.148"/>
	<path fill="none" stroke="#8B6950" stroke-width="11" stroke-linecap="round" stroke-miterlimit="10" d="M649.992,598.268
		c0,0-18.917,2.838-21.755,6.148"/>
	<path fill="none" stroke="#8B6950" stroke-width="11" stroke-linecap="round" stroke-miterlimit="10" d="M630.443,517.55
		c0,0-5.045,9.144-5.045,17.972s4.414,27.432,10.72,35.314"/>
	<g>
		<g>
			<circle fill="#1D1312" cx="684.827" cy="515.696" r="13.465"/>
		</g>
		<path fill="none" stroke="#8B6950" stroke-width="11" stroke-linecap="round" stroke-miterlimit="10" d="M665.977,526.731
			c0,0,6.872-0.388,13.25,0.812c8.22,1.549,20.19,0.349,27.971-2.909"/>
		
			<ellipse transform="matrix(-0.9998 0.0221 -0.0221 -0.9998 1392.2764 1006.2644)" fill="#FFFFFF" cx="690.574" cy="510.831" rx="2.55" ry="4.734"/>
		<g>
			<path fill="none" stroke="#362724" stroke-width="7" stroke-linecap="round" stroke-miterlimit="10" d="M656.018,518.989
				c0,0,10.936-12.834,23.312-15.341c12.246-2.479,29.695,2.181,37.785,11.463"/>
			<g>
				<path fill="#362724" d="M718.518,513.129c0,0,7.229-0.962,10.115-11.503c0,0-4.839,6.304-14.988,6.503"/>
				<path fill="#362724" d="M713.499,508.937c0,0,5.95-2.081,6.674-8.942c0,0-5.85,5.988-14.566,5.815"/>
				<g>
					<path fill="#362724" d="M709.832,506.143c0,0,4.464-3.58,5.073-8.287c0,0-3.754,5.537-10.492,6.007"/>
					<path fill="#362724" d="M711.924,500.905c0,0-2.307,2.107-11.443,1.24c-9.136-0.866,4.466,3.192,4.466,3.192l5.534-1.528
						L711.924,500.905z"/>
				</g>
			</g>
		</g>
	</g>
	<path fill="#362724" d="M644.909,480.502c0.472-6.029,3.073-8.867,15.488-11.351c13.577-2.715,66.451-14.188,78.273,15.607
		c0,0-14.269-8.355-39.176-7.252c-16.599,0.735-44.772,9.971-50.803,9.026C644.113,485.814,644.751,482.507,644.909,480.502z"/>
	
		<ellipse transform="matrix(0.9999 -0.0113 0.0113 0.9999 -7.6249 6.9241)" fill="#9A665A" cx="608.938" cy="678.23" rx="32.279" ry="8.75"/>
	<path fill="none" stroke="#9A665A" stroke-width="23" stroke-linecap="round" stroke-miterlimit="10" d="M557.164,668.356
		c0,0,18.132,24.675,49.337,25.894c32.887,1.283,52.385-23.26,52.385-23.26"/>
	<path fill="#FFFFFF" d="M673.201,648.057l-3.071,12.776c-17.319,11.737-40.706,19.946-66.01,20.053
		c-19.609,0.08-38.856-12.303-51.191-22.294l-1.206-15.472l27.063-6.645l30.568,5.331l16.791,0.047L673.201,648.057z"/>
	<path fill="#9A665A" d="M536.484,645.09c3.915,2.393,12.172,3.709,18.144,2.064c6.348-1.748,17.28-5.555,34.381,0.873
		c17.099,6.429,33.437,1.199,33.437,1.199s5.437-2.719,14.496-0.795c8.98,1.906,32.011,2.521,48.7,0.441
		c0,0-12.569-10.518-36.289-16.348c-19.011-4.674-23.973-5.495-29.983-4.107c-6.02,1.391-16.874,1.447-24.949-1.537
		C583.639,622.896,522.006,636.241,536.484,645.09z"/>
	<path fill="none" stroke="#8B6950" stroke-width="6" stroke-linecap="round" stroke-miterlimit="10" d="M688.301,647.139
		c0,0,1.106,6.938,0.634,7.727"/>
	
		<line fill="none" stroke="#8B6950" stroke-width="6" stroke-linecap="round" stroke-miterlimit="10" x1="533.019" y1="638.91" x2="530.018" y2="645.516"/>
	
		<line fill="none" stroke="#8B6950" stroke-width="11" stroke-linecap="round" stroke-miterlimit="10" x1="597.021" y1="712.249" x2="623.507" y2="712.249"/>
	<path fill="#282828" d="M504.668,1102.25c-0.29-0.05-0.57-0.1-0.859-0.16c-8.45-1.62-16.83-3.45-25.12-5.49
		c-1.13-0.279-2.25-0.56-3.38-0.85c-0.12-0.02-0.24-0.05-0.36-0.09c-0.68-0.17-1.37-0.351-2.05-0.53
		c-0.101-0.02-0.21-0.05-0.311-0.08c-0.77-0.189-1.54-0.39-2.31-0.6c-2.01-0.521-4.01-1.061-6.01-1.62
		c-0.62-0.17-1.24-0.34-1.851-0.521c-3.149-0.88-6.29-1.79-9.42-2.739c-0.689-0.21-1.37-0.42-2.05-0.63
		c-2.061-0.62-4.12-1.271-6.17-1.94c-1.73-0.55-3.46-1.11-5.181-1.68c-1.729-0.58-3.46-1.17-5.18-1.761
		c-2.02-0.689-4.04-1.399-6.05-2.13c-0.92-0.319-1.83-0.66-2.74-0.989v-0.011c-71.88-26.27-136.189-68.239-188.78-121.779
		c6.12-21.25,14.961-48.94,36.48-67.65c28.85-17.44,86.69-42.51,146.26-60.12c17.79-5.26,35.74-9.86,53.11-13.38l4.61,42.19
		L504.668,1102.25z"/>
	<path fill="#0F0F0F" d="M525.298,1105.74v0.01c-0.17-0.03-0.35-0.05-0.52-0.08c-0.431-0.06-0.86-0.13-1.29-0.2
		c-1.101-0.16-2.19-0.319-3.28-0.5c-1.63-0.26-3.26-0.52-4.89-0.8c-0.641-0.11-1.28-0.21-1.931-0.33c-2.92-0.5-5.819-1.03-8.72-1.59
		c-0.29-0.05-0.57-0.1-0.859-0.16c-8.45-1.62-16.83-3.45-25.12-5.49c-1.13-0.279-2.25-0.56-3.38-0.85
		c-0.12-0.02-0.24-0.05-0.36-0.09c-0.68-0.17-1.37-0.351-2.05-0.53c-0.101-0.02-0.21-0.05-0.311-0.08
		c-0.77-0.189-1.54-0.39-2.31-0.6c-2.01-0.521-4.01-1.061-6.01-1.62c-0.62-0.17-1.24-0.34-1.851-0.521
		c-3.149-0.88-6.29-1.79-9.42-2.739c-0.689-0.21-1.37-0.42-2.05-0.63c-2.061-0.62-4.12-1.271-6.17-1.94
		c-1.73-0.55-3.46-1.11-5.181-1.68c-1.729-0.58-3.46-1.17-5.18-1.761c-2.02-0.689-4.04-1.399-6.05-2.13
		c-0.92-0.319-1.83-0.66-2.74-0.989v-0.011c-8.1-32.949-19.3-76.43-19.3-76.43l39.5-39.5l-43.5-26.5l17.26-107.12l0.41-2.55
		c13.16-4.79,72-23.33,72-23.33c3.01,18.221,3.85,40.46,6.53,60.19C506.668,924.97,519.488,1046.62,525.298,1105.74z"/>
	<path fill="#282828" d="M975.178,947.75c-0.64,0.69-1.279,1.38-1.93,2.07c-1.59,1.72-3.21,3.42-4.84,5.109
		c-49.57,51.49-109.87,92.59-177.311,119.71c-25.739,10.351-52.52,18.67-80.14,24.74l27.03-239.689l4.609-42.19
		c17.37,3.52,35.32,8.12,53.11,13.38c59.57,17.61,117.41,42.68,146.26,60.12C959.958,906.64,969.088,928.56,975.178,947.75z"/>
	<path fill="#0F0F0F" d="M769.468,964.5l39.5,39.5c0,0-9.949,38.62-17.87,70.64c-25.739,10.351-52.52,18.67-80.14,24.74
		c-6.86,1.51-13.77,2.88-20.729,4.11c5.899-59.91,18.5-179.271,26.54-238.3c2.68-19.73,3.52-41.97,6.529-60.19
		c0,0,58.84,18.54,72,23.33l0.41,2.55L812.968,938L769.468,964.5z"/>
	<path fill="#EEBF72" d="M787.741,662.629c-1.784,27.582-21.766,48.83-44.533,47.357c-10.837-0.701-20.392-6.429-27.225-15.212
		c0.867-0.968,1.708-1.928,2.528-2.89c6.213,8.279,14.973,13.68,24.94,14.325c20.69,1.339,38.863-18.321,40.514-43.825
		c1.359-21.03-8.938-39.583-24.198-46.173c-1.088-0.479-2.2-0.892-3.343-1.23c-0.008-0.607,0.094-1.292,0.318-1.979
		c0.2-0.622,0.491-1.172,0.824-1.624c1.199,0.362,2.376,0.798,3.519,1.289C777.874,619.838,789.211,639.898,787.741,662.629z"/>
	<path fill="#FFFFFF" d="M768.973,710.354c0,0-1.066-6.605-1.989-8.495c-0.65-1.331-4.688-3.325-4.688-3.325
		s3.996-2.176,4.666-3.523c0.922-1.855,2.011-8.298,2.011-8.298s1.005,6.464,1.927,8.316c0.672,1.351,4.751,3.505,4.751,3.505
		s-4.079,1.977-4.729,3.307C769.997,703.728,768.973,710.354,768.973,710.354z"/>
	<path fill="#FFFFFF" d="M779.427,698.358c0,0-0.651-4.042-1.216-5.198c-0.398-0.814-2.869-2.034-2.869-2.034
		s2.445-1.332,2.855-2.157c0.563-1.135,1.229-5.076,1.229-5.076s0.616,3.954,1.18,5.088c0.412,0.826,2.907,2.146,2.907,2.146
		s-2.495,1.208-2.895,2.022C780.056,694.303,779.427,698.358,779.427,698.358z"/>
	<path fill="#291F1D" d="M609.905,251.121c63.376,0,109.1,34.071,135.623,59.592c83.6,80.401,81.348,134.318,86.077,190.127
		c0.994,11.728,8.807,58.293,21.757,89.861c15.134,36.889,17.026,84.185,1.891,119.184c-15.134,34.998,3.841,71.973,13.3,99.404
		s19.836,114.861-23.647,168.371c-12.297,15.134-74.727,13.242-99.32,8.513c-24.593-4.729-7.567-28.376,2.837-46.349
		c10.406-17.973,29.844-57.238,13.504-107.604c-13.084-40.327-28.693-80.717-16.397-127.066
		c12.298-46.35,16.081-86.076,6.622-114.454c-9.373-28.12-21.122-147.25-46.35-193.911c-25.217-46.661-93.25-48.398-93.25-48.398
		c-1.118,0.39-2.167-14.946-3.232-14.978c-1.41-0.041-3.626,14.582-3.626,14.583c0,0-71.388-9.062-96.604,37.6
		c-25.229,46.662-37.24,172.312-56.789,196.275c-14.236,17.454-13.625,59.205-1.327,105.553
		c12.296,46.35,18.946,111.054,7.002,151.733c-18.536,63.133,0.564,82.851,10.97,100.823c10.405,17.972,28.378,41.62,3.784,46.349
		c-24.594,4.729-87.023,6.622-99.319-8.513c-43.485-53.511-33.107-140.939-23.648-168.371c9.459-27.431,22.137-47.538,11.731-85.373
		c-10.11-36.767-13.457-109.87,1.894-137.157c17.025-30.268,21.798-68.666,22.7-80.402c6.622-86.078,3.425-115.4,87.023-195.801
		c26.524-25.521,71.923-59.435,135.299-59.435L609.905,251.121z"/>
	<path fill="#EEBF72" d="M429.82,662.629c1.782,27.582,21.765,48.83,44.533,47.357c10.836-0.701,20.39-6.429,27.224-15.212
		c-0.867-0.968-1.707-1.928-2.527-2.89c-6.215,8.279-14.973,13.68-24.942,14.325c-20.69,1.339-38.863-18.321-40.512-43.825
		c-1.359-21.03,8.937-39.583,24.198-46.173c1.087-0.479,2.198-0.892,3.342-1.23c0.009-0.607-0.094-1.292-0.317-1.979
		c-0.201-0.622-0.492-1.172-0.826-1.624c-1.199,0.362-2.374,0.798-3.519,1.289C439.688,619.838,428.349,639.898,429.82,662.629z"/>
	<path fill="#FFFFFF" d="M448.588,710.354c0,0,1.066-6.605,1.99-8.495c0.65-1.331,4.687-3.325,4.687-3.325s-3.997-2.176-4.667-3.523
		c-0.921-1.855-2.01-8.298-2.01-8.298s-1.005,6.464-1.926,8.316c-0.672,1.351-4.752,3.505-4.752,3.505s4.08,1.977,4.729,3.307
		C447.562,703.728,448.588,710.354,448.588,710.354z"/>
	<path fill="#FFFFFF" d="M438.133,698.358c0,0,0.652-4.042,1.218-5.198c0.397-0.814,2.868-2.034,2.868-2.034
		s-2.447-1.332-2.854-2.157c-0.565-1.135-1.231-5.076-1.231-5.076s-0.614,3.954-1.178,5.088c-0.412,0.826-2.908,2.146-2.908,2.146
		s2.496,1.208,2.895,2.022C437.505,694.303,438.133,698.358,438.133,698.358z"/>
	<path fill="#EEBF72" d="M679.638,900.36c-19.869,20.399-45.1,31.64-71.06,31.64c-26.59,0-52.37-11.65-72.6-32.8
		c-24.551-25.67-37.66-62.021-35.98-99.74c0.57-6.16,1.93-11.38,4-15.79c-0.07,2.15-0.14,4.26-0.21,6.32
		c-0.86,2.89-1.47,6.09-1.79,9.6c-1.66,37.131,11.25,72.95,35.42,98.23c19.851,20.75,45.12,32.18,71.16,32.18
		c25.41,0,50.14-11.02,69.63-31.04c24.48-25.14,37.95-61.36,36.95-99.37c-0.53-3.23-1.25-6.199-2.15-8.91
		c-0.029-0.67-0.04-1.34-0.05-2.02c-0.03-1.27-0.06-2.551-0.09-3.85c1.94,4.14,3.37,8.949,4.28,14.529l0.01,0.131
		C718.188,838.05,704.508,874.82,679.638,900.36z"/>
	<path fill="#FFFFFF" d="M677.828,905.238c0,0-0.879-5.443-1.64-7c-0.535-1.096-3.861-2.739-3.861-2.739s3.293-1.792,3.845-2.903
		c0.76-1.528,1.656-6.835,1.656-6.835s0.828,5.323,1.589,6.851c0.551,1.112,3.912,2.888,3.912,2.888s-3.361,1.628-3.896,2.725
		C678.673,899.778,677.828,905.238,677.828,905.238z"/>
	<path fill="#FFFFFF" d="M686.733,909.932c0,0-0.626-3.873-1.167-4.981c-0.381-0.78-2.748-1.95-2.748-1.95s2.344-1.275,2.735-2.066
		c0.541-1.087,1.18-4.864,1.18-4.864s0.59,3.789,1.13,4.876c0.394,0.791,2.785,2.055,2.785,2.055s-2.392,1.159-2.773,1.939
		C687.335,906.046,686.733,909.932,686.733,909.932z"/>
</g>
</svg>
