<svg id="Layer_1" data-name="Layer 1" xmlns="http://www.w3.org/2000/svg" xmlns:xlink="http://www.w3.org/1999/xlink" viewBox="0 0 1553.14 1066.64"><defs><style>.cls-1,.cls-12,.cls-15,.cls-18,.cls-21,.cls-8{fill:none;}.cls-2{fill:#d8d1ff;}.cls-3{clip-path:url(#clip-path);}.cls-4{fill:#fcc5e4;}.cls-5{fill:#d4d2d7;}.cls-6{fill:#f0eff0;}.cls-7{fill:#ef5e95;}.cls-8{stroke:#000;stroke-width:3px;}.cls-12,.cls-13,.cls-15,.cls-18,.cls-21,.cls-8{stroke-linecap:round;}.cls-11,.cls-12,.cls-13,.cls-15,.cls-18,.cls-21,.cls-8{stroke-miterlimit:10;}.cls-9{fill:#facf54;}.cls-10{fill:#e9aa57;}.cls-11,.cls-13{fill:#d3e8be;}.cls-11,.cls-12,.cls-13{stroke:#add693;}.cls-11{stroke-width:7px;}.cls-12,.cls-13{stroke-width:8px;}.cls-14{fill:#fcdfea;}.cls-15{stroke:#f7cde1;}.cls-15,.cls-18,.cls-21{stroke-width:12px;}.cls-16,.cls-17,.cls-20{fill:#fff;}.cls-16,.cls-18,.cls-19{opacity:0.3;}.cls-17,.cls-21,.cls-22{opacity:0.4;}.cls-18,.cls-21{stroke:#fff;}</style><clipPath id="clip-path"><path class="cls-1" d="M313.72,19.1C454.21-67.72,700-111.25,1092.42-26.33c49.23,10.66,65.19,190.24,109.92,213.41C1320,248,1535.9,387.75,1544.57,595.69c11.78,282.8-56.19,484.15-534.41,413.31q-23.24-3.43-46.7-4.94C888.33,999.33,679,991.91,524.12,1042,332.2,1104,170,985,170,985S-101.2,783.92,57,466.69C103.3,373.88,225.5,73.61,313.72,19.1Z"/></clipPath></defs><title>spa</title><path class="cls-2" d="M268.17,241.77C408.66,155,672.84,51.38,1065.24,136.31a569.65,569.65,0,0,1,141.63,50.77C1324.5,248,1540.43,387.75,1549.09,595.69c11.79,282.8-56.18,484.15-534.41,413.31q-23.22-3.43-46.69-4.94c-75.14-4.73-284.51-12.15-439.35,37.91-191.91,62-354.16-57-354.16-57S-96.68,783.92,61.54,466.69C107.82,373.88,180,296.29,268.17,241.77Z"/><g class="cls-3"><path class="cls-4" d="M390,310.28s-9.88,196.21,15.26,268.36a5.42,5.42,0,0,0,.22.56c1.11,2.63,10.33,25.56,3.82,47.26a8.33,8.33,0,0,0,6.76,10.82c61.93,8.1,380.61,44.28,630.4-31.87a8.23,8.23,0,0,0,1.11-.43c3.4-1.62,26.27-11.28,69.73-1.57a8.27,8.27,0,0,0,10-9.6c-4.47-23.41-11-77.73,3-155.67,16.58-92.33-14.57-165.67-23-183.29a8.21,8.21,0,0,0-6.36-4.63c-45.81-6.07-443-56.14-595.82,12.09,0,0-44.05,22.72-110.15,4.41a8.27,8.27,0,0,0-9.88,10.95C388.17,285.53,390.5,296.21,390,310.28Z"/><path class="cls-5" d="M548.46,606.73S445.64,749,448.84,795.89c3.61,52.94,96.24,119.25,96.24,119.25"/><path class="cls-5" d="M1017.58,608.71s105.18,140.58,102.75,187.48c-2.73,53-94.24,120.84-94.24,120.84"/><path class="cls-6" d="M1013.33,956c-32.76,71.29-99.5,123.18-224.87,123.18-122,0-189.34-50.58-224.59-119.85-53.92-105.81-33-255.28-18.29-334.69,4.59-24.95,8.57-43,9.45-50.59,26.6-235,142.28-286.08,213.12-287,148.51-1.92,203.81,109.37,230.78,264,1.31,7.54,8.57,31.69,16.69,65.78C1036,702.42,1061.85,850.52,1013.33,956Z"/><path class="cls-7" d="M796.33,611.72c-5.41,2-12.61-6.28-18.15-19.79-5.55,13.51-12.78,21.84-18.2,19.79-7.15-2.66-8.49-22.14-3.07-43.56,4.85-19.27,13.56-33.41,20.49-34.2a2.71,2.71,0,0,1,.87-.1c7,0,16.12,14.45,21.14,34.3C804.87,589.58,803.48,609.06,796.33,611.72Z"/><path class="cls-8" d="M710.89,457.13s-21,19.13-41.13-1"/><path class="cls-8" d="M881.18,457.13s-21,19.13-41.13-1"/><path class="cls-9" d="M749,499.18s16.38-32.68,28.65-35.72c12.92,3,28.64,35.72,28.64,35.72S789.49,511.94,778,511.94,749,499.18,749,499.18Z"/><polygon class="cls-10" points="806.47 499.35 776.91 494.06 749.18 499.35 775.32 499.16 806.47 499.35"/><circle class="cls-11" cx="685.98" cy="456.17" r="44.17"/><line class="cls-12" x1="668.59" y1="432.21" x2="677.21" y2="444.07"/><line class="cls-12" x1="707.04" y1="433.96" x2="694.28" y2="445.82"/><line class="cls-13" x1="698.68" y1="459.78" x2="715.39" y2="467.15"/><line class="cls-12" x1="685.98" y1="465.63" x2="685.98" y2="484.31"/><line class="cls-12" x1="672.9" y1="460.95" x2="657.45" y2="462.48"/><circle class="cls-11" cx="860.62" cy="458.8" r="44.17"/><line class="cls-12" x1="843.22" y1="433.96" x2="851.85" y2="445.82"/><line class="cls-12" x1="882.15" y1="433.96" x2="869.39" y2="445.82"/><line class="cls-13" x1="872.83" y1="461.42" x2="889.54" y2="468.79"/><line class="cls-12" x1="860.62" y1="472.79" x2="860.62" y2="491.48"/><line class="cls-12" x1="844.12" y1="463.58" x2="828.67" y2="465.11"/><path class="cls-14" d="M584.16,444.07s71.46-83.47,126.73-99.35,86.32-46.92,86.32-46.92,46.2,39.7,121.27,76.52c0,0,36,13.47,52.62,66.44,0,0,17.18-159.56-131.05-249.8,0,0,113.4-95.59-5.77-162.91S598.53,57.67,592.19,156,577,298.65,584.16,444.07Z"/><path class="cls-15" d="M840.05,191s-92.88-30.73-198.24,83.54"/><path class="cls-15" d="M632.27,187.2s27.53-93.94,88.25-88.29c0,0,57.19-59.3,123.55-16.24"/><path class="cls-15" d="M818.42,139.56s-8.34-38.23-97.9-40.65"/><path class="cls-15" d="M809.41,204.28s40.1,8.45-17.41,32.19-113.44,72.81-134,120.3"/><path class="cls-15" d="M835.67,222.61s5.3,39.28-34.74,71"/><path class="cls-15" d="M836.05,236.5s60.28-21.13,93.34,123.4"/></g><path class="cls-16" d="M143.39,538.06c11.92,10.06,24.72,27.68,26.3,57.4a15.75,15.75,0,0,0,8.59,13.18c11.45,5.79,30.6,20,31.9,50.51a16.35,16.35,0,0,0,6,12.19,94.82,94.82,0,0,1,35.4,72.39,16.3,16.3,0,0,0,7.53,13.56c11.75,7.34,33.3,25.25,38.23,59.88a16,16,0,0,0,6.55,11c9.59,6.67,28.21,23.46,32.77,55.46a16.2,16.2,0,0,0,7.86,11.94c8.6,4.9,22.51,16.7,26.18,42.81A16.22,16.22,0,0,0,377,949.22c8.44,6.19,23.54,20.28,24.71,42.54a15.45,15.45,0,0,0,5.86,11.08c7.24,5.95,19.13,18.87,24.17,42.39a16,16,0,0,0,17.35,12.64c6.57-.7,14.85-1.76,24.09-3.34a16.05,16.05,0,0,0,11.29-23.66c-8.51-15.24-19.81-37.42-26.35-58.19a16.45,16.45,0,0,0-4.56-7.23c-5.93-5.43-18.62-19.5-24.86-45a15.66,15.66,0,0,0-5.18-8.21c-8.71-7.38-28.74-26.21-34.23-47.6a16.12,16.12,0,0,0-4.63-7.88c-7.95-7.34-26.59-27.19-33.4-57.34a15.68,15.68,0,0,0-4.26-7.59c-8.68-8.69-31.57-34.21-37.37-66.83a15.39,15.39,0,0,0-4.29-8.06c-9.57-9.7-35.21-38.15-39.58-68.51a16.11,16.11,0,0,0-5.4-10c-10.06-8.58-32.9-30.44-39.61-57.07a15.3,15.3,0,0,0-4.07-7c-8-8-28.84-30.79-40-59.22a15.91,15.91,0,0,0-23-8.09L145.5,512A16.07,16.07,0,0,0,143.39,538.06Z"/><path class="cls-17" d="M1294.75,413.27c-5.83,14.47-8.91,36,3.58,63A15.76,15.76,0,0,1,1296.9,492c-7.42,10.47-17.71,32-4.6,59.55a16.35,16.35,0,0,1,.43,13.56,94.83,94.83,0,0,0,2.54,80.55,16.29,16.29,0,0,1-.33,15.51c-7,12-17.63,37.88-5.81,70.81a16,16,0,0,1-.67,12.75c-5.36,10.37-14,33.92-3,64.34a16.22,16.22,0,0,1-1.37,14.23c-5.31,8.35-12.09,25.28-3.14,50.08a16.18,16.18,0,0,1-.52,12.59c-4.58,9.42-11.34,28.92-2,49.15a15.55,15.55,0,0,1,0,12.54c-3.63,8.64-8.1,25.62-1.57,48.77a16,16,0,0,1-9.43,19.29c-6.13,2.45-14,5.38-22.86,8.3a16.06,16.06,0,0,1-21-15.64c.41-17.45,0-42.34-3.89-63.76a16.39,16.39,0,0,1,.65-8.53c2.7-7.57,7.34-25.93,1-51.37A15.75,15.75,0,0,1,1222,875c4.26-10.6,13.16-36.61,8-58.09a16.18,16.18,0,0,1,.41-9.12c3.6-10.2,10.8-36.47,2.73-66.3a15.73,15.73,0,0,1,.22-8.71c3.61-11.74,11.92-45,1.81-76.54a15.32,15.32,0,0,1,0-9.14c3.93-13,13.3-50.18,3-79.06a16,16,0,0,1,.09-11.38c4.89-12.28,14.86-42.28,8.34-69a15.34,15.34,0,0,1,.33-8.09c3.3-10.84,11.11-40.7,7.7-71.06a15.9,15.9,0,0,1,16.51-17.87l9.57.49A16.07,16.07,0,0,1,1294.75,413.27Z"/><path class="cls-18" d="M145.86,775s83-18.19,151.44,42.2"/><path class="cls-18" d="M284.57,456.24c-44.2,29.17-31.92,175.14-31.92,175.14"/><g class="cls-19"><path class="cls-20" d="M142.74,771.41l.3.82.23.77.47,1.54c.25,1,.49,2,.66,2.86a46.76,46.76,0,0,1,.73,5.27,38,38,0,0,1-.36,9.11,30.4,30.4,0,0,1-18.18,23.4,37.66,37.66,0,0,1-8.75,2.57,46.53,46.53,0,0,1-5.3.57c-.93.06-1.93.06-3,0l-1.61-.08-.8,0-.88-.09-.3-.83-.23-.77L105.3,815c-.26-1-.5-1.95-.68-2.87a49.12,49.12,0,0,1-.74-5.28,37.43,37.43,0,0,1,.36-9.11,30.32,30.32,0,0,1,6.09-14,30.71,30.71,0,0,1,12.17-9.3,37.52,37.52,0,0,1,8.75-2.57,43.73,43.73,0,0,1,5.28-.58c.93-.06,1.93-.07,2.94-.06l1.6.08.8,0Z"/></g><g class="cls-19"><path class="cls-20" d="M142.74,771.07a41,41,0,0,1-4.1,5.76,53.55,53.55,0,0,1-63.5,14.66,55.74,55.74,0,0,1-5.57-2.94,41.18,41.18,0,0,1-5.77-4.11,41.5,41.5,0,0,1,4.09-5.78,56.66,56.66,0,0,1,4.3-4.61,53.62,53.62,0,0,1,59.21-10A54.51,54.51,0,0,1,137,767,41.6,41.6,0,0,1,142.74,771.07Z"/></g><g class="cls-19"><path class="cls-20" d="M284.57,453.35a59.65,59.65,0,0,1-4.67-8c-1.32-2.67-2.47-5.34-3.49-8a108.53,108.53,0,0,1-4.67-15.88,127.48,127.48,0,0,1-2.59-31.5,126,126,0,0,1,5.11-31.19,106,106,0,0,1,6-15.45q1.84-3.84,4.15-7.68a59.46,59.46,0,0,1,5.34-7.63,60.56,60.56,0,0,1,4.69,8q2,4,3.51,8a106.12,106.12,0,0,1,4.67,15.88,125.06,125.06,0,0,1,2.54,31.5A126.89,126.89,0,0,1,300,422.59,107.66,107.66,0,0,1,294,438.05c-1.23,2.56-2.6,5.12-4.13,7.67A60.47,60.47,0,0,1,284.57,453.35Z"/></g><g class="cls-19"><path class="cls-20" d="M284.57,453.35l.13-.84.17-.76.33-1.53c.25-1,.5-1.89.79-2.74a42.85,42.85,0,0,1,1.83-4.77,35.26,35.26,0,0,1,4.49-7.4,26.06,26.06,0,0,1,25.48-9.72,35,35,0,0,1,8.27,2.56,44.3,44.3,0,0,1,4.54,2.37c.78.45,1.59,1,2.41,1.54l1.26.93.64.46.66.55-.14.84-.16.77-.33,1.54c-.24,1-.5,1.89-.78,2.75a44,44,0,0,1-1.83,4.79,35,35,0,0,1-4.48,7.4,26.23,26.23,0,0,1-11.39,8.41,26.62,26.62,0,0,1-14.13,1.22,35.14,35.14,0,0,1-8.26-2.56,43,43,0,0,1-4.54-2.35c-.78-.45-1.59-1-2.41-1.53l-1.26-.92-.63-.47Z"/></g><path class="cls-21" d="M1443.77,557.15C1343,601.67,1280.24,775.72,1280.24,775.72"/><path class="cls-21" d="M1233.39,269.25s-5.23,94.24,29.92,132.39"/><g class="cls-22"><path class="cls-20" d="M1443.77,553.46a50.71,50.71,0,0,1-5.25-6.41,61.93,61.93,0,0,1-3.73-6,50.63,50.63,0,0,1-4.48-11.32,41,41,0,0,1-.21-20.45,40.5,40.5,0,0,1,9.75-17.95,50.67,50.67,0,0,1,9.29-7.88c1-.6,1.89-1.22,2.93-1.81s2-1.19,3.23-1.75a50.49,50.49,0,0,1,7.69-3.17,51.15,51.15,0,0,1,5.29,6.42c.77,1.05,1.36,2,2,3.06s1.15,2,1.73,3a50.15,50.15,0,0,1,4.48,11.32,40.44,40.44,0,0,1,.15,20.43,41.09,41.09,0,0,1-9.82,17.94,50.17,50.17,0,0,1-9.28,7.87,60.41,60.41,0,0,1-6.13,3.57A49.87,49.87,0,0,1,1443.77,553.46Z"/></g><g class="cls-22"><path class="cls-20" d="M1508.28,553.46l-.4,1-.41.91-.82,1.8c-.56,1.11-1.11,2.19-1.68,3.15a55,55,0,0,1-3.4,5.31,41.32,41.32,0,0,1-7,7.54,25.23,25.23,0,0,1-14.55,6.08,24.93,24.93,0,0,1-15.19-4.17,40.5,40.5,0,0,1-7.88-6.63c-.67-.76-1.33-1.45-2-2.27s-1.34-1.63-2-2.59-1.37-1.9-2.05-2.94l-1-1.7-.52-.85-.53-1,.41-1,.41-.91.82-1.81c.55-1.11,1.11-2.2,1.67-3.17s1.13-1.89,1.69-2.81,1.14-1.67,1.71-2.51a40.44,40.44,0,0,1,7-7.55,25,25,0,0,1,14.56-6,25.3,25.3,0,0,1,15.19,4.24,40.78,40.78,0,0,1,7.88,6.62,56.73,56.73,0,0,1,4,4.84c.68.89,1.36,1.89,2,2.93l1,1.68.52.85Z"/></g><g class="cls-22"><path class="cls-20" d="M1151.7,224.26A27.12,27.12,0,0,1,1155,221c.57-.47,1.15-.91,1.73-1.36s1.16-.8,1.74-1.21a45.63,45.63,0,0,1,7.14-3.85A47,47,0,0,1,1180,211a50.69,50.69,0,0,1,46.92,23.87,45.55,45.55,0,0,1,5.57,13.63,39.31,39.31,0,0,1,1.08,8,40.19,40.19,0,0,1-.47,8.88,101.12,101.12,0,0,1-16.24.82c-2.34,0-4.52-.14-6.57-.34-1-.09-2-.24-3-.29s-2-.21-2.9-.36a61.76,61.76,0,0,1-19.34-6.05A62.67,62.67,0,0,1,1168.83,247a97.61,97.61,0,0,1-8.1-9.48c-1.39-1.78-2.82-3.83-4.3-6S1153.42,227.08,1151.7,224.26Z"/></g></svg>