<svg id="Layer_1" data-name="Layer 1" xmlns="http://www.w3.org/2000/svg" xmlns:xlink="http://www.w3.org/1999/xlink" viewBox="0 0 502.82 143.22"><defs><style>.cls-1{fill:url(#linear-gradient);}</style><linearGradient id="linear-gradient" x1="142.62" y1="-82.38" x2="329.51" y2="241.31" gradientUnits="userSpaceOnUse"><stop offset="0" stop-color="#846ffe"/><stop offset="0.38" stop-color="#8270fe"/><stop offset="0.46" stop-color="#7875fe" stop-opacity="0.95"/><stop offset="0.61" stop-color="#5c82ff" stop-opacity="0.82"/><stop offset="0.67" stop-color="#5187ff" stop-opacity="0.77"/><stop offset="0.95" stop-color="#73dfbd"/></linearGradient></defs><title>perchlogo</title><path class="cls-1" d="M59.51,0Q81.27,0,95.62,13.61T110,47.4q0,20.15-14.28,33.8T59.51,94.84H30.35v37.91L0,143.22V0ZM30.35,27.25v40.3H58.52a21,21,0,0,0,15.13-5.81,19,19,0,0,0,6.06-14.29,19.15,19.15,0,0,0-6.06-14.33,20.89,20.89,0,0,0-15.13-5.87Z"/><path class="cls-1" d="M144.42,100.85A22.69,22.69,0,0,0,153,114.5q7,5.56,17.64,5.56a33.82,33.82,0,0,0,14.24-3c4.36-2,7.44-4,9.21-6.06l2.86-3.06L211,126.07l-1.82,1.83a53.12,53.12,0,0,1-5.27,4.18,62.68,62.68,0,0,1-8.57,5.27,54.53,54.53,0,0,1-11.77,4.09,62.71,62.71,0,0,1-14.93,1.78,51,51,0,0,1-37.14-15.13Q116.14,113,116.15,91.79a49.46,49.46,0,0,1,15.17-36.31,49.69,49.69,0,0,1,36.36-15.12q21.18,0,35.27,14.14T217,89.82l-1,11ZM153,68.63a26.75,26.75,0,0,0-8.53,13.11h45.42a22.48,22.48,0,0,0-7.53-13,21.71,21.71,0,0,0-14.64-5.12A22.27,22.27,0,0,0,153,68.63Z"/><path class="cls-1" d="M291.9,68.63a33.72,33.72,0,0,0-9.07-1.08q-10.74,0-17,6.8t-6.26,19.51v47.39H232.39V42.33h27.19V54.45q1.19-1.38,3.35-3.6T272.44,45a34.22,34.22,0,0,1,15.42-3.65h4Z"/><path class="cls-1" d="M316.73,55.78q15.86-15.42,37.63-15.42A49.63,49.63,0,0,1,369,42.48a44.28,44.28,0,0,1,11.38,5,76.88,76.88,0,0,1,7.88,5.86,32.11,32.11,0,0,1,5,5.13l1.48,2.07L377.61,77.7A29.06,29.06,0,0,0,375,74.05q-1.81-2.26-7.88-5.86a25,25,0,0,0-31.23,4.39,26.66,26.66,0,0,0-7.74,19.26,26.58,26.58,0,0,0,7.79,19.26,24.88,24.88,0,0,0,18.42,8,26.69,26.69,0,0,0,12.76-3.25,30.46,30.46,0,0,0,8.82-6.51L378.6,106l16.16,17.15c-.4.52-.94,1.26-1.63,2.21a39,39,0,0,1-4.78,4.83,51,51,0,0,1-8.08,6A54,54,0,0,1,369,141a47.77,47.77,0,0,1-14.63,2.22q-21.76,0-37.63-15.42t-15.87-36Q300.86,71.19,316.73,55.78Z"/><path class="cls-1" d="M436.32,54.45q1.19-1.58,3.3-3.89t9.46-6.26a32.1,32.1,0,0,1,15.42-3.94q16.94,0,27.63,11.72t10.69,31.63v57.54H475.63V86.76q0-9.06-5.37-14.63a18.39,18.39,0,0,0-13.84-5.56q-9.27,0-14.68,6.05t-5.42,17.2v51.43H409V16L436.32,0Z"/></svg>