<svg width="107" height="35" viewBox="0 0 107 35" fill="none" xmlns="http://www.w3.org/2000/svg">
<path d="M5.87435 5.56049C5.86031 5.59342 5.85563 11.0739 5.86031 17.7352L5.87435 29.8488H12.4509H19.0274L19.0508 28.8138C19.0648 28.2446 19.0601 27.7319 19.0414 27.6754L19.0086 27.5672L13.5883 27.5578L8.16793 27.5437V17.6882V7.83266H31.1506H54.1332L54.1473 17.5941C54.152 22.9617 54.1473 27.4026 54.1332 27.4637L54.1098 27.5672L39.7024 27.5578L25.2996 27.5437L25.2762 21.3716C25.2528 15.5383 25.2481 15.1949 25.1685 15.1149C25.0936 15.0397 25.0749 15.0397 24.9626 15.1008C24.8971 15.1384 24.7332 15.3313 24.6022 15.5242C24.4711 15.7171 23.9749 16.4368 23.5022 17.119C23.0247 17.8058 22.5099 18.5585 22.3554 18.789L22.0699 19.2171L22.0558 24.4388C22.0511 27.3085 22.0558 29.7077 22.0699 29.7688L22.0933 29.8723H39.2483H56.4034L56.4268 29.7641C56.4409 29.7077 56.4455 24.2319 56.4409 17.5941L56.4268 5.52756L31.1599 5.51344C10.9717 5.50404 5.88839 5.51344 5.87435 5.56049Z" fill="#7A778D"/>
<path d="M80.4813 5.5745C79.2128 5.85205 78.3328 6.98108 78.3422 8.32651C78.3469 9.13095 78.5996 9.75662 79.1473 10.307C79.7183 10.8762 80.28 11.1021 81.1553 11.1021C81.703 11.1021 82.0774 11.0221 82.4706 10.8198C82.7796 10.6646 83.271 10.2694 83.271 10.18C83.271 10.1094 82.6485 9.45555 82.583 9.45555C82.5596 9.45555 82.4379 9.53552 82.3068 9.63431C81.9885 9.87423 81.7779 9.96831 81.4549 10.0248C80.7294 10.1424 80.0694 9.80366 79.7324 9.14036C79.606 8.88162 79.5966 8.83458 79.5966 8.30299C79.5966 7.79963 79.6107 7.71495 79.7137 7.50326C79.8822 7.15044 80.2473 6.80702 80.5796 6.68471C81.1366 6.47302 81.8294 6.60474 82.3443 7.01872L82.5362 7.16926L82.8311 6.84466C82.9949 6.66119 83.154 6.46361 83.1868 6.40245C83.243 6.29896 83.2336 6.28014 83.0604 6.13431C82.7889 5.9038 82.2647 5.65447 81.8902 5.5745C81.4877 5.48982 80.8651 5.48982 80.4813 5.5745Z" fill="#7A778D"/>
<path d="M68.6858 5.58408C68.6577 5.6076 68.2786 6.45908 67.8479 7.47992C67.4173 8.50075 67.0288 9.42279 66.982 9.52629C66.7854 9.9732 66.3735 10.9752 66.3828 10.9893C66.4016 11.0034 67.099 11.0223 67.3377 11.0128L67.5343 11.0081L67.7543 10.453C67.8807 10.152 68.0118 9.87441 68.0539 9.84148C68.1381 9.77091 70.09 9.7615 70.2726 9.82736C70.3615 9.86029 70.4317 9.98261 70.5862 10.3825C70.6985 10.66 70.8109 10.9188 70.8436 10.9517C70.8858 10.9987 71.0496 11.0176 71.4568 11.0128C71.7611 11.0081 72.0138 10.9987 72.0279 10.9893C72.0419 10.9705 71.5551 9.80855 70.0245 6.20975L69.753 5.57467L69.2475 5.56056C68.9666 5.55585 68.7139 5.56526 68.6858 5.58408ZM69.5658 7.85626C69.739 8.27965 69.8841 8.65129 69.8841 8.68422C69.8841 8.7783 69.7624 8.79712 69.1586 8.79712C68.7326 8.79712 68.5735 8.78301 68.5313 8.73126C68.4798 8.67481 68.5501 8.49134 69.1211 7.11298C69.1773 6.98126 69.2568 7.11768 69.5658 7.85626Z" fill="#7A778D"/>
<path d="M60.0872 5.62623C60.0685 5.64505 60.0545 6.86346 60.0545 8.3312V11.0032L60.2557 11.0174C60.3634 11.0268 60.6162 11.0268 60.8174 11.0174L61.1779 10.9985V9.3144C61.1779 8.27475 61.1966 7.61615 61.2247 7.59733C61.2481 7.58322 61.5898 8.05835 61.983 8.65109C62.3761 9.24854 62.7225 9.72838 62.7459 9.72367C62.774 9.71427 63.111 9.23443 63.4949 8.6558C63.8834 8.07246 64.2204 7.59733 64.2438 7.59733C64.2719 7.59733 64.2953 8.20419 64.3046 9.30029L64.314 11.0079H64.871C65.3344 11.0079 65.4327 10.9938 65.4561 10.9327C65.4935 10.8386 65.4935 5.76736 65.4561 5.67327C65.4327 5.61212 65.3297 5.598 64.8242 5.598H64.2251L64.1127 5.74854C64.0144 5.88496 63.6774 6.42126 63.0829 7.39975C62.9846 7.5597 62.8629 7.73376 62.8161 7.7808C62.7178 7.87959 62.7647 7.94074 61.7676 6.32717L61.3323 5.62152L60.7238 5.60741C60.3915 5.60271 60.106 5.61212 60.0872 5.62623Z" fill="#7A778D"/>
<path d="M72.9593 5.66395C72.9265 5.74863 72.9218 10.8481 72.9546 10.9375C72.978 10.9939 73.0857 11.008 73.5397 11.008H74.0967V10.1942C74.0967 9.62498 74.1154 9.36154 74.1529 9.3239C74.2418 9.23452 75.0095 9.24863 75.1031 9.34272C75.1452 9.38506 75.3933 9.74259 75.6508 10.133C75.9082 10.5235 76.1516 10.881 76.1984 10.9234C76.2593 10.9892 76.3763 11.0033 76.8584 11.008C77.6214 11.0175 77.5746 11.0222 77.5184 10.9234C77.4903 10.8716 77.2188 10.4623 76.9052 10.006C76.5963 9.54971 76.3435 9.15455 76.3435 9.13103C76.3435 9.10751 76.4699 9.00871 76.6244 8.91463C76.9707 8.70293 77.2001 8.43479 77.3358 8.09608C77.4763 7.72914 77.4763 6.99527 77.3312 6.66597C77.1065 6.1532 76.6758 5.80038 76.1095 5.67336C75.6648 5.56987 72.9967 5.56046 72.9593 5.66395ZM75.721 6.7036C75.8801 6.75065 76.0065 6.83062 76.1048 6.93882C76.2359 7.08936 76.2499 7.1364 76.2499 7.42336C76.2499 7.82323 76.1422 8.0114 75.852 8.14312C75.6695 8.2231 75.5571 8.2325 74.8831 8.2231L74.1201 8.20898L74.1061 7.48452C74.0967 6.99527 74.1108 6.74124 74.1482 6.6989C74.2278 6.60481 75.398 6.60952 75.721 6.7036Z" fill="#7A778D"/>
<path d="M83.7672 5.63574C83.7579 5.65456 84.0949 6.22378 84.5162 6.89179C84.9421 7.56451 85.3962 8.29367 85.5272 8.51007L85.7659 8.90053L85.7566 9.87432C85.7519 10.4106 85.7613 10.881 85.78 10.9281C85.8034 10.9986 85.883 11.0081 86.3651 11.0081H86.9174L86.9315 9.91195L86.9455 8.82056L87.2544 8.35013C87.9425 7.29636 88.9021 5.76276 88.9255 5.68279C88.9442 5.60281 88.9021 5.59811 88.3357 5.59811C87.8348 5.59811 87.7178 5.61222 87.6663 5.67338C87.6289 5.71572 87.3387 6.18615 87.0157 6.72244C86.6881 7.25873 86.3978 7.69152 86.3604 7.69152C86.323 7.69152 86.0281 7.23991 85.6817 6.65658L85.0685 5.62163L84.4319 5.60752C84.0809 5.60281 83.7813 5.61222 83.7672 5.63574Z" fill="#7A778D"/>
<path d="M10.5598 10.3118C10.4943 10.4059 10.485 11.1821 10.485 17.6505C10.485 24.8246 10.485 24.8857 10.5786 24.9798C10.6675 25.0692 10.733 25.0739 12.0671 25.0739C13.1998 25.0739 13.4807 25.0598 13.5555 25.008C13.6445 24.9422 13.6445 24.834 13.6585 20.5483C13.6679 16.3192 13.6726 16.1545 13.7568 16.0698C13.8224 16.0087 13.8832 15.9899 13.9721 16.0134C14.0892 16.0416 14.487 16.625 17.3095 20.9435C17.5576 21.3246 17.7917 21.6444 17.8244 21.6586C17.8572 21.6727 18.0725 21.3904 18.3861 20.9059C20.2069 18.0833 23.432 13.3461 23.6333 13.1861C23.6894 13.1438 24.0592 13.1297 25.0001 13.125C26.1656 13.125 26.306 13.1344 26.3949 13.2049C26.4511 13.2567 26.8911 14.2916 27.5417 15.924C28.1175 17.3729 29.0068 19.5934 29.5123 20.8635C30.0225 22.129 30.5983 23.5779 30.7996 24.0766C30.9961 24.5799 31.1927 25.0268 31.2349 25.0786C31.3098 25.1633 31.3893 25.168 32.6391 25.168C33.6267 25.168 33.9825 25.1539 34.0433 25.1068C34.0855 25.0786 34.1838 24.8904 34.2633 24.6975C34.474 24.1895 37.4369 16.7802 38.1858 14.8938C38.5322 14.0141 38.8599 13.2567 38.9067 13.2096C38.9909 13.125 39.1313 13.1203 42.7964 13.1391C46.9904 13.1532 46.761 13.1391 47.4117 13.459C47.964 13.7318 48.3384 14.2258 48.4695 14.8514C48.6521 15.7076 48.4601 16.4133 47.8891 16.9872C47.5427 17.3306 47.3321 17.4529 46.8406 17.6035C46.5129 17.7022 46.4287 17.7069 43.3721 17.7211C41.2096 17.7352 40.2173 17.754 40.1752 17.7916C40.1284 17.8293 40.1143 18.5208 40.1143 21.3857V24.928L40.2173 24.9986C40.3062 25.0645 40.5262 25.0739 41.6824 25.0739C42.4266 25.0739 43.0866 25.0598 43.1428 25.0457C43.1989 25.0268 43.2645 24.9563 43.2926 24.8763C43.3253 24.7822 43.3441 24.0248 43.3441 22.7405C43.3441 20.9953 43.3534 20.7459 43.4189 20.6801C43.4798 20.6142 43.6764 20.6048 44.8185 20.6048C46.658 20.6048 47.4444 20.5107 48.3946 20.172C49.8831 19.6451 50.852 18.7701 51.409 17.4623C52.0503 15.9475 51.8865 13.7836 51.0299 12.5181C50.2388 11.3467 49.1997 10.674 47.6504 10.3353C47.2151 10.2412 47.07 10.2365 41.9351 10.2224C36.9173 10.2036 36.6646 10.2083 36.5944 10.2883C36.5569 10.3353 36.4352 10.6176 36.3276 10.9139C36.2199 11.2103 36.0982 11.5302 36.0654 11.6196C36.028 11.709 35.7939 12.3346 35.5505 13.0073C35.148 14.1035 34.6799 15.3736 33.3459 18.9771C32.8919 20.2049 32.8217 20.3131 32.5923 20.1767C32.508 20.1297 32.4331 20.0026 32.3395 19.758C32.2693 19.5651 31.7029 18.0268 31.0804 16.3474C30.4579 14.6633 29.7089 12.6357 29.414 11.8313C29.1145 11.0315 28.843 10.3353 28.8009 10.293C28.7306 10.213 28.5107 10.2083 25.3137 10.2083C23.1418 10.2083 21.8686 10.2271 21.8124 10.2553C21.7656 10.2789 21.5222 10.6364 21.2695 11.041C21.0167 11.4502 20.3146 12.5887 19.7061 13.5719C19.0976 14.5551 18.4751 15.5524 18.3299 15.7923C17.9602 16.3944 17.8244 16.418 17.5155 15.9334C17.4125 15.7735 16.5981 14.4563 15.7087 13.0073C14.8147 11.5584 14.0423 10.3353 13.9862 10.2883C13.9019 10.2177 13.7475 10.2083 12.259 10.2083H10.6301L10.5598 10.3118Z" fill="#7A778D"/>
<path d="M59.6564 15.0162C59.633 15.0821 61.6411 20.1627 61.7675 20.3603C61.833 20.4638 61.8611 20.4685 62.3151 20.4544L62.7926 20.4403L62.8768 20.2568C63.1156 19.744 64.9692 15.0398 64.9458 15.0021C64.927 14.9786 64.6555 14.9598 64.3372 14.9598H63.7615L63.5977 15.3926C63.5041 15.6325 63.1951 16.4652 62.9096 17.2414C62.6241 18.0176 62.3713 18.6715 62.3432 18.695C62.3198 18.7185 62.2917 18.7279 62.273 18.7138C62.259 18.695 62.0062 18.0317 61.7113 17.232C61.4164 16.4369 61.1075 15.6043 61.0232 15.3832L60.8688 14.9833L60.2743 14.9692C59.8203 14.9598 59.6705 14.9692 59.6564 15.0162Z" fill="#7A778D"/>
<path d="M65.9055 17.6883V20.4167H67.9182C69.856 20.4167 69.9309 20.412 69.9777 20.3274C70.0292 20.2239 70.0433 19.7581 69.9965 19.5276L69.9684 19.3818H68.5501C67.3939 19.3818 67.1225 19.3677 67.0803 19.3159C67.0429 19.2736 67.0288 19.076 67.0382 18.742L67.0523 18.2292L68.3161 18.2057L69.5799 18.1822L69.5939 17.6741L69.608 17.1708H68.3722C67.4782 17.1708 67.1271 17.1567 67.085 17.1143C67.0101 17.0391 67.0101 16.1264 67.085 16.0512C67.1271 16.0088 67.511 15.9947 68.5314 15.9947C69.7531 15.9947 69.9263 15.9853 69.9497 15.9194C70.0011 15.783 69.9824 15.0774 69.9216 15.0162C69.8794 14.9739 69.3646 14.9598 67.8854 14.9598H65.9055V17.6883Z" fill="#7A778D"/>
<path d="M71.1244 15.0162C71.1104 15.0491 71.1057 16.2722 71.1104 17.7352L71.1244 20.3932L71.6674 20.4073L72.2151 20.4214L72.2432 20.2944C72.2619 20.2238 72.2712 19.4711 72.2666 18.6196C72.2619 17.7729 72.2712 17.0578 72.29 17.039C72.3321 16.9967 72.3461 17.0108 73.3712 18.3703C73.8346 18.9866 74.3776 19.6969 74.5789 19.951L74.9393 20.4167H75.3746C75.6508 20.4167 75.8287 20.3979 75.8661 20.3602C75.9457 20.2803 75.9457 15.0961 75.8661 15.0162C75.7912 14.9409 74.8831 14.9409 74.8082 15.0162C74.7661 15.0585 74.7521 15.4819 74.7521 16.6344C74.7521 17.5612 74.7333 18.2104 74.7099 18.2292C74.6819 18.2433 74.4806 18.0081 74.2512 17.707C72.7346 15.6936 72.2572 15.0726 72.187 15.0162C72.1402 14.9785 71.9436 14.9597 71.63 14.9597C71.2836 14.9597 71.1385 14.9785 71.1244 15.0162Z" fill="#7A778D"/>
<path d="M76.8771 15.0209C76.8677 15.0538 76.863 15.2937 76.8677 15.5524L76.8818 16.0182L77.6541 16.0323C78.0754 16.037 78.4405 16.0605 78.4639 16.084C78.4826 16.1028 78.5013 17.0343 78.4966 18.1492C78.4966 19.2688 78.506 20.2332 78.5247 20.2991L78.5528 20.4214L79.1004 20.4073L79.6434 20.3932L79.6575 18.2809C79.6621 16.8179 79.6855 16.1499 79.7183 16.1028C79.7604 16.0558 79.9523 16.0417 80.5328 16.0417C81.1834 16.0417 81.3004 16.0323 81.3238 15.9664C81.3613 15.8723 81.3613 15.1291 81.3238 15.035C81.3004 14.9691 81.057 14.9597 79.1004 14.9597C77.3217 14.9597 76.8958 14.9738 76.8771 15.0209Z" fill="#7A778D"/>
<path d="M82.2273 14.9878C82.2086 15.0066 82.1945 15.7687 82.1945 16.6813C82.1945 17.9515 82.2086 18.4219 82.2648 18.7042C82.4894 19.8897 83.2384 20.4777 84.5349 20.4824C85.3588 20.4824 85.869 20.2942 86.309 19.8285C86.5664 19.5557 86.6881 19.3393 86.8145 18.9347C86.8894 18.6807 86.8987 18.469 86.8987 16.8178V14.9831H86.337H85.7754L85.7519 16.7707C85.7285 18.469 85.7239 18.5678 85.6302 18.7701C85.2979 19.4804 84.3056 19.6545 83.7252 19.1041C83.6035 18.9959 83.5567 18.9112 83.4303 18.6054C83.4069 18.5537 83.3788 17.7163 83.3647 16.7472L83.3413 14.9831L82.7984 14.969C82.5035 14.9643 82.246 14.9737 82.2273 14.9878Z" fill="#7A778D"/>
<path d="M88.2093 15.016C88.1953 15.049 88.1906 16.2721 88.1953 17.7351L88.2093 20.3931L88.7195 20.4072C89.0519 20.4166 89.2484 20.4025 89.2906 20.3648C89.3421 20.3225 89.3561 20.1343 89.3561 19.4945V18.676L89.5106 18.6713C89.8101 18.6666 90.222 18.6807 90.2923 18.7042C90.3297 18.7136 90.5918 19.0806 90.8774 19.5087C91.1582 19.9415 91.4203 20.3178 91.4531 20.3554C91.528 20.4307 92.7029 20.4448 92.7497 20.3695C92.7637 20.346 92.5016 19.9226 92.1646 19.4334C91.8322 18.9441 91.5654 18.5113 91.5795 18.4784C91.5935 18.4455 91.6871 18.3796 91.7854 18.3326C92.0429 18.215 92.3939 17.8433 92.5344 17.547C92.642 17.3165 92.6561 17.2271 92.6561 16.7708C92.6561 16.1874 92.5858 15.9616 92.2769 15.5853C92.0756 15.3359 91.5748 15.0866 91.1301 15.0113C90.6808 14.9361 88.2374 14.9408 88.2093 15.016ZM91.088 16.1451C91.3922 16.305 91.4859 16.4556 91.4859 16.8178C91.4859 17.1518 91.4063 17.3023 91.1395 17.4858C90.9523 17.6128 90.6527 17.6505 89.9412 17.6316L89.3795 17.6175L89.3655 16.8272L89.3561 16.0416H90.1191C90.8165 16.0416 90.8961 16.051 91.088 16.1451Z" fill="#7A778D"/>
<path d="M93.8263 15.0162C93.8122 15.0491 93.8075 16.2723 93.8122 17.7353L93.8263 20.3932L95.8484 20.4073L97.8751 20.4167L97.8985 20.3133C97.9126 20.2521 97.9219 20.0263 97.9126 19.8052L97.8985 19.4053L96.4709 19.3912C95.193 19.3818 95.0386 19.3724 94.9871 19.3018C94.9262 19.2219 94.9028 18.4221 94.9543 18.281C94.9777 18.2151 95.1369 18.2057 96.2181 18.2057C97.3462 18.2057 97.4539 18.201 97.4913 18.121C97.5241 18.0599 97.5381 17.359 97.5054 17.2037C97.5054 17.1849 96.9437 17.1708 96.2603 17.1708C95.0713 17.1708 95.0199 17.1661 94.973 17.0767C94.9075 16.9497 94.9216 16.0982 94.9918 16.0512C95.0199 16.0323 95.6752 16.0088 96.4475 15.9947L97.8517 15.9712V15.4772V14.9833L95.8484 14.9692C94.2709 14.9598 93.8403 14.9692 93.8263 15.0162Z" fill="#7A778D"/>
<path d="M99.8645 24.3024C98.8956 24.453 98.2918 25.1539 98.3573 26.0477C98.4135 26.8051 98.8347 27.2144 99.8411 27.492C101.007 27.8165 101.245 27.953 101.245 28.3011C101.245 28.4987 101.063 28.7198 100.838 28.795C100.604 28.8703 100.014 28.8233 99.696 28.701C99.5462 28.6445 99.2981 28.5128 99.1437 28.414C98.9845 28.3105 98.8394 28.2258 98.8207 28.2258C98.7599 28.2258 98.2029 28.9268 98.2029 29.002C98.2029 29.0397 98.2918 29.1385 98.4041 29.2184C99.2794 29.8582 100.613 30.0558 101.461 29.6653C101.756 29.5289 102.111 29.2137 102.228 28.9785C102.43 28.5786 102.458 27.9812 102.294 27.5672C102.2 27.332 101.835 26.998 101.507 26.8428C101.367 26.7769 100.969 26.6405 100.623 26.537C99.6773 26.2594 99.5181 26.1512 99.5135 25.8125C99.5135 25.2527 100.337 25.1492 101.222 25.5914C101.437 25.6996 101.629 25.7796 101.657 25.7608C101.727 25.7184 102.181 25.041 102.181 24.9752C102.181 24.9469 102.144 24.8905 102.102 24.8528C101.929 24.7164 101.39 24.4671 101.119 24.3965C100.819 24.3166 100.108 24.2648 99.8645 24.3024Z" fill="#7A778D"/>
<path d="M66.5185 24.4482C66.439 24.6223 65.9241 25.8313 65.1798 27.5907C64.8569 28.3669 64.5245 29.1384 64.4496 29.3031C64.239 29.7688 64.2437 29.7782 64.7024 29.7829C64.913 29.7829 65.1564 29.7876 65.2407 29.7923C65.3296 29.797 65.4139 29.7829 65.4279 29.7547C65.4466 29.7312 65.5683 29.4536 65.6947 29.1431L65.9334 28.5786L67.0615 28.5645C67.9275 28.5551 68.2083 28.5692 68.2457 28.6115C68.2785 28.6445 68.4002 28.9173 68.5219 29.2137L68.7419 29.7547L69.3364 29.7688C69.664 29.7735 69.9308 29.7641 69.9308 29.7453C69.9308 29.7076 69.5751 28.8609 68.316 25.8972L67.656 24.3447L67.1177 24.3306L66.5747 24.3165L66.5185 24.4482ZM67.4641 26.6075C67.6372 27.0309 67.7777 27.4119 67.7777 27.4496C67.7777 27.5107 67.6653 27.5201 67.1036 27.5201C66.7292 27.5201 66.4156 27.506 66.4015 27.4825C66.3687 27.4261 67.0334 25.8266 67.0943 25.8266C67.1224 25.8266 67.2862 26.1794 67.4641 26.6075Z" fill="#7A778D"/>
<path d="M60.0872 24.4012C60.0685 24.4154 60.0545 25.6338 60.0545 27.1062V29.783L60.6302 29.7688L61.2013 29.7547L61.2153 28.9785C61.2247 28.4328 61.2434 28.1976 61.2855 28.1694C61.3136 28.1506 61.6272 28.1318 61.9736 28.1318C62.9847 28.1318 63.5651 27.9107 63.9629 27.3697C64.4966 26.6499 64.417 25.4973 63.7991 24.914C63.2889 24.4342 63.0034 24.3683 61.3885 24.3683C60.6864 24.3683 60.1013 24.3824 60.0872 24.4012ZM62.5868 25.4738C62.9519 25.6055 63.1438 25.8737 63.1438 26.25C63.1438 26.5982 62.9238 26.9275 62.6149 27.0451C62.54 27.0733 62.1983 27.0968 61.8519 27.0968H61.2247V26.283C61.2247 25.8314 61.2387 25.4503 61.2574 25.4362C61.323 25.3703 62.3808 25.4033 62.5868 25.4738Z" fill="#7A778D"/>
<path d="M70.8671 27.0733V29.7783H71.4288H71.9905V28.988C71.9905 28.4235 72.0092 28.1742 72.0513 28.1177C72.0981 28.0471 72.1777 28.0377 72.5522 28.0471L72.9968 28.0612L73.5726 28.9174L74.1483 29.7783H74.8083C75.3513 29.7783 75.4589 29.7689 75.4402 29.7125C75.4262 29.6748 75.15 29.2608 74.827 28.7904C74.5041 28.32 74.2372 27.9201 74.2372 27.8966C74.2372 27.8731 74.3636 27.779 74.5134 27.6896C75.1219 27.318 75.3981 26.7535 75.3513 25.9961C75.3138 25.4033 74.9815 24.8623 74.5087 24.6224C74.0547 24.3919 73.8581 24.3684 72.3088 24.3684H70.8671V27.0733ZM73.7785 25.535C74.3215 25.8032 74.3168 26.6217 73.7692 26.8946C73.5819 26.9934 73.4977 27.0028 72.8049 27.0028C72.0607 27.0028 72.0466 27.0028 72.0185 26.8946C71.9717 26.7158 71.9858 25.5915 72.0419 25.4927C72.0888 25.4033 72.1309 25.3986 72.8236 25.4127C73.479 25.4268 73.5819 25.4362 73.7785 25.535Z" fill="#7A778D"/>
<path d="M76.0907 24.4436C76.0345 24.5941 76.0626 25.2998 76.1281 25.3656C76.1749 25.4174 76.3575 25.4315 76.9098 25.4221C77.3217 25.4221 77.6541 25.4362 77.6915 25.4644C77.7336 25.4973 77.7477 25.9913 77.7477 27.6472V29.783L78.3234 29.7688L78.8945 29.7547L78.9085 27.6049L78.9179 25.4597L79.0489 25.4315C79.1191 25.4127 79.4796 25.408 79.854 25.4127L80.5327 25.4221V24.9046V24.3918L78.3281 24.3777C76.3435 24.3683 76.1188 24.373 76.0907 24.4436Z" fill="#7A778D"/>
<path d="M81.5205 24.4436C81.483 24.5424 81.4877 29.5243 81.5205 29.6701C81.5486 29.7736 81.5626 29.7783 82.1056 29.7783H82.6626V28.1083C82.6626 26.7487 82.6719 26.4383 82.7234 26.4383C82.7609 26.4383 83.2383 27.0357 83.7906 27.7602C84.343 28.4893 84.914 29.242 85.0638 29.4302L85.3306 29.7783H85.8221H86.3136V27.0733V24.3684H85.7519H85.1902L85.1808 25.9772C85.1715 27.0733 85.1528 27.5861 85.1153 27.6002C85.0872 27.6096 84.5115 26.8852 83.8375 25.9914L82.6064 24.3684H82.0775C81.6328 24.3684 81.5439 24.3825 81.5205 24.4436Z" fill="#7A778D"/>
<path d="M87.7038 24.4013C87.6851 24.4154 87.6711 25.6338 87.6711 27.1063V29.7783L89.7213 29.7689L91.7668 29.7548L91.7808 29.3126C91.7902 29.0303 91.7761 28.8516 91.7387 28.8092C91.6966 28.7575 91.4251 28.7434 90.2689 28.7434C89.0192 28.7434 88.846 28.734 88.8226 28.6681C88.7711 28.527 88.7898 27.6849 88.8506 27.6238C88.8928 27.5814 89.2438 27.5673 90.1379 27.5673H91.3736L91.3596 27.0592L91.3455 26.5559L90.1051 26.5418C89.1877 26.5324 88.86 26.5135 88.8319 26.4712C88.7898 26.4053 88.7851 25.6621 88.8226 25.5115L88.8506 25.4033L90.2876 25.3939L91.72 25.3798V24.8859V24.3919L89.726 24.3778C88.6306 24.3731 87.7179 24.3825 87.7038 24.4013Z" fill="#7A778D"/>
<path d="M92.8901 24.4248C92.8761 24.4577 92.8714 25.6714 92.8761 27.1203L92.8901 29.7547L93.4612 29.7689L94.0369 29.783L94.0463 28.9221L94.0603 28.0612L94.4582 28.0471C94.6782 28.0377 94.8982 28.0471 94.9497 28.0565C95.0059 28.0753 95.268 28.4234 95.605 28.9268L96.1667 29.7689L96.5646 29.7877C97.1356 29.8065 97.4539 29.783 97.4539 29.7171C97.4492 29.6842 97.1871 29.2796 96.8688 28.8139C96.5505 28.3482 96.2837 27.9342 96.2837 27.8965C96.2837 27.8589 96.3773 27.7742 96.4944 27.7131C96.9858 27.4543 97.2807 27.0074 97.3603 26.4194C97.496 25.4456 96.9718 24.6553 96.0497 24.4436C95.6237 24.3448 92.9229 24.3307 92.8901 24.4248ZM95.7922 25.5209C95.8952 25.5726 96.0263 25.6902 96.0871 25.7796C96.1854 25.9207 96.1948 25.9866 96.1807 26.2689C96.162 26.584 96.1573 26.5982 95.9607 26.7722C95.7173 26.9886 95.5956 27.0121 94.7156 26.9933L94.0603 26.9792L94.0463 26.25C94.0416 25.8502 94.0463 25.4974 94.0603 25.4597C94.0791 25.408 94.2335 25.3986 94.842 25.4127C95.4927 25.4268 95.6331 25.4409 95.7922 25.5209Z" fill="#7A778D"/>
</svg>
