<?xml version="1.0" encoding="utf-8"?>
<!-- Generator: Adobe Illustrator 16.0.0, SVG Export Plug-In . SVG Version: 6.00 Build 0)  -->
<!DOCTYPE svg PUBLIC "-//W3C//DTD SVG 1.1//EN" "http://www.w3.org/Graphics/SVG/1.1/DTD/svg11.dtd">
<svg version="1.1" id="Layer_1" xmlns="http://www.w3.org/2000/svg" xmlns:xlink="http://www.w3.org/1999/xlink" x="0px" y="0px"
	 width="1196.938px" height="1196.938px" viewBox="0 0 1196.938 1196.938" enable-background="new 0 0 1196.938 1196.938"
	 xml:space="preserve">
<path fill="#BAD3EE" d="M1110.005,600.204c0,106.44-32.59,205.27-88.351,287.04c-2.52,3.73-5.109,7.421-7.76,11.08
	c-8.9,12.351-18.34,24.29-28.3,35.78c-3.63,4.19-7.34,8.33-11.11,12.4c-0.77,0.84-1.54,1.67-2.319,2.5
	c-1.601,1.72-3.2,3.42-4.841,5.109c-0.109,0.11-0.22,0.23-0.33,0.34c-45.09,46.75-99.029,84.91-159.119,111.78
	c-17.021,7.62-34.54,14.33-52.49,20.07c-5.01,1.61-10.05,3.13-15.12,4.58c-5.95,1.71-11.94,3.3-17.97,4.79
	c-0.24,0.06-0.471,0.12-0.71,0.17c-5.23,1.28-10.49,2.49-15.79,3.6c-1.33,0.28-2.67,0.561-4.011,0.83
	c-22.6,4.59-45.739,7.69-69.31,9.18c-2.49,0.16-4.99,0.301-7.49,0.421c-2.03,0.1-4.08,0.18-6.109,0.26
	c-1.271,0.05-2.551,0.09-3.82,0.13c-1.271,0.03-2.54,0.06-3.82,0.09c-3.359,0.08-6.75,0.12-10.109,0.13c-0.91,0-1.82,0-2.73-0.01
	c-0.66,0.01-1.3,0-1.96,0c-1.86-0.01-3.71-0.03-5.56-0.06c-4.74-0.08-9.48-0.23-14.23-0.44c-2.52-0.11-5.05-0.24-7.58-0.39
	c-20.51-1.221-40.689-3.641-60.47-7.221c-3.311-0.6-6.61-1.229-9.9-1.89c-2.109-0.41-4.22-0.85-6.319-1.31
	c-0.24-0.051-0.48-0.101-0.721-0.15c-5.72-1.23-11.41-2.561-17.06-3.99c-5.16-1.3-10.29-2.68-15.391-4.14
	c-18.21-5.2-36.01-11.391-53.329-18.51c-65.841-27.061-124.78-67.5-173.431-117.94l-0.12-0.12c-1.68-1.75-3.35-3.51-5.01-5.28
	c-0.59-0.63-1.17-1.26-1.75-1.89c-3.58-3.86-7.11-7.77-10.57-11.74c-10.199-11.7-19.88-23.87-29-36.47
	c-2.76-3.81-5.46-7.67-8.109-11.56c-55.81-81.8-88.43-180.681-88.43-287.17c0-281.82,228.45-510.27,510.27-510.27
	C881.555,89.934,1110.005,318.384,1110.005,600.204z"/>
<ellipse fill="#362724" cx="729.935" cy="708.184" rx="63.75" ry="83"/>
<path fill="#1F1413" d="M511.005,719.713c-0.101,2.83-0.21,5.721-0.32,8.66c-0.06,1.771-0.13,3.551-0.19,5.351
	c-0.06,1.64-0.119,3.29-0.18,4.95c-0.01,0.22-0.02,0.449-0.02,0.67c-0.04,0.91-0.07,1.811-0.101,2.72
	c-0.08,2.21-0.16,4.44-0.24,6.67c-0.34,9.601-0.68,19.31-1,28.64c-4.229,0.4-8.449,0.971-12.63,1.69
	c-18.18,3.13-35.68,9.19-49.899,17.64c-3.8,2.26-19.96,21.391-23.24,23.98c8.62-47.949,29.33-186.62,29.33-201.5
	c0-12,4.96-36.64,8.01-50.65c0.95,11.83,2.19,22.75,3.771,30.54c0.04,0.2,0.08,0.4,0.12,0.6c0.029,0.14,0.06,0.28,0.09,0.41
	c5.87,28.959,1.8,63.89,44.64,117.491C509.694,718.264,510.314,718.974,511.005,719.713z"/>
<path fill="#362724" d="M472.308,375.01c0,0-29.062-41.143,9-79.833c0,0-16.667,35.667,9,48.333
	C511.155,353.798,472.308,375.01,472.308,375.01z"/>
<path fill="#E7C5AA" d="M966.994,954.453c-45.09,46.75-99.029,84.91-159.119,111.78c-17.021,7.62-34.54,14.33-52.49,20.07
	c-5.01,1.61-10.05,3.13-15.12,4.58c-5.95,1.71-11.94,3.3-17.97,4.79c-0.24,0.06-0.471,0.12-0.71,0.17
	c-5.23,1.28-10.49,2.49-15.79,3.6c-1.33,0.28-2.67,0.561-4.011,0.83c-22.6,4.59-45.739,7.69-69.31,9.18
	c-2.49,0.16-4.99,0.301-7.49,0.421c-2.03,0.1-4.08,0.18-6.109,0.26c-1.271,0.05-2.551,0.09-3.82,0.13
	c-1.271,0.03-2.54,0.06-3.82,0.09c-3.359,0.08-6.75,0.12-10.109,0.13c-0.91,0-1.82,0-2.73-0.01c-0.66,0.01-1.3,0-1.96,0
	c-1.86-0.01-3.71-0.03-5.56-0.06c-4.74-0.08-9.48-0.23-14.23-0.44c-2.52-0.11-5.05-0.24-7.58-0.39
	c-20.51-1.221-40.689-3.641-60.47-7.221c-3.311-0.6-6.61-1.229-9.9-1.89c-2.109-0.41-4.22-0.85-6.319-1.31
	c-0.24-0.051-0.48-0.101-0.721-0.15c-5.72-1.23-11.41-2.561-17.06-3.99c-5.16-1.3-10.29-2.68-15.391-4.14
	c-18.21-5.2-36.01-11.391-53.329-18.51c-65.841-27.061-124.78-67.5-173.431-117.94l-0.12-0.12c13.92-18.5,32.021-41.49,53.29-60.479
	c13.19-11.771,42.351-24.261,74.771-35.591c12.09-4.22,32.18-9.8,52.68-15.06c1.09-0.279,2.19-0.561,3.28-0.84
	c17.66-4.49,35.33-8.67,48.17-11.49c-0.04,0.051-0.09,0.09-0.14,0.141c0.51-0.19,1.04-0.371,1.569-0.531
	c0.49-0.159,0.99-0.309,1.49-0.449c6.15-1.73,11.8-4.03,17.08-6.67c0.15-0.061,0.29-0.141,0.439-0.21
	c3.69-1.851,7.2-3.86,10.57-5.96c6-3.721,11.15-12.6,12.7-17.42c0,0,0-0.01,0-0.021c0.11-0.31,0.19-0.579,0.26-0.85
	c0.181-0.7,0.4-1.39,0.66-2.06c0.07-0.201,0.16-0.4,0.24-0.601c9.319-22.229,58.91-22.71,94.899-22.71h5.19
	c36.14,0,86.33,0.49,95.38,23.01c0,0-0.01,0.01,0,0.02c0.12,0.291,0.22,0.57,0.32,0.871c0,0.01,0,0.01,0,0.02
	c0.17,0.48,0.31,0.96,0.439,1.45c0,0.01,0.011,0.03,0.011,0.04c0.859,3.32,4.29,9.91,8.54,14.77c0.119,0.141,0.239,0.28,0.369,0.41
	c1.48,1.65,3.061,3.07,4.66,4.07c8.33,5.17,16.5,8.84,27.13,11.84c2.341,0.66,4.511,1.46,6.521,2.391c0.02,0,0.04,0.01,0.05,0.02
	c6.19,2.05,21.23,7.109,34.61,11.58c3.17,1.06,6.229,2.08,9.069,3.029c1.591,0.53,3.101,1.04,4.521,1.511
	c4.399,1.449,7.85,2.58,9.649,3.14c0.601,0.19,1.351,0.43,2.23,0.72c1.41,0.46,3.15,1.05,5.17,1.74c6.41,2.21,15.6,5.48,25.78,9.26
	c2,0.75,4.04,1.521,6.109,2.3c25.181,9.54,53.96,21.44,61.45,28.131C933.715,913.674,952.704,936.434,966.994,954.453z"/>
<path fill="#E7C5AA" d="M706.204,826.203c-3.84,11.73-12.109,29.9-28.439,52.2c-0.69,0.94-1.46,1.98-2.311,3.101
	c-19.869,11.81-45.649,16.58-69.56,16.439c-25.35-0.16-53.35-10.83-73.4-25.85c-14.829-21.51-21.939-38.66-24.949-49.131
	c0.1-3.75,0.21-7.949,0.35-12.5c0.07-2.369,0.14-4.84,0.22-7.389c0.04-1.361,0.09-2.75,0.141-4.16
	c0.21-6.78,0.449-14.041,0.699-21.541c0.32-9.33,0.66-19.039,1-28.64c0.08-2.229,0.16-4.46,0.24-6.67
	c0.03-0.909,0.061-1.81,0.101-2.72c0-0.221,0.01-0.45,0.02-0.67c0.061-1.66,0.12-3.311,0.18-4.95c0.061-1.8,0.131-3.58,0.19-5.351
	c0.11-2.939,0.22-5.83,0.32-8.66c0.05-1.109,0.09-2.209,0.13-3.299c0.01-0.291,0.02-0.58,0.03-0.871
	c0.989-26.979,1.8-47.529,1.8-47.529c1.05,1.16,161.7,8.641,186.39,7.15c1.85-0.11,2.94-0.271,3.14-0.49c0,0,0.36,13.21,0.86,32.26
	c0.01,0.38,0.021,0.77,0.03,1.16c0.02,0.67,0.03,1.34,0.05,2.02c0.1,3.881,0.21,7.98,0.32,12.24c0.02,0.84,0.04,1.68,0.069,2.53
	c0.03,1.159,0.061,2.329,0.091,3.51c0.02,0.71,0.029,1.431,0.05,2.149c0.04,1.511,0.08,3.031,0.12,4.57
	c0.08,3.11,0.159,6.28,0.239,9.471c0.44,17.649,0.9,36.189,1.261,52.42c0.029,1.27,0.06,2.52,0.09,3.75
	c0.069,3.359,0.14,6.609,0.21,9.709C706.015,816.283,706.125,821.604,706.204,826.203z"/>
<path fill="#DEB499" d="M703.915,728.394c-0.03-1.181-0.061-2.351-0.091-3.51c-0.029-0.851-0.05-1.69-0.069-2.53
	c-0.11-4.26-0.221-8.359-0.32-12.24c-0.02-0.68-0.03-1.35-0.05-2.02c-2.5,3.01-5.04,5.96-7.58,8.98
	c-15.88,18.85-35.83,32.1-46.5,39.709c-34.21,24.4-69.16,12.74-91.83-2.479c-7.85-5.28-35.39-22.7-46.47-34.591
	c-0.101,2.83-0.21,5.721-0.32,8.66c-0.06,1.771-0.13,3.551-0.19,5.351c-0.06,1.64-0.119,3.29-0.18,4.95
	c-0.01,0.22-0.02,0.449-0.02,0.67c9.63,7.9,22.189,16.46,34.87,24.8c1.6,1.05,2.939,1.931,3.949,2.61
	c12.98,8.709,33.57,19.1,58,19.1c18.101,0,35.221-5.67,50.9-16.859c1.01-0.721,2.1-1.49,3.27-2.311
	c10.58-7.46,27.78-19.59,42.681-36.141C703.944,729.824,703.935,729.104,703.915,728.394z"/>
<path fill="#E7C5AA" d="M740.475,433.693l-1.33,157.49c-0.88,69.95-17.28,94.71-35.76,116.91c-2.5,3.01-5.04,5.96-7.58,8.98
	c-15.88,18.85-35.83,32.1-46.5,39.709c-34.21,24.4-69.16,12.74-91.83-2.479c-7.85-5.28-35.39-22.7-46.47-34.591
	c-0.69-0.739-1.311-1.449-1.86-2.139c-42.84-53.601-38.77-88.531-44.64-117.491c-0.07-0.33-0.141-0.67-0.21-1.01
	c-5.971-29.41-6.99-103.34-6.99-103.34l23.61-101.28l39.199-45.1l67.761-24.84l97,13.72L740.475,433.693z"/>
<path fill="#E7C5AA" d="M740.475,433.693l-1.33,157.49c-0.88,69.95-17.28,94.71-35.76,116.91c-2.5,3.01-5.04,5.96-7.58,8.98
	c-15.88,18.85-35.83,32.1-46.5,39.709c-34.21,24.4-69.16,12.74-91.83-2.479c-4.66-3.13-16.24-10.53-27.2-18.521
	c-7.52-5.479-14.76-11.229-19.27-16.07c-0.69-0.739-1.311-1.449-1.86-2.139c-42.84-53.601-38.77-88.531-44.64-117.491
	c-0.07-0.33-0.141-0.67-0.21-1.01c-1.58-7.79-2.82-18.71-3.771-30.54c-2.67-32.85-3.22-72.8-3.22-72.8l23.61-101.28l39.199-45.1
	l67.761-24.84l97,13.72L740.475,433.693z"/>
<path fill="none" stroke="#DEB499" stroke-width="12" stroke-linecap="round" stroke-miterlimit="10" d="M617.809,526.51
	c0,10.334,0.969,30.297,2,39c0.526,4.441,1.667,10.666,8,16"/>
<g>
	<path fill="none" stroke="#E2B1A9" stroke-width="20" stroke-linecap="round" stroke-miterlimit="10" d="M562.341,674.01
		c0,0,13.485,17.167,38.627,17.167c30.193,0,39.639-16.167,39.639-16.167"/>
	<path fill="#FFFFFF" d="M656.967,654.01l-6.241,16.666c-2.784,3.43-10.617,11.372-49.439,10.045c0,0-35.977,1.402-50.889-12.284
		l-5.599-13.927l6.041-1.42l27.827-2.158l34.391,2.158l31.24-1.889L656.967,654.01z"/>
	<path fill="#B69990" d="M663.208,656.677c0,0-5.516,9.829-15.35,17.458c-15.307,11.875-45.542,11.042-45.542,11.042
		c-21.4-0.13-40.36-8.257-49.758-14.167c-9.641-6.062-13.456-14.492-13.456-14.492l6.876-1.842l6.917,13
		c14.928,12,47.623,11.842,47.623,11.842c40.753-1.461,43.967-7.217,44.811-8.008c2.613-2.459,9.951-17,9.951-17L663.208,656.677z"
		/>
	<path fill="#E2B1A9" d="M539.06,656.559c20.5,2.834,17.589,1.736,38.792,2.625c17.976,0.753,28.926,0.5,42.083-0.25
		c8.851-0.505,26.238-2.924,44.623-0.757c0,0-10.373-12.917-47.313-10.917c-8.353,0.452-16.445,3.75-26.06,0.75
		C584.478,645.917,539.186,648.518,539.06,656.559z"/>
</g>
<path fill="none" stroke="#DEB499" stroke-width="6" stroke-linecap="round" stroke-miterlimit="10" d="M531.79,637.906
	c0,0,2.395-13.723,11.895-26.223"/>
<path fill="#362724" d="M829.854,895.514c-34.67,78.67-84.76-139.34-84.05-171c0.939-42-16-79.34-21.33-144.67
	c-7.82-95.79-10.3-107.96-29.67-173.33c-8-27-53.09-52.39-93.43-56.39c-64.351-6.38-102.9,33.72-108.23,45.05
	c-13.57,28.83-15.04,61.48-20.84,82.34c-5.71,20.57-18.94,31.06-7.89,122.16c-0.04-0.2-12.23,38.51-12.23,50.51
	c0,14.88-7.78,105.85-16.4,153.8c3.28-2.59,6.841-5.021,10.641-7.28c14.22-8.449,31.72-14.51,49.899-17.64
	c0.311,1.601,0.48,2.45,0.48,2.45l-4.12,36.17c0,0-94,99-104,61.5s1.12-98.17,1.12-98.17s26.75-132.439,20-184.5
	c-7-54,15-84,24.67-168.67c4.76-41.71,48.67-60,48.67-60s-16.84-67.33,66.66-89.33s167.37,35.27,204.939,86.28
	c32.44,44.06,44.91,57.39,67.11,192.06c10,60.66-10.67,107.33,7.33,170C829.185,726.854,864.515,816.854,829.854,895.514z"/>
<g>
	<path fill="#DEB499" d="M475.685,658.684c-18.439,4.18-16.442-15.504-14.252-20.504c1.76-4.01,2.715-30.426,3.045-38.246
		c5.97,29.531,9.957,54.334,9.957,54.334S475.045,656.443,475.685,658.684z"/>
	
		<ellipse transform="matrix(0.9704 0.2416 -0.2416 0.9704 168.1684 -93.1892)" fill="#FFFFFF" cx="464.1" cy="639.178" rx="4.875" ry="6.567"/>
</g>
<path fill="none" stroke="#DEB499" stroke-width="6" stroke-linecap="round" stroke-miterlimit="10" d="M672.308,648.51
	c0,0,9.834,6.334-2.166,19.334"/>
<g>
	<g>
		<circle fill="#1D1312" cx="668.917" cy="522.372" r="14.235"/>
	</g>
	<path fill="none" stroke="#DEB499" stroke-width="12" stroke-linecap="round" stroke-miterlimit="10" d="M649.542,533.843
		c0,0,18.75,1.25,40.75,0"/>
	<path fill="#362724" d="M626.604,489.927c0,0-0.75-8.25,3.75-10s44.751-13.084,63.501-7.084c19.5,7,26.75,26.25,26.75,26.25
		s-12.5-12.5-28-16c-6.5-1-19.209,1.169-29.417,2.667c-13.634,2.001-24.736,5.462-29.834,6.167
		C631.609,492.168,626.854,493.76,626.604,489.927z"/>
	<ellipse fill="#FFFFFF" cx="673.475" cy="517.253" rx="2.799" ry="5.198"/>
	<g>
		<path fill="none" stroke="#362724" stroke-width="6" stroke-linecap="round" stroke-miterlimit="10" d="M639.058,524.593
			c0,0,9.249-12,26.25-14.25c18.786-2.486,28.5,10.75,39.5,15.75"/>
		<path fill="#362724" d="M702.561,524.184c0,0,5.607-0.218,6.747-8.091c0,0-2.047,2.807-10.925,2.966"/>
		<path fill="#362724" d="M699.444,519.377c0,0,4.194,0.468,5.613-6.284c0,0-4.491,3.43-13.146,2.369"/>
		<path fill="#362724" d="M694.331,516.599c0,0,4.322-1.65,5.408-6.271c0,0-5.144,2.77-11.895,2.55"/>
	</g>
</g>
<g>
	<path fill="#362724" d="M574.559,489.76c0,0,0.75-8.25-3.75-10s-44.751-13.083-63.501-7.083c-19.5,7-26.75,26.25-26.75,26.25
		s12.5-12.5,28-16c6.5-1,19.209,1.168,29.417,2.666c13.634,2.001,24.736,5.462,29.834,6.167
		C569.553,492.001,574.309,493.593,574.559,489.76z"/>
	<g>
		<circle fill="#1D1312" cx="529.188" cy="522.539" r="14.235"/>
	</g>
	<path fill="none" stroke="#DEB499" stroke-width="12" stroke-linecap="round" stroke-miterlimit="10" d="M548.563,534.01
		c0,0-18.75,1.25-40.75,0"/>
	<ellipse fill="#FFFFFF" cx="535.137" cy="518.207" rx="2.799" ry="5.198"/>
	<g>
		<path fill="none" stroke="#362724" stroke-width="6" stroke-linecap="round" stroke-miterlimit="10" d="M559.048,524.76
			c0,0-9.249-12-26.25-14.25c-18.786-2.486-28.5,10.75-39.5,15.75"/>
		<path fill="#362724" d="M495.545,524.351c0,0-5.598-0.551-6.737-8.424c0,0,2.037,3.14,10.915,3.298"/>
		<path fill="#362724" d="M498.661,519.544c0,0-4.435-0.366-5.854-7.117c0,0,4.731,4.262,13.386,3.202"/>
		<path fill="#362724" d="M503.774,516.765c0,0-4.322-1.65-5.408-6.271c0,0,5.144,2.769,11.895,2.55"/>
	</g>
</g>
<path fill="#C1684C" d="M807.875,981.703v84.53c-17.021,7.62-34.54,14.33-52.49,20.07c-5.01,1.61-10.05,3.13-15.12,4.58
	c-5.95,1.71-11.94,3.3-17.97,4.79c-0.24,0.06-0.471,0.12-0.71,0.17c-5.23,1.28-10.49,2.49-15.79,3.6
	c-1.33,0.28-2.67,0.561-4.011,0.83c-22.6,4.59-45.739,7.69-69.31,9.18c-2.49,0.16-4.99,0.301-7.49,0.421
	c-2.03,0.1-4.08,0.18-6.109,0.26c-1.271,0.05-2.551,0.09-3.82,0.13c-1.271,0.03-2.54,0.06-3.82,0.09
	c-3.359,0.08-6.75,0.12-10.109,0.13c-0.91,0-1.82,0-2.73-0.01c-0.66,0.01-1.3,0-1.96,0c-1.86-0.01-3.71-0.03-5.56-0.06
	c-4.74-0.08-9.48-0.23-14.23-0.44c-2.52-0.11-5.05-0.24-7.58-0.39c-20.51-1.221-40.689-3.641-60.47-7.221
	c-3.311-0.6-6.61-1.229-9.9-1.89c-2.109-0.41-4.22-0.85-6.319-1.31c-0.24-0.051-0.48-0.101-0.721-0.15
	c-5.72-1.23-11.41-2.561-17.06-3.99c-5.16-1.3-10.29-2.68-15.391-4.14c-18.21-5.2-36.01-11.391-53.329-18.51v-92.54
	c10.71,1.92,25.189,3.68,42.64,5.189c1.16,0.101,2.33,0.2,3.51,0.3c1.01,0.08,2.021,0.17,3.05,0.25
	c11.45,0.91,24.051,1.721,37.601,2.431c0.149,0,0.3,0.01,0.45,0.02c2.119,0.11,4.27,0.22,6.439,0.32c2.36,0.109,4.75,0.22,7.16,0.33
	c31.7,1.39,67.82,2.18,106.15,2.18c33.399,0,65.119-0.6,93.71-1.67c0.33-0.01,0.659-0.03,0.989-0.04c2.2-0.09,4.38-0.18,6.54-0.27
	c0.2,0,0.391-0.011,0.58-0.021c15.92-0.66,30.78-1.47,44.3-2.42c1.051-0.07,2.101-0.15,3.131-0.22c0.3-0.021,0.59-0.04,0.89-0.07
	C780.555,984.874,795.715,983.374,807.875,981.703z"/>
<path fill="#BBBCBC" d="M974.484,946.504c-0.77,0.84-1.54,1.67-2.319,2.5c-1.601,1.72-3.2,3.42-4.841,5.109
	c-0.109,0.11-0.22,0.23-0.33,0.34c-45.09,46.75-99.029,84.91-159.119,111.78c-17.021,7.62-34.54,14.33-52.49,20.07
	c-5.01,1.61-10.05,3.13-15.12,4.58c-5.95,1.71-11.94,3.3-17.97,4.79c-0.24,0.06-0.471,0.12-0.71,0.17
	c-1.98-25.24-4.44-60.23-6.891-97.99c-0.189-2.979-0.39-5.97-0.58-8.979c-1.439-22.46-2.87-45.7-4.18-68.29v-0.08l1.09-25.21
	l3.141-72.601l0.369-8.59l0.48-11.18c12.87,3.31,46.31,12.16,82.189,23.57c0.95,0.299,1.91,0.6,2.86,0.91
	c0.23,0.069,0.45,0.149,0.68,0.219c6.53,2.101,13.11,4.281,19.641,6.521c34.81,11.96,86.319,36.44,102.13,49.37
	C952.704,908.214,962.175,929.664,974.484,946.504z"/>
<path fill="#BBBCBC" d="M495.854,1052.193c0,0,0.01,0.01,0,0.021c-1.25,17.84-2.439,33.85-3.479,46.95
	c-0.24-0.051-0.48-0.101-0.721-0.15c-5.72-1.23-11.41-2.561-17.06-3.99c-5.16-1.3-10.29-2.68-15.391-4.14
	c-18.21-5.2-36.01-11.391-53.329-18.51c-65.841-27.061-124.78-67.5-173.431-117.94l-0.12-0.12c-1.68-1.75-3.35-3.51-5.01-5.28
	c-0.59-0.63-1.17-1.26-1.75-1.89c14.15-17.29,23.88-39.99,55.62-66.29c15.89-13.16,63.11-33.4,98.2-45.66
	c11.97-4.18,24.09-8.14,35.68-11.77c1.47-0.461,2.93-0.92,4.38-1.36c12.48-3.87,24.25-7.33,34.42-10.239
	c13.16-3.75,23.67-6.57,29.681-8.16l0.97,19.68l0.439,8.79l1.04,20.96l6.681,134.91l0.45,9.02l2.64,53.32L495.854,1052.193z"/>
<line fill="none" stroke="#FFFFFF" stroke-width="12" stroke-linecap="round" stroke-miterlimit="10" x1="448.52" y1="884.485" x2="448.52" y2="1036.485"/>
<line fill="none" stroke="#FFFFFF" stroke-width="12" stroke-linecap="round" stroke-miterlimit="10" x1="448.52" y1="1052.567" x2="448.52" y2="1061.817"/>
<line fill="none" stroke="#FFFFFF" stroke-width="12" stroke-linecap="round" stroke-miterlimit="10" x1="763.02" y1="868.485" x2="763.02" y2="1020.485"/>
<line fill="none" stroke="#FFFFFF" stroke-width="12" stroke-linecap="round" stroke-miterlimit="10" x1="763.02" y1="1036.567" x2="763.02" y2="1045.817"/>
<path fill="#DADADA" d="M509.154,795.724c0,0.36-0.01,0.729-0.01,1.101c-0.01,1.029-0.02,2.1-0.03,3.209
	c-0.05,3.771-0.1,7.95-0.189,12.51c-0.01,0.881-0.021,1.771-0.04,2.681c-0.07,3.55-0.15,7.3-0.25,11.25v0.01
	c-0.311,12.87-0.811,27.75-1.59,44.01c-0.11,2.421-0.23,4.881-0.36,7.36c-1.1,21.36-0.53,68.78,0.04,110.82
	c0.51,36.51,1.02,68.96,0.46,76.84c0,0,0.95,18.9,1.41,36.85c-3.311-0.6-6.61-1.229-9.9-1.89c-2.109-0.41-4.22-0.85-6.319-1.31
	c-0.24-0.051-0.48-0.101-0.721-0.15c-5.72-1.23-11.41-2.561-17.06-3.99c-3.82-29.439-10.25-65.37-15.41-92.17
	c-1.14-5.96-2.56-11.729-4.11-17.28c-2.06-7.359-4.35-14.33-6.56-20.85c-2.54-7.48-4.98-14.36-6.83-20.54
	c-5.1-17-19.97-61.11-25.84-82.84c-1.03-3.84-1.79-6.99-2.16-9.16c-0.52-3.07-0.72-6.07-0.62-9c0.12-3.34,0.63-6.609,1.5-9.76
	c1.08-3.95,2.73-7.74,4.88-11.36c3.931-6.659,9.53-12.71,16.34-18.08c3.28-2.59,6.841-5.021,10.641-7.28
	c16.819-9.99,38.22-16.649,59.89-19.06c0.67-0.069,1.34-0.14,2.01-0.21l0.63-0.061c0.07-0.01,0.131-0.01,0.2-0.02
	C509.154,777.354,509.234,784.033,509.154,795.724z"/>
<path fill="#DADADA" d="M801.095,848.544c-0.11,1.199-0.26,2.42-0.47,3.64c-0.37,2.17-1.131,5.32-2.16,9.16
	c-5.87,21.729-20.74,65.84-25.84,82.84c-2.53,8.42-6.131,18.14-9.61,28.9c-1.38,4.29-2.75,8.739-4.021,13.35
	c-1.449,5.29-2.779,10.77-3.869,16.42c-4.91,25.561-10.99,59.42-14.86,88.03c-5.95,1.71-11.94,3.3-17.97,4.79
	c-0.24,0.06-0.471,0.12-0.71,0.17c-5.23,1.28-10.49,2.49-15.79,3.6c0.479-17.02,1.33-33.93,1.33-33.93
	c-0.561-7.84-0.051-40.061,0.449-76.37c0.45-32.5,0.891-68.28,0.57-92.79c-0.1-7.29-0.27-13.58-0.52-18.5
	c-0.96-18.62-1.561-35.63-1.921-50.15c-0.119-4.399-0.21-8.569-0.279-12.479c-0.01-0.521-0.021-1.04-0.03-1.56
	c-0.09-4.621-0.15-8.871-0.18-12.721c-0.021-1.21-0.03-2.38-0.04-3.51c0-0.01,0-0.01,0-0.02c-0.09-10.65-0.04-17.521-0.03-19.48
	v-0.05c0.01-0.351,0.01-0.53,0.01-0.53c0.3,0.03,0.59,0.061,0.891,0.09c0.67,0.061,1.34,0.131,2.01,0.211
	c38.91,4.34,76.92,22.379,89.149,48.84c0.58,1.25,1.101,2.529,1.561,3.83c0.37,1.02,0.689,2.049,0.979,3.1
	C801.074,838.233,801.564,843.283,801.095,848.544z"/>
<path fill="#362724" d="M705.154,777.354c0,0,11.78,98.205,110.28,77.205c0,0,52.458-3.999,89,17.25c0,0-4.25-67.125-51.75-97.125
	c0,0-22.5-38-28.5-70.5S702.624,750.523,705.154,777.354z"/>
<g>
	<path fill="none" stroke="#DEB499" stroke-width="10" stroke-linecap="round" stroke-miterlimit="10" d="M614.026,611.461
		c0,0,7.884-3.926,15.062-2.902"/>
	<path fill="none" stroke="#DEB499" stroke-width="10" stroke-linecap="round" stroke-miterlimit="10" d="M586.089,611.461
		c0,0-7.884-3.926-15.062-2.902"/>
</g>
<path fill="#F9E094" d="M705.395,813.664c-4.26,23.949-13.31,48.239-25.92,68.72c-19.83,32.22-44.99,49.97-70.83,49.97
	c-25.6,0-51.94-18.21-72.28-49.95c-13.43-20.96-23.02-45.68-27.439-69.86c0.09-4.56,0.14-8.739,0.189-12.51
	c3.03,27.631,13.37,57,28.931,81.29c19.97,31.16,45.699,49.03,70.6,49.03c25.12,0,49.67-17.41,69.13-49.02
	c14.67-23.82,24.46-52.84,27.44-80.391C705.244,804.793,705.305,809.043,705.395,813.664z"/>
<circle fill="#F9E094" cx="607.185" cy="939.892" r="9.041"/>
<path fill="#FFFFFF" d="M617.684,945.678c0,0-0.826-5.119-1.542-6.584c-0.504-1.03-3.631-2.576-3.631-2.576s3.097-1.687,3.615-2.73
	c0.715-1.438,1.558-6.429,1.558-6.429s0.779,5.007,1.493,6.443c0.521,1.047,3.683,2.716,3.683,2.716s-3.162,1.531-3.665,2.562
	C618.479,940.543,617.684,945.678,617.684,945.678z"/>
</svg>
