<?xml version="1.0" encoding="utf-8"?>
<!-- Generator: Adobe Illustrator 16.0.0, SVG Export Plug-In . SVG Version: 6.00 Build 0)  -->
<!DOCTYPE svg PUBLIC "-//W3C//DTD SVG 1.1//EN" "http://www.w3.org/Graphics/SVG/1.1/DTD/svg11.dtd">
<svg version="1.1" id="Layer_1" xmlns="http://www.w3.org/2000/svg" xmlns:xlink="http://www.w3.org/1999/xlink" x="0px" y="0px"
	 width="1133.673px" height="1134.694px" viewBox="0 0 1133.673 1134.694" enable-background="new 0 0 1133.673 1134.694"
	 xml:space="preserve">
<path fill="#BAD3EE" d="M1074.281,564.489c0,106.44-32.59,205.27-88.35,287.04c-2.53,3.73-5.12,7.421-7.76,11.08
	c-12.82,17.79-26.771,34.721-41.73,50.681c-1.6,1.72-3.21,3.42-4.84,5.109c-85.739,89.051-203.56,147.021-334.851,155.34
	c-2.489,0.16-4.989,0.301-7.489,0.421c-2.04,0.1-4.08,0.18-6.12,0.26c-1.27,0.05-2.54,0.09-3.82,0.13
	c-1.27,0.03-2.539,0.06-3.81,0.09c-3.37,0.08-6.75,0.12-10.12,0.13c-0.91,0-1.82,0-2.721-0.01c-0.659,0.01-1.309,0-1.969,0
	c-1.851-0.01-3.711-0.03-5.561-0.06c-4.74-0.08-9.48-0.23-14.221-0.44c-2.529-0.11-5.059-0.24-7.59-0.39
	c-131.969-7.83-250.439-65.801-336.619-155.15c-1.721-1.79-3.43-3.59-5.12-5.4c-14.8-15.79-28.61-32.529-41.32-50.1
	c-2.76-3.81-5.47-7.67-8.12-11.56c-55.81-81.8-88.43-180.681-88.43-287.17c0-281.82,228.46-510.27,510.279-510.27
	C845.821,54.219,1074.281,282.669,1074.281,564.489z"/>
<path fill="#573F33" d="M783.311,809.799c-47.369-12.6-109.354-3.77-123.67-7.33l7.725-36.88c-0.5-21.521-1.283-50.021-2-75.351
	c-0.283-10.109-0.565-19.72-0.805-28.18c0.837-0.869,1.652-1.74,2.457-2.6c0.401-0.43,0.804-0.86,1.195-1.29
	c0.564-0.61,1.119-1.22,1.663-1.83c0.424-0.47,0.848-0.94,1.261-1.41c5.424-6.12,10.098-12.08,14.131-17.91
	c0.314-0.44,0.619-0.89,0.924-1.34s0.608-0.89,0.902-1.34c0.467-0.69,0.912-1.38,1.357-2.07c0.402-0.64,0.805-1.28,1.207-1.909
	c0.989-1.58,1.924-3.15,2.815-4.711c0.358-0.619,0.706-1.24,1.054-1.859c0.066-0.12,0.131-0.24,0.196-0.36
	c0.815-1.47,1.587-2.94,2.326-4.399c0.337-0.67,0.663-1.33,0.989-1.98c0.043-0.1,0.086-0.189,0.131-0.28
	c0.336-0.7,0.674-1.399,0.988-2.1c0,0,0.011-0.011,0.011-0.021c0.337-0.72,0.663-1.439,0.979-2.16
	c0.314-0.72,0.629-1.439,0.934-2.16c1.25-2.939,2.348-5.85,3.338-8.739c0.195-0.591,0.401-1.181,0.586-1.771
	c1.021-3.08,1.893-6.14,2.652-9.18c0.185-0.689,0.348-1.38,0.512-2.08c0.184-0.75,0.358-1.5,0.521-2.25
	c0.032-0.15,0.064-0.29,0.098-0.439c0.162-0.73,0.314-1.461,0.456-2.18c0.142-0.681,0.272-1.351,0.402-2.031
	c0.175-0.939,0.348-1.89,0.511-2.83c0.218-1.229,0.414-2.459,0.598-3.689c0.5-3.311,0.968-6.96,1.392-10.85
	c0.142-1.3,0.282-2.63,0.413-3.99c0.152-1.61,0.305-3.25,0.457-4.92c0.717-3.26,1.195-7.28,1.358-12.24
	c0.142-4.45,0.206-10.89,0.728-14.67l11.598-20.67c0,0,24.936,80.58,41.305,142C780.518,700.479,780.79,765.44,783.311,809.799z"/>
<path fill="#E4C5AF" d="M742.971,499.799c0,0-3.24,3.66-6.57,11.68c-2.4,5.77-4.84,13.79-6.15,24.32
	c-0.479,3.78-0.81,7.89-0.939,12.34c-0.77,26.09-9.98,30.189-14.22,30.689c-1.29,0.15-2.12-0.029-2.12-0.029l2.26-37.21l4.08-67.12
	l1.82,1.95L742.971,499.799z"/>
<polygon fill="#573F33" points="421.641,618.469 480.141,638.969 507.141,705.469 492.641,772.469 438.141,783.469 "/>
<path fill="#EFD1B8" d="M721.311,464.139c0,0-0.04,4.69-0.18,12.28c-0.19,10.21-0.561,25.68-1.25,42.07
	c-0.29,6.76-0.62,13.67-1.02,20.44c-0.33,5.64-0.711,11.18-1.141,16.45c-0.141,1.67-0.28,3.31-0.42,4.92
	c-0.12,1.36-0.25,2.69-0.381,3.99c-0.389,3.89-0.819,7.54-1.279,10.85c-0.17,1.23-0.35,2.46-0.55,3.689
	c-0.15,0.94-0.31,1.891-0.47,2.83c-0.121,0.681-0.24,1.351-0.371,2.031c-0.129,0.719-0.27,1.449-0.42,2.18
	c-0.029,0.149-0.06,0.289-0.09,0.439c-0.149,0.75-0.31,1.5-0.479,2.25c-0.149,0.7-0.3,1.391-0.47,2.08c-0.7,3.04-1.5,6.1-2.44,9.18
	c-0.17,0.59-0.36,1.18-0.54,1.771c-0.91,2.89-1.92,5.8-3.07,8.739c-0.279,0.721-0.57,1.44-0.859,2.16
	c-0.29,0.721-0.59,1.44-0.9,2.16c0,0.01-0.01,0.021-0.01,0.021c-0.29,0.7-0.6,1.399-0.91,2.1c-0.04,0.091-0.08,0.181-0.12,0.28
	c-0.3,0.65-0.6,1.311-0.909,1.98c-0.681,1.459-1.391,2.93-2.141,4.399c-0.061,0.12-0.12,0.24-0.18,0.36
	c-0.32,0.619-0.641,1.24-0.971,1.859c-0.82,1.561-1.68,3.131-2.59,4.711c-0.369,0.629-0.74,1.27-1.109,1.909
	c-0.41,0.69-0.82,1.38-1.25,2.07c-0.271,0.45-0.551,0.89-0.83,1.34c-0.28,0.45-0.561,0.899-0.85,1.34
	c-3.711,5.83-8.011,11.79-13,17.91c-0.381,0.47-0.771,0.94-1.16,1.41c-0.5,0.61-1.011,1.22-1.531,1.83
	c-0.359,0.43-0.729,0.86-1.1,1.29c-0.74,0.859-1.49,1.73-2.26,2.6c-1.8,2.03-3.67,4.08-5.62,6.15c-0.96,1.02-1.95,2.06-2.96,3.09
	c-1,1.029-2.029,2.07-3.08,3.109c-2.6,2.61-5.33,5.24-8.199,7.891c-4.801,4.47-9.98,9.02-15.561,13.67
	c-2.55,2.12-5.99,4.779-10.07,7.65c-14.89,10.459-38.31,23.68-57.93,23.68c-14.5-0.41-28.561-6.51-40.46-13.75
	s-21.66-15.62-27.54-20.58c-1.189-1-2.359-2-3.51-2.99c-0.58-0.49-1.15-0.98-1.711-1.47c-0.209-0.181-0.42-0.36-0.629-0.55
	c-1.28-1.11-2.53-2.2-3.75-3.28c-3.94-3.489-7.59-6.851-10.99-10.101c-1.391-1.31-2.74-2.619-4.04-3.909
	c-47.04-46.351-40.42-68.36-50.87-103.2c-10.439-34.81-2-113-2-113l74.5-120l73-23.5l67.5,20.5l56.5,47L721.311,464.139z"/>
<path fill="#E2A18D" d="M464.932,478.672c0,0.888-0.279,3.702,0,4.547c5.681-5.381,17.021-9.233,28.631-9.233
	c10.82,0,20.39,3.113,26.229,7.896c0.091-0.513,2.39,1.182,2.39,0.669c0-8.228-13.528-15.783-28.5-16.583
	C478.682,465.165,464.932,470.444,464.932,478.672z"/>
<path fill="#E2A18D" d="M679.391,478.672c0,0.888,0.279,3.702,0,4.547c-5.68-5.381-17.02-9.233-28.63-9.233
	c-10.82,0-20.39,3.113-26.229,7.896c-0.091-0.513-2.391,1.182-2.391,0.669c0-8.228,13.529-15.783,28.5-16.583
	C665.641,465.165,679.391,470.444,679.391,478.672z"/>
<path fill="#FBF4F1" d="M409.271,816.009c0-16.149,5.601-28.78,18.351-35.61c-8.381,10.78-13.16,22.681-13.16,35.61
	c0,52.77,73.33,95.55,163.789,95.55h-5.189C482.601,911.559,409.271,868.779,409.271,816.009z"/>
<path fill="#F4F0EF" d="M936.441,913.29c-1.6,1.72-3.21,3.42-4.84,5.109c-85.739,89.051-203.56,147.021-334.851,155.34
	c-2.489,0.16-4.989,0.301-7.489,0.421c-2.04,0.1-4.08,0.18-6.12,0.26c-1.27,0.05-2.54,0.09-3.82,0.13
	c-1.27,0.03-2.539,0.06-3.81,0.09c-3.37,0.08-6.75,0.12-10.12,0.13c-0.91,0-1.82,0-2.721-0.01c-0.659,0.01-1.309,0-1.969,0
	c-1.851-0.01-3.711-0.03-5.561-0.06c-4.74-0.08-9.48-0.23-14.221-0.44c-2.529-0.11-5.059-0.24-7.59-0.39
	c-131.969-7.83-250.439-65.801-336.619-155.15c-1.721-1.79-3.43-3.59-5.12-5.4c14.46-19.409,34.38-45.84,58.31-67.199
	c13.19-11.771,42.35-24.261,74.77-35.591c23.141-8.079,53.99-15.569,82.541-21.819c-8.6,8.75-13.16,21.08-13.16,36.3
	c0,29.229,19.25,56.29,54.23,76.2c29.08,16.569,66.389,26.609,106.479,28.859c0.13,0.011,0.25,0.011,0.38,0.021
	c5.609,0.32,11.27,0.47,16.96,0.47h5.319c1.9,0,3.791-0.02,5.681-0.05c0.101-0.01,0.21-0.01,0.31-0.01
	c44.371-0.851,81.66-12.91,113.48-31.03c16.01-9.12,26.18-20.63,35.25-32.25c10.77-13.79,13.5-27.15,13.5-43
	c0-6.66-0.55-11.75-2.25-17.25c-1.35-4.35,0.63-9.2-1.75-12.75c9.92,3.27,25.4,7.26,33.391,9.75c0.6,0.189,1.35,0.43,2.229,0.721
	c1.409,0.459,3.149,1.049,5.17,1.739c6.41,2.21,15.601,5.48,25.78,9.26c2,0.75,4.039,1.521,6.109,2.3
	c25.18,9.54,53.961,21.44,61.45,28.131C900.792,868.45,921.711,894.479,936.441,913.29z"/>
<path fill="#FFFFFF" d="M751.042,825.009c0,29.229-18.801,56.29-52.93,76.2c-32.451,18.93-75.371,29.35-120.861,29.35h-5.189
	c-45.5,0-88.42-10.42-120.859-29.35c-34.141-19.91-52.931-46.971-52.931-76.2c0-15.22,4.45-27.55,12.841-36.3
	c6.75-1.5,13.359-2.94,19.699-4.301c-1.48,1.641-2.88,3.301-4.189,4.99c-12.75,6.83-18.351,19.461-18.351,35.61
	c0,52.77,73.33,95.55,163.79,95.55h5.189c90.461,0,163.791-42.78,163.791-95.55c0-19.399-8.08-33.72-26.94-39.04
	c8.34,2.08,18.69,5.42,28.96,8.88C748.301,802.899,751.042,813.069,751.042,825.009z"/>
<path fill="#EFD1B8" d="M741.042,825.009c0,52.77-73.33,95.55-163.791,95.55h-5.189c-90.46,0-163.79-42.78-163.79-95.55
	c0-16.149,5.601-28.78,18.351-35.61c2.569-1.39,5.43-2.539,8.59-3.43c10.63-3,19.767-7.663,28.096-12.833
	c6.381-3.96,11.799-13.752,12.959-18.292c6.391-24.85,58.425-25.375,95.795-25.375h5.189c37.371,0,89.75,0.525,96.141,25.375
	c1.16,4.54,7.203,15.332,13.583,19.292c8.33,5.17,16.497,8.833,27.127,11.833C732.961,791.29,741.042,805.61,741.042,825.009z"/>
<path fill="#EFD1B8" d="M673.971,781.329c-3.84,11.73-12.109,29.9-28.439,52.2c-0.69,0.94-1.461,1.98-2.311,3.101
	c-19.87,11.81-45.65,16.58-69.561,16.439c-25.35-0.159-53.35-10.83-73.399-25.85c-14.83-21.51-21.94-38.66-24.95-49.13
	c0.1-3.75,0.21-7.95,0.35-12.5c0.07-2.37,0.141-4.841,0.221-7.39c0.039-1.36,0.09-2.75,0.14-4.16c0.54-17.18,1.24-37.461,1.94-56.85
	c0.1-2.801,0.199-5.591,0.3-8.341c0.21-5.96,0.43-11.771,0.64-17.31c0.01-0.291,0.02-0.58,0.03-0.87
	c0.989-26.979,1.8-47.53,1.8-47.53c1.051,1.16,161.7,8.641,186.391,7.15c1.85-0.11,2.939-0.271,3.14-0.49c0,0,0.36,13.21,0.86,32.26
	c0.029,1.04,0.049,2.1,0.08,3.18c0.149,5.69,0.31,11.851,0.479,18.28c0.05,2.21,0.11,4.45,0.17,6.72
	c0.511,20.34,1.069,42.721,1.5,61.891c0.03,1.27,0.06,2.52,0.09,3.75c0.07,3.359,0.14,6.609,0.21,9.71
	C673.782,771.409,673.891,776.729,673.971,781.329z"/>
<path fill="none" stroke="#E2B1A9" stroke-width="20" stroke-linecap="round" stroke-miterlimit="10" d="M531.165,629.258
	c0,0,33.989,26.248,81.891-1.035"/>
<path fill="none" stroke="#E4C5AF" stroke-width="10" stroke-linecap="round" stroke-miterlimit="10" d="M584.641,569.136
	c0,0,10-7,16.334-3.667"/>
<path fill="none" stroke="#E4C5AF" stroke-width="10" stroke-linecap="round" stroke-miterlimit="10" d="M557.641,569.136
	c0,0-10-7-16.334-3.667"/>
<path fill="none" stroke="#E4C5AF" stroke-width="10" stroke-linecap="round" stroke-miterlimit="10" d="M586.975,486.803v34.667
	c0,0,0.666,11.833,12.166,17.5"/>
<path fill="#B69990" d="M523.505,623.87c-7.573-4.014-18.069-10.299-21.474-15.906l14.955-0.354
	c0.059,0.425,0.078,0.674,0.078,0.674S519.126,617.155,523.505,623.87z"/>
<path fill="#FFFFFF" d="M631.471,607.169l-2.84,13.34c-7.2,4.31-17.93,8.66-33.6,10.979c0,0-31.641,6.58-63.19-3.5
	c0,0-3.591-1.619-8.341-4.119c-4.369-6.711-6.439-15.59-6.439-15.59s-0.02-0.24-0.07-0.67l6.67-0.15l20.17-2.6l24.271,2.109
	l26.771-3.93L631.471,607.169z"/>
<path fill="none" stroke="#E2B7AB" stroke-width="20" stroke-linecap="round" stroke-miterlimit="10" d="M502.037,607.963"/>
<g>
	<path fill="#362724" d="M669.24,478.459c0,0,5.466-3.456,6.415-8.382c0,0-4.32,5.598-11.461,5.655"/>
	<g>
		<path fill="#1D1312" d="M658.522,484.787c-0.001-4.381-2.111-8.27-5.371-10.704c-2.227-1.662-5.018-0.365-8.01-0.364
			c-4.01,0-7.578-0.513-10.025,2.287c-2.053,2.347-3.295,5.419-3.295,8.781c0,7.373,5.979,13.351,13.35,13.351
			C652.543,498.138,658.522,492.16,658.522,484.787z"/>
		<ellipse fill="#FFFFFF" cx="650.755" cy="479.725" rx="2.694" ry="5.004"/>
		<path fill="none" stroke="#E4C5AF" stroke-width="12" stroke-linecap="round" stroke-miterlimit="10" d="M628.217,494.59
			c0,0,11.561,1.512,20.258,0.545c10.5-1.167,19.545-1.901,19.545-1.901"/>
		<path fill="none" stroke="#362724" stroke-width="6" stroke-linecap="round" stroke-miterlimit="10" d="M618.28,486.573
			c0,0,20.601-23.354,60.24-3.404"/>
		<path fill="#573F33" d="M600.137,456.711c0,0,38.156-7.913,51.005-9.786c11.086-1.616,24.228-4.389,46.334,15.525
			c0,0-6.987-16.714-24.254-24.894c-5.146-2.437-13.409-4.998-27.401-2.765c-10.936,1.745-43.427,8.258-43.427,8.258
			L600.137,456.711z"/>
		<path fill="#362724" d="M675.786,483.616c0,0,7.689-0.544,11.422-11.479c0,0-5.516,6.336-16.239,5.885"/>
		<path fill="#362724" d="M673.821,479.844c0,0,5.943-4.059,7.09-9.858c0,0-5.266,6.291-15.628,8.082"/>
		<path fill="#362724" d="M672.311,473.1c0,0-2.57,2.074-12.154,0.564s4.504,3.659,4.504,3.659l5.938-1.252L672.311,473.1z"/>
	</g>
</g>
<circle fill="#70554A" cx="495.141" cy="628.469" r="2.5"/>
<g>
	<path fill="#362724" d="M478.374,478.459c0,0-5.466-3.456-6.415-8.382c0,0,4.32,5.598,11.461,5.655"/>
	<g>
		<path fill="#1D1312" d="M486.092,484.787c0-4.381,2.111-8.27,5.371-10.704c2.226-1.662,5.018-0.365,8.009-0.364
			c4.011,0,7.579-0.513,10.026,2.287c2.051,2.347,3.295,5.419,3.295,8.781c0,7.373-5.979,13.351-13.352,13.351
			S486.092,492.16,486.092,484.787z"/>
		<ellipse fill="#FFFFFF" cx="505.97" cy="479.725" rx="2.695" ry="5.004"/>
		<path fill="none" stroke="#E4C5AF" stroke-width="12" stroke-linecap="round" stroke-miterlimit="10" d="M516.395,494.59
			c0,0-11.561,1.512-20.256,0.545c-10.5-1.167-19.545-1.901-19.545-1.901"/>
		<path fill="none" stroke="#362724" stroke-width="6" stroke-linecap="round" stroke-miterlimit="10" d="M526.334,486.573
			c0,0-20.602-23.354-60.241-3.404"/>
		<path fill="#573F33" d="M544.476,456.711c0,0-38.157-7.913-51.005-9.786c-11.086-1.616-24.229-4.389-46.334,15.525
			c0,0,6.987-16.714,24.254-24.894c5.145-2.437,13.409-4.998,27.402-2.765c10.935,1.745,43.426,8.258,43.426,8.258L544.476,456.711z
			"/>
		<path fill="#362724" d="M468.827,483.616c0,0-7.688-0.544-11.421-11.479c0,0,5.516,6.336,16.239,5.885"/>
		<path fill="#362724" d="M472.792,479.844c0,0-5.941-4.059-7.088-9.858c0,0,5.265,6.291,15.627,8.082"/>
		<path fill="#362724" d="M475.303,473.1c0,0,1.568,2.074,11.152,0.564s-6.504,3.659-6.504,3.659l-2.936-1.252L475.303,473.1z"/>
	</g>
</g>
<path fill="#EEBF72" d="M756.141,612.969c0,29.221-19.63,53-43.75,53c-11.48,0-21.95-5.391-29.76-14.189
	c0.85-1.08,1.67-2.15,2.47-3.221c7.12,8.311,16.729,13.41,27.29,13.41c21.92,0,39.75-21.98,39.75-49
	c0-22.279-12.13-41.15-28.68-47.061c-1.18-0.43-2.381-0.79-3.61-1.069c-0.05-0.64,0.011-1.37,0.2-2.11
	c0.17-0.67,0.439-1.27,0.76-1.77c1.29,0.3,2.561,0.68,3.801,1.12C742.811,568.499,756.141,588.889,756.141,612.969z"/>
<path fill="#FFFFFF" d="M734.254,665.797c0,0-1.127-6.984-2.104-8.98c-0.688-1.408-4.955-3.516-4.955-3.516s4.226-2.301,4.934-3.726
	c0.975-1.962,2.125-8.772,2.125-8.772s1.062,6.833,2.037,8.793c0.709,1.426,5.022,3.705,5.022,3.705s-4.313,2.088-5,3.495
	C735.338,658.792,734.254,665.797,734.254,665.797z"/>
<path fill="#FFFFFF" d="M745.307,653.116c0,0-0.689-4.273-1.287-5.496c-0.42-0.859-3.031-2.15-3.031-2.15s2.585-1.408,3.018-2.279
	c0.597-1.201,1.301-5.367,1.301-5.367s0.65,4.18,1.246,5.379c0.436,0.873,3.074,2.268,3.074,2.268s-2.639,1.277-3.061,2.139
	C745.971,648.829,745.307,653.116,745.307,653.116z"/>
<path fill="#70554A" d="M808.21,815.689c-10.181-3.779-19.37-7.05-25.78-9.26c-2.02-0.69-3.76-1.28-5.17-1.739
	c-2.8-43.601-8.75-109.601-19.689-154.211c-15.061-61.42-27.261-114.68-27.261-114.68h-0.06c0.02-0.14,0.039-0.28,0.06-0.42
	c-4.739-17.18-14.6-51.38-30-97.58c-22.67-68-55.7-82.44-72.92-88.33c-18.03-6.17-41.04-12.68-54.75-12.25
	c-0.739,0.02-4.819-11.81-5.5-11.75c-1.03,0.1-1.83,12.49-2.83,12.67c-61.34,10.66-82.34,72.19-86,101.66
	c-7.68,61.7-22.67,96.67-26.67,130.67c-2.3,19.561-3.85,53.91-4.04,86.65c-0.01,1.529-0.01,3.06-0.02,4.58
	c-0.04,22.529,0.58,43.92,2.06,58.77c8.68,87.08,29,148,27.37,263.64c-0.05,3.67-5.18,12.42-14.18,11.92
	c-76.5-9-124.25,15.94-145.19-17.56c-10-16-6.52-92.19,24-199c22-77,19.33-97.33,22-184c1.61-52.28,30.67-183,30.67-183
	c31.33-206,166.66-158.67,166.66-158.67c46-38.66,111.34,1.34,152.67,58c41.33,56.67,60.67,206,60.67,206s30,216,34,287.34
	C808.35,805.879,808.27,811.109,808.21,815.689z"/>
<path fill="#FFFFFF" d="M583.141,1074.419c-1.27,0.05-2.54,0.09-3.82,0.13c-1.27,0.03-2.539,0.06-3.81,0.09
	c-3.37,0.08-6.75,0.12-10.12,0.13c-0.91,0-1.82,0-2.721-0.01c-0.659,0.01-1.309,0-1.969,0c-1.851-0.01-3.711-0.03-5.561-0.06
	v-155.23c0-4.83,27.96,1.13,27.96,1.13v9.91L583.141,1074.419z"/>
<ellipse fill="#F4F0EF" cx="569.057" cy="939.678" rx="7.5" ry="8.458"/>
<path fill="#F4F0EF" d="M576.557,1005.012c0,4.672-3.357,8.457-7.5,8.457c-4.142,0-7.5-3.785-7.5-8.457
	c0-4.674,3.358-8.459,7.5-8.459C573.2,996.553,576.557,1000.338,576.557,1005.012z"/>
<path fill="#F4F0EF" d="M576.561,1070.349c0,1.57-0.38,3.03-1.05,4.29c-3.37,0.08-6.75,0.12-10.12,0.13c-0.91,0-1.82,0-2.721-0.01
	c-0.709-1.28-1.109-2.79-1.109-4.41c0-4.68,3.35-8.46,7.5-8.46C573.202,1061.889,576.561,1065.669,576.561,1070.349z"/>
<path fill="#E4C5AF" d="M671.202,665.239c-0.9,0.99-1.82,1.98-2.761,2.971c-0.96,1.02-1.95,2.06-2.96,3.09
	c-1,1.029-2.029,2.07-3.08,3.109c-2.6,2.61-5.33,5.24-8.199,7.891c-4.801,4.47-9.98,9.02-15.561,13.67
	c-2.55,2.12-5.99,4.779-10.07,7.65c-14.89,10.459-38.31,23.68-57.93,23.68c-14.5-0.41-28.561-6.51-40.46-13.75
	s-21.66-15.62-27.54-20.58c-1.189-1-2.359-2-3.51-2.99c-0.58-0.49-1.15-0.98-1.711-1.47c-0.209-0.181-0.42-0.36-0.629-0.55
	c-1.28-1.11-2.53-2.2-3.75-3.28c-3.94-3.489-7.59-6.851-10.99-10.101c-1.08-1.01-2.131-2.029-3.15-3.039
	c-0.21,5.539-0.43,11.35-0.64,17.31c2,1.841,4.06,3.7,6.159,5.56c1.23,1.09,2.48,2.181,3.771,3.301
	c0.229,0.199,0.46,0.41,0.72,0.619c0.58,0.521,1.181,1.031,1.78,1.541c1.181,1.01,2.37,2.029,3.57,3.039l0.83,0.701
	c6.03,5.09,16.12,13.619,28.329,21.049c16.381,9.961,32.141,15.221,46.851,15.631l0.37,0.01c24.65,0,51.561-16.32,65.41-26.051
	c5.02-3.529,8.699-6.449,10.91-8.289c5.74-4.78,11.15-9.54,16.06-14.11c2.94-2.72,5.83-5.5,8.53-8.2c0.04-0.039,0.09-0.09,0.13-0.13
	C671.511,677.089,671.351,670.929,671.202,665.239z"/>
<rect x="531.922" y="891.136" fill="#F9E094" width="85.334" height="8"/>
<path fill="#F9E094" d="M553.891,894.989l-1.16,0.961c-0.369-0.45-37.279-45.261-49.189-61.54c-2.57-3.5-4.93-6.91-7.121-10.2
	c-11.43-17.23-17.84-31.5-21.229-41.52c-2.319-6.881-3.2-11.75-3.3-14.191c-0.16-4.25,2.3-10.479,4.13-14.459
	c-0.05,1.41-0.101,2.8-0.14,4.16c-1.37,3.43-2.6,7.39-2.49,10.24c0.07,1.85,0.609,5.129,1.92,9.649
	c3.01,10.47,10.12,27.62,24.95,49.13c1.42,2.06,2.909,4.17,4.479,6.31C516.641,849.769,553.511,894.54,553.891,894.989z"/>
<path fill="#F9E094" d="M678.381,768.499c-0.11,2.771-1.24,8.681-4.34,17.121c0,0,0,0,0,0.01c-4.351,11.85-12.58,28.68-27.301,48.78
	c0,0.01-0.01,0.01-0.01,0.02c-11.939,16.3-48.811,61.07-49.18,61.521l-1.16-0.961c0.35-0.42,33.1-40.18,46.83-58.359
	c0.85-1.12,1.62-2.16,2.311-3.101c16.33-22.3,24.6-40.47,28.439-52.2c2.029-6.219,2.83-10.629,2.91-12.889
	c0.14-3.521-1.78-8.74-3.44-12.561c-0.03-1.23-0.06-2.48-0.09-3.75C675.112,755.719,678.581,763.489,678.381,768.499z"/>
<path fill="#FFFFFF" d="M539.577,899.236c0,0-1.037-6.427-1.936-8.267c-0.633-1.293-4.56-3.234-4.56-3.234s3.889-2.117,4.54-3.428
	c0.896-1.806,1.955-8.072,1.955-8.072s0.979,6.286,1.875,8.09c0.653,1.314,4.623,3.41,4.623,3.41s-3.97,1.922-4.602,3.218
	C540.575,892.789,539.577,899.236,539.577,899.236z"/>
<path fill="#B69990" d="M641.981,608.349c0,0-2.74,5.33-11.561,11.06h-0.01c-0.569,0.371-1.16,0.73-1.779,1.101l2.84-13.34
	l1.07,0.12L641.981,608.349z"/>
<path fill="#E2B1A9" d="M502.037,607.963c0,0,14.483,4.575,29.378,1.828c14.896-2.747,23.973,1.157,23.973,1.157
	s12.111,4.633,25.78-0.199c13.669-4.831,44.801-2.18,61.254-2.349c0,0-26.153-7.451-40.806-9.356
	c-14.654-1.905-26.881,2.126-26.881,2.126s-6.56,1.901-14.23-0.089c-7.671-1.991-21.654-0.44-30.277,1.868
	C521.604,605.256,502.037,607.963,502.037,607.963z"/>
<path fill="#EEBF72" d="M460.14,651.78c-3.67,4.129-7.9,7.5-12.56,9.92c0.01-1.521,0.01-3.051,0.02-4.58
	c3.72-2.2,7.11-5.11,10.07-8.561C458.47,649.629,459.29,650.7,460.14,651.78z"/>
</svg>
