<svg id="Layer_1" data-name="Layer 1" xmlns="http://www.w3.org/2000/svg" xmlns:xlink="http://www.w3.org/1999/xlink" viewBox="0 0 1417.4 840.98"><defs><style>.cls-1,.cls-12{fill:none;}.cls-2{fill:#b9cfff;}.cls-3{fill:#1d2e5d;}.cls-4{fill:#fcc5e4;}.cls-15,.cls-5{fill:#ef5e95;}.cls-6{clip-path:url(#clip-path);}.cls-7{fill:#f1eff0;}.cls-8{fill:#ffc313;}.cls-9{fill:#f0eff0;}.cls-10{fill:#a4ca8a;}.cls-11{fill:#7b9868;}.cls-12{stroke:#7b9868;stroke-linecap:round;stroke-miterlimit:10;stroke-width:6px;}.cls-13{clip-path:url(#clip-path-2);}.cls-14{fill:#f7faff;opacity:0.75;}.cls-15{opacity:0.5;}</style><clipPath id="clip-path"><path class="cls-1" d="M426.73,265.33s0,162.25,64.33,264.13c0,0,360,24.48,373.43-146.93C864.49,382.53,669.11,5,607.42,0,607.42,0,470.94,162.51,426.73,265.33Z"/></clipPath><clipPath id="clip-path-2"><path class="cls-1" d="M46,573.41C1.08,485.61-3.21,381.93,37.05,291.9c38.64-86.41,124-176.63,305.46-224.3,414.72-109,841.16-43.11,949.86,68.2S1580.84,785,974.63,812.87C403.67,839.15,214.35,902.68,46,573.41Z"/></clipPath></defs><title>plane</title><path class="cls-2" d="M46,573.41C1.08,485.61-3.21,381.93,37.05,291.9c38.64-86.41,124-176.63,305.46-224.3,414.72-109,841.16-43.11,949.86,68.2S1580.84,785,974.63,812.87C403.67,839.15,214.35,902.68,46,573.41Z"/><path class="cls-3" d="M286,528.55,727.67,321.38c35.39-17.49,76.91-8.56,57.62,31.66L607.53,653c-11.2,23.35-42.5,43.51-61.39,32.48L279.06,617.05C248.72,599.35,253,544.87,286,528.55Z"/><path class="cls-4" d="M1223.13,159.08,1110,176.9c-4.37.69-8.12,5.36-9.68,12l-20.77,89.17a40.73,40.73,0,0,1-36.14,31.39c-25.9,2.22-55.54,5.91-89.46,11.37C702.64,361.34,489.7,378.19,365.25,422.06,277,453.15,225.31,546,247.87,636.72c17.7,71.19,81.47,142.94,268.14,139,365.74-7.68,676.15-370.34,676.15-370.34s17.76-20.39,20.31-42.63a27,27,0,0,0,1.25-5.45l21.83-175.8C1237.08,169.14,1230.84,157.87,1223.13,159.08Z"/><path class="cls-5" d="M1090.55,397.19l89.12-46.32a17.16,17.16,0,0,1,14.6-.58l81.61,34.51a17.16,17.16,0,0,1,4.77,28.6l-66.75,59.73a17.16,17.16,0,0,1-18.62,2.8l-104-47.93A17.16,17.16,0,0,1,1090.55,397.19Z"/><path class="cls-5" d="M280.51,552.45l-46.65,2.49c-25.17,1.35-34.75,33.52-14.41,48.42l43.75,32A26.81,26.81,0,0,0,305.76,616l2.9-34.52A26.82,26.82,0,0,0,280.51,552.45Z"/><path class="cls-5" d="M381,417s82.22,7.37,121.26,103.22a15.57,15.57,0,0,0,13.78,9.8c56.22,2.26,325.21,5.56,336.4-136.89,0,0,.23-38.68-57-43.35C795.37,349.81,483.54,386.16,381,417Z"/><g class="cls-6"><path class="cls-7" d="M642.93,140.91c-42.09.54-110.79,30.86-126.61,170.49C513.13,339.63,436.89,611.47,655,611.47c228.59,0,129.1-290.32,125-313.71C764,205.87,731.14,139.77,642.93,140.91Z"/><path class="cls-5" d="M677.56,121.24c-.06.07-.11.14-.18.21s-.11.11-.16.18c-5.93,6.62-12.32,11.62-17.68,14.16-27.44,15.46-31.33-20-31.74-24.57,0,0,0,0,0-.07A146,146,0,0,1,626,87.87c0-27,6.66-48.87,14.86-48.87s14.87,21.87,14.87,48.87a133.84,133.84,0,0,1-3,29.21,78.32,78.32,0,0,1,7.8-10.34c11-12.34,23.69-19,28.28-14.89S688.36,109,677.56,121.24Z"/><path d="M599.89,258.74c0,6.59-3.74,11.93-8.36,11.93s-8.36-5.34-8.36-11.93,3.74-11.94,8.36-11.94S599.89,252.15,599.89,258.74Z"/><path d="M712.94,257.6c0,6.59-3.75,11.94-8.36,11.94s-8.36-5.35-8.36-11.94,3.74-11.93,8.36-11.93S712.94,251,712.94,257.6Z"/><path class="cls-8" d="M665.9,261.39s-9.73,19.42-17,21.22c-7.67-1.8-17-21.22-17-21.22s10-7.58,16.82-7.58S665.9,261.39,665.9,261.39Z"/><path class="cls-5" d="M659.67,333.77C656.46,335,652.18,330,648.89,322c-3.3,8-7.59,13-10.81,11.75-4.25-1.58-5.05-13.15-1.83-25.88,2.88-11.44,8.06-19.84,12.17-20.31a1.66,1.66,0,0,1,.52-.06c4.17,0,9.58,8.58,12.56,20.37C664.74,320.62,663.92,332.19,659.67,333.77Z"/><path class="cls-9" d="M585.32,254.18a3.08,3.08,0,1,1,3.08,3.08A3.08,3.08,0,0,1,585.32,254.18Z"/><path class="cls-9" d="M697.85,254.18a3.08,3.08,0,1,1,3.08,3.08A3.08,3.08,0,0,1,697.85,254.18Z"/><path class="cls-7" d="M502.48,424.79S323.87,186.12,515.16,316.72"/><path class="cls-10" d="M476.83,292.58s37.7,20.23,46.72,32.05l-18.78,103s-33.23-39-65.08-100.52C439.69,327.06,462.11,319.28,476.83,292.58Z"/><path class="cls-10" d="M785.37,312.18C753,362.07,672,364,652.94,363.7v-.11l-2,.07-2-.07v.11c-19,.27-100.08-1.63-132.42-51.52,0,0-30.14,93-8.35,191.14,0,0,7.47,28.66,16.37,42.39,0,0,78.19,9.91,125.81,10.52v0h1.25v0c47.74-.61,133.16-10.14,133.16-10.14,8.9-13.73,15.17-42.52,15.17-42.52C821.66,405.47,785.37,312.18,785.37,312.18Z"/><path class="cls-11" d="M521.55,308c17.58,11.67,74.83,47.16,126.67,51.66,4.07.36,4.55,6.49.57,7.46-22.14,5.43-63.71,6.85-123.75-27.17A21.65,21.65,0,0,1,514.3,322a62.1,62.1,0,0,1,.44-10.68A4.44,4.44,0,0,1,521.55,308Z"/><path class="cls-11" d="M778.87,308C761.29,319.63,704,355.12,652.2,359.62c-4.07.36-4.55,6.49-.57,7.46,22.13,5.43,63.71,6.85,123.74-27.17A21.64,21.64,0,0,0,786.12,322a64.18,64.18,0,0,0-.44-10.68A4.44,4.44,0,0,0,778.87,308Z"/><path class="cls-12" d="M668.08,378.44s10.63,6.93,8.62,39.65c-1.3,21.14,2.67,34.08,5.65,40.6"/><path class="cls-11" d="M676.72,461.47a6.32,6.32,0,1,0,2.43-8.59A6.31,6.31,0,0,0,676.72,461.47Z"/><path class="cls-12" d="M643.94,378.44s2.8,31.11-4.37,49.48a85.84,85.84,0,0,0-5.51,30"/><path class="cls-11" d="M627.75,457.8a6.32,6.32,0,1,0,6.1-6.52A6.32,6.32,0,0,0,627.75,457.8Z"/></g><path class="cls-7" d="M798.14,439.4c180.52,92-7.68-120-7.68-120"/><path class="cls-10" d="M837.53,457s4.19-24.71,28.6-35.74c0,0-26.15-51.58-79-105.3L794.06,437S808.67,447.82,837.53,457Z"/><g class="cls-13"><path class="cls-14" d="M936,275.28h379.85a23.59,23.59,0,0,0,23.32-20.16c6.51-43.69,5.81-140.24-138.73-103.06a23.6,23.6,0,0,1-24-7.52c-21.3-25.24-78.7-76.68-147.87-3a23.45,23.45,0,0,1-17.07,7.45c-27.29,0-100.77,8.73-99.12,103.18A23.57,23.57,0,0,0,936,275.28Z"/><path class="cls-14" d="M201.33,263.71c-1.43-16.1,2.5-40.11,34.34-51.91a18,18,0,0,0,11.85-16.45c.62-28.42,11.86-92.51,103.16-72.68a17.83,17.83,0,0,0,13.26-2.28c24.67-15.51,117.39-64.52,123.18,70.71a17.78,17.78,0,0,0,16.47,17.11c18.54,1.21,47.54,9.73,56.77,49.59a17.87,17.87,0,0,1-17.33,22h-324A17.77,17.77,0,0,1,201.33,263.71Z"/><path class="cls-14" d="M-12.44,364.7c10.53-24.63,36.19-53.23,98.53-53.88a25,25,0,0,0,20.72-11.49c20-31.18,84.39-107.59,195.07-19.41a25,25,0,0,0,19.37,5.19c28.6-4.39,105.71-7.25,110.11,88.32A25.28,25.28,0,0,1,406.18,400H10.68A25.24,25.24,0,0,1-12.44,364.7Z"/><ellipse class="cls-15" cx="299.09" cy="596.51" rx="98.01" ry="265.17"/><path class="cls-5" d="M706.48,659.19l457,170.59c36.7,14.56,77.36,2.28,54.86-36.23L1016.82,509.07c-13.06-22.37-45.9-39.91-63.83-27.39L692.35,571.54C663.56,591.65,672.25,645.61,706.48,659.19Z"/></g></svg>