<?xml version="1.0" standalone="no"?>
<!DOCTYPE svg PUBLIC "-//W3C//DTD SVG 20010904//EN"
 "http://www.w3.org/TR/2001/REC-SVG-20010904/DTD/svg10.dtd">
<svg version="1.0" xmlns="http://www.w3.org/2000/svg"
 width="2284.000000pt" height="744.000000pt" viewBox="0 0 2284.000000 744.000000"
 preserveAspectRatio="xMidYMid meet">
<metadata>
Created by potrace 1.15, written by Peter Selinger 2001-2017
</metadata>
<g transform="translate(0.000000,744.000000) scale(0.100000,-0.100000)"
fill="#000000" stroke="none">
<path d="M1255 6258 c-3 -7 -4 -1172 -3 -2588 l3 -2575 1405 0 1405 0 5 220
c3 121 2 230 -2 242 l-7 23 -1158 2 -1158 3 0 2095 0 2095 4910 0 4910 0 3
-2075 c1 -1141 0 -2085 -3 -2098 l-5 -22 -3078 2 -3077 3 -5 1312 c-5 1240 -6
1313 -23 1330 -16 16 -20 16 -44 3 -14 -8 -49 -49 -77 -90 -28 -41 -134 -194
-235 -339 -102 -146 -212 -306 -245 -355 l-61 -91 -3 -1110 c-1 -610 0 -1120
3 -1133 l5 -22 3665 0 3665 0 5 23 c3 12 4 1176 3 2587 l-3 2565 -5398 3
c-4313 2 -5399 0 -5402 -10z"/>
<path d="M17194 6255 c-271 -59 -459 -299 -457 -585 1 -171 55 -304 172 -421
122 -121 242 -169 429 -169 117 0 197 17 281 60 66 33 171 117 171 136 0 15
-133 154 -147 154 -5 0 -31 -17 -59 -38 -68 -51 -113 -71 -182 -83 -155 -25
-296 47 -368 188 -27 55 -29 65 -29 178 0 107 3 125 25 170 36 75 114 148 185
174 119 45 267 17 377 -71 l41 -32 63 69 c35 39 69 81 76 94 12 22 10 26 -27
57 -58 49 -170 102 -250 119 -86 18 -219 18 -301 0z"/>
<path d="M14674 6253 c-6 -5 -87 -186 -179 -403 -92 -217 -175 -413 -185 -435
-42 -95 -130 -308 -128 -311 4 -3 153 -7 204 -5 l42 1 47 118 c27 64 55 123
64 130 18 15 435 17 474 3 19 -7 34 -33 67 -118 24 -59 48 -114 55 -121 9 -10
44 -14 131 -13 65 1 119 3 122 5 3 4 -101 251 -428 1016 l-58 135 -108 3 c-60
1 -114 -1 -120 -5z m188 -483 c37 -90 68 -169 68 -176 0 -20 -26 -24 -155 -24
-91 0 -125 3 -134 14 -11 12 4 51 126 344 12 28 29 -1 95 -158z"/>
<path d="M12837 6244 c-4 -4 -7 -263 -7 -575 l0 -568 43 -3 c23 -2 77 -2 120
0 l77 4 0 358 c0 221 4 361 10 365 5 3 78 -98 162 -224 84 -127 158 -229 163
-228 6 2 78 104 160 227 83 124 155 225 160 225 6 0 11 -129 13 -362 l2 -363
119 0 c99 0 120 3 125 16 8 20 8 1098 0 1118 -5 13 -27 16 -135 16 l-128 0
-24 -32 c-21 -29 -93 -143 -220 -351 -21 -34 -47 -71 -57 -81 -21 -21 -11 -34
-224 309 l-93 150 -130 3 c-71 1 -132 -1 -136 -4z"/>
<path d="M15587 6236 c-7 -18 -8 -1102 -1 -1121 5 -12 28 -15 125 -15 l119 0
0 173 c0 121 4 177 12 185 19 19 183 16 203 -4 9 -9 62 -85 117 -168 55 -83
107 -159 117 -168 13 -14 38 -17 141 -18 163 -2 153 -3 141 18 -6 11 -64 98
-131 195 -66 97 -120 181 -120 186 0 5 27 26 60 46 74 45 123 102 152 174 30
78 30 234 -1 304 -48 109 -140 184 -261 211 -95 22 -665 24 -673 2z m590 -221
c34 -10 61 -27 82 -50 28 -32 31 -42 31 -103 0 -85 -23 -125 -85 -153 -39 -17
-63 -19 -207 -17 l-163 3 -3 154 c-2 104 1 158 9 167 17 20 267 19 336 -1z"/>
<path d="M17896 6242 c-2 -4 70 -125 160 -267 91 -143 188 -298 216 -344 l51
-83 -2 -207 c-1 -114 1 -214 5 -224 5 -15 22 -17 125 -17 l118 0 3 233 3 232
66 100 c147 224 352 550 357 567 4 17 -5 18 -126 18 -107 0 -132 -3 -143 -16
-8 -9 -70 -109 -139 -223 -70 -114 -132 -206 -140 -206 -8 0 -71 96 -145 220
l-131 220 -136 3 c-75 1 -139 -1 -142 -6z"/>
<path d="M2256 5248 c-14 -20 -16 -185 -16 -1560 0 -1525 0 -1538 20 -1558 19
-19 33 -20 318 -20 242 0 302 3 318 14 19 14 19 37 22 948 2 899 3 934 21 952
14 13 27 17 46 12 25 -6 110 -130 713 -1048 53 -81 103 -149 110 -152 7 -3 53
57 120 160 389 600 1078 1607 1121 1641 12 9 91 12 292 13 249 0 279 -2 298
-17 12 -11 106 -231 245 -578 123 -308 313 -780 421 -1050 109 -269 232 -577
275 -683 42 -107 84 -202 93 -213 16 -18 33 -19 300 -19 211 0 287 3 300 13 9
6 30 46 47 87 45 108 678 1683 838 2084 74 187 144 348 154 358 18 18 48 19
831 15 896 -3 847 0 986 -68 118 -58 198 -163 226 -296 39 -182 -2 -332 -124
-454 -74 -73 -119 -99 -224 -131 -70 -21 -88 -22 -741 -25 -462 -3 -674 -7
-683 -15 -10 -8 -13 -155 -13 -764 l0 -753 22 -15 c19 -14 66 -16 313 -16 159
0 300 3 312 6 12 4 26 19 32 36 7 20 11 181 11 454 0 371 2 424 16 438 13 14
55 16 299 16 393 0 561 20 764 92 318 112 525 298 644 576 137 322 102 782
-81 1051 -169 249 -391 392 -722 464 -93 20 -124 21 -1221 24 -1072 4 -1126 3
-1141 -14 -8 -10 -34 -70 -57 -133 -23 -63 -49 -131 -56 -150 -8 -19 -58 -152
-110 -295 -86 -233 -186 -503 -471 -1269 -97 -261 -112 -284 -161 -255 -18 10
-34 37 -54 89 -15 41 -136 368 -269 725 -133 358 -293 789 -356 960 -64 170
-122 318 -131 327 -15 17 -62 18 -745 18 -464 0 -736 -4 -748 -10 -10 -5 -62
-81 -116 -167 -54 -87 -204 -329 -334 -538 -130 -209 -263 -421 -294 -472 -79
-128 -108 -133 -174 -30 -22 34 -196 314 -386 622 -191 308 -356 568 -368 578
-18 15 -51 17 -369 17 l-348 0 -15 -22z"/>
<path d="M12745 4248 c-5 -14 424 -1094 451 -1136 14 -22 20 -23 117 -20 l102
3 18 39 c51 109 447 1109 442 1117 -4 5 -62 9 -130 9 l-123 0 -35 -92 c-20
-51 -86 -228 -147 -393 -61 -165 -115 -304 -121 -309 -5 -5 -11 -7 -15 -4 -3
4 -57 145 -120 315 -63 169 -129 346 -147 393 l-33 85 -127 3 c-97 2 -129 0
-132 -10z"/>
<path d="M14080 3680 l0 -580 430 0 c414 0 430 1 440 19 11 22 14 121 4 170
l-6 31 -303 0 c-247 0 -305 3 -314 14 -8 9 -11 51 -9 122 l3 109 270 5 270 5
3 108 3 107 -264 0 c-191 0 -266 3 -275 12 -16 16 -16 210 0 226 9 9 91 12
309 12 261 0 298 2 303 16 11 29 7 179 -6 192 -9 9 -119 12 -435 12 l-423 0 0
-580z"/>
<path d="M15195 4248 c-3 -7 -4 -267 -3 -578 l3 -565 116 -3 117 -3 6 27 c4
15 6 175 5 356 -1 180 1 332 5 336 9 9 12 6 231 -283 99 -131 215 -282 258
-336 l77 -99 93 0 c59 0 97 4 105 12 17 17 17 1119 0 1136 -16 16 -210 16
-226 0 -9 -9 -12 -99 -12 -344 0 -197 -4 -335 -9 -339 -6 -3 -49 47 -98 111
-324 428 -426 560 -441 572 -10 8 -52 12 -119 12 -74 0 -105 -4 -108 -12z"/>
<path d="M16424 4247 c-2 -7 -3 -58 -2 -113 l3 -99 165 -3 c90 -1 168 -6 173
-11 4 -4 8 -202 7 -439 0 -238 2 -443 6 -457 l6 -26 117 3 116 3 3 449 c1 311
6 453 13 463 9 10 50 13 174 13 139 0 164 2 169 16 8 20 8 178 0 198 -5 14
-57 16 -475 16 -380 0 -471 -3 -475 -13z"/>
<path d="M17567 4254 c-4 -4 -7 -166 -7 -360 0 -270 3 -370 15 -430 48 -252
208 -377 485 -378 176 0 285 40 379 139 55 58 81 104 108 190 16 54 18 99 18
450 l0 390 -120 0 -120 0 -5 -380 c-5 -361 -6 -382 -26 -425 -71 -151 -283
-188 -407 -71 -26 23 -36 41 -63 106 -5 11 -11 189 -14 395 l-5 375 -116 3
c-63 1 -118 -1 -122 -4z"/>
<path d="M18845 4248 c-3 -7 -4 -267 -3 -578 l3 -565 109 -3 c71 -2 113 1 122
9 11 9 14 49 14 185 l0 174 33 1 c64 1 152 -2 167 -7 8 -2 64 -80 125 -171 60
-92 116 -172 123 -180 16 -16 267 -19 277 -3 3 5 -53 95 -125 199 -71 104
-128 196 -125 203 3 7 23 21 44 31 55 25 130 104 160 167 23 49 26 68 26 165
0 124 -15 172 -81 252 -43 53 -150 106 -245 122 -96 16 -618 15 -624 -1z m615
-240 c65 -34 85 -66 85 -143 0 -71 -17 -103 -74 -142 -40 -27 -104 -35 -256
-31 l-120 3 -3 168 -2 167 163 0 c149 0 166 -2 207 -22z"/>
<path d="M20045 4248 c-3 -7 -4 -267 -3 -578 l3 -565 432 -3 433 -2 5 22 c3
13 5 61 3 108 l-3 85 -305 3 c-273 2 -306 4 -317 19 -13 17 -18 187 -7 217 5
14 39 16 270 16 241 0 264 1 272 18 7 13 10 162 3 195 0 4 -120 7 -266 7 -254
0 -265 1 -275 20 -14 27 -11 208 4 218 6 4 146 9 311 12 l300 5 0 105 0 105
-428 3 c-337 2 -429 0 -432 -10z"/>
<path d="M21335 2274 c-207 -32 -336 -181 -322 -371 12 -161 102 -248 317
-307 249 -69 300 -98 300 -172 0 -42 -39 -89 -87 -105 -50 -16 -176 -6 -244
20 -32 12 -85 40 -118 61 -34 22 -65 40 -69 40 -13 0 -132 -149 -132 -165 0
-8 19 -29 43 -46 187 -136 472 -178 653 -95 63 29 139 96 164 146 43 85 49
212 14 300 -20 50 -98 121 -168 154 -30 14 -115 43 -189 65 -202 59 -236 82
-237 154 0 119 176 141 365 47 46 -23 87 -40 93 -36 15 9 112 153 112 167 0 6
-8 18 -17 26 -37 29 -152 82 -210 97 -64 17 -216 28 -268 20z"/>
<path d="M14211 2243 c-17 -37 -127 -294 -286 -668 -69 -165 -140 -329 -156
-364 -45 -99 -44 -101 54 -102 45 0 97 -1 115 -2 19 -1 37 2 40 8 4 5 30 64
57 130 l51 120 241 3 c185 2 245 -1 253 -10 7 -7 33 -65 59 -128 l47 -115 127
-3 c70 -1 127 1 127 5 0 8 -76 188 -345 818 l-141 330 -115 3 -116 3 -12 -28z
m202 -459 c37 -90 67 -171 67 -179 0 -13 -24 -15 -144 -15 -80 0 -147 3 -150
8 -7 12 135 352 148 352 6 0 41 -75 79 -166z"/>
<path d="M12837 2253 c-4 -3 -7 -262 -7 -575 l0 -569 123 3 122 3 3 165 c2
116 6 166 15 172 6 4 73 8 147 8 216 0 340 47 425 162 114 153 97 398 -35 522
-109 102 -170 116 -515 116 -150 0 -275 -3 -278 -7z m534 -228 c78 -28 119
-85 119 -165 0 -74 -47 -144 -113 -169 -16 -6 -89 -11 -163 -11 l-134 0 0 173
c0 96 3 177 7 180 14 14 240 7 284 -8z"/>
<path d="M15140 1685 l0 -575 120 0 120 0 0 168 c0 120 4 173 13 185 10 15 27
17 107 15 l95 -3 123 -182 123 -183 141 0 c116 0 139 2 135 14 -3 8 -62 96
-131 196 -69 100 -126 185 -126 190 0 5 27 25 59 44 130 79 189 199 179 360
-8 126 -79 241 -180 292 -97 49 -139 54 -470 54 l-308 0 0 -575z m622 327
c116 -57 115 -231 -2 -289 -40 -21 -58 -23 -206 -23 -159 0 -162 0 -168 23
-10 38 -7 277 5 298 10 19 19 20 167 17 140 -3 162 -5 204 -26z"/>
<path d="M16256 2244 c-12 -32 -6 -182 8 -196 10 -11 49 -14 167 -12 88 0 159
-3 167 -9 9 -7 12 -112 12 -464 l0 -454 123 3 122 3 3 457 2 456 28 6 c15 4
92 5 172 4 l145 -2 0 110 0 109 -471 3 c-424 2 -472 1 -478 -14z"/>
<path d="M17416 2244 c-8 -21 -7 -1080 0 -1111 6 -22 9 -23 125 -23 l119 0 0
355 c0 289 2 355 13 355 8 0 110 -127 228 -281 118 -155 240 -315 272 -355
l57 -74 105 0 105 0 0 575 0 575 -120 0 -120 0 -2 -342 c-2 -233 -6 -342 -14
-345 -6 -2 -129 152 -273 342 l-263 345 -113 0 c-95 0 -114 -3 -119 -16z"/>
<path d="M18737 2253 c-4 -3 -7 -262 -7 -575 l0 -568 438 2 437 3 3 94 c2 60
-1 98 -9 107 -9 11 -67 14 -314 14 -267 0 -304 2 -309 16 -11 30 -7 209 6 222
9 9 84 12 275 12 l264 0 -3 108 -3 107 -265 3 c-196 2 -266 6 -272 15 -9 14
-10 172 -2 204 l6 23 307 2 306 3 0 105 0 105 -426 3 c-234 1 -429 -1 -432 -5z"/>
<path d="M19845 2248 c-3 -7 -4 -265 -3 -573 l3 -560 122 -3 123 -3 2 183 3
183 85 3 c47 2 94 0 105 -2 12 -4 68 -78 140 -185 l120 -179 85 -4 c122 -4
190 1 190 15 -1 7 -57 93 -125 192 -68 99 -125 187 -125 195 0 8 20 26 45 39
105 55 168 150 185 275 29 207 -83 375 -280 420 -91 21 -668 24 -675 4z m620
-233 c22 -11 50 -36 63 -55 21 -30 23 -44 20 -104 -4 -67 -5 -70 -47 -107 -52
-46 -78 -51 -266 -47 l-140 3 -3 155 c-1 85 0 160 3 168 4 11 37 13 167 10
139 -3 169 -6 203 -23z"/>
</g>
</svg>
