<?xml version="1.0" standalone="no"?>
<!DOCTYPE svg PUBLIC "-//W3C//DTD SVG 20010904//EN"
 "http://www.w3.org/TR/2001/REC-SVG-20010904/DTD/svg10.dtd">
<svg version="1.0" xmlns="http://www.w3.org/2000/svg"
 width="742.000000pt" height="526.000000pt" viewBox="0 0 742.000000 526.000000"
 preserveAspectRatio="xMidYMid meet">
<metadata>
Created by potrace 1.15, written by Peter Selinger 2001-2017
</metadata>
<g transform="translate(0.000000,526.000000) scale(0.100000,-0.100000)"
fill="#000000" stroke="none">
<path d="M3797 4639 c-2 -8 -12 -36 -21 -64 -10 -27 -21 -63 -26 -80 -18 -60
-73 -221 -86 -252 -8 -17 -14 -38 -14 -46 0 -8 -9 -26 -21 -41 l-20 -26 -248
0 c-194 0 -251 -3 -266 -14 -18 -13 -17 -14 11 -29 16 -8 38 -24 49 -34 11
-10 81 -64 155 -120 74 -56 150 -115 169 -130 l33 -29 -17 -54 c-10 -30 -24
-71 -30 -90 -7 -19 -23 -69 -35 -110 -12 -41 -28 -93 -35 -115 -7 -22 -18 -56
-24 -76 -6 -19 -11 -45 -11 -57 0 -22 1 -22 28 -5 23 15 95 66 127 90 6 5 51
35 100 68 50 32 110 74 134 92 49 37 78 41 109 16 25 -21 96 -71 167 -117 28
-18 87 -58 132 -89 45 -31 86 -57 92 -57 15 0 14 46 -3 95 -7 22 -24 74 -36
115 -13 41 -28 91 -35 110 -32 92 -49 159 -46 187 0 6 88 78 194 159 236 181
226 172 207 184 -8 6 -125 10 -266 10 -189 0 -254 3 -262 13 -10 13 -123 335
-147 421 -15 54 -51 101 -58 75z"/>
<path d="M2610 3478 c-96 -95 -306 -301 -465 -458 -160 -157 -393 -385 -518
-506 -125 -122 -227 -227 -227 -233 0 -12 4821 -17 4833 -4 7 7 -9 23 -553
554 -206 202 -478 468 -605 592 -172 169 -234 223 -247 218 -27 -10 -538 -405
-538 -416 0 -5 6 -22 14 -36 7 -14 16 -43 20 -63 4 -21 13 -52 20 -70 8 -17
21 -58 31 -91 23 -79 55 -181 70 -225 7 -19 23 -69 35 -110 12 -41 26 -86 31
-99 16 -39 27 -111 19 -116 -5 -3 -39 16 -77 42 -37 26 -122 83 -188 128 -66
45 -143 97 -170 116 -28 18 -58 39 -67 44 -25 15 -97 65 -147 102 -51 38 -78
41 -114 13 -13 -11 -83 -59 -153 -106 -523 -353 -545 -367 -531 -331 2 6 10
30 17 52 7 22 18 58 25 80 7 22 23 74 35 115 12 41 28 91 35 110 7 19 22 64
33 100 75 245 94 307 102 326 7 17 3 27 -18 46 -42 39 -511 398 -519 398 -5 0
-87 -78 -183 -172z"/>
<path d="M2952 2058 c-17 -17 -17 -1289 0 -1306 16 -16 70 -16 86 0 9 9 12 98
12 338 0 346 2 367 53 442 30 44 98 71 163 66 66 -6 100 -28 131 -88 23 -43
23 -47 23 -401 l0 -358 37 -7 c70 -13 68 -23 71 332 1 175 -2 354 -7 396 -11
99 -45 153 -116 187 -103 50 -209 35 -295 -40 -24 -21 -47 -36 -52 -33 -4 3
-8 108 -8 233 0 163 -3 230 -12 239 -7 7 -26 12 -43 12 -17 0 -36 -5 -43 -12z"/>
<path d="M997 1874 c-37 -25 -37 -25 -37 -99 0 -103 -1 -105 -70 -105 -63 0
-84 -14 -78 -52 3 -21 9 -23 63 -26 32 -2 65 -8 72 -14 10 -8 13 -87 13 -359
0 -386 3 -405 63 -450 28 -21 43 -24 126 -24 103 0 120 9 107 58 -6 25 -10 27
-61 27 -132 0 -137 18 -133 428 2 171 7 314 11 318 5 5 47 11 95 14 81 5 87 6
90 28 6 42 -14 52 -99 52 -77 0 -80 1 -90 27 -6 15 -9 63 -8 106 2 96 -9 109
-64 71z"/>
<path d="M4568 1867 c-25 -20 -27 -29 -30 -107 l-3 -85 -60 -3 c-69 -4 -87
-15 -83 -51 3 -24 7 -26 53 -29 28 -1 60 -5 73 -7 l22 -5 0 -330 c0 -202 4
-349 11 -382 20 -95 72 -128 200 -128 79 0 97 13 83 62 -9 31 -10 32 -65 29
-68 -3 -96 16 -109 74 -5 22 -10 180 -10 351 0 243 3 314 13 322 7 6 49 12 92
14 75 3 80 4 83 26 6 42 -14 52 -99 52 -92 0 -87 -6 -91 130 -3 83 -4 85 -28
87 -14 2 -37 -7 -52 -20z"/>
<path d="M1581 1670 c-77 -24 -142 -90 -170 -173 -19 -58 -21 -85 -21 -309 0
-238 1 -247 24 -300 49 -111 148 -164 296 -159 180 5 271 73 298 220 11 62 1
74 -60 69 l-43 -3 -7 -47 c-7 -54 -34 -97 -81 -130 -27 -19 -45 -23 -113 -23
-79 0 -82 1 -127 38 -26 21 -47 44 -47 50 0 7 -7 26 -17 42 -11 22 -16 58 -17
130 l-1 100 250 5 c138 3 256 9 263 13 27 18 5 267 -30 347 -29 65 -79 106
-155 130 -79 24 -168 24 -242 0z m233 -94 c51 -33 78 -89 89 -186 8 -70 8 -92
-3 -104 -10 -14 -43 -16 -206 -16 l-194 0 -6 26 c-10 41 3 145 25 196 19 45
67 91 106 101 41 11 163 0 189 -17z"/>
<path d="M2366 1668 c-71 -25 -124 -76 -148 -143 -29 -78 -43 -303 -29 -462
16 -184 50 -259 136 -302 63 -31 182 -42 252 -22 92 25 156 106 165 208 6 63
-5 76 -59 71 -36 -3 -38 -5 -45 -48 -10 -62 -34 -111 -66 -135 -21 -16 -43
-20 -99 -20 -62 0 -75 3 -98 25 -68 63 -94 229 -76 487 11 153 24 195 76 243
23 22 36 25 99 25 59 0 76 -4 100 -23 35 -27 55 -64 65 -117 6 -40 7 -40 51
-40 l45 0 3 47 c6 93 -53 174 -151 208 -71 25 -145 24 -221 -2z"/>
<path d="M3907 1670 c-97 -31 -146 -93 -155 -196 -9 -119 51 -201 208 -282 94
-49 146 -84 172 -117 49 -63 47 -174 -4 -225 -37 -37 -61 -43 -145 -38 -60 4
-68 7 -99 40 -24 26 -34 49 -39 85 -4 26 -8 53 -10 60 -6 17 -49 27 -81 19
-26 -7 -26 -9 -21 -59 10 -85 25 -123 67 -165 45 -44 93 -60 195 -64 95 -3
158 17 209 67 51 49 69 99 69 185 0 89 -18 135 -75 190 -29 28 -56 50 -61 50
-5 0 -36 16 -68 35 -33 19 -65 35 -70 35 -18 0 -106 74 -123 103 -22 40 -21
112 4 147 57 81 210 80 260 -2 11 -18 20 -47 20 -63 0 -39 16 -55 55 -55 50 0
58 11 50 66 -9 60 -39 121 -73 149 -70 55 -179 69 -285 35z"/>
<path d="M5215 1685 c-5 -2 -35 -11 -66 -20 -67 -19 -122 -67 -150 -132 -28
-66 -25 -81 16 -89 42 -7 85 16 85 46 0 11 14 35 31 55 38 42 92 59 172 52 79
-7 120 -36 147 -105 23 -62 27 -164 7 -181 -8 -6 -74 -15 -148 -20 -89 -6
-150 -16 -182 -28 -60 -24 -129 -82 -150 -125 -24 -50 -31 -147 -17 -223 11
-58 19 -72 60 -115 30 -30 61 -52 86 -59 50 -14 158 -14 208 0 39 11 136 76
136 92 0 4 5 5 10 2 6 -3 10 -21 10 -39 0 -17 5 -37 12 -44 16 -16 75 -15 85
1 4 6 6 180 4 386 -3 333 -5 378 -21 415 -26 60 -75 100 -146 120 -54 14 -162
21 -189 11z m236 -475 c17 -9 19 -22 19 -100 0 -131 -38 -212 -125 -269 -33
-21 -52 -26 -110 -26 -80 0 -110 16 -144 76 -23 40 -29 155 -12 201 22 57 91
98 206 122 42 8 147 6 166 -4z"/>
<path d="M6065 1670 c-27 -10 -70 -36 -94 -59 -47 -43 -61 -41 -61 10 0 34
-17 49 -57 49 -22 0 -36 -6 -43 -19 -15 -30 -14 -883 2 -899 13 -13 66 -16 85
-4 9 6 13 97 15 347 l3 340 30 45 c31 47 116 99 163 100 41 0 62 18 62 53 0
59 -22 67 -105 37z"/>
<path d="M6443 1671 c-97 -31 -153 -108 -153 -209 0 -79 28 -141 88 -192 49
-43 60 -49 157 -98 112 -57 175 -129 175 -201 0 -52 -29 -115 -63 -139 -26
-17 -47 -22 -101 -22 -107 0 -151 37 -164 137 -6 50 -10 59 -33 67 -14 5 -39
6 -54 2 l-27 -7 6 -72 c10 -105 61 -171 152 -196 51 -14 173 -14 230 0 67 17
125 80 147 158 22 78 21 104 -3 171 -28 76 -81 126 -204 189 -119 61 -155 91
-185 149 -26 51 -26 63 -2 110 27 53 51 71 103 78 101 14 170 -27 183 -108 9
-56 20 -68 60 -68 46 0 55 15 45 78 -15 91 -62 148 -144 176 -62 20 -145 19
-213 -3z"/>
</g>
</svg>
